%TF.GenerationSoftware,KiCad,Pcbnew,8.0.8-8.0.8-0~ubuntu24.04.1*%
%TF.CreationDate,2025-02-12T12:18:38-05:00*%
%TF.ProjectId,r2rdac,72327264-6163-42e6-9b69-6361645f7063,rev?*%
%TF.SameCoordinates,Original*%
%TF.FileFunction,Legend,Top*%
%TF.FilePolarity,Positive*%
%FSLAX46Y46*%
G04 Gerber Fmt 4.6, Leading zero omitted, Abs format (unit mm)*
G04 Created by KiCad (PCBNEW 8.0.8-8.0.8-0~ubuntu24.04.1) date 2025-02-12 12:18:38*
%MOMM*%
%LPD*%
G01*
G04 APERTURE LIST*
G04 Aperture macros list*
%AMRoundRect*
0 Rectangle with rounded corners*
0 $1 Rounding radius*
0 $2 $3 $4 $5 $6 $7 $8 $9 X,Y pos of 4 corners*
0 Add a 4 corners polygon primitive as box body*
4,1,4,$2,$3,$4,$5,$6,$7,$8,$9,$2,$3,0*
0 Add four circle primitives for the rounded corners*
1,1,$1+$1,$2,$3*
1,1,$1+$1,$4,$5*
1,1,$1+$1,$6,$7*
1,1,$1+$1,$8,$9*
0 Add four rect primitives between the rounded corners*
20,1,$1+$1,$2,$3,$4,$5,0*
20,1,$1+$1,$4,$5,$6,$7,0*
20,1,$1+$1,$6,$7,$8,$9,0*
20,1,$1+$1,$8,$9,$2,$3,0*%
G04 Aperture macros list end*
%ADD10C,0.152400*%
%ADD11C,0.120000*%
%ADD12C,0.000000*%
%ADD13RoundRect,0.200000X0.275000X-0.200000X0.275000X0.200000X-0.275000X0.200000X-0.275000X-0.200000X0*%
%ADD14RoundRect,0.200000X-0.275000X0.200000X-0.275000X-0.200000X0.275000X-0.200000X0.275000X0.200000X0*%
%ADD15RoundRect,0.225000X0.250000X-0.225000X0.250000X0.225000X-0.250000X0.225000X-0.250000X-0.225000X0*%
%ADD16R,1.700000X1.700000*%
%ADD17O,1.700000X1.700000*%
G04 APERTURE END LIST*
D10*
X107083344Y-94303070D02*
X106194344Y-94303070D01*
X106194344Y-94303070D02*
X106194344Y-94091403D01*
X106194344Y-94091403D02*
X106236677Y-93964403D01*
X106236677Y-93964403D02*
X106321344Y-93879737D01*
X106321344Y-93879737D02*
X106406011Y-93837403D01*
X106406011Y-93837403D02*
X106575344Y-93795070D01*
X106575344Y-93795070D02*
X106702344Y-93795070D01*
X106702344Y-93795070D02*
X106871677Y-93837403D01*
X106871677Y-93837403D02*
X106956344Y-93879737D01*
X106956344Y-93879737D02*
X107041011Y-93964403D01*
X107041011Y-93964403D02*
X107083344Y-94091403D01*
X107083344Y-94091403D02*
X107083344Y-94303070D01*
X107083344Y-92948403D02*
X107083344Y-93456403D01*
X107083344Y-93202403D02*
X106194344Y-93202403D01*
X106194344Y-93202403D02*
X106321344Y-93287070D01*
X106321344Y-93287070D02*
X106406011Y-93371737D01*
X106406011Y-93371737D02*
X106448344Y-93456403D01*
X122323344Y-94303070D02*
X121434344Y-94303070D01*
X121434344Y-94303070D02*
X121434344Y-94091403D01*
X121434344Y-94091403D02*
X121476677Y-93964403D01*
X121476677Y-93964403D02*
X121561344Y-93879737D01*
X121561344Y-93879737D02*
X121646011Y-93837403D01*
X121646011Y-93837403D02*
X121815344Y-93795070D01*
X121815344Y-93795070D02*
X121942344Y-93795070D01*
X121942344Y-93795070D02*
X122111677Y-93837403D01*
X122111677Y-93837403D02*
X122196344Y-93879737D01*
X122196344Y-93879737D02*
X122281011Y-93964403D01*
X122281011Y-93964403D02*
X122323344Y-94091403D01*
X122323344Y-94091403D02*
X122323344Y-94303070D01*
X121434344Y-93033070D02*
X121434344Y-93202403D01*
X121434344Y-93202403D02*
X121476677Y-93287070D01*
X121476677Y-93287070D02*
X121519011Y-93329403D01*
X121519011Y-93329403D02*
X121646011Y-93414070D01*
X121646011Y-93414070D02*
X121815344Y-93456403D01*
X121815344Y-93456403D02*
X122154011Y-93456403D01*
X122154011Y-93456403D02*
X122238677Y-93414070D01*
X122238677Y-93414070D02*
X122281011Y-93371737D01*
X122281011Y-93371737D02*
X122323344Y-93287070D01*
X122323344Y-93287070D02*
X122323344Y-93117737D01*
X122323344Y-93117737D02*
X122281011Y-93033070D01*
X122281011Y-93033070D02*
X122238677Y-92990737D01*
X122238677Y-92990737D02*
X122154011Y-92948403D01*
X122154011Y-92948403D02*
X121942344Y-92948403D01*
X121942344Y-92948403D02*
X121857677Y-92990737D01*
X121857677Y-92990737D02*
X121815344Y-93033070D01*
X121815344Y-93033070D02*
X121773011Y-93117737D01*
X121773011Y-93117737D02*
X121773011Y-93287070D01*
X121773011Y-93287070D02*
X121815344Y-93371737D01*
X121815344Y-93371737D02*
X121857677Y-93414070D01*
X121857677Y-93414070D02*
X121942344Y-93456403D01*
X136674344Y-94430070D02*
X137563344Y-94133737D01*
X137563344Y-94133737D02*
X136674344Y-93837403D01*
X137563344Y-93414070D02*
X137521011Y-93498737D01*
X137521011Y-93498737D02*
X137478677Y-93541070D01*
X137478677Y-93541070D02*
X137394011Y-93583403D01*
X137394011Y-93583403D02*
X137140011Y-93583403D01*
X137140011Y-93583403D02*
X137055344Y-93541070D01*
X137055344Y-93541070D02*
X137013011Y-93498737D01*
X137013011Y-93498737D02*
X136970677Y-93414070D01*
X136970677Y-93414070D02*
X136970677Y-93287070D01*
X136970677Y-93287070D02*
X137013011Y-93202403D01*
X137013011Y-93202403D02*
X137055344Y-93160070D01*
X137055344Y-93160070D02*
X137140011Y-93117737D01*
X137140011Y-93117737D02*
X137394011Y-93117737D01*
X137394011Y-93117737D02*
X137478677Y-93160070D01*
X137478677Y-93160070D02*
X137521011Y-93202403D01*
X137521011Y-93202403D02*
X137563344Y-93287070D01*
X137563344Y-93287070D02*
X137563344Y-93414070D01*
X136970677Y-92355737D02*
X137563344Y-92355737D01*
X136970677Y-92736737D02*
X137436344Y-92736737D01*
X137436344Y-92736737D02*
X137521011Y-92694404D01*
X137521011Y-92694404D02*
X137563344Y-92609737D01*
X137563344Y-92609737D02*
X137563344Y-92482737D01*
X137563344Y-92482737D02*
X137521011Y-92398070D01*
X137521011Y-92398070D02*
X137478677Y-92355737D01*
X136970677Y-92059404D02*
X136970677Y-91720737D01*
X136674344Y-91932404D02*
X137436344Y-91932404D01*
X137436344Y-91932404D02*
X137521011Y-91890071D01*
X137521011Y-91890071D02*
X137563344Y-91805404D01*
X137563344Y-91805404D02*
X137563344Y-91720737D01*
X119783344Y-94303070D02*
X118894344Y-94303070D01*
X118894344Y-94303070D02*
X118894344Y-94091403D01*
X118894344Y-94091403D02*
X118936677Y-93964403D01*
X118936677Y-93964403D02*
X119021344Y-93879737D01*
X119021344Y-93879737D02*
X119106011Y-93837403D01*
X119106011Y-93837403D02*
X119275344Y-93795070D01*
X119275344Y-93795070D02*
X119402344Y-93795070D01*
X119402344Y-93795070D02*
X119571677Y-93837403D01*
X119571677Y-93837403D02*
X119656344Y-93879737D01*
X119656344Y-93879737D02*
X119741011Y-93964403D01*
X119741011Y-93964403D02*
X119783344Y-94091403D01*
X119783344Y-94091403D02*
X119783344Y-94303070D01*
X118894344Y-92990737D02*
X118894344Y-93414070D01*
X118894344Y-93414070D02*
X119317677Y-93456403D01*
X119317677Y-93456403D02*
X119275344Y-93414070D01*
X119275344Y-93414070D02*
X119233011Y-93329403D01*
X119233011Y-93329403D02*
X119233011Y-93117737D01*
X119233011Y-93117737D02*
X119275344Y-93033070D01*
X119275344Y-93033070D02*
X119317677Y-92990737D01*
X119317677Y-92990737D02*
X119402344Y-92948403D01*
X119402344Y-92948403D02*
X119614011Y-92948403D01*
X119614011Y-92948403D02*
X119698677Y-92990737D01*
X119698677Y-92990737D02*
X119741011Y-93033070D01*
X119741011Y-93033070D02*
X119783344Y-93117737D01*
X119783344Y-93117737D02*
X119783344Y-93329403D01*
X119783344Y-93329403D02*
X119741011Y-93414070D01*
X119741011Y-93414070D02*
X119698677Y-93456403D01*
X124863344Y-94303070D02*
X123974344Y-94303070D01*
X123974344Y-94303070D02*
X123974344Y-94091403D01*
X123974344Y-94091403D02*
X124016677Y-93964403D01*
X124016677Y-93964403D02*
X124101344Y-93879737D01*
X124101344Y-93879737D02*
X124186011Y-93837403D01*
X124186011Y-93837403D02*
X124355344Y-93795070D01*
X124355344Y-93795070D02*
X124482344Y-93795070D01*
X124482344Y-93795070D02*
X124651677Y-93837403D01*
X124651677Y-93837403D02*
X124736344Y-93879737D01*
X124736344Y-93879737D02*
X124821011Y-93964403D01*
X124821011Y-93964403D02*
X124863344Y-94091403D01*
X124863344Y-94091403D02*
X124863344Y-94303070D01*
X123974344Y-93498737D02*
X123974344Y-92906070D01*
X123974344Y-92906070D02*
X124863344Y-93287070D01*
X136170737Y-86297677D02*
X136297737Y-86340011D01*
X136297737Y-86340011D02*
X136340070Y-86382344D01*
X136340070Y-86382344D02*
X136382403Y-86467011D01*
X136382403Y-86467011D02*
X136382403Y-86594011D01*
X136382403Y-86594011D02*
X136340070Y-86678677D01*
X136340070Y-86678677D02*
X136297737Y-86721011D01*
X136297737Y-86721011D02*
X136213070Y-86763344D01*
X136213070Y-86763344D02*
X135874403Y-86763344D01*
X135874403Y-86763344D02*
X135874403Y-85874344D01*
X135874403Y-85874344D02*
X136170737Y-85874344D01*
X136170737Y-85874344D02*
X136255403Y-85916677D01*
X136255403Y-85916677D02*
X136297737Y-85959011D01*
X136297737Y-85959011D02*
X136340070Y-86043677D01*
X136340070Y-86043677D02*
X136340070Y-86128344D01*
X136340070Y-86128344D02*
X136297737Y-86213011D01*
X136297737Y-86213011D02*
X136255403Y-86255344D01*
X136255403Y-86255344D02*
X136170737Y-86297677D01*
X136170737Y-86297677D02*
X135874403Y-86297677D01*
X136721070Y-86509344D02*
X137144403Y-86509344D01*
X136636403Y-86763344D02*
X136932737Y-85874344D01*
X136932737Y-85874344D02*
X137229070Y-86763344D01*
X137525403Y-86763344D02*
X137525403Y-85874344D01*
X137525403Y-85874344D02*
X137821737Y-86509344D01*
X137821737Y-86509344D02*
X138118070Y-85874344D01*
X138118070Y-85874344D02*
X138118070Y-86763344D01*
X129943344Y-94303070D02*
X129054344Y-94303070D01*
X129054344Y-94303070D02*
X129054344Y-94091403D01*
X129054344Y-94091403D02*
X129096677Y-93964403D01*
X129096677Y-93964403D02*
X129181344Y-93879737D01*
X129181344Y-93879737D02*
X129266011Y-93837403D01*
X129266011Y-93837403D02*
X129435344Y-93795070D01*
X129435344Y-93795070D02*
X129562344Y-93795070D01*
X129562344Y-93795070D02*
X129731677Y-93837403D01*
X129731677Y-93837403D02*
X129816344Y-93879737D01*
X129816344Y-93879737D02*
X129901011Y-93964403D01*
X129901011Y-93964403D02*
X129943344Y-94091403D01*
X129943344Y-94091403D02*
X129943344Y-94303070D01*
X129435344Y-93287070D02*
X129393011Y-93371737D01*
X129393011Y-93371737D02*
X129350677Y-93414070D01*
X129350677Y-93414070D02*
X129266011Y-93456403D01*
X129266011Y-93456403D02*
X129223677Y-93456403D01*
X129223677Y-93456403D02*
X129139011Y-93414070D01*
X129139011Y-93414070D02*
X129096677Y-93371737D01*
X129096677Y-93371737D02*
X129054344Y-93287070D01*
X129054344Y-93287070D02*
X129054344Y-93117737D01*
X129054344Y-93117737D02*
X129096677Y-93033070D01*
X129096677Y-93033070D02*
X129139011Y-92990737D01*
X129139011Y-92990737D02*
X129223677Y-92948403D01*
X129223677Y-92948403D02*
X129266011Y-92948403D01*
X129266011Y-92948403D02*
X129350677Y-92990737D01*
X129350677Y-92990737D02*
X129393011Y-93033070D01*
X129393011Y-93033070D02*
X129435344Y-93117737D01*
X129435344Y-93117737D02*
X129435344Y-93287070D01*
X129435344Y-93287070D02*
X129477677Y-93371737D01*
X129477677Y-93371737D02*
X129520011Y-93414070D01*
X129520011Y-93414070D02*
X129604677Y-93456403D01*
X129604677Y-93456403D02*
X129774011Y-93456403D01*
X129774011Y-93456403D02*
X129858677Y-93414070D01*
X129858677Y-93414070D02*
X129901011Y-93371737D01*
X129901011Y-93371737D02*
X129943344Y-93287070D01*
X129943344Y-93287070D02*
X129943344Y-93117737D01*
X129943344Y-93117737D02*
X129901011Y-93033070D01*
X129901011Y-93033070D02*
X129858677Y-92990737D01*
X129858677Y-92990737D02*
X129774011Y-92948403D01*
X129774011Y-92948403D02*
X129604677Y-92948403D01*
X129604677Y-92948403D02*
X129520011Y-92990737D01*
X129520011Y-92990737D02*
X129477677Y-93033070D01*
X129477677Y-93033070D02*
X129435344Y-93117737D01*
X118787333Y-85493344D02*
X118491000Y-85070011D01*
X118279333Y-85493344D02*
X118279333Y-84604344D01*
X118279333Y-84604344D02*
X118618000Y-84604344D01*
X118618000Y-84604344D02*
X118702667Y-84646677D01*
X118702667Y-84646677D02*
X118745000Y-84689011D01*
X118745000Y-84689011D02*
X118787333Y-84773677D01*
X118787333Y-84773677D02*
X118787333Y-84900677D01*
X118787333Y-84900677D02*
X118745000Y-84985344D01*
X118745000Y-84985344D02*
X118702667Y-85027677D01*
X118702667Y-85027677D02*
X118618000Y-85070011D01*
X118618000Y-85070011D02*
X118279333Y-85070011D01*
X119126000Y-84689011D02*
X119168333Y-84646677D01*
X119168333Y-84646677D02*
X119253000Y-84604344D01*
X119253000Y-84604344D02*
X119464667Y-84604344D01*
X119464667Y-84604344D02*
X119549333Y-84646677D01*
X119549333Y-84646677D02*
X119591667Y-84689011D01*
X119591667Y-84689011D02*
X119634000Y-84773677D01*
X119634000Y-84773677D02*
X119634000Y-84858344D01*
X119634000Y-84858344D02*
X119591667Y-84985344D01*
X119591667Y-84985344D02*
X119083667Y-85493344D01*
X119083667Y-85493344D02*
X119634000Y-85493344D01*
X120523000Y-85493344D02*
X120226667Y-85070011D01*
X120015000Y-85493344D02*
X120015000Y-84604344D01*
X120015000Y-84604344D02*
X120353667Y-84604344D01*
X120353667Y-84604344D02*
X120438334Y-84646677D01*
X120438334Y-84646677D02*
X120480667Y-84689011D01*
X120480667Y-84689011D02*
X120523000Y-84773677D01*
X120523000Y-84773677D02*
X120523000Y-84900677D01*
X120523000Y-84900677D02*
X120480667Y-84985344D01*
X120480667Y-84985344D02*
X120438334Y-85027677D01*
X120438334Y-85027677D02*
X120353667Y-85070011D01*
X120353667Y-85070011D02*
X120015000Y-85070011D01*
X120904000Y-85493344D02*
X120904000Y-84604344D01*
X120904000Y-84604344D02*
X121115667Y-84604344D01*
X121115667Y-84604344D02*
X121242667Y-84646677D01*
X121242667Y-84646677D02*
X121327334Y-84731344D01*
X121327334Y-84731344D02*
X121369667Y-84816011D01*
X121369667Y-84816011D02*
X121412000Y-84985344D01*
X121412000Y-84985344D02*
X121412000Y-85112344D01*
X121412000Y-85112344D02*
X121369667Y-85281677D01*
X121369667Y-85281677D02*
X121327334Y-85366344D01*
X121327334Y-85366344D02*
X121242667Y-85451011D01*
X121242667Y-85451011D02*
X121115667Y-85493344D01*
X121115667Y-85493344D02*
X120904000Y-85493344D01*
X121750667Y-85239344D02*
X122174000Y-85239344D01*
X121666000Y-85493344D02*
X121962334Y-84604344D01*
X121962334Y-84604344D02*
X122258667Y-85493344D01*
X123063000Y-85408677D02*
X123020667Y-85451011D01*
X123020667Y-85451011D02*
X122893667Y-85493344D01*
X122893667Y-85493344D02*
X122809000Y-85493344D01*
X122809000Y-85493344D02*
X122682000Y-85451011D01*
X122682000Y-85451011D02*
X122597334Y-85366344D01*
X122597334Y-85366344D02*
X122555000Y-85281677D01*
X122555000Y-85281677D02*
X122512667Y-85112344D01*
X122512667Y-85112344D02*
X122512667Y-84985344D01*
X122512667Y-84985344D02*
X122555000Y-84816011D01*
X122555000Y-84816011D02*
X122597334Y-84731344D01*
X122597334Y-84731344D02*
X122682000Y-84646677D01*
X122682000Y-84646677D02*
X122809000Y-84604344D01*
X122809000Y-84604344D02*
X122893667Y-84604344D01*
X122893667Y-84604344D02*
X123020667Y-84646677D01*
X123020667Y-84646677D02*
X123063000Y-84689011D01*
X104543344Y-94303070D02*
X103654344Y-94303070D01*
X103654344Y-94303070D02*
X103654344Y-94091403D01*
X103654344Y-94091403D02*
X103696677Y-93964403D01*
X103696677Y-93964403D02*
X103781344Y-93879737D01*
X103781344Y-93879737D02*
X103866011Y-93837403D01*
X103866011Y-93837403D02*
X104035344Y-93795070D01*
X104035344Y-93795070D02*
X104162344Y-93795070D01*
X104162344Y-93795070D02*
X104331677Y-93837403D01*
X104331677Y-93837403D02*
X104416344Y-93879737D01*
X104416344Y-93879737D02*
X104501011Y-93964403D01*
X104501011Y-93964403D02*
X104543344Y-94091403D01*
X104543344Y-94091403D02*
X104543344Y-94303070D01*
X103654344Y-93244737D02*
X103654344Y-93160070D01*
X103654344Y-93160070D02*
X103696677Y-93075403D01*
X103696677Y-93075403D02*
X103739011Y-93033070D01*
X103739011Y-93033070D02*
X103823677Y-92990737D01*
X103823677Y-92990737D02*
X103993011Y-92948403D01*
X103993011Y-92948403D02*
X104204677Y-92948403D01*
X104204677Y-92948403D02*
X104374011Y-92990737D01*
X104374011Y-92990737D02*
X104458677Y-93033070D01*
X104458677Y-93033070D02*
X104501011Y-93075403D01*
X104501011Y-93075403D02*
X104543344Y-93160070D01*
X104543344Y-93160070D02*
X104543344Y-93244737D01*
X104543344Y-93244737D02*
X104501011Y-93329403D01*
X104501011Y-93329403D02*
X104458677Y-93371737D01*
X104458677Y-93371737D02*
X104374011Y-93414070D01*
X104374011Y-93414070D02*
X104204677Y-93456403D01*
X104204677Y-93456403D02*
X103993011Y-93456403D01*
X103993011Y-93456403D02*
X103823677Y-93414070D01*
X103823677Y-93414070D02*
X103739011Y-93371737D01*
X103739011Y-93371737D02*
X103696677Y-93329403D01*
X103696677Y-93329403D02*
X103654344Y-93244737D01*
X109623344Y-94303070D02*
X108734344Y-94303070D01*
X108734344Y-94303070D02*
X108734344Y-94091403D01*
X108734344Y-94091403D02*
X108776677Y-93964403D01*
X108776677Y-93964403D02*
X108861344Y-93879737D01*
X108861344Y-93879737D02*
X108946011Y-93837403D01*
X108946011Y-93837403D02*
X109115344Y-93795070D01*
X109115344Y-93795070D02*
X109242344Y-93795070D01*
X109242344Y-93795070D02*
X109411677Y-93837403D01*
X109411677Y-93837403D02*
X109496344Y-93879737D01*
X109496344Y-93879737D02*
X109581011Y-93964403D01*
X109581011Y-93964403D02*
X109623344Y-94091403D01*
X109623344Y-94091403D02*
X109623344Y-94303070D01*
X108819011Y-93456403D02*
X108776677Y-93414070D01*
X108776677Y-93414070D02*
X108734344Y-93329403D01*
X108734344Y-93329403D02*
X108734344Y-93117737D01*
X108734344Y-93117737D02*
X108776677Y-93033070D01*
X108776677Y-93033070D02*
X108819011Y-92990737D01*
X108819011Y-92990737D02*
X108903677Y-92948403D01*
X108903677Y-92948403D02*
X108988344Y-92948403D01*
X108988344Y-92948403D02*
X109115344Y-92990737D01*
X109115344Y-92990737D02*
X109623344Y-93498737D01*
X109623344Y-93498737D02*
X109623344Y-92948403D01*
X132483344Y-94303070D02*
X131594344Y-94303070D01*
X131594344Y-94303070D02*
X131594344Y-94091403D01*
X131594344Y-94091403D02*
X131636677Y-93964403D01*
X131636677Y-93964403D02*
X131721344Y-93879737D01*
X131721344Y-93879737D02*
X131806011Y-93837403D01*
X131806011Y-93837403D02*
X131975344Y-93795070D01*
X131975344Y-93795070D02*
X132102344Y-93795070D01*
X132102344Y-93795070D02*
X132271677Y-93837403D01*
X132271677Y-93837403D02*
X132356344Y-93879737D01*
X132356344Y-93879737D02*
X132441011Y-93964403D01*
X132441011Y-93964403D02*
X132483344Y-94091403D01*
X132483344Y-94091403D02*
X132483344Y-94303070D01*
X132483344Y-93371737D02*
X132483344Y-93202403D01*
X132483344Y-93202403D02*
X132441011Y-93117737D01*
X132441011Y-93117737D02*
X132398677Y-93075403D01*
X132398677Y-93075403D02*
X132271677Y-92990737D01*
X132271677Y-92990737D02*
X132102344Y-92948403D01*
X132102344Y-92948403D02*
X131763677Y-92948403D01*
X131763677Y-92948403D02*
X131679011Y-92990737D01*
X131679011Y-92990737D02*
X131636677Y-93033070D01*
X131636677Y-93033070D02*
X131594344Y-93117737D01*
X131594344Y-93117737D02*
X131594344Y-93287070D01*
X131594344Y-93287070D02*
X131636677Y-93371737D01*
X131636677Y-93371737D02*
X131679011Y-93414070D01*
X131679011Y-93414070D02*
X131763677Y-93456403D01*
X131763677Y-93456403D02*
X131975344Y-93456403D01*
X131975344Y-93456403D02*
X132060011Y-93414070D01*
X132060011Y-93414070D02*
X132102344Y-93371737D01*
X132102344Y-93371737D02*
X132144677Y-93287070D01*
X132144677Y-93287070D02*
X132144677Y-93117737D01*
X132144677Y-93117737D02*
X132102344Y-93033070D01*
X132102344Y-93033070D02*
X132060011Y-92990737D01*
X132060011Y-92990737D02*
X131975344Y-92948403D01*
X130709735Y-84689011D02*
X130752068Y-84646677D01*
X130752068Y-84646677D02*
X130836735Y-84604344D01*
X130836735Y-84604344D02*
X131048402Y-84604344D01*
X131048402Y-84604344D02*
X131133068Y-84646677D01*
X131133068Y-84646677D02*
X131175402Y-84689011D01*
X131175402Y-84689011D02*
X131217735Y-84773677D01*
X131217735Y-84773677D02*
X131217735Y-84858344D01*
X131217735Y-84858344D02*
X131175402Y-84985344D01*
X131175402Y-84985344D02*
X130667402Y-85493344D01*
X130667402Y-85493344D02*
X131217735Y-85493344D01*
X132233735Y-84562011D02*
X131471735Y-85705011D01*
X132995735Y-85493344D02*
X132487735Y-85493344D01*
X132741735Y-85493344D02*
X132741735Y-84604344D01*
X132741735Y-84604344D02*
X132657068Y-84731344D01*
X132657068Y-84731344D02*
X132572402Y-84816011D01*
X132572402Y-84816011D02*
X132487735Y-84858344D01*
X133334402Y-84689011D02*
X133376735Y-84646677D01*
X133376735Y-84646677D02*
X133461402Y-84604344D01*
X133461402Y-84604344D02*
X133673069Y-84604344D01*
X133673069Y-84604344D02*
X133757735Y-84646677D01*
X133757735Y-84646677D02*
X133800069Y-84689011D01*
X133800069Y-84689011D02*
X133842402Y-84773677D01*
X133842402Y-84773677D02*
X133842402Y-84858344D01*
X133842402Y-84858344D02*
X133800069Y-84985344D01*
X133800069Y-84985344D02*
X133292069Y-85493344D01*
X133292069Y-85493344D02*
X133842402Y-85493344D01*
X134858402Y-84562011D02*
X134096402Y-85705011D01*
X135112402Y-84689011D02*
X135154735Y-84646677D01*
X135154735Y-84646677D02*
X135239402Y-84604344D01*
X135239402Y-84604344D02*
X135451069Y-84604344D01*
X135451069Y-84604344D02*
X135535735Y-84646677D01*
X135535735Y-84646677D02*
X135578069Y-84689011D01*
X135578069Y-84689011D02*
X135620402Y-84773677D01*
X135620402Y-84773677D02*
X135620402Y-84858344D01*
X135620402Y-84858344D02*
X135578069Y-84985344D01*
X135578069Y-84985344D02*
X135070069Y-85493344D01*
X135070069Y-85493344D02*
X135620402Y-85493344D01*
X136170736Y-84604344D02*
X136255402Y-84604344D01*
X136255402Y-84604344D02*
X136340069Y-84646677D01*
X136340069Y-84646677D02*
X136382402Y-84689011D01*
X136382402Y-84689011D02*
X136424736Y-84773677D01*
X136424736Y-84773677D02*
X136467069Y-84943011D01*
X136467069Y-84943011D02*
X136467069Y-85154677D01*
X136467069Y-85154677D02*
X136424736Y-85324011D01*
X136424736Y-85324011D02*
X136382402Y-85408677D01*
X136382402Y-85408677D02*
X136340069Y-85451011D01*
X136340069Y-85451011D02*
X136255402Y-85493344D01*
X136255402Y-85493344D02*
X136170736Y-85493344D01*
X136170736Y-85493344D02*
X136086069Y-85451011D01*
X136086069Y-85451011D02*
X136043736Y-85408677D01*
X136043736Y-85408677D02*
X136001402Y-85324011D01*
X136001402Y-85324011D02*
X135959069Y-85154677D01*
X135959069Y-85154677D02*
X135959069Y-84943011D01*
X135959069Y-84943011D02*
X136001402Y-84773677D01*
X136001402Y-84773677D02*
X136043736Y-84689011D01*
X136043736Y-84689011D02*
X136086069Y-84646677D01*
X136086069Y-84646677D02*
X136170736Y-84604344D01*
X136805736Y-84689011D02*
X136848069Y-84646677D01*
X136848069Y-84646677D02*
X136932736Y-84604344D01*
X136932736Y-84604344D02*
X137144403Y-84604344D01*
X137144403Y-84604344D02*
X137229069Y-84646677D01*
X137229069Y-84646677D02*
X137271403Y-84689011D01*
X137271403Y-84689011D02*
X137313736Y-84773677D01*
X137313736Y-84773677D02*
X137313736Y-84858344D01*
X137313736Y-84858344D02*
X137271403Y-84985344D01*
X137271403Y-84985344D02*
X136763403Y-85493344D01*
X136763403Y-85493344D02*
X137313736Y-85493344D01*
X138118070Y-84604344D02*
X137694736Y-84604344D01*
X137694736Y-84604344D02*
X137652403Y-85027677D01*
X137652403Y-85027677D02*
X137694736Y-84985344D01*
X137694736Y-84985344D02*
X137779403Y-84943011D01*
X137779403Y-84943011D02*
X137991070Y-84943011D01*
X137991070Y-84943011D02*
X138075736Y-84985344D01*
X138075736Y-84985344D02*
X138118070Y-85027677D01*
X138118070Y-85027677D02*
X138160403Y-85112344D01*
X138160403Y-85112344D02*
X138160403Y-85324011D01*
X138160403Y-85324011D02*
X138118070Y-85408677D01*
X138118070Y-85408677D02*
X138075736Y-85451011D01*
X138075736Y-85451011D02*
X137991070Y-85493344D01*
X137991070Y-85493344D02*
X137779403Y-85493344D01*
X137779403Y-85493344D02*
X137694736Y-85451011D01*
X137694736Y-85451011D02*
X137652403Y-85408677D01*
X126556677Y-93837403D02*
X126514344Y-93922070D01*
X126514344Y-93922070D02*
X126514344Y-94049070D01*
X126514344Y-94049070D02*
X126556677Y-94176070D01*
X126556677Y-94176070D02*
X126641344Y-94260737D01*
X126641344Y-94260737D02*
X126726011Y-94303070D01*
X126726011Y-94303070D02*
X126895344Y-94345403D01*
X126895344Y-94345403D02*
X127022344Y-94345403D01*
X127022344Y-94345403D02*
X127191677Y-94303070D01*
X127191677Y-94303070D02*
X127276344Y-94260737D01*
X127276344Y-94260737D02*
X127361011Y-94176070D01*
X127361011Y-94176070D02*
X127403344Y-94049070D01*
X127403344Y-94049070D02*
X127403344Y-93964403D01*
X127403344Y-93964403D02*
X127361011Y-93837403D01*
X127361011Y-93837403D02*
X127318677Y-93795070D01*
X127318677Y-93795070D02*
X127022344Y-93795070D01*
X127022344Y-93795070D02*
X127022344Y-93964403D01*
X127403344Y-93414070D02*
X126514344Y-93414070D01*
X126514344Y-93414070D02*
X127403344Y-92906070D01*
X127403344Y-92906070D02*
X126514344Y-92906070D01*
X127403344Y-92482737D02*
X126514344Y-92482737D01*
X126514344Y-92482737D02*
X126514344Y-92271070D01*
X126514344Y-92271070D02*
X126556677Y-92144070D01*
X126556677Y-92144070D02*
X126641344Y-92059404D01*
X126641344Y-92059404D02*
X126726011Y-92017070D01*
X126726011Y-92017070D02*
X126895344Y-91974737D01*
X126895344Y-91974737D02*
X127022344Y-91974737D01*
X127022344Y-91974737D02*
X127191677Y-92017070D01*
X127191677Y-92017070D02*
X127276344Y-92059404D01*
X127276344Y-92059404D02*
X127361011Y-92144070D01*
X127361011Y-92144070D02*
X127403344Y-92271070D01*
X127403344Y-92271070D02*
X127403344Y-92482737D01*
X112163344Y-94303070D02*
X111274344Y-94303070D01*
X111274344Y-94303070D02*
X111274344Y-94091403D01*
X111274344Y-94091403D02*
X111316677Y-93964403D01*
X111316677Y-93964403D02*
X111401344Y-93879737D01*
X111401344Y-93879737D02*
X111486011Y-93837403D01*
X111486011Y-93837403D02*
X111655344Y-93795070D01*
X111655344Y-93795070D02*
X111782344Y-93795070D01*
X111782344Y-93795070D02*
X111951677Y-93837403D01*
X111951677Y-93837403D02*
X112036344Y-93879737D01*
X112036344Y-93879737D02*
X112121011Y-93964403D01*
X112121011Y-93964403D02*
X112163344Y-94091403D01*
X112163344Y-94091403D02*
X112163344Y-94303070D01*
X111274344Y-93498737D02*
X111274344Y-92948403D01*
X111274344Y-92948403D02*
X111613011Y-93244737D01*
X111613011Y-93244737D02*
X111613011Y-93117737D01*
X111613011Y-93117737D02*
X111655344Y-93033070D01*
X111655344Y-93033070D02*
X111697677Y-92990737D01*
X111697677Y-92990737D02*
X111782344Y-92948403D01*
X111782344Y-92948403D02*
X111994011Y-92948403D01*
X111994011Y-92948403D02*
X112078677Y-92990737D01*
X112078677Y-92990737D02*
X112121011Y-93033070D01*
X112121011Y-93033070D02*
X112163344Y-93117737D01*
X112163344Y-93117737D02*
X112163344Y-93371737D01*
X112163344Y-93371737D02*
X112121011Y-93456403D01*
X112121011Y-93456403D02*
X112078677Y-93498737D01*
X117243344Y-94303070D02*
X116354344Y-94303070D01*
X116354344Y-94303070D02*
X116354344Y-94091403D01*
X116354344Y-94091403D02*
X116396677Y-93964403D01*
X116396677Y-93964403D02*
X116481344Y-93879737D01*
X116481344Y-93879737D02*
X116566011Y-93837403D01*
X116566011Y-93837403D02*
X116735344Y-93795070D01*
X116735344Y-93795070D02*
X116862344Y-93795070D01*
X116862344Y-93795070D02*
X117031677Y-93837403D01*
X117031677Y-93837403D02*
X117116344Y-93879737D01*
X117116344Y-93879737D02*
X117201011Y-93964403D01*
X117201011Y-93964403D02*
X117243344Y-94091403D01*
X117243344Y-94091403D02*
X117243344Y-94303070D01*
X116650677Y-93033070D02*
X117243344Y-93033070D01*
X116312011Y-93244737D02*
X116947011Y-93456403D01*
X116947011Y-93456403D02*
X116947011Y-92906070D01*
X134176677Y-93837403D02*
X134134344Y-93922070D01*
X134134344Y-93922070D02*
X134134344Y-94049070D01*
X134134344Y-94049070D02*
X134176677Y-94176070D01*
X134176677Y-94176070D02*
X134261344Y-94260737D01*
X134261344Y-94260737D02*
X134346011Y-94303070D01*
X134346011Y-94303070D02*
X134515344Y-94345403D01*
X134515344Y-94345403D02*
X134642344Y-94345403D01*
X134642344Y-94345403D02*
X134811677Y-94303070D01*
X134811677Y-94303070D02*
X134896344Y-94260737D01*
X134896344Y-94260737D02*
X134981011Y-94176070D01*
X134981011Y-94176070D02*
X135023344Y-94049070D01*
X135023344Y-94049070D02*
X135023344Y-93964403D01*
X135023344Y-93964403D02*
X134981011Y-93837403D01*
X134981011Y-93837403D02*
X134938677Y-93795070D01*
X134938677Y-93795070D02*
X134642344Y-93795070D01*
X134642344Y-93795070D02*
X134642344Y-93964403D01*
X135023344Y-93414070D02*
X134134344Y-93414070D01*
X134134344Y-93414070D02*
X135023344Y-92906070D01*
X135023344Y-92906070D02*
X134134344Y-92906070D01*
X135023344Y-92482737D02*
X134134344Y-92482737D01*
X134134344Y-92482737D02*
X134134344Y-92271070D01*
X134134344Y-92271070D02*
X134176677Y-92144070D01*
X134176677Y-92144070D02*
X134261344Y-92059404D01*
X134261344Y-92059404D02*
X134346011Y-92017070D01*
X134346011Y-92017070D02*
X134515344Y-91974737D01*
X134515344Y-91974737D02*
X134642344Y-91974737D01*
X134642344Y-91974737D02*
X134811677Y-92017070D01*
X134811677Y-92017070D02*
X134896344Y-92059404D01*
X134896344Y-92059404D02*
X134981011Y-92144070D01*
X134981011Y-92144070D02*
X135023344Y-92271070D01*
X135023344Y-92271070D02*
X135023344Y-92482737D01*
X113856677Y-93837403D02*
X113814344Y-93922070D01*
X113814344Y-93922070D02*
X113814344Y-94049070D01*
X113814344Y-94049070D02*
X113856677Y-94176070D01*
X113856677Y-94176070D02*
X113941344Y-94260737D01*
X113941344Y-94260737D02*
X114026011Y-94303070D01*
X114026011Y-94303070D02*
X114195344Y-94345403D01*
X114195344Y-94345403D02*
X114322344Y-94345403D01*
X114322344Y-94345403D02*
X114491677Y-94303070D01*
X114491677Y-94303070D02*
X114576344Y-94260737D01*
X114576344Y-94260737D02*
X114661011Y-94176070D01*
X114661011Y-94176070D02*
X114703344Y-94049070D01*
X114703344Y-94049070D02*
X114703344Y-93964403D01*
X114703344Y-93964403D02*
X114661011Y-93837403D01*
X114661011Y-93837403D02*
X114618677Y-93795070D01*
X114618677Y-93795070D02*
X114322344Y-93795070D01*
X114322344Y-93795070D02*
X114322344Y-93964403D01*
X114703344Y-93414070D02*
X113814344Y-93414070D01*
X113814344Y-93414070D02*
X114703344Y-92906070D01*
X114703344Y-92906070D02*
X113814344Y-92906070D01*
X114703344Y-92482737D02*
X113814344Y-92482737D01*
X113814344Y-92482737D02*
X113814344Y-92271070D01*
X113814344Y-92271070D02*
X113856677Y-92144070D01*
X113856677Y-92144070D02*
X113941344Y-92059404D01*
X113941344Y-92059404D02*
X114026011Y-92017070D01*
X114026011Y-92017070D02*
X114195344Y-91974737D01*
X114195344Y-91974737D02*
X114322344Y-91974737D01*
X114322344Y-91974737D02*
X114491677Y-92017070D01*
X114491677Y-92017070D02*
X114576344Y-92059404D01*
X114576344Y-92059404D02*
X114661011Y-92144070D01*
X114661011Y-92144070D02*
X114703344Y-92271070D01*
X114703344Y-92271070D02*
X114703344Y-92482737D01*
D11*
%TO.C,R12*%
X115428500Y-87422258D02*
X115428500Y-86947742D01*
X116473500Y-87422258D02*
X116473500Y-86947742D01*
%TO.C,R1*%
X106284500Y-89995742D02*
X106284500Y-90470258D01*
X107329500Y-89995742D02*
X107329500Y-90470258D01*
%TO.C,R19*%
X123048500Y-87422258D02*
X123048500Y-86947742D01*
X124093500Y-87422258D02*
X124093500Y-86947742D01*
%TO.C,R9*%
X112380500Y-87422258D02*
X112380500Y-86947742D01*
X113425500Y-87422258D02*
X113425500Y-86947742D01*
%TO.C,R7*%
X110856500Y-87422258D02*
X110856500Y-86947742D01*
X111901500Y-87422258D02*
X111901500Y-86947742D01*
%TO.C,R21*%
X124572500Y-87422258D02*
X124572500Y-86947742D01*
X125617500Y-87422258D02*
X125617500Y-86947742D01*
%TO.C,R27*%
X130668500Y-87422258D02*
X130668500Y-86947742D01*
X131713500Y-87422258D02*
X131713500Y-86947742D01*
%TO.C,R13*%
X116952500Y-87422258D02*
X116952500Y-86947742D01*
X117997500Y-87422258D02*
X117997500Y-86947742D01*
%TO.C,R28*%
X132192500Y-87422258D02*
X132192500Y-86947742D01*
X133237500Y-87422258D02*
X133237500Y-86947742D01*
%TO.C,R2*%
X107808500Y-89995742D02*
X107808500Y-90470258D01*
X108853500Y-89995742D02*
X108853500Y-90470258D01*
%TO.C,R22*%
X126096500Y-87422258D02*
X126096500Y-86947742D01*
X127141500Y-87422258D02*
X127141500Y-86947742D01*
%TO.C,C1*%
X133729000Y-87325580D02*
X133729000Y-87044420D01*
X134749000Y-87325580D02*
X134749000Y-87044420D01*
%TO.C,R10*%
X113904500Y-87422258D02*
X113904500Y-86947742D01*
X114949500Y-87422258D02*
X114949500Y-86947742D01*
%TO.C,R17*%
X121524500Y-89995742D02*
X121524500Y-90470258D01*
X122569500Y-89995742D02*
X122569500Y-90470258D01*
%TO.C,R8*%
X112380500Y-89995742D02*
X112380500Y-90470258D01*
X113425500Y-89995742D02*
X113425500Y-90470258D01*
%TO.C,R16*%
X120000500Y-87422258D02*
X120000500Y-86947742D01*
X121045500Y-87422258D02*
X121045500Y-86947742D01*
%TO.C,R4*%
X107808500Y-87422258D02*
X107808500Y-86947742D01*
X108853500Y-87422258D02*
X108853500Y-86947742D01*
%TO.C,R24*%
X127620500Y-87422258D02*
X127620500Y-86947742D01*
X128665500Y-87422258D02*
X128665500Y-86947742D01*
%TO.C,R29*%
X133716500Y-89932742D02*
X133716500Y-90407258D01*
X134761500Y-89932742D02*
X134761500Y-90407258D01*
%TO.C,R18*%
X121524500Y-87422258D02*
X121524500Y-86947742D01*
X122569500Y-87422258D02*
X122569500Y-86947742D01*
%TO.C,R3*%
X106284500Y-87422258D02*
X106284500Y-86947742D01*
X107329500Y-87422258D02*
X107329500Y-86947742D01*
%TO.C,R11*%
X115428500Y-89995742D02*
X115428500Y-90470258D01*
X116473500Y-89995742D02*
X116473500Y-90470258D01*
%TO.C,R20*%
X124572500Y-89995742D02*
X124572500Y-90470258D01*
X125617500Y-89995742D02*
X125617500Y-90470258D01*
D12*
%TO.C,OlinLogoSm*%
G36*
X103374434Y-88470670D02*
G01*
X103463724Y-88649195D01*
X103579828Y-88833089D01*
X103719968Y-89018500D01*
X103881366Y-89201572D01*
X104061245Y-89378454D01*
X104256827Y-89545291D01*
X104465334Y-89698229D01*
X104731790Y-89858979D01*
X104980684Y-89971862D01*
X105205725Y-90036745D01*
X105400624Y-90053496D01*
X105559090Y-90021981D01*
X105674835Y-89942068D01*
X105613926Y-90235506D01*
X105536143Y-90501004D01*
X105443112Y-90736991D01*
X105336462Y-90941892D01*
X105217819Y-91114136D01*
X105088811Y-91252147D01*
X104951065Y-91354354D01*
X104806208Y-91419183D01*
X104655869Y-91445061D01*
X104501674Y-91430414D01*
X104345251Y-91373670D01*
X104188226Y-91273256D01*
X104064209Y-91161139D01*
X103947720Y-91025938D01*
X103839246Y-90869570D01*
X103739277Y-90693956D01*
X103648301Y-90501014D01*
X103566805Y-90292662D01*
X103495278Y-90070819D01*
X103434209Y-89837405D01*
X103384085Y-89594338D01*
X103345394Y-89343537D01*
X103318626Y-89086920D01*
X103304268Y-88826407D01*
X103302808Y-88563917D01*
X103314735Y-88301367D01*
X103374434Y-88470670D01*
G37*
G36*
X104540359Y-86369562D02*
G01*
X104696783Y-86426303D01*
X104853807Y-86526711D01*
X104977818Y-86638822D01*
X105094301Y-86774019D01*
X105202770Y-86930384D01*
X105302736Y-87105997D01*
X105393710Y-87298940D01*
X105475204Y-87507294D01*
X105546730Y-87729139D01*
X105607800Y-87962557D01*
X105657926Y-88205629D01*
X105696619Y-88456436D01*
X105723390Y-88713059D01*
X105737753Y-88973579D01*
X105739218Y-89236076D01*
X105727298Y-89498633D01*
X105667589Y-89329322D01*
X105578291Y-89150797D01*
X105462182Y-88966907D01*
X105322041Y-88781504D01*
X105160644Y-88598441D01*
X104980769Y-88421569D01*
X104785195Y-88254740D01*
X104576699Y-88101804D01*
X104310243Y-87941049D01*
X104061348Y-87828156D01*
X103836304Y-87763263D01*
X103641400Y-87746508D01*
X103482924Y-87778029D01*
X103367165Y-87857965D01*
X103428082Y-87564506D01*
X103505871Y-87298992D01*
X103598907Y-87062995D01*
X103705561Y-86858087D01*
X103824208Y-86685840D01*
X103953218Y-86547828D01*
X104090966Y-86445622D01*
X104235824Y-86380794D01*
X104386164Y-86354916D01*
X104540359Y-86369562D01*
G37*
D11*
%TO.C,R6*%
X109332500Y-87422258D02*
X109332500Y-86947742D01*
X110377500Y-87422258D02*
X110377500Y-86947742D01*
%TO.C,R5*%
X109332500Y-89995742D02*
X109332500Y-90470258D01*
X110377500Y-89995742D02*
X110377500Y-90470258D01*
%TO.C,R26*%
X130668500Y-89995742D02*
X130668500Y-90470258D01*
X131713500Y-89995742D02*
X131713500Y-90470258D01*
%TO.C,R14*%
X118476500Y-89995742D02*
X118476500Y-90470258D01*
X119521500Y-89995742D02*
X119521500Y-90470258D01*
%TO.C,R25*%
X129144500Y-87422258D02*
X129144500Y-86947742D01*
X130189500Y-87422258D02*
X130189500Y-86947742D01*
%TO.C,R23*%
X127620500Y-89995742D02*
X127620500Y-90470258D01*
X128665500Y-89995742D02*
X128665500Y-90470258D01*
%TO.C,R15*%
X118476500Y-87422258D02*
X118476500Y-86947742D01*
X119521500Y-87422258D02*
X119521500Y-86947742D01*
%TD*%
%LPC*%
D13*
%TO.C,R12*%
X115951000Y-88010000D03*
X115951000Y-86360000D03*
%TD*%
D14*
%TO.C,R1*%
X106807000Y-89408000D03*
X106807000Y-91058000D03*
%TD*%
D13*
%TO.C,R19*%
X123571000Y-88010000D03*
X123571000Y-86360000D03*
%TD*%
%TO.C,R9*%
X112903000Y-88010000D03*
X112903000Y-86360000D03*
%TD*%
%TO.C,R7*%
X111379000Y-88010000D03*
X111379000Y-86360000D03*
%TD*%
%TO.C,R21*%
X125095000Y-88010000D03*
X125095000Y-86360000D03*
%TD*%
%TO.C,R27*%
X131191000Y-88010000D03*
X131191000Y-86360000D03*
%TD*%
%TO.C,R13*%
X117475000Y-88010000D03*
X117475000Y-86360000D03*
%TD*%
%TO.C,R28*%
X132715000Y-88010000D03*
X132715000Y-86360000D03*
%TD*%
D14*
%TO.C,R2*%
X108331000Y-89408000D03*
X108331000Y-91058000D03*
%TD*%
D13*
%TO.C,R22*%
X126619000Y-88010000D03*
X126619000Y-86360000D03*
%TD*%
D15*
%TO.C,C1*%
X134239000Y-87960000D03*
X134239000Y-86410000D03*
%TD*%
D13*
%TO.C,R10*%
X114427000Y-88010000D03*
X114427000Y-86360000D03*
%TD*%
D14*
%TO.C,R17*%
X122047000Y-89408000D03*
X122047000Y-91058000D03*
%TD*%
%TO.C,R8*%
X112903000Y-89408000D03*
X112903000Y-91058000D03*
%TD*%
D13*
%TO.C,R16*%
X120523000Y-88010000D03*
X120523000Y-86360000D03*
%TD*%
%TO.C,R4*%
X108331000Y-88010000D03*
X108331000Y-86360000D03*
%TD*%
%TO.C,R24*%
X128143000Y-88010000D03*
X128143000Y-86360000D03*
%TD*%
D14*
%TO.C,R29*%
X134239000Y-89345000D03*
X134239000Y-90995000D03*
%TD*%
D13*
%TO.C,R18*%
X122047000Y-88010000D03*
X122047000Y-86360000D03*
%TD*%
%TO.C,R3*%
X106807000Y-88010000D03*
X106807000Y-86360000D03*
%TD*%
D14*
%TO.C,R11*%
X115951000Y-89408000D03*
X115951000Y-91058000D03*
%TD*%
%TO.C,R20*%
X125095000Y-89408000D03*
X125095000Y-91058000D03*
%TD*%
D13*
%TO.C,R6*%
X109855000Y-88010000D03*
X109855000Y-86360000D03*
%TD*%
D14*
%TO.C,R5*%
X109855000Y-89408000D03*
X109855000Y-91058000D03*
%TD*%
%TO.C,R26*%
X131191000Y-89408000D03*
X131191000Y-91058000D03*
%TD*%
%TO.C,R14*%
X118999000Y-89408000D03*
X118999000Y-91058000D03*
%TD*%
D13*
%TO.C,R25*%
X129667000Y-88010000D03*
X129667000Y-86360000D03*
%TD*%
D14*
%TO.C,R23*%
X128143000Y-89408000D03*
X128143000Y-91058000D03*
%TD*%
D13*
%TO.C,R15*%
X118999000Y-88010000D03*
X118999000Y-86360000D03*
%TD*%
D16*
%TO.C,J1*%
X104140000Y-96520000D03*
D17*
X106680000Y-96520000D03*
X109220000Y-96520000D03*
X111760000Y-96520000D03*
X114300000Y-96520000D03*
X116840000Y-96520000D03*
X119380000Y-96520000D03*
X121920000Y-96520000D03*
X124460000Y-96520000D03*
X127000000Y-96520000D03*
X129540000Y-96520000D03*
X132080000Y-96520000D03*
X134620000Y-96520000D03*
X137160000Y-96520000D03*
%TD*%
%LPD*%
M02*
