%TF.GenerationSoftware,KiCad,Pcbnew,8.0.8-8.0.8-0~ubuntu24.04.1*%
%TF.CreationDate,2025-02-12T12:18:38-05:00*%
%TF.ProjectId,r2rdac,72327264-6163-42e6-9b69-6361645f7063,rev?*%
%TF.SameCoordinates,Original*%
%TF.FileFunction,Soldermask,Top*%
%TF.FilePolarity,Negative*%
%FSLAX46Y46*%
G04 Gerber Fmt 4.6, Leading zero omitted, Abs format (unit mm)*
G04 Created by KiCad (PCBNEW 8.0.8-8.0.8-0~ubuntu24.04.1) date 2025-02-12 12:18:38*
%MOMM*%
%LPD*%
G01*
G04 APERTURE LIST*
G04 Aperture macros list*
%AMRoundRect*
0 Rectangle with rounded corners*
0 $1 Rounding radius*
0 $2 $3 $4 $5 $6 $7 $8 $9 X,Y pos of 4 corners*
0 Add a 4 corners polygon primitive as box body*
4,1,4,$2,$3,$4,$5,$6,$7,$8,$9,$2,$3,0*
0 Add four circle primitives for the rounded corners*
1,1,$1+$1,$2,$3*
1,1,$1+$1,$4,$5*
1,1,$1+$1,$6,$7*
1,1,$1+$1,$8,$9*
0 Add four rect primitives between the rounded corners*
20,1,$1+$1,$2,$3,$4,$5,0*
20,1,$1+$1,$4,$5,$6,$7,0*
20,1,$1+$1,$6,$7,$8,$9,0*
20,1,$1+$1,$8,$9,$2,$3,0*%
G04 Aperture macros list end*
%ADD10RoundRect,0.200000X0.275000X-0.200000X0.275000X0.200000X-0.275000X0.200000X-0.275000X-0.200000X0*%
%ADD11RoundRect,0.200000X-0.275000X0.200000X-0.275000X-0.200000X0.275000X-0.200000X0.275000X0.200000X0*%
%ADD12RoundRect,0.225000X0.250000X-0.225000X0.250000X0.225000X-0.250000X0.225000X-0.250000X-0.225000X0*%
%ADD13R,1.700000X1.700000*%
%ADD14O,1.700000X1.700000*%
G04 APERTURE END LIST*
D10*
%TO.C,R12*%
X115951000Y-88010000D03*
X115951000Y-86360000D03*
%TD*%
D11*
%TO.C,R1*%
X106807000Y-89408000D03*
X106807000Y-91058000D03*
%TD*%
D10*
%TO.C,R19*%
X123571000Y-88010000D03*
X123571000Y-86360000D03*
%TD*%
%TO.C,R9*%
X112903000Y-88010000D03*
X112903000Y-86360000D03*
%TD*%
%TO.C,R7*%
X111379000Y-88010000D03*
X111379000Y-86360000D03*
%TD*%
%TO.C,R21*%
X125095000Y-88010000D03*
X125095000Y-86360000D03*
%TD*%
%TO.C,R27*%
X131191000Y-88010000D03*
X131191000Y-86360000D03*
%TD*%
%TO.C,R13*%
X117475000Y-88010000D03*
X117475000Y-86360000D03*
%TD*%
%TO.C,R28*%
X132715000Y-88010000D03*
X132715000Y-86360000D03*
%TD*%
D11*
%TO.C,R2*%
X108331000Y-89408000D03*
X108331000Y-91058000D03*
%TD*%
D10*
%TO.C,R22*%
X126619000Y-88010000D03*
X126619000Y-86360000D03*
%TD*%
D12*
%TO.C,C1*%
X134239000Y-87960000D03*
X134239000Y-86410000D03*
%TD*%
D10*
%TO.C,R10*%
X114427000Y-88010000D03*
X114427000Y-86360000D03*
%TD*%
D11*
%TO.C,R17*%
X122047000Y-89408000D03*
X122047000Y-91058000D03*
%TD*%
%TO.C,R8*%
X112903000Y-89408000D03*
X112903000Y-91058000D03*
%TD*%
D10*
%TO.C,R16*%
X120523000Y-88010000D03*
X120523000Y-86360000D03*
%TD*%
%TO.C,R4*%
X108331000Y-88010000D03*
X108331000Y-86360000D03*
%TD*%
%TO.C,R24*%
X128143000Y-88010000D03*
X128143000Y-86360000D03*
%TD*%
D11*
%TO.C,R29*%
X134239000Y-89345000D03*
X134239000Y-90995000D03*
%TD*%
D10*
%TO.C,R18*%
X122047000Y-88010000D03*
X122047000Y-86360000D03*
%TD*%
%TO.C,R3*%
X106807000Y-88010000D03*
X106807000Y-86360000D03*
%TD*%
D11*
%TO.C,R11*%
X115951000Y-89408000D03*
X115951000Y-91058000D03*
%TD*%
%TO.C,R20*%
X125095000Y-89408000D03*
X125095000Y-91058000D03*
%TD*%
D10*
%TO.C,R6*%
X109855000Y-88010000D03*
X109855000Y-86360000D03*
%TD*%
D11*
%TO.C,R5*%
X109855000Y-89408000D03*
X109855000Y-91058000D03*
%TD*%
%TO.C,R26*%
X131191000Y-89408000D03*
X131191000Y-91058000D03*
%TD*%
%TO.C,R14*%
X118999000Y-89408000D03*
X118999000Y-91058000D03*
%TD*%
D10*
%TO.C,R25*%
X129667000Y-88010000D03*
X129667000Y-86360000D03*
%TD*%
D11*
%TO.C,R23*%
X128143000Y-89408000D03*
X128143000Y-91058000D03*
%TD*%
D10*
%TO.C,R15*%
X118999000Y-88010000D03*
X118999000Y-86360000D03*
%TD*%
D13*
%TO.C,J1*%
X104140000Y-96520000D03*
D14*
X106680000Y-96520000D03*
X109220000Y-96520000D03*
X111760000Y-96520000D03*
X114300000Y-96520000D03*
X116840000Y-96520000D03*
X119380000Y-96520000D03*
X121920000Y-96520000D03*
X124460000Y-96520000D03*
X127000000Y-96520000D03*
X129540000Y-96520000D03*
X132080000Y-96520000D03*
X134620000Y-96520000D03*
X137160000Y-96520000D03*
%TD*%
M02*
