%TF.GenerationSoftware,KiCad,Pcbnew,8.0.8-8.0.8-0~ubuntu24.04.1*%
%TF.CreationDate,2025-02-12T12:18:38-05:00*%
%TF.ProjectId,r2rdac,72327264-6163-42e6-9b69-6361645f7063,rev?*%
%TF.SameCoordinates,Original*%
%TF.FileFunction,Copper,L1,Top*%
%TF.FilePolarity,Positive*%
%FSLAX46Y46*%
G04 Gerber Fmt 4.6, Leading zero omitted, Abs format (unit mm)*
G04 Created by KiCad (PCBNEW 8.0.8-8.0.8-0~ubuntu24.04.1) date 2025-02-12 12:18:38*
%MOMM*%
%LPD*%
G01*
G04 APERTURE LIST*
G04 Aperture macros list*
%AMRoundRect*
0 Rectangle with rounded corners*
0 $1 Rounding radius*
0 $2 $3 $4 $5 $6 $7 $8 $9 X,Y pos of 4 corners*
0 Add a 4 corners polygon primitive as box body*
4,1,4,$2,$3,$4,$5,$6,$7,$8,$9,$2,$3,0*
0 Add four circle primitives for the rounded corners*
1,1,$1+$1,$2,$3*
1,1,$1+$1,$4,$5*
1,1,$1+$1,$6,$7*
1,1,$1+$1,$8,$9*
0 Add four rect primitives between the rounded corners*
20,1,$1+$1,$2,$3,$4,$5,0*
20,1,$1+$1,$4,$5,$6,$7,0*
20,1,$1+$1,$6,$7,$8,$9,0*
20,1,$1+$1,$8,$9,$2,$3,0*%
G04 Aperture macros list end*
%TA.AperFunction,SMDPad,CuDef*%
%ADD10RoundRect,0.200000X0.275000X-0.200000X0.275000X0.200000X-0.275000X0.200000X-0.275000X-0.200000X0*%
%TD*%
%TA.AperFunction,SMDPad,CuDef*%
%ADD11RoundRect,0.200000X-0.275000X0.200000X-0.275000X-0.200000X0.275000X-0.200000X0.275000X0.200000X0*%
%TD*%
%TA.AperFunction,SMDPad,CuDef*%
%ADD12RoundRect,0.225000X0.250000X-0.225000X0.250000X0.225000X-0.250000X0.225000X-0.250000X-0.225000X0*%
%TD*%
%TA.AperFunction,ComponentPad*%
%ADD13R,1.700000X1.700000*%
%TD*%
%TA.AperFunction,ComponentPad*%
%ADD14O,1.700000X1.700000*%
%TD*%
%TA.AperFunction,ViaPad*%
%ADD15C,0.609600*%
%TD*%
%TA.AperFunction,Conductor*%
%ADD16C,0.381000*%
%TD*%
%TA.AperFunction,Conductor*%
%ADD17C,0.152400*%
%TD*%
G04 APERTURE END LIST*
D10*
%TO.P,R12,1*%
%TO.N,Net-(R10-Pad2)*%
X115951000Y-88010000D03*
%TO.P,R12,2*%
%TO.N,Net-(R12-Pad2)*%
X115951000Y-86360000D03*
%TD*%
D11*
%TO.P,R1,1*%
%TO.N,Net-(R1-Pad1)*%
X106807000Y-89408000D03*
%TO.P,R1,2*%
%TO.N,GND*%
X106807000Y-91058000D03*
%TD*%
D10*
%TO.P,R19,1*%
%TO.N,Net-(R15-Pad2)*%
X123571000Y-88010000D03*
%TO.P,R19,2*%
%TO.N,Net-(R18-Pad2)*%
X123571000Y-86360000D03*
%TD*%
%TO.P,R9,1*%
%TO.N,Net-(R10-Pad1)*%
X112903000Y-88010000D03*
%TO.P,R9,2*%
%TO.N,Net-(R10-Pad2)*%
X112903000Y-86360000D03*
%TD*%
%TO.P,R7,1*%
%TO.N,Net-(R3-Pad2)*%
X111379000Y-88010000D03*
%TO.P,R7,2*%
%TO.N,Net-(R10-Pad1)*%
X111379000Y-86360000D03*
%TD*%
%TO.P,R21,1*%
%TO.N,Net-(R18-Pad2)*%
X125095000Y-88010000D03*
%TO.P,R21,2*%
%TO.N,Net-(R21-Pad2)*%
X125095000Y-86360000D03*
%TD*%
%TO.P,R27,1*%
%TO.N,Net-(R24-Pad2)*%
X131191000Y-88010000D03*
%TO.P,R27,2*%
%TO.N,/Vout*%
X131191000Y-86360000D03*
%TD*%
%TO.P,R13,1*%
%TO.N,Net-(R10-Pad2)*%
X117475000Y-88010000D03*
%TO.P,R13,2*%
%TO.N,Net-(R12-Pad2)*%
X117475000Y-86360000D03*
%TD*%
%TO.P,R28,1*%
%TO.N,Net-(R24-Pad2)*%
X132715000Y-88010000D03*
%TO.P,R28,2*%
%TO.N,/Vout*%
X132715000Y-86360000D03*
%TD*%
D11*
%TO.P,R2,1*%
%TO.N,Net-(R1-Pad1)*%
X108331000Y-89408000D03*
%TO.P,R2,2*%
%TO.N,/D0*%
X108331000Y-91058000D03*
%TD*%
D10*
%TO.P,R22,1*%
%TO.N,Net-(R18-Pad2)*%
X126619000Y-88010000D03*
%TO.P,R22,2*%
%TO.N,Net-(R21-Pad2)*%
X126619000Y-86360000D03*
%TD*%
D12*
%TO.P,C1,1*%
%TO.N,/Vout*%
X134239000Y-87960000D03*
%TO.P,C1,2*%
%TO.N,GND*%
X134239000Y-86410000D03*
%TD*%
D10*
%TO.P,R10,1*%
%TO.N,Net-(R10-Pad1)*%
X114427000Y-88010000D03*
%TO.P,R10,2*%
%TO.N,Net-(R10-Pad2)*%
X114427000Y-86360000D03*
%TD*%
D11*
%TO.P,R17,1*%
%TO.N,Net-(R15-Pad2)*%
X122047000Y-89408000D03*
%TO.P,R17,2*%
%TO.N,/D5*%
X122047000Y-91058000D03*
%TD*%
%TO.P,R8,1*%
%TO.N,Net-(R10-Pad1)*%
X112903000Y-89408000D03*
%TO.P,R8,2*%
%TO.N,/D2*%
X112903000Y-91058000D03*
%TD*%
D10*
%TO.P,R16,1*%
%TO.N,Net-(R12-Pad2)*%
X120523000Y-88010000D03*
%TO.P,R16,2*%
%TO.N,Net-(R15-Pad2)*%
X120523000Y-86360000D03*
%TD*%
%TO.P,R4,1*%
%TO.N,Net-(R1-Pad1)*%
X108331000Y-88010000D03*
%TO.P,R4,2*%
%TO.N,Net-(R3-Pad2)*%
X108331000Y-86360000D03*
%TD*%
%TO.P,R24,1*%
%TO.N,Net-(R21-Pad2)*%
X128143000Y-88010000D03*
%TO.P,R24,2*%
%TO.N,Net-(R24-Pad2)*%
X128143000Y-86360000D03*
%TD*%
D11*
%TO.P,R29,1*%
%TO.N,/Vout*%
X134239000Y-89345000D03*
%TO.P,R29,2*%
%TO.N,/D9*%
X134239000Y-90995000D03*
%TD*%
D10*
%TO.P,R18,1*%
%TO.N,Net-(R15-Pad2)*%
X122047000Y-88010000D03*
%TO.P,R18,2*%
%TO.N,Net-(R18-Pad2)*%
X122047000Y-86360000D03*
%TD*%
%TO.P,R3,1*%
%TO.N,Net-(R1-Pad1)*%
X106807000Y-88010000D03*
%TO.P,R3,2*%
%TO.N,Net-(R3-Pad2)*%
X106807000Y-86360000D03*
%TD*%
D11*
%TO.P,R11,1*%
%TO.N,Net-(R10-Pad2)*%
X115951000Y-89408000D03*
%TO.P,R11,2*%
%TO.N,/D3*%
X115951000Y-91058000D03*
%TD*%
%TO.P,R20,1*%
%TO.N,Net-(R18-Pad2)*%
X125095000Y-89408000D03*
%TO.P,R20,2*%
%TO.N,/D6*%
X125095000Y-91058000D03*
%TD*%
D10*
%TO.P,R6,1*%
%TO.N,Net-(R3-Pad2)*%
X109855000Y-88010000D03*
%TO.P,R6,2*%
%TO.N,Net-(R10-Pad1)*%
X109855000Y-86360000D03*
%TD*%
D11*
%TO.P,R5,1*%
%TO.N,Net-(R3-Pad2)*%
X109855000Y-89408000D03*
%TO.P,R5,2*%
%TO.N,/D1*%
X109855000Y-91058000D03*
%TD*%
%TO.P,R26,1*%
%TO.N,Net-(R24-Pad2)*%
X131191000Y-89408000D03*
%TO.P,R26,2*%
%TO.N,/D8*%
X131191000Y-91058000D03*
%TD*%
%TO.P,R14,1*%
%TO.N,Net-(R12-Pad2)*%
X118999000Y-89408000D03*
%TO.P,R14,2*%
%TO.N,/D4*%
X118999000Y-91058000D03*
%TD*%
D10*
%TO.P,R25,1*%
%TO.N,Net-(R21-Pad2)*%
X129667000Y-88010000D03*
%TO.P,R25,2*%
%TO.N,Net-(R24-Pad2)*%
X129667000Y-86360000D03*
%TD*%
D11*
%TO.P,R23,1*%
%TO.N,Net-(R21-Pad2)*%
X128143000Y-89408000D03*
%TO.P,R23,2*%
%TO.N,/D7*%
X128143000Y-91058000D03*
%TD*%
D10*
%TO.P,R15,1*%
%TO.N,Net-(R12-Pad2)*%
X118999000Y-88010000D03*
%TO.P,R15,2*%
%TO.N,Net-(R15-Pad2)*%
X118999000Y-86360000D03*
%TD*%
D13*
%TO.P,J1,1,Pin_1*%
%TO.N,/D0*%
X104140000Y-96520000D03*
D14*
%TO.P,J1,2,Pin_2*%
%TO.N,/D1*%
X106680000Y-96520000D03*
%TO.P,J1,3,Pin_3*%
%TO.N,/D2*%
X109220000Y-96520000D03*
%TO.P,J1,4,Pin_4*%
%TO.N,/D3*%
X111760000Y-96520000D03*
%TO.P,J1,5,Pin_5*%
%TO.N,GND*%
X114300000Y-96520000D03*
%TO.P,J1,6,Pin_6*%
%TO.N,/D4*%
X116840000Y-96520000D03*
%TO.P,J1,7,Pin_7*%
%TO.N,/D5*%
X119380000Y-96520000D03*
%TO.P,J1,8,Pin_8*%
%TO.N,/D6*%
X121920000Y-96520000D03*
%TO.P,J1,9,Pin_9*%
%TO.N,/D7*%
X124460000Y-96520000D03*
%TO.P,J1,10,Pin_10*%
%TO.N,GND*%
X127000000Y-96520000D03*
%TO.P,J1,11,Pin_11*%
%TO.N,/D8*%
X129540000Y-96520000D03*
%TO.P,J1,12,Pin_12*%
%TO.N,/D9*%
X132080000Y-96520000D03*
%TO.P,J1,13,Pin_13*%
%TO.N,GND*%
X134620000Y-96520000D03*
%TO.P,J1,14,Pin_14*%
%TO.N,/Vout*%
X137160000Y-96520000D03*
%TD*%
D15*
%TO.N,GND*%
X135102600Y-86410800D03*
X106807000Y-91795600D03*
%TD*%
D16*
%TO.N,GND*%
X134239000Y-86410000D02*
X135101800Y-86410000D01*
X135101800Y-86410000D02*
X135102600Y-86410800D01*
X106807000Y-91058000D02*
X106807000Y-91795600D01*
D17*
%TO.N,/Vout*%
X134379200Y-89345000D02*
X137160000Y-92125800D01*
X137160000Y-92125800D02*
X137160000Y-96520000D01*
X133477000Y-87249000D02*
X134188000Y-87960000D01*
X132715000Y-86360000D02*
X132816600Y-86360000D01*
X134239000Y-89345000D02*
X134379200Y-89345000D01*
X131191000Y-86360000D02*
X132715000Y-86360000D01*
X134188000Y-87960000D02*
X134239000Y-87960000D01*
X134239000Y-89345000D02*
X134239000Y-87960000D01*
X132816600Y-86360000D02*
X133477000Y-87020400D01*
X133477000Y-87020400D02*
X133477000Y-87249000D01*
%TO.N,/D3*%
X115951000Y-92329000D02*
X111760000Y-96520000D01*
X115951000Y-91058000D02*
X115951000Y-92329000D01*
%TO.N,/D6*%
X125095000Y-91058000D02*
X125095000Y-93345000D01*
X125095000Y-93345000D02*
X121920000Y-96520000D01*
%TO.N,/D7*%
X128143000Y-91058000D02*
X128143000Y-92837000D01*
X128143000Y-92837000D02*
X124460000Y-96520000D01*
%TO.N,/D1*%
X109855000Y-91058000D02*
X109855000Y-93345000D01*
X109855000Y-93345000D02*
X106680000Y-96520000D01*
%TO.N,/D0*%
X108331000Y-92329000D02*
X104140000Y-96520000D01*
X108331000Y-91058000D02*
X108331000Y-92329000D01*
%TO.N,/D2*%
X112903000Y-92837000D02*
X109220000Y-96520000D01*
X112903000Y-91058000D02*
X112903000Y-92837000D01*
%TO.N,/D4*%
X118999000Y-94361000D02*
X116840000Y-96520000D01*
X118999000Y-91058000D02*
X118999000Y-94361000D01*
%TO.N,/D9*%
X134239000Y-90995000D02*
X134239000Y-94361000D01*
X134239000Y-94361000D02*
X132080000Y-96520000D01*
%TO.N,/D8*%
X131191000Y-91058000D02*
X131191000Y-94869000D01*
X131191000Y-94869000D02*
X129540000Y-96520000D01*
%TO.N,/D5*%
X122047000Y-91058000D02*
X122047000Y-93853000D01*
X122047000Y-93853000D02*
X119380000Y-96520000D01*
%TO.N,Net-(R1-Pad1)*%
X106807000Y-88010000D02*
X106807000Y-89408000D01*
X108331000Y-89408000D02*
X108331000Y-88010000D01*
X108331000Y-88010000D02*
X106807000Y-88010000D01*
%TO.N,Net-(R3-Pad2)*%
X111379000Y-88010000D02*
X109855000Y-88010000D01*
X108432600Y-86360000D02*
X108331000Y-86360000D01*
X109752400Y-88010000D02*
X109093000Y-87350600D01*
X109093000Y-87350600D02*
X109093000Y-87020400D01*
X109855000Y-89408000D02*
X109855000Y-88010000D01*
X109855000Y-88010000D02*
X109752400Y-88010000D01*
X106807000Y-86360000D02*
X108331000Y-86360000D01*
X109093000Y-87020400D02*
X108432600Y-86360000D01*
%TO.N,Net-(R10-Pad1)*%
X112141000Y-87350600D02*
X112800400Y-88010000D01*
X112800400Y-88010000D02*
X112903000Y-88010000D01*
X112903000Y-89408000D02*
X112903000Y-88010000D01*
X109855000Y-86360000D02*
X111379000Y-86360000D01*
X111480600Y-86360000D02*
X112141000Y-87020400D01*
X112903000Y-88010000D02*
X114427000Y-88010000D01*
X112141000Y-87020400D02*
X112141000Y-87350600D01*
X111379000Y-86360000D02*
X111480600Y-86360000D01*
%TO.N,Net-(R10-Pad2)*%
X114427000Y-86360000D02*
X114528600Y-86360000D01*
X115951000Y-89408000D02*
X115951000Y-88010000D01*
X115189000Y-87020400D02*
X115189000Y-87325200D01*
X115189000Y-87325200D02*
X115873800Y-88010000D01*
X115951000Y-88010000D02*
X117475000Y-88010000D01*
X115873800Y-88010000D02*
X115951000Y-88010000D01*
X112903000Y-86360000D02*
X114427000Y-86360000D01*
X114528600Y-86360000D02*
X115189000Y-87020400D01*
%TO.N,Net-(R12-Pad2)*%
X118896400Y-88010000D02*
X118999000Y-88010000D01*
X118237000Y-87350600D02*
X118896400Y-88010000D01*
X118999000Y-89408000D02*
X118999000Y-88010000D01*
X118237000Y-87020400D02*
X118237000Y-87350600D01*
X118999000Y-88010000D02*
X120523000Y-88010000D01*
X117576600Y-86360000D02*
X118237000Y-87020400D01*
X117475000Y-86360000D02*
X117576600Y-86360000D01*
X115951000Y-86360000D02*
X117475000Y-86360000D01*
%TO.N,Net-(R15-Pad2)*%
X121285000Y-87325200D02*
X121969800Y-88010000D01*
X120523000Y-86360000D02*
X120650000Y-86360000D01*
X121969800Y-88010000D02*
X122047000Y-88010000D01*
X121285000Y-86995000D02*
X121285000Y-87325200D01*
X118999000Y-86360000D02*
X120523000Y-86360000D01*
X122047000Y-89408000D02*
X122047000Y-88010000D01*
X122047000Y-88010000D02*
X123571000Y-88010000D01*
X120650000Y-86360000D02*
X121285000Y-86995000D01*
%TO.N,Net-(R18-Pad2)*%
X125095000Y-88010000D02*
X125095000Y-89408000D01*
X124967000Y-88010000D02*
X125095000Y-88010000D01*
X125095000Y-88010000D02*
X126619000Y-88010000D01*
X122047000Y-86360000D02*
X123571000Y-86360000D01*
X124333000Y-87376000D02*
X124967000Y-88010000D01*
X123571000Y-86360000D02*
X123647200Y-86360000D01*
X123647200Y-86360000D02*
X124333000Y-87045800D01*
X124333000Y-87045800D02*
X124333000Y-87376000D01*
%TO.N,Net-(R21-Pad2)*%
X128143000Y-89408000D02*
X128143000Y-88010000D01*
X126619000Y-86360000D02*
X126746000Y-86360000D01*
X125095000Y-86360000D02*
X126619000Y-86360000D01*
X126746000Y-86360000D02*
X127381000Y-86995000D01*
X128143000Y-88010000D02*
X129667000Y-88010000D01*
X127381000Y-86995000D02*
X127381000Y-87350600D01*
X128040400Y-88010000D02*
X128143000Y-88010000D01*
X127381000Y-87350600D02*
X128040400Y-88010000D01*
%TO.N,Net-(R24-Pad2)*%
X131113800Y-88010000D02*
X131191000Y-88010000D01*
X131191000Y-89408000D02*
X131191000Y-88010000D01*
X129667000Y-86360000D02*
X129768600Y-86360000D01*
X130429000Y-87020400D02*
X130429000Y-87325200D01*
X130429000Y-87325200D02*
X131113800Y-88010000D01*
X131191000Y-88010000D02*
X132715000Y-88010000D01*
X129768600Y-86360000D02*
X130429000Y-87020400D01*
X128143000Y-86360000D02*
X129667000Y-86360000D01*
%TD*%
M02*
