%TF.GenerationSoftware,KiCad,Pcbnew,8.0.8-8.0.8-0~ubuntu24.04.1*%
%TF.CreationDate,2025-02-12T12:18:38-05:00*%
%TF.ProjectId,r2rdac,72327264-6163-42e6-9b69-6361645f7063,rev?*%
%TF.SameCoordinates,Original*%
%TF.FileFunction,Legend,Bot*%
%TF.FilePolarity,Positive*%
%FSLAX46Y46*%
G04 Gerber Fmt 4.6, Leading zero omitted, Abs format (unit mm)*
G04 Created by KiCad (PCBNEW 8.0.8-8.0.8-0~ubuntu24.04.1) date 2025-02-12 12:18:38*
%MOMM*%
%LPD*%
G01*
G04 APERTURE LIST*
%ADD10C,0.120000*%
%ADD11C,0.000000*%
%ADD12R,1.700000X1.700000*%
%ADD13O,1.700000X1.700000*%
G04 APERTURE END LIST*
D10*
%TO.C,J1*%
X102810000Y-95190000D02*
X104140000Y-95190000D01*
X102810000Y-96520000D02*
X102810000Y-95190000D01*
X105410000Y-97850000D02*
X105410000Y-95190000D01*
X138490000Y-95190000D02*
X105410000Y-95190000D01*
X138490000Y-97850000D02*
X105410000Y-97850000D01*
X138490000Y-97850000D02*
X138490000Y-95190000D01*
D11*
%TO.C,svg2mod*%
G36*
X128060737Y-84089427D02*
G01*
X128364955Y-84094124D01*
X128668675Y-84102749D01*
X128971746Y-84115264D01*
X129274017Y-84131629D01*
X129575335Y-84151808D01*
X129875550Y-84175760D01*
X130174509Y-84203448D01*
X130472062Y-84234832D01*
X130768056Y-84269875D01*
X131062341Y-84308537D01*
X131354764Y-84350781D01*
X131645175Y-84396567D01*
X131933422Y-84445858D01*
X132219352Y-84498614D01*
X132502816Y-84554797D01*
X132783661Y-84614369D01*
X133061736Y-84677290D01*
X133336888Y-84743523D01*
X133608968Y-84813029D01*
X133877823Y-84885769D01*
X134143302Y-84961704D01*
X134405253Y-85040797D01*
X134663525Y-85123009D01*
X134917966Y-85208301D01*
X135168425Y-85296634D01*
X135414750Y-85387970D01*
X135656790Y-85482271D01*
X135894393Y-85579498D01*
X136127408Y-85679612D01*
X136355683Y-85782575D01*
X136579067Y-85888348D01*
X136797409Y-85996893D01*
X137010556Y-86108171D01*
X137218357Y-86222144D01*
X137420661Y-86338773D01*
X137617316Y-86458020D01*
X137808171Y-86579845D01*
X137993075Y-86704211D01*
X138171875Y-86831079D01*
X138344420Y-86960410D01*
X138332833Y-92899775D01*
X138147668Y-93021413D01*
X137954454Y-93140213D01*
X137753281Y-93256081D01*
X137544238Y-93368924D01*
X137327415Y-93478650D01*
X137102902Y-93585165D01*
X136870789Y-93688376D01*
X136631166Y-93788191D01*
X136384122Y-93884516D01*
X136129748Y-93977258D01*
X135868133Y-94066325D01*
X135599367Y-94151623D01*
X135323540Y-94233060D01*
X135040741Y-94310542D01*
X134751061Y-94383977D01*
X134454590Y-94453271D01*
X134151417Y-94518332D01*
X133841632Y-94579067D01*
X133525324Y-94635382D01*
X133638783Y-94521036D01*
X133737567Y-94392363D01*
X133821688Y-94249860D01*
X133891156Y-94094023D01*
X133945983Y-93925349D01*
X133986179Y-93744333D01*
X134011755Y-93551472D01*
X134022723Y-93347262D01*
X134019092Y-93132200D01*
X134000875Y-92906781D01*
X133968081Y-92671501D01*
X133920722Y-92426858D01*
X133858809Y-92173347D01*
X133782352Y-91911464D01*
X133691363Y-91641705D01*
X133585853Y-91364568D01*
X133465832Y-91080548D01*
X133331311Y-90790140D01*
X133182302Y-90493843D01*
X133018814Y-90192151D01*
X132840860Y-89885561D01*
X132648449Y-89574569D01*
X132441594Y-89259672D01*
X132267342Y-89007647D01*
X132087806Y-88759062D01*
X131903310Y-88514151D01*
X131714180Y-88273149D01*
X131520740Y-88036290D01*
X131323314Y-87803807D01*
X131122228Y-87575934D01*
X130917805Y-87352907D01*
X130710371Y-87134959D01*
X130500249Y-86922324D01*
X130287766Y-86715236D01*
X130073244Y-86513929D01*
X129857010Y-86318638D01*
X129639387Y-86129596D01*
X129420699Y-85947038D01*
X129201273Y-85771197D01*
X128981432Y-85602309D01*
X128761501Y-85440606D01*
X128541804Y-85286324D01*
X128322667Y-85139695D01*
X128104413Y-85000955D01*
X127887368Y-84870337D01*
X127671855Y-84748076D01*
X127458201Y-84634405D01*
X127246728Y-84529559D01*
X127037763Y-84433772D01*
X126831628Y-84347278D01*
X126628650Y-84270310D01*
X126429153Y-84203104D01*
X126233460Y-84145893D01*
X126537483Y-84126212D01*
X126841917Y-84110690D01*
X127146611Y-84099289D01*
X127451413Y-84091971D01*
X127756172Y-84088696D01*
X128060737Y-84089427D01*
G37*
G36*
X124149211Y-84493380D02*
G01*
X124050455Y-84622036D01*
X123966358Y-84764523D01*
X123896907Y-84920346D01*
X123842093Y-85089008D01*
X123801905Y-85270013D01*
X123776333Y-85462864D01*
X123765366Y-85667065D01*
X123768994Y-85882120D01*
X123787207Y-86107532D01*
X123819992Y-86342806D01*
X123867342Y-86587445D01*
X123929244Y-86840952D01*
X124005688Y-87102831D01*
X124096664Y-87372587D01*
X124202162Y-87649722D01*
X124322171Y-87933741D01*
X124456680Y-88224147D01*
X124605679Y-88520444D01*
X124769157Y-88822136D01*
X124947104Y-89128725D01*
X125139510Y-89439717D01*
X125346364Y-89754614D01*
X125520617Y-90006654D01*
X125700156Y-90255252D01*
X125884656Y-90500175D01*
X126073792Y-90741188D01*
X126267240Y-90978058D01*
X126464674Y-91210550D01*
X126665769Y-91438431D01*
X126870202Y-91661466D01*
X127077647Y-91879420D01*
X127287780Y-92092061D01*
X127500275Y-92299153D01*
X127714808Y-92500463D01*
X127931055Y-92695757D01*
X128148690Y-92884800D01*
X128367388Y-93067359D01*
X128586825Y-93243199D01*
X128806676Y-93412086D01*
X129026617Y-93573786D01*
X129246322Y-93728065D01*
X129465466Y-93874689D01*
X129683726Y-94013424D01*
X129900776Y-94144036D01*
X130116291Y-94266289D01*
X130329946Y-94379952D01*
X130541418Y-94484789D01*
X130750380Y-94580565D01*
X130956509Y-94667048D01*
X131159480Y-94744003D01*
X131358967Y-94811196D01*
X131554645Y-94868393D01*
X131246865Y-94888300D01*
X130938665Y-94903944D01*
X130630203Y-94915365D01*
X130321636Y-94922603D01*
X130013120Y-94925699D01*
X129704813Y-94924691D01*
X129396873Y-94919621D01*
X129089456Y-94910528D01*
X128782720Y-94897452D01*
X128476822Y-94880433D01*
X128171919Y-94859511D01*
X127868168Y-94834727D01*
X127565726Y-94806119D01*
X127264751Y-94773729D01*
X126965400Y-94737596D01*
X126667829Y-94697760D01*
X126372197Y-94654261D01*
X126078660Y-94607139D01*
X125787376Y-94556434D01*
X125498501Y-94502187D01*
X125212193Y-94444436D01*
X124928609Y-94383222D01*
X124647907Y-94318586D01*
X124370243Y-94250567D01*
X124095774Y-94179204D01*
X123824658Y-94104539D01*
X123557053Y-94026611D01*
X123293114Y-93945460D01*
X123033000Y-93861126D01*
X122776867Y-93773649D01*
X122524873Y-93683068D01*
X122277175Y-93589425D01*
X122033930Y-93492759D01*
X121795295Y-93393110D01*
X121561428Y-93290519D01*
X121332485Y-93185024D01*
X121108624Y-93076666D01*
X120890002Y-92965485D01*
X120676777Y-92851521D01*
X120469104Y-92734814D01*
X120267142Y-92615404D01*
X120071048Y-92493331D01*
X119880979Y-92368635D01*
X119697092Y-92241356D01*
X119519545Y-92111533D01*
X119348493Y-91979208D01*
X119184096Y-91844420D01*
X119026509Y-91707209D01*
X118875891Y-91567614D01*
X118732397Y-91425677D01*
X118596186Y-91281437D01*
X118467415Y-91134933D01*
X118346240Y-90986206D01*
X118213456Y-90808169D01*
X118093664Y-90629954D01*
X117986747Y-90451683D01*
X117892590Y-90273475D01*
X117811075Y-90095452D01*
X117742087Y-89917733D01*
X117685508Y-89740439D01*
X117641224Y-89563690D01*
X117609116Y-89387607D01*
X117589070Y-89212310D01*
X117580968Y-89037919D01*
X117584694Y-88864555D01*
X117600132Y-88692338D01*
X117627166Y-88521389D01*
X117665678Y-88351827D01*
X117715553Y-88183774D01*
X117776675Y-88017350D01*
X117848926Y-87852675D01*
X117932191Y-87689869D01*
X118026353Y-87529053D01*
X118131296Y-87370347D01*
X118246903Y-87213872D01*
X118373059Y-87059748D01*
X118509646Y-86908095D01*
X118656548Y-86759034D01*
X118813649Y-86612685D01*
X118980833Y-86469169D01*
X119157983Y-86328605D01*
X119344983Y-86191115D01*
X119541716Y-86056818D01*
X119748067Y-85925836D01*
X119963918Y-85798287D01*
X120189153Y-85674294D01*
X120423656Y-85553976D01*
X120667311Y-85437453D01*
X120920001Y-85324846D01*
X121181610Y-85216276D01*
X121452022Y-85111862D01*
X121731119Y-85011725D01*
X122018787Y-84915986D01*
X122314907Y-84824764D01*
X122619365Y-84738181D01*
X122932043Y-84656357D01*
X123252825Y-84579411D01*
X123581595Y-84507465D01*
X123918237Y-84440638D01*
X124262634Y-84379052D01*
X124149211Y-84493380D01*
G37*
%TD*%
%LPC*%
D12*
%TO.C,J1*%
X104140000Y-96520000D03*
D13*
X106680000Y-96520000D03*
X109220000Y-96520000D03*
X111760000Y-96520000D03*
X114300000Y-96520000D03*
X116840000Y-96520000D03*
X119380000Y-96520000D03*
X121920000Y-96520000D03*
X124460000Y-96520000D03*
X127000000Y-96520000D03*
X129540000Y-96520000D03*
X132080000Y-96520000D03*
X134620000Y-96520000D03*
X137160000Y-96520000D03*
%TD*%
%LPD*%
M02*
