<?xml version="1.0" standalone="no"?>
 <!DOCTYPE svg PUBLIC "-//W3C//DTD SVG 1.1//EN" 
 "http://www.w3.org/Graphics/SVG/1.1/DTD/svg11.dtd"> 
<svg
  xmlns:svg="http://www.w3.org/2000/svg"
  xmlns="http://www.w3.org/2000/svg"
  xmlns:xlink="http://www.w3.org/1999/xlink"
  version="1.1"
  width="297.0022mm" height="210.0072mm" viewBox="0.0000 0.0000 297.0022 210.0072">
<title>SVG Image created as r2rdac-F_Paste.svg date 2025/02/12 12:19:04 </title>
  <desc>Image generated by PCBNEW </desc>
<g style="fill:#000000; fill-opacity:1.0000;stroke:#000000; stroke-opacity:1.0000;
stroke-linecap:round; stroke-linejoin:round;"
 transform="translate(0 0) scale(1 1)">
<path style="fill:#000000; fill-opacity:1.0000; stroke:none;fill-rule:evenodd;"
d="M 115.6760,88.4100
115.5995,88.3948
115.5346,88.3514
115.4912,88.2865
115.4760,88.2100
115.4760,87.8100
115.4912,87.7335
115.5346,87.6686
115.5995,87.6252
115.6760,87.6100
116.2260,87.6100
116.3025,87.6252
116.3674,87.6686
116.4108,87.7335
116.4260,87.8100
116.4260,88.2100
116.4108,88.2865
116.3674,88.3514
116.3025,88.3948
116.2260,88.4100
Z" /> 
<path style="fill:#000000; fill-opacity:1.0000; stroke:none;fill-rule:evenodd;"
d="M 115.6760,86.7600
115.5995,86.7448
115.5346,86.7014
115.4912,86.6365
115.4760,86.5600
115.4760,86.1600
115.4912,86.0835
115.5346,86.0186
115.5995,85.9752
115.6760,85.9600
116.2260,85.9600
116.3025,85.9752
116.3674,86.0186
116.4108,86.0835
116.4260,86.1600
116.4260,86.5600
116.4108,86.6365
116.3674,86.7014
116.3025,86.7448
116.2260,86.7600
Z" /> 
<path style="fill:#000000; fill-opacity:1.0000; stroke:none;fill-rule:evenodd;"
d="M 107.0820,89.0080
107.1585,89.0232
107.2234,89.0666
107.2668,89.1315
107.2820,89.2080
107.2820,89.6080
107.2668,89.6845
107.2234,89.7494
107.1585,89.7928
107.0820,89.8080
106.5320,89.8080
106.4555,89.7928
106.3906,89.7494
106.3472,89.6845
106.3320,89.6080
106.3320,89.2080
106.3472,89.1315
106.3906,89.0666
106.4555,89.0232
106.5320,89.0080
Z" /> 
<path style="fill:#000000; fill-opacity:1.0000; stroke:none;fill-rule:evenodd;"
d="M 107.0820,90.6580
107.1585,90.6732
107.2234,90.7166
107.2668,90.7815
107.2820,90.8580
107.2820,91.2580
107.2668,91.3345
107.2234,91.3994
107.1585,91.4428
107.0820,91.4580
106.5320,91.4580
106.4555,91.4428
106.3906,91.3994
106.3472,91.3345
106.3320,91.2580
106.3320,90.8580
106.3472,90.7815
106.3906,90.7166
106.4555,90.6732
106.5320,90.6580
Z" /> 
<path style="fill:#000000; fill-opacity:1.0000; stroke:none;fill-rule:evenodd;"
d="M 123.2960,88.4100
123.2195,88.3948
123.1546,88.3514
123.1112,88.2865
123.0960,88.2100
123.0960,87.8100
123.1112,87.7335
123.1546,87.6686
123.2195,87.6252
123.2960,87.6100
123.8460,87.6100
123.9225,87.6252
123.9874,87.6686
124.0308,87.7335
124.0460,87.8100
124.0460,88.2100
124.0308,88.2865
123.9874,88.3514
123.9225,88.3948
123.8460,88.4100
Z" /> 
<path style="fill:#000000; fill-opacity:1.0000; stroke:none;fill-rule:evenodd;"
d="M 123.2960,86.7600
123.2195,86.7448
123.1546,86.7014
123.1112,86.6365
123.0960,86.5600
123.0960,86.1600
123.1112,86.0835
123.1546,86.0186
123.2195,85.9752
123.2960,85.9600
123.8460,85.9600
123.9225,85.9752
123.9874,86.0186
124.0308,86.0835
124.0460,86.1600
124.0460,86.5600
124.0308,86.6365
123.9874,86.7014
123.9225,86.7448
123.8460,86.7600
Z" /> 
<path style="fill:#000000; fill-opacity:1.0000; stroke:none;fill-rule:evenodd;"
d="M 112.6280,88.4100
112.5515,88.3948
112.4866,88.3514
112.4432,88.2865
112.4280,88.2100
112.4280,87.8100
112.4432,87.7335
112.4866,87.6686
112.5515,87.6252
112.6280,87.6100
113.1780,87.6100
113.2545,87.6252
113.3194,87.6686
113.3628,87.7335
113.3780,87.8100
113.3780,88.2100
113.3628,88.2865
113.3194,88.3514
113.2545,88.3948
113.1780,88.4100
Z" /> 
<path style="fill:#000000; fill-opacity:1.0000; stroke:none;fill-rule:evenodd;"
d="M 112.6280,86.7600
112.5515,86.7448
112.4866,86.7014
112.4432,86.6365
112.4280,86.5600
112.4280,86.1600
112.4432,86.0835
112.4866,86.0186
112.5515,85.9752
112.6280,85.9600
113.1780,85.9600
113.2545,85.9752
113.3194,86.0186
113.3628,86.0835
113.3780,86.1600
113.3780,86.5600
113.3628,86.6365
113.3194,86.7014
113.2545,86.7448
113.1780,86.7600
Z" /> 
<path style="fill:#000000; fill-opacity:1.0000; stroke:none;fill-rule:evenodd;"
d="M 111.1040,88.4100
111.0275,88.3948
110.9626,88.3514
110.9192,88.2865
110.9040,88.2100
110.9040,87.8100
110.9192,87.7335
110.9626,87.6686
111.0275,87.6252
111.1040,87.6100
111.6540,87.6100
111.7305,87.6252
111.7954,87.6686
111.8388,87.7335
111.8540,87.8100
111.8540,88.2100
111.8388,88.2865
111.7954,88.3514
111.7305,88.3948
111.6540,88.4100
Z" /> 
<path style="fill:#000000; fill-opacity:1.0000; stroke:none;fill-rule:evenodd;"
d="M 111.1040,86.7600
111.0275,86.7448
110.9626,86.7014
110.9192,86.6365
110.9040,86.5600
110.9040,86.1600
110.9192,86.0835
110.9626,86.0186
111.0275,85.9752
111.1040,85.9600
111.6540,85.9600
111.7305,85.9752
111.7954,86.0186
111.8388,86.0835
111.8540,86.1600
111.8540,86.5600
111.8388,86.6365
111.7954,86.7014
111.7305,86.7448
111.6540,86.7600
Z" /> 
<path style="fill:#000000; fill-opacity:1.0000; stroke:none;fill-rule:evenodd;"
d="M 124.8200,88.4100
124.7435,88.3948
124.6786,88.3514
124.6352,88.2865
124.6200,88.2100
124.6200,87.8100
124.6352,87.7335
124.6786,87.6686
124.7435,87.6252
124.8200,87.6100
125.3700,87.6100
125.4465,87.6252
125.5114,87.6686
125.5548,87.7335
125.5700,87.8100
125.5700,88.2100
125.5548,88.2865
125.5114,88.3514
125.4465,88.3948
125.3700,88.4100
Z" /> 
<path style="fill:#000000; fill-opacity:1.0000; stroke:none;fill-rule:evenodd;"
d="M 124.8200,86.7600
124.7435,86.7448
124.6786,86.7014
124.6352,86.6365
124.6200,86.5600
124.6200,86.1600
124.6352,86.0835
124.6786,86.0186
124.7435,85.9752
124.8200,85.9600
125.3700,85.9600
125.4465,85.9752
125.5114,86.0186
125.5548,86.0835
125.5700,86.1600
125.5700,86.5600
125.5548,86.6365
125.5114,86.7014
125.4465,86.7448
125.3700,86.7600
Z" /> 
<path style="fill:#000000; fill-opacity:1.0000; stroke:none;fill-rule:evenodd;"
d="M 130.9160,88.4100
130.8395,88.3948
130.7746,88.3514
130.7312,88.2865
130.7160,88.2100
130.7160,87.8100
130.7312,87.7335
130.7746,87.6686
130.8395,87.6252
130.9160,87.6100
131.4660,87.6100
131.5425,87.6252
131.6074,87.6686
131.6508,87.7335
131.6660,87.8100
131.6660,88.2100
131.6508,88.2865
131.6074,88.3514
131.5425,88.3948
131.4660,88.4100
Z" /> 
<path style="fill:#000000; fill-opacity:1.0000; stroke:none;fill-rule:evenodd;"
d="M 130.9160,86.7600
130.8395,86.7448
130.7746,86.7014
130.7312,86.6365
130.7160,86.5600
130.7160,86.1600
130.7312,86.0835
130.7746,86.0186
130.8395,85.9752
130.9160,85.9600
131.4660,85.9600
131.5425,85.9752
131.6074,86.0186
131.6508,86.0835
131.6660,86.1600
131.6660,86.5600
131.6508,86.6365
131.6074,86.7014
131.5425,86.7448
131.4660,86.7600
Z" /> 
<path style="fill:#000000; fill-opacity:1.0000; stroke:none;fill-rule:evenodd;"
d="M 117.2000,88.4100
117.1235,88.3948
117.0586,88.3514
117.0152,88.2865
117.0000,88.2100
117.0000,87.8100
117.0152,87.7335
117.0586,87.6686
117.1235,87.6252
117.2000,87.6100
117.7500,87.6100
117.8265,87.6252
117.8914,87.6686
117.9348,87.7335
117.9500,87.8100
117.9500,88.2100
117.9348,88.2865
117.8914,88.3514
117.8265,88.3948
117.7500,88.4100
Z" /> 
<path style="fill:#000000; fill-opacity:1.0000; stroke:none;fill-rule:evenodd;"
d="M 117.2000,86.7600
117.1235,86.7448
117.0586,86.7014
117.0152,86.6365
117.0000,86.5600
117.0000,86.1600
117.0152,86.0835
117.0586,86.0186
117.1235,85.9752
117.2000,85.9600
117.7500,85.9600
117.8265,85.9752
117.8914,86.0186
117.9348,86.0835
117.9500,86.1600
117.9500,86.5600
117.9348,86.6365
117.8914,86.7014
117.8265,86.7448
117.7500,86.7600
Z" /> 
<path style="fill:#000000; fill-opacity:1.0000; stroke:none;fill-rule:evenodd;"
d="M 132.4400,88.4100
132.3635,88.3948
132.2986,88.3514
132.2552,88.2865
132.2400,88.2100
132.2400,87.8100
132.2552,87.7335
132.2986,87.6686
132.3635,87.6252
132.4400,87.6100
132.9900,87.6100
133.0665,87.6252
133.1314,87.6686
133.1748,87.7335
133.1900,87.8100
133.1900,88.2100
133.1748,88.2865
133.1314,88.3514
133.0665,88.3948
132.9900,88.4100
Z" /> 
<path style="fill:#000000; fill-opacity:1.0000; stroke:none;fill-rule:evenodd;"
d="M 132.4400,86.7600
132.3635,86.7448
132.2986,86.7014
132.2552,86.6365
132.2400,86.5600
132.2400,86.1600
132.2552,86.0835
132.2986,86.0186
132.3635,85.9752
132.4400,85.9600
132.9900,85.9600
133.0665,85.9752
133.1314,86.0186
133.1748,86.0835
133.1900,86.1600
133.1900,86.5600
133.1748,86.6365
133.1314,86.7014
133.0665,86.7448
132.9900,86.7600
Z" /> 
<path style="fill:#000000; fill-opacity:1.0000; stroke:none;fill-rule:evenodd;"
d="M 108.6060,89.0080
108.6825,89.0232
108.7474,89.0666
108.7908,89.1315
108.8060,89.2080
108.8060,89.6080
108.7908,89.6845
108.7474,89.7494
108.6825,89.7928
108.6060,89.8080
108.0560,89.8080
107.9795,89.7928
107.9146,89.7494
107.8712,89.6845
107.8560,89.6080
107.8560,89.2080
107.8712,89.1315
107.9146,89.0666
107.9795,89.0232
108.0560,89.0080
Z" /> 
<path style="fill:#000000; fill-opacity:1.0000; stroke:none;fill-rule:evenodd;"
d="M 108.6060,90.6580
108.6825,90.6732
108.7474,90.7166
108.7908,90.7815
108.8060,90.8580
108.8060,91.2580
108.7908,91.3345
108.7474,91.3994
108.6825,91.4428
108.6060,91.4580
108.0560,91.4580
107.9795,91.4428
107.9146,91.3994
107.8712,91.3345
107.8560,91.2580
107.8560,90.8580
107.8712,90.7815
107.9146,90.7166
107.9795,90.6732
108.0560,90.6580
Z" /> 
<path style="fill:#000000; fill-opacity:1.0000; stroke:none;fill-rule:evenodd;"
d="M 126.3440,88.4100
126.2675,88.3948
126.2026,88.3514
126.1592,88.2865
126.1440,88.2100
126.1440,87.8100
126.1592,87.7335
126.2026,87.6686
126.2675,87.6252
126.3440,87.6100
126.8940,87.6100
126.9705,87.6252
127.0354,87.6686
127.0788,87.7335
127.0940,87.8100
127.0940,88.2100
127.0788,88.2865
127.0354,88.3514
126.9705,88.3948
126.8940,88.4100
Z" /> 
<path style="fill:#000000; fill-opacity:1.0000; stroke:none;fill-rule:evenodd;"
d="M 126.3440,86.7600
126.2675,86.7448
126.2026,86.7014
126.1592,86.6365
126.1440,86.5600
126.1440,86.1600
126.1592,86.0835
126.2026,86.0186
126.2675,85.9752
126.3440,85.9600
126.8940,85.9600
126.9705,85.9752
127.0354,86.0186
127.0788,86.0835
127.0940,86.1600
127.0940,86.5600
127.0788,86.6365
127.0354,86.7014
126.9705,86.7448
126.8940,86.7600
Z" /> 
<path style="fill:#000000; fill-opacity:1.0000; stroke:none;fill-rule:evenodd;"
d="M 133.9890,88.4100
133.9029,88.3929
133.8299,88.3441
133.7811,88.2711
133.7640,88.1850
133.7640,87.7350
133.7811,87.6489
133.8299,87.5759
133.9029,87.5271
133.9890,87.5100
134.4890,87.5100
134.5751,87.5271
134.6481,87.5759
134.6969,87.6489
134.7140,87.7350
134.7140,88.1850
134.6969,88.2711
134.6481,88.3441
134.5751,88.3929
134.4890,88.4100
Z" /> 
<path style="fill:#000000; fill-opacity:1.0000; stroke:none;fill-rule:evenodd;"
d="M 133.9890,86.8600
133.9029,86.8429
133.8299,86.7941
133.7811,86.7211
133.7640,86.6350
133.7640,86.1850
133.7811,86.0989
133.8299,86.0259
133.9029,85.9771
133.9890,85.9600
134.4890,85.9600
134.5751,85.9771
134.6481,86.0259
134.6969,86.0989
134.7140,86.1850
134.7140,86.6350
134.6969,86.7211
134.6481,86.7941
134.5751,86.8429
134.4890,86.8600
Z" /> 
<path style="fill:#000000; fill-opacity:1.0000; stroke:none;fill-rule:evenodd;"
d="M 114.1520,88.4100
114.0755,88.3948
114.0106,88.3514
113.9672,88.2865
113.9520,88.2100
113.9520,87.8100
113.9672,87.7335
114.0106,87.6686
114.0755,87.6252
114.1520,87.6100
114.7020,87.6100
114.7785,87.6252
114.8434,87.6686
114.8868,87.7335
114.9020,87.8100
114.9020,88.2100
114.8868,88.2865
114.8434,88.3514
114.7785,88.3948
114.7020,88.4100
Z" /> 
<path style="fill:#000000; fill-opacity:1.0000; stroke:none;fill-rule:evenodd;"
d="M 114.1520,86.7600
114.0755,86.7448
114.0106,86.7014
113.9672,86.6365
113.9520,86.5600
113.9520,86.1600
113.9672,86.0835
114.0106,86.0186
114.0755,85.9752
114.1520,85.9600
114.7020,85.9600
114.7785,85.9752
114.8434,86.0186
114.8868,86.0835
114.9020,86.1600
114.9020,86.5600
114.8868,86.6365
114.8434,86.7014
114.7785,86.7448
114.7020,86.7600
Z" /> 
<path style="fill:#000000; fill-opacity:1.0000; stroke:none;fill-rule:evenodd;"
d="M 122.3220,89.0080
122.3985,89.0232
122.4634,89.0666
122.5068,89.1315
122.5220,89.2080
122.5220,89.6080
122.5068,89.6845
122.4634,89.7494
122.3985,89.7928
122.3220,89.8080
121.7720,89.8080
121.6955,89.7928
121.6306,89.7494
121.5872,89.6845
121.5720,89.6080
121.5720,89.2080
121.5872,89.1315
121.6306,89.0666
121.6955,89.0232
121.7720,89.0080
Z" /> 
<path style="fill:#000000; fill-opacity:1.0000; stroke:none;fill-rule:evenodd;"
d="M 122.3220,90.6580
122.3985,90.6732
122.4634,90.7166
122.5068,90.7815
122.5220,90.8580
122.5220,91.2580
122.5068,91.3345
122.4634,91.3994
122.3985,91.4428
122.3220,91.4580
121.7720,91.4580
121.6955,91.4428
121.6306,91.3994
121.5872,91.3345
121.5720,91.2580
121.5720,90.8580
121.5872,90.7815
121.6306,90.7166
121.6955,90.6732
121.7720,90.6580
Z" /> 
<path style="fill:#000000; fill-opacity:1.0000; stroke:none;fill-rule:evenodd;"
d="M 113.1780,89.0080
113.2545,89.0232
113.3194,89.0666
113.3628,89.1315
113.3780,89.2080
113.3780,89.6080
113.3628,89.6845
113.3194,89.7494
113.2545,89.7928
113.1780,89.8080
112.6280,89.8080
112.5515,89.7928
112.4866,89.7494
112.4432,89.6845
112.4280,89.6080
112.4280,89.2080
112.4432,89.1315
112.4866,89.0666
112.5515,89.0232
112.6280,89.0080
Z" /> 
<path style="fill:#000000; fill-opacity:1.0000; stroke:none;fill-rule:evenodd;"
d="M 113.1780,90.6580
113.2545,90.6732
113.3194,90.7166
113.3628,90.7815
113.3780,90.8580
113.3780,91.2580
113.3628,91.3345
113.3194,91.3994
113.2545,91.4428
113.1780,91.4580
112.6280,91.4580
112.5515,91.4428
112.4866,91.3994
112.4432,91.3345
112.4280,91.2580
112.4280,90.8580
112.4432,90.7815
112.4866,90.7166
112.5515,90.6732
112.6280,90.6580
Z" /> 
<path style="fill:#000000; fill-opacity:1.0000; stroke:none;fill-rule:evenodd;"
d="M 120.2480,88.4100
120.1715,88.3948
120.1066,88.3514
120.0632,88.2865
120.0480,88.2100
120.0480,87.8100
120.0632,87.7335
120.1066,87.6686
120.1715,87.6252
120.2480,87.6100
120.7980,87.6100
120.8745,87.6252
120.9394,87.6686
120.9828,87.7335
120.9980,87.8100
120.9980,88.2100
120.9828,88.2865
120.9394,88.3514
120.8745,88.3948
120.7980,88.4100
Z" /> 
<path style="fill:#000000; fill-opacity:1.0000; stroke:none;fill-rule:evenodd;"
d="M 120.2480,86.7600
120.1715,86.7448
120.1066,86.7014
120.0632,86.6365
120.0480,86.5600
120.0480,86.1600
120.0632,86.0835
120.1066,86.0186
120.1715,85.9752
120.2480,85.9600
120.7980,85.9600
120.8745,85.9752
120.9394,86.0186
120.9828,86.0835
120.9980,86.1600
120.9980,86.5600
120.9828,86.6365
120.9394,86.7014
120.8745,86.7448
120.7980,86.7600
Z" /> 
<path style="fill:#000000; fill-opacity:1.0000; stroke:none;fill-rule:evenodd;"
d="M 108.0560,88.4100
107.9795,88.3948
107.9146,88.3514
107.8712,88.2865
107.8560,88.2100
107.8560,87.8100
107.8712,87.7335
107.9146,87.6686
107.9795,87.6252
108.0560,87.6100
108.6060,87.6100
108.6825,87.6252
108.7474,87.6686
108.7908,87.7335
108.8060,87.8100
108.8060,88.2100
108.7908,88.2865
108.7474,88.3514
108.6825,88.3948
108.6060,88.4100
Z" /> 
<path style="fill:#000000; fill-opacity:1.0000; stroke:none;fill-rule:evenodd;"
d="M 108.0560,86.7600
107.9795,86.7448
107.9146,86.7014
107.8712,86.6365
107.8560,86.5600
107.8560,86.1600
107.8712,86.0835
107.9146,86.0186
107.9795,85.9752
108.0560,85.9600
108.6060,85.9600
108.6825,85.9752
108.7474,86.0186
108.7908,86.0835
108.8060,86.1600
108.8060,86.5600
108.7908,86.6365
108.7474,86.7014
108.6825,86.7448
108.6060,86.7600
Z" /> 
<path style="fill:#000000; fill-opacity:1.0000; stroke:none;fill-rule:evenodd;"
d="M 127.8680,88.4100
127.7915,88.3948
127.7266,88.3514
127.6832,88.2865
127.6680,88.2100
127.6680,87.8100
127.6832,87.7335
127.7266,87.6686
127.7915,87.6252
127.8680,87.6100
128.4180,87.6100
128.4945,87.6252
128.5594,87.6686
128.6028,87.7335
128.6180,87.8100
128.6180,88.2100
128.6028,88.2865
128.5594,88.3514
128.4945,88.3948
128.4180,88.4100
Z" /> 
<path style="fill:#000000; fill-opacity:1.0000; stroke:none;fill-rule:evenodd;"
d="M 127.8680,86.7600
127.7915,86.7448
127.7266,86.7014
127.6832,86.6365
127.6680,86.5600
127.6680,86.1600
127.6832,86.0835
127.7266,86.0186
127.7915,85.9752
127.8680,85.9600
128.4180,85.9600
128.4945,85.9752
128.5594,86.0186
128.6028,86.0835
128.6180,86.1600
128.6180,86.5600
128.6028,86.6365
128.5594,86.7014
128.4945,86.7448
128.4180,86.7600
Z" /> 
<path style="fill:#000000; fill-opacity:1.0000; stroke:none;fill-rule:evenodd;"
d="M 134.5140,88.9450
134.5905,88.9602
134.6554,89.0036
134.6988,89.0685
134.7140,89.1450
134.7140,89.5450
134.6988,89.6215
134.6554,89.6864
134.5905,89.7298
134.5140,89.7450
133.9640,89.7450
133.8875,89.7298
133.8226,89.6864
133.7792,89.6215
133.7640,89.5450
133.7640,89.1450
133.7792,89.0685
133.8226,89.0036
133.8875,88.9602
133.9640,88.9450
Z" /> 
<path style="fill:#000000; fill-opacity:1.0000; stroke:none;fill-rule:evenodd;"
d="M 134.5140,90.5950
134.5905,90.6102
134.6554,90.6536
134.6988,90.7185
134.7140,90.7950
134.7140,91.1950
134.6988,91.2715
134.6554,91.3364
134.5905,91.3798
134.5140,91.3950
133.9640,91.3950
133.8875,91.3798
133.8226,91.3364
133.7792,91.2715
133.7640,91.1950
133.7640,90.7950
133.7792,90.7185
133.8226,90.6536
133.8875,90.6102
133.9640,90.5950
Z" /> 
<path style="fill:#000000; fill-opacity:1.0000; stroke:none;fill-rule:evenodd;"
d="M 121.7720,88.4100
121.6955,88.3948
121.6306,88.3514
121.5872,88.2865
121.5720,88.2100
121.5720,87.8100
121.5872,87.7335
121.6306,87.6686
121.6955,87.6252
121.7720,87.6100
122.3220,87.6100
122.3985,87.6252
122.4634,87.6686
122.5068,87.7335
122.5220,87.8100
122.5220,88.2100
122.5068,88.2865
122.4634,88.3514
122.3985,88.3948
122.3220,88.4100
Z" /> 
<path style="fill:#000000; fill-opacity:1.0000; stroke:none;fill-rule:evenodd;"
d="M 121.7720,86.7600
121.6955,86.7448
121.6306,86.7014
121.5872,86.6365
121.5720,86.5600
121.5720,86.1600
121.5872,86.0835
121.6306,86.0186
121.6955,85.9752
121.7720,85.9600
122.3220,85.9600
122.3985,85.9752
122.4634,86.0186
122.5068,86.0835
122.5220,86.1600
122.5220,86.5600
122.5068,86.6365
122.4634,86.7014
122.3985,86.7448
122.3220,86.7600
Z" /> 
<path style="fill:#000000; fill-opacity:1.0000; stroke:none;fill-rule:evenodd;"
d="M 106.5320,88.4100
106.4555,88.3948
106.3906,88.3514
106.3472,88.2865
106.3320,88.2100
106.3320,87.8100
106.3472,87.7335
106.3906,87.6686
106.4555,87.6252
106.5320,87.6100
107.0820,87.6100
107.1585,87.6252
107.2234,87.6686
107.2668,87.7335
107.2820,87.8100
107.2820,88.2100
107.2668,88.2865
107.2234,88.3514
107.1585,88.3948
107.0820,88.4100
Z" /> 
<path style="fill:#000000; fill-opacity:1.0000; stroke:none;fill-rule:evenodd;"
d="M 106.5320,86.7600
106.4555,86.7448
106.3906,86.7014
106.3472,86.6365
106.3320,86.5600
106.3320,86.1600
106.3472,86.0835
106.3906,86.0186
106.4555,85.9752
106.5320,85.9600
107.0820,85.9600
107.1585,85.9752
107.2234,86.0186
107.2668,86.0835
107.2820,86.1600
107.2820,86.5600
107.2668,86.6365
107.2234,86.7014
107.1585,86.7448
107.0820,86.7600
Z" /> 
<path style="fill:#000000; fill-opacity:1.0000; stroke:none;fill-rule:evenodd;"
d="M 116.2260,89.0080
116.3025,89.0232
116.3674,89.0666
116.4108,89.1315
116.4260,89.2080
116.4260,89.6080
116.4108,89.6845
116.3674,89.7494
116.3025,89.7928
116.2260,89.8080
115.6760,89.8080
115.5995,89.7928
115.5346,89.7494
115.4912,89.6845
115.4760,89.6080
115.4760,89.2080
115.4912,89.1315
115.5346,89.0666
115.5995,89.0232
115.6760,89.0080
Z" /> 
<path style="fill:#000000; fill-opacity:1.0000; stroke:none;fill-rule:evenodd;"
d="M 116.2260,90.6580
116.3025,90.6732
116.3674,90.7166
116.4108,90.7815
116.4260,90.8580
116.4260,91.2580
116.4108,91.3345
116.3674,91.3994
116.3025,91.4428
116.2260,91.4580
115.6760,91.4580
115.5995,91.4428
115.5346,91.3994
115.4912,91.3345
115.4760,91.2580
115.4760,90.8580
115.4912,90.7815
115.5346,90.7166
115.5995,90.6732
115.6760,90.6580
Z" /> 
<path style="fill:#000000; fill-opacity:1.0000; stroke:none;fill-rule:evenodd;"
d="M 125.3700,89.0080
125.4465,89.0232
125.5114,89.0666
125.5548,89.1315
125.5700,89.2080
125.5700,89.6080
125.5548,89.6845
125.5114,89.7494
125.4465,89.7928
125.3700,89.8080
124.8200,89.8080
124.7435,89.7928
124.6786,89.7494
124.6352,89.6845
124.6200,89.6080
124.6200,89.2080
124.6352,89.1315
124.6786,89.0666
124.7435,89.0232
124.8200,89.0080
Z" /> 
<path style="fill:#000000; fill-opacity:1.0000; stroke:none;fill-rule:evenodd;"
d="M 125.3700,90.6580
125.4465,90.6732
125.5114,90.7166
125.5548,90.7815
125.5700,90.8580
125.5700,91.2580
125.5548,91.3345
125.5114,91.3994
125.4465,91.4428
125.3700,91.4580
124.8200,91.4580
124.7435,91.4428
124.6786,91.3994
124.6352,91.3345
124.6200,91.2580
124.6200,90.8580
124.6352,90.7815
124.6786,90.7166
124.7435,90.6732
124.8200,90.6580
Z" /> 
<path style="fill:#000000; fill-opacity:1.0000; stroke:none;fill-rule:evenodd;"
d="M 109.5800,88.4100
109.5035,88.3948
109.4386,88.3514
109.3952,88.2865
109.3800,88.2100
109.3800,87.8100
109.3952,87.7335
109.4386,87.6686
109.5035,87.6252
109.5800,87.6100
110.1300,87.6100
110.2065,87.6252
110.2714,87.6686
110.3148,87.7335
110.3300,87.8100
110.3300,88.2100
110.3148,88.2865
110.2714,88.3514
110.2065,88.3948
110.1300,88.4100
Z" /> 
<path style="fill:#000000; fill-opacity:1.0000; stroke:none;fill-rule:evenodd;"
d="M 109.5800,86.7600
109.5035,86.7448
109.4386,86.7014
109.3952,86.6365
109.3800,86.5600
109.3800,86.1600
109.3952,86.0835
109.4386,86.0186
109.5035,85.9752
109.5800,85.9600
110.1300,85.9600
110.2065,85.9752
110.2714,86.0186
110.3148,86.0835
110.3300,86.1600
110.3300,86.5600
110.3148,86.6365
110.2714,86.7014
110.2065,86.7448
110.1300,86.7600
Z" /> 
<path style="fill:#000000; fill-opacity:1.0000; stroke:none;fill-rule:evenodd;"
d="M 110.1300,89.0080
110.2065,89.0232
110.2714,89.0666
110.3148,89.1315
110.3300,89.2080
110.3300,89.6080
110.3148,89.6845
110.2714,89.7494
110.2065,89.7928
110.1300,89.8080
109.5800,89.8080
109.5035,89.7928
109.4386,89.7494
109.3952,89.6845
109.3800,89.6080
109.3800,89.2080
109.3952,89.1315
109.4386,89.0666
109.5035,89.0232
109.5800,89.0080
Z" /> 
<path style="fill:#000000; fill-opacity:1.0000; stroke:none;fill-rule:evenodd;"
d="M 110.1300,90.6580
110.2065,90.6732
110.2714,90.7166
110.3148,90.7815
110.3300,90.8580
110.3300,91.2580
110.3148,91.3345
110.2714,91.3994
110.2065,91.4428
110.1300,91.4580
109.5800,91.4580
109.5035,91.4428
109.4386,91.3994
109.3952,91.3345
109.3800,91.2580
109.3800,90.8580
109.3952,90.7815
109.4386,90.7166
109.5035,90.6732
109.5800,90.6580
Z" /> 
<path style="fill:#000000; fill-opacity:1.0000; stroke:none;fill-rule:evenodd;"
d="M 131.4660,89.0080
131.5425,89.0232
131.6074,89.0666
131.6508,89.1315
131.6660,89.2080
131.6660,89.6080
131.6508,89.6845
131.6074,89.7494
131.5425,89.7928
131.4660,89.8080
130.9160,89.8080
130.8395,89.7928
130.7746,89.7494
130.7312,89.6845
130.7160,89.6080
130.7160,89.2080
130.7312,89.1315
130.7746,89.0666
130.8395,89.0232
130.9160,89.0080
Z" /> 
<path style="fill:#000000; fill-opacity:1.0000; stroke:none;fill-rule:evenodd;"
d="M 131.4660,90.6580
131.5425,90.6732
131.6074,90.7166
131.6508,90.7815
131.6660,90.8580
131.6660,91.2580
131.6508,91.3345
131.6074,91.3994
131.5425,91.4428
131.4660,91.4580
130.9160,91.4580
130.8395,91.4428
130.7746,91.3994
130.7312,91.3345
130.7160,91.2580
130.7160,90.8580
130.7312,90.7815
130.7746,90.7166
130.8395,90.6732
130.9160,90.6580
Z" /> 
<path style="fill:#000000; fill-opacity:1.0000; stroke:none;fill-rule:evenodd;"
d="M 119.2740,89.0080
119.3505,89.0232
119.4154,89.0666
119.4588,89.1315
119.4740,89.2080
119.4740,89.6080
119.4588,89.6845
119.4154,89.7494
119.3505,89.7928
119.2740,89.8080
118.7240,89.8080
118.6475,89.7928
118.5826,89.7494
118.5392,89.6845
118.5240,89.6080
118.5240,89.2080
118.5392,89.1315
118.5826,89.0666
118.6475,89.0232
118.7240,89.0080
Z" /> 
<path style="fill:#000000; fill-opacity:1.0000; stroke:none;fill-rule:evenodd;"
d="M 119.2740,90.6580
119.3505,90.6732
119.4154,90.7166
119.4588,90.7815
119.4740,90.8580
119.4740,91.2580
119.4588,91.3345
119.4154,91.3994
119.3505,91.4428
119.2740,91.4580
118.7240,91.4580
118.6475,91.4428
118.5826,91.3994
118.5392,91.3345
118.5240,91.2580
118.5240,90.8580
118.5392,90.7815
118.5826,90.7166
118.6475,90.6732
118.7240,90.6580
Z" /> 
<path style="fill:#000000; fill-opacity:1.0000; stroke:none;fill-rule:evenodd;"
d="M 129.3920,88.4100
129.3155,88.3948
129.2506,88.3514
129.2072,88.2865
129.1920,88.2100
129.1920,87.8100
129.2072,87.7335
129.2506,87.6686
129.3155,87.6252
129.3920,87.6100
129.9420,87.6100
130.0185,87.6252
130.0834,87.6686
130.1268,87.7335
130.1420,87.8100
130.1420,88.2100
130.1268,88.2865
130.0834,88.3514
130.0185,88.3948
129.9420,88.4100
Z" /> 
<path style="fill:#000000; fill-opacity:1.0000; stroke:none;fill-rule:evenodd;"
d="M 129.3920,86.7600
129.3155,86.7448
129.2506,86.7014
129.2072,86.6365
129.1920,86.5600
129.1920,86.1600
129.2072,86.0835
129.2506,86.0186
129.3155,85.9752
129.3920,85.9600
129.9420,85.9600
130.0185,85.9752
130.0834,86.0186
130.1268,86.0835
130.1420,86.1600
130.1420,86.5600
130.1268,86.6365
130.0834,86.7014
130.0185,86.7448
129.9420,86.7600
Z" /> 
<path style="fill:#000000; fill-opacity:1.0000; stroke:none;fill-rule:evenodd;"
d="M 128.4180,89.0080
128.4945,89.0232
128.5594,89.0666
128.6028,89.1315
128.6180,89.2080
128.6180,89.6080
128.6028,89.6845
128.5594,89.7494
128.4945,89.7928
128.4180,89.8080
127.8680,89.8080
127.7915,89.7928
127.7266,89.7494
127.6832,89.6845
127.6680,89.6080
127.6680,89.2080
127.6832,89.1315
127.7266,89.0666
127.7915,89.0232
127.8680,89.0080
Z" /> 
<path style="fill:#000000; fill-opacity:1.0000; stroke:none;fill-rule:evenodd;"
d="M 128.4180,90.6580
128.4945,90.6732
128.5594,90.7166
128.6028,90.7815
128.6180,90.8580
128.6180,91.2580
128.6028,91.3345
128.5594,91.3994
128.4945,91.4428
128.4180,91.4580
127.8680,91.4580
127.7915,91.4428
127.7266,91.3994
127.6832,91.3345
127.6680,91.2580
127.6680,90.8580
127.6832,90.7815
127.7266,90.7166
127.7915,90.6732
127.8680,90.6580
Z" /> 
<path style="fill:#000000; fill-opacity:1.0000; stroke:none;fill-rule:evenodd;"
d="M 118.7240,88.4100
118.6475,88.3948
118.5826,88.3514
118.5392,88.2865
118.5240,88.2100
118.5240,87.8100
118.5392,87.7335
118.5826,87.6686
118.6475,87.6252
118.7240,87.6100
119.2740,87.6100
119.3505,87.6252
119.4154,87.6686
119.4588,87.7335
119.4740,87.8100
119.4740,88.2100
119.4588,88.2865
119.4154,88.3514
119.3505,88.3948
119.2740,88.4100
Z" /> 
<path style="fill:#000000; fill-opacity:1.0000; stroke:none;fill-rule:evenodd;"
d="M 118.7240,86.7600
118.6475,86.7448
118.5826,86.7014
118.5392,86.6365
118.5240,86.5600
118.5240,86.1600
118.5392,86.0835
118.5826,86.0186
118.6475,85.9752
118.7240,85.9600
119.2740,85.9600
119.3505,85.9752
119.4154,86.0186
119.4588,86.0835
119.4740,86.1600
119.4740,86.5600
119.4588,86.6365
119.4154,86.7014
119.3505,86.7448
119.2740,86.7600
Z" /> 
</g> 
</svg>
