%TF.GenerationSoftware,KiCad,Pcbnew,8.0.4-8.0.4-0~ubuntu24.04.1*%
%TF.CreationDate,2024-07-31T18:59:25-04:00*%
%TF.ProjectId,iceblink,69636562-6c69-46e6-9b2e-6b696361645f,rev?*%
%TF.SameCoordinates,Original*%
%TF.FileFunction,Copper,L1,Top*%
%TF.FilePolarity,Positive*%
%FSLAX46Y46*%
G04 Gerber Fmt 4.6, Leading zero omitted, Abs format (unit mm)*
G04 Created by KiCad (PCBNEW 8.0.4-8.0.4-0~ubuntu24.04.1) date 2024-07-31 18:59:25*
%MOMM*%
%LPD*%
G01*
G04 APERTURE LIST*
G04 Aperture macros list*
%AMRoundRect*
0 Rectangle with rounded corners*
0 $1 Rounding radius*
0 $2 $3 $4 $5 $6 $7 $8 $9 X,Y pos of 4 corners*
0 Add a 4 corners polygon primitive as box body*
4,1,4,$2,$3,$4,$5,$6,$7,$8,$9,$2,$3,0*
0 Add four circle primitives for the rounded corners*
1,1,$1+$1,$2,$3*
1,1,$1+$1,$4,$5*
1,1,$1+$1,$6,$7*
1,1,$1+$1,$8,$9*
0 Add four rect primitives between the rounded corners*
20,1,$1+$1,$2,$3,$4,$5,0*
20,1,$1+$1,$4,$5,$6,$7,0*
20,1,$1+$1,$6,$7,$8,$9,0*
20,1,$1+$1,$8,$9,$2,$3,0*%
G04 Aperture macros list end*
%TA.AperFunction,SMDPad,CuDef*%
%ADD10RoundRect,0.140000X0.140000X0.170000X-0.140000X0.170000X-0.140000X-0.170000X0.140000X-0.170000X0*%
%TD*%
%TA.AperFunction,SMDPad,CuDef*%
%ADD11RoundRect,0.140000X0.170000X-0.140000X0.170000X0.140000X-0.170000X0.140000X-0.170000X-0.140000X0*%
%TD*%
%TA.AperFunction,SMDPad,CuDef*%
%ADD12RoundRect,0.225000X-0.250000X0.225000X-0.250000X-0.225000X0.250000X-0.225000X0.250000X0.225000X0*%
%TD*%
%TA.AperFunction,SMDPad,CuDef*%
%ADD13RoundRect,0.135000X0.185000X-0.135000X0.185000X0.135000X-0.185000X0.135000X-0.185000X-0.135000X0*%
%TD*%
%TA.AperFunction,SMDPad,CuDef*%
%ADD14RoundRect,0.140000X-0.170000X0.140000X-0.170000X-0.140000X0.170000X-0.140000X0.170000X0.140000X0*%
%TD*%
%TA.AperFunction,SMDPad,CuDef*%
%ADD15RoundRect,0.100000X0.100000X0.250000X-0.100000X0.250000X-0.100000X-0.250000X0.100000X-0.250000X0*%
%TD*%
%TA.AperFunction,SMDPad,CuDef*%
%ADD16R,0.900000X1.700000*%
%TD*%
%TA.AperFunction,SMDPad,CuDef*%
%ADD17RoundRect,0.135000X-0.185000X0.135000X-0.185000X-0.135000X0.185000X-0.135000X0.185000X0.135000X0*%
%TD*%
%TA.AperFunction,SMDPad,CuDef*%
%ADD18RoundRect,0.212500X-0.287500X-0.212500X0.287500X-0.212500X0.287500X0.212500X-0.287500X0.212500X0*%
%TD*%
%TA.AperFunction,SMDPad,CuDef*%
%ADD19RoundRect,0.225000X-0.225000X-0.250000X0.225000X-0.250000X0.225000X0.250000X-0.225000X0.250000X0*%
%TD*%
%TA.AperFunction,SMDPad,CuDef*%
%ADD20RoundRect,0.243750X-0.243750X-0.456250X0.243750X-0.456250X0.243750X0.456250X-0.243750X0.456250X0*%
%TD*%
%TA.AperFunction,SMDPad,CuDef*%
%ADD21R,1.000000X0.500000*%
%TD*%
%TA.AperFunction,SMDPad,CuDef*%
%ADD22RoundRect,0.135000X-0.135000X-0.185000X0.135000X-0.185000X0.135000X0.185000X-0.135000X0.185000X0*%
%TD*%
%TA.AperFunction,SMDPad,CuDef*%
%ADD23RoundRect,0.150000X-0.512500X-0.150000X0.512500X-0.150000X0.512500X0.150000X-0.512500X0.150000X0*%
%TD*%
%TA.AperFunction,SMDPad,CuDef*%
%ADD24RoundRect,0.125000X-0.250000X-0.125000X0.250000X-0.125000X0.250000X0.125000X-0.250000X0.125000X0*%
%TD*%
%TA.AperFunction,SMDPad,CuDef*%
%ADD25R,3.400000X4.300000*%
%TD*%
%TA.AperFunction,SMDPad,CuDef*%
%ADD26RoundRect,0.062500X-0.062500X0.375000X-0.062500X-0.375000X0.062500X-0.375000X0.062500X0.375000X0*%
%TD*%
%TA.AperFunction,SMDPad,CuDef*%
%ADD27RoundRect,0.062500X-0.375000X0.062500X-0.375000X-0.062500X0.375000X-0.062500X0.375000X0.062500X0*%
%TD*%
%TA.AperFunction,SMDPad,CuDef*%
%ADD28R,5.600000X5.600000*%
%TD*%
%TA.AperFunction,SMDPad,CuDef*%
%ADD29RoundRect,0.135000X0.135000X0.185000X-0.135000X0.185000X-0.135000X-0.185000X0.135000X-0.185000X0*%
%TD*%
%TA.AperFunction,SMDPad,CuDef*%
%ADD30C,1.000000*%
%TD*%
%TA.AperFunction,SMDPad,CuDef*%
%ADD31RoundRect,0.140000X-0.140000X-0.170000X0.140000X-0.170000X0.140000X0.170000X-0.140000X0.170000X0*%
%TD*%
%TA.AperFunction,SMDPad,CuDef*%
%ADD32R,1.150000X0.580000*%
%TD*%
%TA.AperFunction,SMDPad,CuDef*%
%ADD33R,1.150000X0.280000*%
%TD*%
%TA.AperFunction,ComponentPad*%
%ADD34O,2.100000X1.050000*%
%TD*%
%TA.AperFunction,ComponentPad*%
%ADD35O,2.000000X1.000000*%
%TD*%
%TA.AperFunction,ComponentPad*%
%ADD36R,1.700000X1.700000*%
%TD*%
%TA.AperFunction,ComponentPad*%
%ADD37O,1.700000X1.700000*%
%TD*%
%TA.AperFunction,ViaPad*%
%ADD38C,0.609600*%
%TD*%
%TA.AperFunction,Conductor*%
%ADD39C,0.152400*%
%TD*%
%TA.AperFunction,Conductor*%
%ADD40C,0.508000*%
%TD*%
%TA.AperFunction,Conductor*%
%ADD41C,0.635000*%
%TD*%
%TA.AperFunction,Conductor*%
%ADD42C,0.304800*%
%TD*%
%TA.AperFunction,Conductor*%
%ADD43C,0.254000*%
%TD*%
%TA.AperFunction,Conductor*%
%ADD44C,0.381000*%
%TD*%
%TA.AperFunction,Conductor*%
%ADD45C,0.203200*%
%TD*%
G04 APERTURE END LIST*
D10*
%TO.P,C5,1*%
%TO.N,Net-(U3-BYP)*%
X141069000Y-117983000D03*
%TO.P,C5,2*%
%TO.N,GND*%
X140109000Y-117983000D03*
%TD*%
D11*
%TO.P,C14,1*%
%TO.N,GND*%
X158242000Y-117955000D03*
%TO.P,C14,2*%
%TO.N,+1V2*%
X158242000Y-116995000D03*
%TD*%
D12*
%TO.P,C1,1*%
%TO.N,+5V*%
X136519500Y-105717000D03*
%TO.P,C1,2*%
%TO.N,GND*%
X136519500Y-107267000D03*
%TD*%
D13*
%TO.P,R19,1*%
%TO.N,+3V3*%
X174498000Y-108587000D03*
%TO.P,R19,2*%
%TO.N,Net-(D5-A)*%
X174498000Y-107567000D03*
%TD*%
D12*
%TO.P,C4,1*%
%TO.N,+5V*%
X136525000Y-114795000D03*
%TO.P,C4,2*%
%TO.N,GND*%
X136525000Y-116345000D03*
%TD*%
D14*
%TO.P,C9,1*%
%TO.N,GND*%
X161544000Y-105946000D03*
%TO.P,C9,2*%
%TO.N,+3V3*%
X161544000Y-106906000D03*
%TD*%
D15*
%TO.P,D4,1,K*%
%TO.N,Net-(D4-K)*%
X152496000Y-116586000D03*
%TO.P,D4,2,A*%
%TO.N,+3V3*%
X151796000Y-116586000D03*
%TD*%
D13*
%TO.P,R9,1*%
%TO.N,Net-(D1-Pad2)*%
X172212000Y-114683000D03*
%TO.P,R9,2*%
%TO.N,/RGB1*%
X172212000Y-113663000D03*
%TD*%
D12*
%TO.P,C2,1*%
%TO.N,+1V2*%
X142361500Y-105717000D03*
%TO.P,C2,2*%
%TO.N,GND*%
X142361500Y-107267000D03*
%TD*%
D16*
%TO.P,S2,1,1*%
%TO.N,Net-(U4-IOB_16a)*%
X166321000Y-107696000D03*
%TO.P,S2,2,2*%
%TO.N,GND*%
X169721000Y-107696000D03*
%TD*%
D17*
%TO.P,R10,1*%
%TO.N,Net-(J1-D+-PadA6)*%
X153670000Y-105535000D03*
%TO.P,R10,2*%
%TO.N,Net-(U4-IOB_24a)*%
X153670000Y-106555000D03*
%TD*%
D11*
%TO.P,C12,1*%
%TO.N,GND*%
X159791400Y-117955000D03*
%TO.P,C12,2*%
%TO.N,+3V3*%
X159791400Y-116995000D03*
%TD*%
D14*
%TO.P,C13,1*%
%TO.N,GND*%
X159029400Y-105946000D03*
%TO.P,C13,2*%
%TO.N,+1V2*%
X159029400Y-106906000D03*
%TD*%
D10*
%TO.P,C7,1*%
%TO.N,+3V3*%
X150975000Y-105791000D03*
%TO.P,C7,2*%
%TO.N,GND*%
X150015000Y-105791000D03*
%TD*%
D18*
%TO.P,X1,1,ENA*%
%TO.N,unconnected-(X1-ENA-Pad1)*%
X148629000Y-114721000D03*
%TO.P,X1,2,GND*%
%TO.N,GND*%
X150329000Y-114721000D03*
%TO.P,X1,3,OUT*%
%TO.N,Net-(U4-IOB_25b_G3)*%
X150329000Y-113371000D03*
%TO.P,X1,4,VS*%
%TO.N,+3V3*%
X148629000Y-113371000D03*
%TD*%
D12*
%TO.P,C6,1*%
%TO.N,+3V3*%
X142367000Y-114795000D03*
%TO.P,C6,2*%
%TO.N,GND*%
X142367000Y-116345000D03*
%TD*%
D19*
%TO.P,C15,1*%
%TO.N,GND*%
X154419000Y-117856000D03*
%TO.P,C15,2*%
%TO.N,Net-(U4-VCCPLL)*%
X155969000Y-117856000D03*
%TD*%
D13*
%TO.P,R16,1*%
%TO.N,Net-(U1-~{HOLD}{slash}IO3)*%
X152146000Y-108460000D03*
%TO.P,R16,2*%
%TO.N,+3V3*%
X152146000Y-107440000D03*
%TD*%
D20*
%TO.P,D3,1,K*%
%TO.N,/IOT_51a*%
X171274500Y-110617000D03*
%TO.P,D3,2,A*%
%TO.N,Net-(D3-A)*%
X173149500Y-110617000D03*
%TD*%
D17*
%TO.P,R12,1*%
%TO.N,Net-(J1-D--PadA7)*%
X154813000Y-105535000D03*
%TO.P,R12,2*%
%TO.N,Net-(U4-IOB_22a)*%
X154813000Y-106555000D03*
%TD*%
D13*
%TO.P,R5,1*%
%TO.N,Net-(U4-~{CRESET})*%
X165100000Y-111000000D03*
%TO.P,R5,2*%
%TO.N,+3V3*%
X165100000Y-109980000D03*
%TD*%
D20*
%TO.P,D5,1,K*%
%TO.N,GND*%
X171274500Y-108077000D03*
%TO.P,D5,2,A*%
%TO.N,Net-(D5-A)*%
X173149500Y-108077000D03*
%TD*%
D21*
%TO.P,D1,1*%
%TO.N,Net-(D1-Pad1)*%
X171162000Y-115805000D03*
%TO.P,D1,2*%
%TO.N,Net-(D1-Pad2)*%
X173262000Y-115805000D03*
%TO.P,D1,3*%
%TO.N,+3V3*%
X171162000Y-116605000D03*
%TO.P,D1,4*%
%TO.N,Net-(D1-Pad4)*%
X173262000Y-116605000D03*
%TD*%
D13*
%TO.P,R7,1*%
%TO.N,Net-(D1-Pad1)*%
X173228000Y-114683000D03*
%TO.P,R7,2*%
%TO.N,/RGB2*%
X173228000Y-113663000D03*
%TD*%
D22*
%TO.P,R1,1*%
%TO.N,+5V*%
X136269000Y-117983000D03*
%TO.P,R1,2*%
%TO.N,Net-(U3-EN)*%
X137289000Y-117983000D03*
%TD*%
D23*
%TO.P,U2,1,VIN*%
%TO.N,+5V*%
X138308500Y-105730000D03*
%TO.P,U2,2,GND*%
%TO.N,GND*%
X138308500Y-106680000D03*
%TO.P,U2,3,EN*%
%TO.N,+5V*%
X138308500Y-107630000D03*
%TO.P,U2,4,NC*%
%TO.N,unconnected-(U2-NC-Pad4)*%
X140583500Y-107630000D03*
%TO.P,U2,5,VOUT*%
%TO.N,+1V2*%
X140583500Y-105730000D03*
%TD*%
D17*
%TO.P,R6,1*%
%TO.N,Net-(U4-IOB_16a)*%
X165094500Y-107562000D03*
%TO.P,R6,2*%
%TO.N,+3V3*%
X165094500Y-108582000D03*
%TD*%
D24*
%TO.P,U1,1,~{CS}*%
%TO.N,Net-(U1-~{CS})*%
X145509000Y-107188000D03*
%TO.P,U1,2,DO/IO1*%
%TO.N,Net-(U1-DO{slash}IO1)*%
X145509000Y-108458000D03*
%TO.P,U1,3,~{WP}/IO2*%
%TO.N,Net-(U1-~{WP}{slash}IO2)*%
X145509000Y-109728000D03*
%TO.P,U1,4,GND*%
%TO.N,GND*%
X145509000Y-110998000D03*
%TO.P,U1,5,DI/IO0*%
%TO.N,Net-(U1-DI{slash}IO0)*%
X150909000Y-110998000D03*
%TO.P,U1,6,SCK*%
%TO.N,Net-(U1-SCK)*%
X150909000Y-109728000D03*
%TO.P,U1,7,~{HOLD}/IO3*%
%TO.N,Net-(U1-~{HOLD}{slash}IO3)*%
X150909000Y-108458000D03*
%TO.P,U1,8,VDD*%
%TO.N,+3V3*%
X150909000Y-107188000D03*
D25*
%TO.P,U1,9,EP*%
%TO.N,GND*%
X148209000Y-109093000D03*
%TD*%
D13*
%TO.P,R3,1*%
%TO.N,Net-(J1-CC1)*%
X136271000Y-109603000D03*
%TO.P,R3,2*%
%TO.N,GND*%
X136271000Y-108583000D03*
%TD*%
D14*
%TO.P,C8,1*%
%TO.N,+3V3*%
X147193000Y-113439000D03*
%TO.P,C8,2*%
%TO.N,GND*%
X147193000Y-114399000D03*
%TD*%
D16*
%TO.P,S3,1,1*%
%TO.N,/IOT_50b*%
X166321000Y-115951000D03*
%TO.P,S3,2,2*%
%TO.N,GND*%
X169721000Y-115951000D03*
%TD*%
D26*
%TO.P,U4,1,VCCIO_2*%
%TO.N,+3V3*%
X160865000Y-108322500D03*
%TO.P,U4,2,IOB_6a*%
%TO.N,/IOB_6a*%
X160365000Y-108322500D03*
%TO.P,U4,3,IOB_9b*%
%TO.N,/IOB_9b*%
X159865000Y-108322500D03*
%TO.P,U4,4,IOB_8a*%
%TO.N,/IOB_8a*%
X159365000Y-108322500D03*
%TO.P,U4,5,VCC*%
%TO.N,+1V2*%
X158865000Y-108322500D03*
%TO.P,U4,6,IOB_13b*%
%TO.N,/IOB_13b*%
X158365000Y-108322500D03*
%TO.P,U4,7,CDONE*%
%TO.N,Net-(D5-A)*%
X157865000Y-108322500D03*
%TO.P,U4,8,~{CRESET}*%
%TO.N,Net-(U4-~{CRESET})*%
X157365000Y-108322500D03*
%TO.P,U4,9,IOB_16a*%
%TO.N,Net-(U4-IOB_16a)*%
X156865000Y-108322500D03*
%TO.P,U4,10,IOB_18a*%
%TO.N,/IOB_18a*%
X156365000Y-108322500D03*
%TO.P,U4,11,IOB_20a*%
%TO.N,/IOB_20a*%
X155865000Y-108322500D03*
%TO.P,U4,12,IOB_22a*%
%TO.N,Net-(U4-IOB_22a)*%
X155365000Y-108322500D03*
D27*
%TO.P,U4,13,IOB_24a*%
%TO.N,Net-(U4-IOB_24a)*%
X154677500Y-109010000D03*
%TO.P,U4,14,IOB_32a_SPI_SO*%
%TO.N,Net-(U1-DI{slash}IO0)*%
X154677500Y-109510000D03*
%TO.P,U4,15,IOB_34a_SPI_SCK*%
%TO.N,Net-(U1-SCK)*%
X154677500Y-110010000D03*
%TO.P,U4,16,IOB_35b_SPI_SS*%
%TO.N,Net-(U1-~{CS})*%
X154677500Y-110510000D03*
%TO.P,U4,17,IOB_33b_SPI_SI*%
%TO.N,Net-(U1-DO{slash}IO1)*%
X154677500Y-111010000D03*
%TO.P,U4,18,IOB_31b*%
%TO.N,/IOB_31b*%
X154677500Y-111510000D03*
%TO.P,U4,19,IOB_29b*%
%TO.N,/IOB_29b*%
X154677500Y-112010000D03*
%TO.P,U4,20,IOB_25b_G3*%
%TO.N,Net-(U4-IOB_25b_G3)*%
X154677500Y-112510000D03*
%TO.P,U4,21,IOB_23b*%
%TO.N,Net-(U4-IOB_23b)*%
X154677500Y-113010000D03*
%TO.P,U4,22,SPI_VCCIO_1*%
%TO.N,+3V3*%
X154677500Y-113510000D03*
%TO.P,U4,23,IOT_37a*%
%TO.N,/IOT_37a*%
X154677500Y-114010000D03*
%TO.P,U4,24,VPP_2V5*%
%TO.N,Net-(D4-K)*%
X154677500Y-114510000D03*
D26*
%TO.P,U4,25,IOT_36b*%
%TO.N,/IOT_36b*%
X155365000Y-115197500D03*
%TO.P,U4,26,IOT_39a*%
%TO.N,/IOT_39a*%
X155865000Y-115197500D03*
%TO.P,U4,27,IOT_38b*%
%TO.N,/IOT_38b*%
X156365000Y-115197500D03*
%TO.P,U4,28,IOT_41a*%
%TO.N,/IOT_41a*%
X156865000Y-115197500D03*
%TO.P,U4,29,VCCPLL*%
%TO.N,Net-(U4-VCCPLL)*%
X157365000Y-115197500D03*
%TO.P,U4,30,VCC*%
%TO.N,+1V2*%
X157865000Y-115197500D03*
%TO.P,U4,31,IOT_42b*%
%TO.N,/IOT_42b*%
X158365000Y-115197500D03*
%TO.P,U4,32,IOT_43a*%
%TO.N,/IOT_43a*%
X158865000Y-115197500D03*
%TO.P,U4,33,VCCIO_0*%
%TO.N,+3V3*%
X159365000Y-115197500D03*
%TO.P,U4,34,IOT_44b*%
%TO.N,/IOT_44b*%
X159865000Y-115197500D03*
%TO.P,U4,35,IOT_46b_G0*%
%TO.N,/IOT_46b_G0*%
X160365000Y-115197500D03*
%TO.P,U4,36,IOT_48b*%
%TO.N,/IOT_48b*%
X160865000Y-115197500D03*
D27*
%TO.P,U4,37,IOT_45a_G1*%
%TO.N,/IOT_45a_G1*%
X161552500Y-114510000D03*
%TO.P,U4,38,IOT_50b*%
%TO.N,/IOT_50b*%
X161552500Y-114010000D03*
%TO.P,U4,39,RGB0*%
%TO.N,/RGB0*%
X161552500Y-113510000D03*
%TO.P,U4,40,RGB1*%
%TO.N,/RGB1*%
X161552500Y-113010000D03*
%TO.P,U4,41,RGB2*%
%TO.N,/RGB2*%
X161552500Y-112510000D03*
%TO.P,U4,42,IOT_51a*%
%TO.N,/IOT_51a*%
X161552500Y-112010000D03*
%TO.P,U4,43,IOT_49a*%
%TO.N,/IOT_49a*%
X161552500Y-111510000D03*
%TO.P,U4,44,IOB_3b_G6*%
%TO.N,/IOB_3b_G6*%
X161552500Y-111010000D03*
%TO.P,U4,45,IOB_5a*%
%TO.N,/IOB_5a*%
X161552500Y-110510000D03*
%TO.P,U4,46,IOB_0a*%
%TO.N,/IOB_0a*%
X161552500Y-110010000D03*
%TO.P,U4,47,IOB_2a*%
%TO.N,/IOB_2a*%
X161552500Y-109510000D03*
%TO.P,U4,48,IOB_4a*%
%TO.N,/IOB_4a*%
X161552500Y-109010000D03*
D28*
%TO.P,U4,49,GND*%
%TO.N,GND*%
X158115000Y-111760000D03*
%TD*%
D17*
%TO.P,R15,1*%
%TO.N,Net-(U1-~{WP}{slash}IO2)*%
X144272000Y-109726000D03*
%TO.P,R15,2*%
%TO.N,+3V3*%
X144272000Y-110746000D03*
%TD*%
D13*
%TO.P,R18,1*%
%TO.N,+1V2*%
X157226000Y-117985000D03*
%TO.P,R18,2*%
%TO.N,Net-(U4-VCCPLL)*%
X157226000Y-116965000D03*
%TD*%
%TO.P,R17,1*%
%TO.N,Net-(D3-A)*%
X174498000Y-111127000D03*
%TO.P,R17,2*%
%TO.N,+3V3*%
X174498000Y-110107000D03*
%TD*%
D29*
%TO.P,R13,1*%
%TO.N,+3V3*%
X146560000Y-105791000D03*
%TO.P,R13,2*%
%TO.N,Net-(U1-~{CS})*%
X145540000Y-105791000D03*
%TD*%
D30*
%TO.P,FID1,*%
%TO.N,*%
X128270000Y-105410000D03*
%TD*%
D17*
%TO.P,R20,1*%
%TO.N,/IOT_50b*%
X165100000Y-115441000D03*
%TO.P,R20,2*%
%TO.N,+3V3*%
X165100000Y-116461000D03*
%TD*%
%TO.P,R11,1*%
%TO.N,Net-(J1-D+-PadA6)*%
X152146000Y-105535000D03*
%TO.P,R11,2*%
%TO.N,Net-(U4-IOB_23b)*%
X152146000Y-106555000D03*
%TD*%
D16*
%TO.P,S1,1,1*%
%TO.N,Net-(U4-~{CRESET})*%
X166321000Y-110998000D03*
%TO.P,S1,2,2*%
%TO.N,GND*%
X169721000Y-110998000D03*
%TD*%
D13*
%TO.P,R2,1*%
%TO.N,Net-(J1-CC2)*%
X136271000Y-113540000D03*
%TO.P,R2,2*%
%TO.N,GND*%
X136271000Y-112520000D03*
%TD*%
D30*
%TO.P,FID3,*%
%TO.N,*%
X176530000Y-116840000D03*
%TD*%
D13*
%TO.P,R14,1*%
%TO.N,+3V3*%
X152146000Y-110748000D03*
%TO.P,R14,2*%
%TO.N,Net-(U1-SCK)*%
X152146000Y-109728000D03*
%TD*%
D31*
%TO.P,C10,1*%
%TO.N,GND*%
X151793000Y-114046000D03*
%TO.P,C10,2*%
%TO.N,+3V3*%
X152753000Y-114046000D03*
%TD*%
%TO.P,C3,1*%
%TO.N,Net-(U3-EN)*%
X138204000Y-117983000D03*
%TO.P,C3,2*%
%TO.N,GND*%
X139164000Y-117983000D03*
%TD*%
D30*
%TO.P,FID2,*%
%TO.N,*%
X176530000Y-106680000D03*
%TD*%
D13*
%TO.P,R4,1*%
%TO.N,Net-(D2-K)*%
X139192000Y-113413000D03*
%TO.P,R4,2*%
%TO.N,GND*%
X139192000Y-112393000D03*
%TD*%
D32*
%TO.P,J1,A1B12,GND*%
%TO.N,GND*%
X134422000Y-108560000D03*
%TO.P,J1,A4B9,VBUS*%
%TO.N,+5V*%
X134422000Y-109360000D03*
D33*
%TO.P,J1,A5,CC1*%
%TO.N,Net-(J1-CC1)*%
X134422000Y-110510000D03*
%TO.P,J1,A6,D+*%
%TO.N,Net-(J1-D+-PadA6)*%
X134422000Y-111510000D03*
%TO.P,J1,A7,D-*%
%TO.N,Net-(J1-D--PadA7)*%
X134422000Y-112010000D03*
%TO.P,J1,A8,SBU1*%
%TO.N,unconnected-(J1-SBU1-PadA8)*%
X134422000Y-113010000D03*
D32*
%TO.P,J1,B1A12,GND*%
%TO.N,GND*%
X134422000Y-114960000D03*
%TO.P,J1,B4A9,VBUS*%
%TO.N,+5V*%
X134422000Y-114160000D03*
D33*
%TO.P,J1,B5,CC2*%
%TO.N,Net-(J1-CC2)*%
X134422000Y-113510000D03*
%TO.P,J1,B6,D+*%
%TO.N,Net-(J1-D+-PadA6)*%
X134422000Y-112510000D03*
%TO.P,J1,B7,D-*%
%TO.N,Net-(J1-D--PadA7)*%
X134422000Y-111010000D03*
%TO.P,J1,B8,SBU2*%
%TO.N,unconnected-(J1-SBU2-PadB8)*%
X134422000Y-110010000D03*
D34*
%TO.P,J1,S1,SHELL*%
%TO.N,GND*%
X133847000Y-107440000D03*
D35*
%TO.P,J1,S2,SHELL*%
X129667000Y-107440000D03*
%TO.P,J1,S3,SHELL*%
X129667000Y-116080000D03*
D34*
%TO.P,J1,S4,SHELL*%
X133847000Y-116080000D03*
%TD*%
D31*
%TO.P,C11,1*%
%TO.N,GND*%
X151793000Y-115443000D03*
%TO.P,C11,2*%
%TO.N,Net-(D4-K)*%
X152753000Y-115443000D03*
%TD*%
D23*
%TO.P,U3,1,VIN*%
%TO.N,+5V*%
X138314000Y-114813000D03*
%TO.P,U3,2,GND*%
%TO.N,GND*%
X138314000Y-115763000D03*
%TO.P,U3,3,EN*%
%TO.N,Net-(U3-EN)*%
X138314000Y-116713000D03*
%TO.P,U3,4,BYP*%
%TO.N,Net-(U3-BYP)*%
X140589000Y-116713000D03*
%TO.P,U3,5,VOUT*%
%TO.N,+3V3*%
X140589000Y-114813000D03*
%TD*%
D13*
%TO.P,R8,1*%
%TO.N,Net-(D1-Pad4)*%
X171196000Y-114683000D03*
%TO.P,R8,2*%
%TO.N,/RGB0*%
X171196000Y-113663000D03*
%TD*%
D20*
%TO.P,D2,1,K*%
%TO.N,Net-(D2-K)*%
X140540500Y-112903000D03*
%TO.P,D2,2,A*%
%TO.N,+3V3*%
X142415500Y-112903000D03*
%TD*%
D36*
%TO.P,J2,1,Pin_1*%
%TO.N,+5V*%
X128270000Y-120650000D03*
D37*
%TO.P,J2,2,Pin_2*%
%TO.N,+3V3*%
X130810000Y-120650000D03*
%TO.P,J2,3,Pin_3*%
%TO.N,GND*%
X133350000Y-120650000D03*
%TO.P,J2,4,Pin_4*%
%TO.N,/IOB_31b*%
X135890000Y-120650000D03*
%TO.P,J2,5,Pin_5*%
%TO.N,/IOB_29b*%
X138430000Y-120650000D03*
%TO.P,J2,6,Pin_6*%
%TO.N,/IOT_37a*%
X140970000Y-120650000D03*
%TO.P,J2,7,Pin_7*%
%TO.N,/IOT_36b*%
X143510000Y-120650000D03*
%TO.P,J2,8,Pin_8*%
%TO.N,GND*%
X146050000Y-120650000D03*
%TO.P,J2,9,Pin_9*%
%TO.N,/IOT_39a*%
X148590000Y-120650000D03*
%TO.P,J2,10,Pin_10*%
%TO.N,/IOT_38b*%
X151130000Y-120650000D03*
%TO.P,J2,11,Pin_11*%
%TO.N,/IOT_41a*%
X153670000Y-120650000D03*
%TO.P,J2,12,Pin_12*%
%TO.N,/IOT_42b*%
X156210000Y-120650000D03*
%TO.P,J2,13,Pin_13*%
%TO.N,GND*%
X158750000Y-120650000D03*
%TO.P,J2,14,Pin_14*%
%TO.N,/IOT_43a*%
X161290000Y-120650000D03*
%TO.P,J2,15,Pin_15*%
%TO.N,/IOT_44b*%
X163830000Y-120650000D03*
%TO.P,J2,16,Pin_16*%
%TO.N,/IOT_46b_G0*%
X166370000Y-120650000D03*
%TO.P,J2,17,Pin_17*%
%TO.N,/RGB0*%
X168910000Y-120650000D03*
%TO.P,J2,18,Pin_18*%
%TO.N,GND*%
X171450000Y-120650000D03*
%TO.P,J2,19,Pin_19*%
%TO.N,/RGB1*%
X173990000Y-120650000D03*
%TO.P,J2,20,Pin_20*%
%TO.N,/RGB2*%
X176530000Y-120650000D03*
%TD*%
D36*
%TO.P,J3,1,Pin_1*%
%TO.N,+5V*%
X128270000Y-102870000D03*
D37*
%TO.P,J3,2,Pin_2*%
%TO.N,+3V3*%
X130810000Y-102870000D03*
%TO.P,J3,3,Pin_3*%
%TO.N,GND*%
X133350000Y-102870000D03*
%TO.P,J3,4,Pin_4*%
%TO.N,/IOB_20a*%
X135890000Y-102870000D03*
%TO.P,J3,5,Pin_5*%
%TO.N,/IOB_18a*%
X138430000Y-102870000D03*
%TO.P,J3,6,Pin_6*%
%TO.N,/IOB_13b*%
X140970000Y-102870000D03*
%TO.P,J3,7,Pin_7*%
%TO.N,/IOB_8a*%
X143510000Y-102870000D03*
%TO.P,J3,8,Pin_8*%
%TO.N,GND*%
X146050000Y-102870000D03*
%TO.P,J3,9,Pin_9*%
%TO.N,/IOB_9b*%
X148590000Y-102870000D03*
%TO.P,J3,10,Pin_10*%
%TO.N,/IOB_6a*%
X151130000Y-102870000D03*
%TO.P,J3,11,Pin_11*%
%TO.N,/IOB_4a*%
X153670000Y-102870000D03*
%TO.P,J3,12,Pin_12*%
%TO.N,/IOB_2a*%
X156210000Y-102870000D03*
%TO.P,J3,13,Pin_13*%
%TO.N,GND*%
X158750000Y-102870000D03*
%TO.P,J3,14,Pin_14*%
%TO.N,/IOB_0a*%
X161290000Y-102870000D03*
%TO.P,J3,15,Pin_15*%
%TO.N,/IOB_5a*%
X163830000Y-102870000D03*
%TO.P,J3,16,Pin_16*%
%TO.N,/IOB_3b_G6*%
X166370000Y-102870000D03*
%TO.P,J3,17,Pin_17*%
%TO.N,/IOT_49a*%
X168910000Y-102870000D03*
%TO.P,J3,18,Pin_18*%
%TO.N,GND*%
X171450000Y-102870000D03*
%TO.P,J3,19,Pin_19*%
%TO.N,/IOT_45a_G1*%
X173990000Y-102870000D03*
%TO.P,J3,20,Pin_20*%
%TO.N,/IOT_48b*%
X176530000Y-102870000D03*
%TD*%
D38*
%TO.N,+5V*%
X135382000Y-109347000D03*
X135382000Y-106426000D03*
X135382000Y-114160000D03*
%TO.N,GND*%
X172135800Y-108077000D03*
X169721000Y-109347000D03*
X136519500Y-108000800D03*
X158064200Y-118592600D03*
X154432000Y-118668800D03*
X148209000Y-109093000D03*
X138506200Y-112395000D03*
X151307800Y-115925600D03*
X151180800Y-114046000D03*
X139344400Y-115773200D03*
X147193000Y-115011200D03*
X160451800Y-117957600D03*
X149402800Y-105791000D03*
X158569476Y-105434900D03*
X136931400Y-112522000D03*
X169721000Y-117222800D03*
X141554200Y-115824000D03*
X139623800Y-117525800D03*
X158115000Y-111760000D03*
X145516600Y-111607600D03*
X159512000Y-110363000D03*
X159512000Y-113157000D03*
X135375500Y-115195500D03*
X141554200Y-106883200D03*
X156718000Y-110363000D03*
X156718000Y-113157000D03*
X161544000Y-105333800D03*
%TO.N,+1V2*%
X158873456Y-107482519D03*
X157900045Y-116133379D03*
X140583500Y-106750700D03*
%TO.N,+3V3*%
X150975000Y-106476800D03*
X161544000Y-107543600D03*
X147853400Y-113371000D03*
X151257000Y-116916200D03*
X171170600Y-117246400D03*
X159791400Y-116484400D03*
X153289000Y-114046000D03*
X141528800Y-114813000D03*
X165100000Y-109220000D03*
X151563458Y-110367745D03*
X144272000Y-111353600D03*
X164414200Y-116459000D03*
X147193000Y-105791000D03*
X174498000Y-109194600D03*
%TO.N,Net-(D5-A)*%
X157716576Y-107048866D03*
X168262300Y-107429300D03*
%TO.N,/RGB1*%
X172212000Y-113004600D03*
%TO.N,/IOT_48b*%
X168325803Y-114427000D03*
%TO.N,/IOT_45a_G1*%
X167513000Y-114427000D03*
%TO.N,/IOB_6a*%
X160781539Y-105053640D03*
%TO.N,/IOB_8a*%
X156405570Y-105053900D03*
%TO.N,/IOB_9b*%
X159971524Y-105114570D03*
%TO.N,/IOB_13b*%
X157176867Y-105409500D03*
%TO.N,Net-(U4-~{CRESET})*%
X167309800Y-107111800D03*
X156949014Y-106783001D03*
%TO.N,Net-(U4-IOB_16a)*%
X156361900Y-106222300D03*
X166319200Y-106400600D03*
%TO.N,Net-(U4-IOB_23b)*%
X153517600Y-108889800D03*
X153528594Y-113184084D03*
%TD*%
D39*
%TO.N,+5V*%
X137279400Y-115537000D02*
X136537400Y-114795000D01*
D40*
X135810500Y-106426000D02*
X136519500Y-105717000D01*
X138296000Y-114795000D02*
X138314000Y-114813000D01*
D41*
X131826000Y-106426000D02*
X128270000Y-102870000D01*
D40*
X134422000Y-114160000D02*
X135733503Y-114160000D01*
X136519500Y-105717000D02*
X138295500Y-105717000D01*
X138295500Y-105717000D02*
X138308500Y-105730000D01*
X136525000Y-114795000D02*
X137261600Y-114795000D01*
X137261600Y-114795000D02*
X138296000Y-114795000D01*
D39*
X138699200Y-107630000D02*
X139250400Y-107078800D01*
X138308500Y-107630000D02*
X138699200Y-107630000D01*
D41*
X135382000Y-106426000D02*
X131826000Y-106426000D01*
D40*
X135733503Y-114160000D02*
X136368503Y-114795000D01*
D39*
X139250400Y-107078800D02*
X139250400Y-106306600D01*
D40*
X136368503Y-114795000D02*
X136525000Y-114795000D01*
D39*
X139250400Y-106306600D02*
X138673800Y-105730000D01*
X138673800Y-105730000D02*
X138308500Y-105730000D01*
D40*
X135382000Y-106426000D02*
X135810500Y-106426000D01*
D39*
X136537400Y-114795000D02*
X136525000Y-114795000D01*
D40*
X135369000Y-109360000D02*
X135382000Y-109347000D01*
D39*
X137279400Y-116949200D02*
X137279400Y-115537000D01*
D40*
X134422000Y-109360000D02*
X135369000Y-109360000D01*
D39*
X136269000Y-117983000D02*
X136269000Y-117959600D01*
X136269000Y-117959600D02*
X137279400Y-116949200D01*
X137279400Y-114812800D02*
X137261600Y-114795000D01*
D42*
%TO.N,GND*%
X139164000Y-117983000D02*
X139623800Y-117983000D01*
X150329000Y-114721000D02*
X150251800Y-114721000D01*
D43*
X158242000Y-118414800D02*
X158064200Y-118592600D01*
D40*
X138308500Y-106680000D02*
X137106500Y-106680000D01*
D42*
X139623800Y-117983000D02*
X139623800Y-117525800D01*
D40*
X134422000Y-108560000D02*
X136248000Y-108560000D01*
D42*
X151310400Y-115925600D02*
X151793000Y-115443000D01*
X150015000Y-105791000D02*
X149402800Y-105791000D01*
D43*
X158242000Y-117955000D02*
X158242000Y-118414800D01*
D42*
X136271000Y-112520000D02*
X136929400Y-112520000D01*
D43*
X158877000Y-105918000D02*
X158877000Y-105946000D01*
D42*
X169721000Y-117222800D02*
X169721000Y-115951000D01*
D43*
X159791400Y-117955000D02*
X160449200Y-117955000D01*
X158417076Y-105434900D02*
X158417076Y-105458076D01*
D42*
X151130000Y-114046000D02*
X151793000Y-114046000D01*
D40*
X134422000Y-114960000D02*
X135140000Y-114960000D01*
X138314000Y-115763000D02*
X139334200Y-115763000D01*
D42*
X138508200Y-112393000D02*
X138506200Y-112395000D01*
D40*
X137106500Y-106680000D02*
X136519500Y-107267000D01*
D42*
X150455000Y-114721000D02*
X151130000Y-114046000D01*
X139166600Y-117983000D02*
X139623800Y-117525800D01*
X140081000Y-117983000D02*
X139623800Y-117525800D01*
D40*
X141977700Y-106883200D02*
X141554200Y-106883200D01*
D42*
X139192000Y-112393000D02*
X138508200Y-112393000D01*
D40*
X142361500Y-107267000D02*
X141977700Y-106883200D01*
X139334200Y-115763000D02*
X139344400Y-115773200D01*
X142367000Y-116345000D02*
X141846000Y-115824000D01*
D42*
X147193000Y-114399000D02*
X147193000Y-115011200D01*
X151307800Y-115925600D02*
X151310400Y-115925600D01*
X154419000Y-118655800D02*
X154432000Y-118668800D01*
X150329000Y-114721000D02*
X150455000Y-114721000D01*
X136929400Y-112520000D02*
X136931400Y-112522000D01*
D43*
X158569476Y-105458076D02*
X159029400Y-105918000D01*
D42*
X145509000Y-111600000D02*
X145516600Y-111607600D01*
X140109000Y-117983000D02*
X140081000Y-117983000D01*
X145509000Y-110998000D02*
X145509000Y-111600000D01*
D44*
X136248000Y-108560000D02*
X136271000Y-108583000D01*
D42*
X172135800Y-108077000D02*
X171274500Y-108077000D01*
D40*
X141846000Y-115824000D02*
X141554200Y-115824000D01*
D42*
X139623800Y-117983000D02*
X140109000Y-117983000D01*
D40*
X136519500Y-108334500D02*
X136271000Y-108583000D01*
X135140000Y-114960000D02*
X136525000Y-116345000D01*
X136519500Y-107267000D02*
X136519500Y-108334500D01*
D43*
X160550800Y-117955000D02*
X160553400Y-117957600D01*
D42*
X139164000Y-117983000D02*
X139166600Y-117983000D01*
X154419000Y-117856000D02*
X154419000Y-118655800D01*
D43*
X161544000Y-105946000D02*
X161544000Y-105333800D01*
D42*
X169721000Y-107696000D02*
X169721000Y-110998000D01*
D43*
%TO.N,+1V2*%
X157226000Y-117985000D02*
X158216000Y-116995000D01*
X158242000Y-116484400D02*
X157865000Y-116107400D01*
X158873456Y-107482519D02*
X159029400Y-107326575D01*
X158865000Y-108322500D02*
X158865000Y-107490975D01*
D40*
X140583500Y-105730000D02*
X140583500Y-106750700D01*
D43*
X157865000Y-116107400D02*
X157865000Y-115197500D01*
D40*
X142348500Y-105730000D02*
X142361500Y-105717000D01*
D43*
X158865000Y-107490975D02*
X158873456Y-107482519D01*
X159029400Y-107326575D02*
X159029400Y-106906000D01*
D40*
X140589000Y-106756200D02*
X140583500Y-106750700D01*
D43*
X158242000Y-116995000D02*
X158242000Y-116484400D01*
D40*
X140583500Y-105730000D02*
X142348500Y-105730000D01*
D43*
X158216000Y-116995000D02*
X158242000Y-116995000D01*
D39*
%TO.N,Net-(U3-EN)*%
X138204000Y-117983000D02*
X138204000Y-116823000D01*
X137289000Y-117983000D02*
X138204000Y-117983000D01*
X138204000Y-116823000D02*
X138314000Y-116713000D01*
%TO.N,Net-(U3-BYP)*%
X140589000Y-116713000D02*
X140589000Y-117489000D01*
X141069000Y-117969000D02*
X141069000Y-117983000D01*
X140589000Y-117489000D02*
X141069000Y-117969000D01*
%TO.N,+3V3*%
X152146000Y-107440000D02*
X151991600Y-107440000D01*
X152146000Y-110748000D02*
X151943713Y-110748000D01*
D43*
X159791400Y-116341464D02*
X159791400Y-116484400D01*
D42*
X164416200Y-116461000D02*
X164414200Y-116459000D01*
D39*
X144272000Y-110746000D02*
X144272000Y-111353600D01*
X142415500Y-112903000D02*
X142415500Y-114746500D01*
D42*
X174498000Y-108587000D02*
X174498000Y-109194600D01*
X148629000Y-113371000D02*
X147261000Y-113371000D01*
D45*
X153289000Y-114046000D02*
X152753000Y-114046000D01*
D42*
X150975000Y-105791000D02*
X150975000Y-107122000D01*
D39*
X151991600Y-107440000D02*
X151739600Y-107188000D01*
X142415500Y-114746500D02*
X142367000Y-114795000D01*
X146560000Y-105791000D02*
X147193000Y-105791000D01*
D42*
X174498000Y-109194600D02*
X174498000Y-110107000D01*
D45*
X153593800Y-114046000D02*
X154129800Y-113510000D01*
D40*
X142349000Y-114813000D02*
X142367000Y-114795000D01*
D43*
X159365000Y-115197500D02*
X159365000Y-115915064D01*
D42*
X151465800Y-116916200D02*
X151796000Y-116586000D01*
D43*
X161146100Y-108322500D02*
X160865000Y-108322500D01*
D39*
X151943713Y-110748000D02*
X151563458Y-110367745D01*
D40*
X140589000Y-114813000D02*
X142349000Y-114813000D01*
D42*
X171162000Y-116605000D02*
X171162000Y-117237800D01*
D39*
X165094500Y-109214500D02*
X165100000Y-109220000D01*
D45*
X153289000Y-114046000D02*
X153593800Y-114046000D01*
D42*
X151257000Y-116916200D02*
X151465800Y-116916200D01*
D45*
X154129800Y-113510000D02*
X154677500Y-113510000D01*
D39*
X151739600Y-107188000D02*
X150909000Y-107188000D01*
D42*
X147261000Y-113371000D02*
X147193000Y-113439000D01*
D43*
X161544000Y-107924600D02*
X161146100Y-108322500D01*
D39*
X174498000Y-110107000D02*
X174445200Y-110107000D01*
D42*
X165100000Y-109980000D02*
X165100000Y-109220000D01*
D43*
X159365000Y-115915064D02*
X159791400Y-116341464D01*
D39*
X171162000Y-117237800D02*
X171170600Y-117246400D01*
D42*
X165094500Y-108582000D02*
X165094500Y-109214500D01*
X150975000Y-107122000D02*
X150909000Y-107188000D01*
D43*
X159791400Y-116484400D02*
X159791400Y-116995000D01*
X161544000Y-106906000D02*
X161544000Y-107924600D01*
D42*
X165100000Y-116461000D02*
X164416200Y-116461000D01*
D45*
%TO.N,Net-(D4-K)*%
X153390600Y-115443000D02*
X154323600Y-114510000D01*
D42*
X152496000Y-115700000D02*
X152753000Y-115443000D01*
D45*
X152753000Y-115443000D02*
X153390600Y-115443000D01*
D42*
X152496000Y-116586000D02*
X152496000Y-115700000D01*
D45*
X154323600Y-114510000D02*
X154677500Y-114510000D01*
D43*
%TO.N,Net-(U4-VCCPLL)*%
X156288200Y-116965000D02*
X157226000Y-116965000D01*
X157226000Y-115931324D02*
X157365000Y-115792324D01*
X155969000Y-117856000D02*
X155969000Y-117284200D01*
X157226000Y-116965000D02*
X157226000Y-115931324D01*
X157365000Y-115792324D02*
X157365000Y-115197500D01*
X155969000Y-117284200D02*
X156288200Y-116965000D01*
D39*
%TO.N,Net-(D1-Pad1)*%
X171162000Y-115805000D02*
X171507200Y-115805000D01*
X171958000Y-116509800D02*
X172618400Y-117170200D01*
X174066200Y-115300400D02*
X173448800Y-114683000D01*
X171958000Y-116255800D02*
X171958000Y-116509800D01*
X173863000Y-117170200D02*
X174066200Y-116967000D01*
X171507200Y-115805000D02*
X171958000Y-116255800D01*
X172618400Y-117170200D02*
X173863000Y-117170200D01*
X174066200Y-116967000D02*
X174066200Y-115300400D01*
X173448800Y-114683000D02*
X173228000Y-114683000D01*
%TO.N,Net-(D1-Pad2)*%
X172955000Y-115805000D02*
X173262000Y-115805000D01*
X172212000Y-115062000D02*
X172955000Y-115805000D01*
X172212000Y-114683000D02*
X172212000Y-115062000D01*
%TO.N,Net-(D1-Pad4)*%
X171196000Y-114683000D02*
X171248800Y-114683000D01*
X171248800Y-114683000D02*
X172237400Y-115671600D01*
X172916800Y-116605000D02*
X173262000Y-116605000D01*
X172237400Y-115925600D02*
X172916800Y-116605000D01*
X172237400Y-115671600D02*
X172237400Y-115925600D01*
%TO.N,Net-(D2-K)*%
X139240800Y-113413000D02*
X139750800Y-112903000D01*
X139192000Y-113413000D02*
X139240800Y-113413000D01*
X139750800Y-112903000D02*
X140540500Y-112903000D01*
%TO.N,Net-(D3-A)*%
X173149500Y-110617000D02*
X173988000Y-110617000D01*
X173149500Y-110797100D02*
X173149500Y-110617000D01*
X173988000Y-110617000D02*
X174498000Y-111127000D01*
%TO.N,/IOT_51a*%
X165543800Y-112141000D02*
X170637200Y-112141000D01*
X165412800Y-112010000D02*
X165543800Y-112141000D01*
X170637200Y-112141000D02*
X171274500Y-111503700D01*
X171274500Y-111503700D02*
X171274500Y-110617000D01*
X161552500Y-112010000D02*
X165412800Y-112010000D01*
X171274500Y-110436900D02*
X171274500Y-110617000D01*
X161572628Y-112030128D02*
X161552500Y-112010000D01*
%TO.N,Net-(D5-A)*%
X168262300Y-107429300D02*
X169138600Y-106553000D01*
X174498000Y-107567000D02*
X174449200Y-107567000D01*
X157865000Y-107197290D02*
X157865000Y-108322500D01*
X174449200Y-107567000D02*
X173939200Y-108077000D01*
X157716576Y-107048866D02*
X157865000Y-107197290D01*
X173149500Y-107896900D02*
X173149500Y-108077000D01*
X173939200Y-108077000D02*
X173149500Y-108077000D01*
X169138600Y-106553000D02*
X171805600Y-106553000D01*
X171805600Y-106553000D02*
X173149500Y-107896900D01*
%TO.N,Net-(J1-CC1)*%
X134422000Y-110510000D02*
X135364000Y-110510000D01*
X135364000Y-110510000D02*
X136271000Y-109603000D01*
%TO.N,Net-(J1-D+-PadA6)*%
X151739600Y-105181400D02*
X152093200Y-105535000D01*
X135085200Y-111506000D02*
X135280400Y-111506000D01*
X144424400Y-107467400D02*
X144424400Y-106000550D01*
X135276400Y-111705200D02*
X135276400Y-112297400D01*
X152093200Y-105535000D02*
X152146000Y-105535000D01*
X135276400Y-112297400D02*
X135063800Y-112510000D01*
X135063800Y-112510000D02*
X134422000Y-112510000D01*
X144424400Y-106000550D02*
X145243550Y-105181400D01*
X135483600Y-111506000D02*
X140385800Y-111506000D01*
X152146000Y-105535000D02*
X153670000Y-105535000D01*
X135276400Y-111510000D02*
X135280400Y-111506000D01*
X140385800Y-111506000D02*
X144424400Y-107467400D01*
X135081200Y-111510000D02*
X135085200Y-111506000D01*
X135276400Y-111705200D02*
X135276400Y-111510000D01*
X135276400Y-111705200D02*
X135276400Y-111700500D01*
X145243550Y-105181400D02*
X151739600Y-105181400D01*
X135276400Y-111700500D02*
X135470900Y-111506000D01*
X135081200Y-111510000D02*
X135276400Y-111705200D01*
X134422000Y-111510000D02*
X135081200Y-111510000D01*
X135280400Y-111506000D02*
X135483600Y-111506000D01*
X135470900Y-111506000D02*
X135483600Y-111506000D01*
%TO.N,Net-(J1-D--PadA7)*%
X133777800Y-112010000D02*
X133567600Y-111799800D01*
X133769800Y-111010000D02*
X134422000Y-111010000D01*
X133567600Y-111212200D02*
X133769800Y-111010000D01*
X143916400Y-107238800D02*
X143916400Y-105740200D01*
X140145200Y-111010000D02*
X143916400Y-107238800D01*
X144830800Y-104825800D02*
X154103800Y-104825800D01*
X154103800Y-104825800D02*
X154813000Y-105535000D01*
X134422000Y-111010000D02*
X140145200Y-111010000D01*
X134422000Y-112010000D02*
X133777800Y-112010000D01*
X133567600Y-111799800D02*
X133567600Y-111212200D01*
X143916400Y-105740200D02*
X144830800Y-104825800D01*
%TO.N,Net-(J1-CC2)*%
X136241000Y-113510000D02*
X136271000Y-113540000D01*
X134422000Y-113510000D02*
X136241000Y-113510000D01*
%TO.N,/RGB2*%
X173228000Y-113663000D02*
X173302200Y-113663000D01*
X171526200Y-112420400D02*
X172593000Y-112420400D01*
X173228000Y-113055400D02*
X173228000Y-113663000D01*
X172593000Y-112420400D02*
X173228000Y-113055400D01*
X174980600Y-119100600D02*
X176530000Y-120650000D01*
X173302200Y-113663000D02*
X174980600Y-115341400D01*
X161552500Y-112510000D02*
X165189600Y-112510000D01*
X165189600Y-112510000D02*
X165252400Y-112572800D01*
X174980600Y-115341400D02*
X174980600Y-119100600D01*
X171373800Y-112572800D02*
X171526200Y-112420400D01*
X165252400Y-112572800D02*
X171373800Y-112572800D01*
%TO.N,/RGB1*%
X172212000Y-113004600D02*
X161557900Y-113004600D01*
X161557900Y-113004600D02*
X161552500Y-113010000D01*
X172212000Y-113663000D02*
X172212000Y-113004600D01*
%TO.N,/RGB0*%
X171196000Y-113663000D02*
X171043000Y-113510000D01*
X171043000Y-113510000D02*
X161552500Y-113510000D01*
X170178000Y-114681000D02*
X171196000Y-113663000D01*
X168910000Y-120650000D02*
X168910000Y-114960400D01*
X168910000Y-114960400D02*
X169189400Y-114681000D01*
X169189400Y-114681000D02*
X170178000Y-114681000D01*
%TO.N,/IOT_50b*%
X163590800Y-114010000D02*
X165021800Y-115441000D01*
X165100000Y-115441000D02*
X165174200Y-115441000D01*
X165684200Y-115951000D02*
X166269000Y-115951000D01*
X161552500Y-114010000D02*
X163590800Y-114010000D01*
X165174200Y-115441000D02*
X165684200Y-115951000D01*
X165021800Y-115441000D02*
X165100000Y-115441000D01*
%TO.N,/IOT_49a*%
X164363400Y-110413800D02*
X164363400Y-107387050D01*
X161552500Y-111510000D02*
X163267200Y-111510000D01*
X163267200Y-111510000D02*
X164363400Y-110413800D01*
X168880450Y-102870000D02*
X168910000Y-102870000D01*
X164363400Y-107387050D02*
X168880450Y-102870000D01*
%TO.N,/IOT_48b*%
X168325803Y-116712997D02*
X167030400Y-118008400D01*
X161323900Y-115197500D02*
X160865000Y-115197500D01*
X168325803Y-114427000D02*
X168325803Y-116712997D01*
X167030400Y-118008400D02*
X164134800Y-118008400D01*
X164134800Y-118008400D02*
X161323900Y-115197500D01*
%TO.N,/IOT_46b_G0*%
X160365000Y-115711800D02*
X163550600Y-118897400D01*
X160365000Y-115197500D02*
X160365000Y-115711800D01*
X163550600Y-118897400D02*
X164617400Y-118897400D01*
X164617400Y-118897400D02*
X166370000Y-120650000D01*
%TO.N,/IOT_45a_G1*%
X167513000Y-116484400D02*
X166674800Y-117322600D01*
X163449000Y-115849400D02*
X162109600Y-114510000D01*
X162109600Y-114510000D02*
X161552500Y-114510000D01*
X166674800Y-117322600D02*
X164236400Y-117322600D01*
X164236400Y-117322600D02*
X163449000Y-116535200D01*
X163449000Y-116535200D02*
X163449000Y-115849400D01*
X167513000Y-114427000D02*
X167513000Y-116484400D01*
%TO.N,/IOT_44b*%
X161340800Y-118160800D02*
X163830000Y-120650000D01*
X159865000Y-115719800D02*
X159969200Y-115824000D01*
X161340800Y-117207616D02*
X161340800Y-118160800D01*
X159865000Y-115197500D02*
X159865000Y-115719800D01*
X159969200Y-115824000D02*
X159969200Y-115836016D01*
X159969200Y-115836016D02*
X161340800Y-117207616D01*
%TO.N,/IOT_43a*%
X159187000Y-116311800D02*
X159187000Y-118547000D01*
X158865000Y-115197500D02*
X158865000Y-115989800D01*
X158865000Y-115989800D02*
X159187000Y-116311800D01*
X159187000Y-118547000D02*
X161290000Y-120650000D01*
%TO.N,/IOT_42b*%
X158365000Y-115772150D02*
X158484245Y-115891395D01*
X158831400Y-118892200D02*
X158343600Y-119380000D01*
X157480000Y-119380000D02*
X156210000Y-120650000D01*
X158365000Y-115197500D02*
X158365000Y-115772150D01*
X158484245Y-116151909D02*
X158831400Y-116499064D01*
X158343600Y-119380000D02*
X157480000Y-119380000D01*
X158831400Y-116499064D02*
X158831400Y-118892200D01*
X158484245Y-115891395D02*
X158484245Y-116151909D01*
%TO.N,/IOT_41a*%
X156865000Y-115197500D02*
X156865000Y-115717588D01*
X155194000Y-119126000D02*
X153670000Y-120650000D01*
X156865000Y-115717588D02*
X155194000Y-117388588D01*
X155194000Y-117388588D02*
X155194000Y-119126000D01*
%TO.N,/IOT_39a*%
X151658294Y-118821200D02*
X150418800Y-118821200D01*
X155865000Y-115711800D02*
X155575000Y-116001800D01*
X155865000Y-115197500D02*
X155865000Y-115711800D01*
X154477694Y-116001800D02*
X151658294Y-118821200D01*
X155575000Y-116001800D02*
X154477694Y-116001800D01*
X150418800Y-118821200D02*
X148590000Y-120650000D01*
%TO.N,/IOT_38b*%
X153517600Y-117464788D02*
X153517600Y-118262400D01*
X155722294Y-116357400D02*
X154624988Y-116357400D01*
X156365000Y-115197500D02*
X156365000Y-115714694D01*
X153517600Y-118262400D02*
X151130000Y-120650000D01*
X156365000Y-115714694D02*
X155722294Y-116357400D01*
X154624988Y-116357400D02*
X153517600Y-117464788D01*
%TO.N,/IOT_37a*%
X154168616Y-114010000D02*
X154677500Y-114010000D01*
X153446816Y-114731800D02*
X154168616Y-114010000D01*
X150472452Y-115773200D02*
X151513852Y-114731800D01*
X151513852Y-114731800D02*
X153446816Y-114731800D01*
X145846800Y-115773200D02*
X150472452Y-115773200D01*
X140970000Y-120650000D02*
X145846800Y-115773200D01*
%TO.N,/IOB_0a*%
X161552500Y-110010000D02*
X162328800Y-110010000D01*
X162328800Y-110010000D02*
X163118800Y-109220000D01*
X163118800Y-109220000D02*
X163118800Y-104698800D01*
X163118800Y-104698800D02*
X161290000Y-102870000D01*
%TO.N,/IOB_2a*%
X162737800Y-108991400D02*
X162737800Y-105105200D01*
X162737800Y-105105200D02*
X161747200Y-104114600D01*
X161552500Y-109510000D02*
X162219200Y-109510000D01*
X157454600Y-104114600D02*
X156210000Y-102870000D01*
X161747200Y-104114600D02*
X157454600Y-104114600D01*
X162219200Y-109510000D02*
X162737800Y-108991400D01*
%TO.N,/IOB_3b_G6*%
X162979800Y-111010000D02*
X163957000Y-110032800D01*
X161552500Y-111010000D02*
X162979800Y-111010000D01*
X163957000Y-110032800D02*
X163957000Y-105283000D01*
X163957000Y-105283000D02*
X166370000Y-102870000D01*
%TO.N,/IOB_4a*%
X162356800Y-105227094D02*
X161599906Y-104470200D01*
X154127200Y-102870000D02*
X153670000Y-102870000D01*
X162033400Y-109010000D02*
X162356800Y-108686600D01*
X161552500Y-109010000D02*
X162033400Y-109010000D01*
X155727400Y-104470200D02*
X154127200Y-102870000D01*
X161599906Y-104470200D02*
X155727400Y-104470200D01*
X162356800Y-108686600D02*
X162356800Y-105227094D01*
%TO.N,/IOB_5a*%
X162667000Y-110510000D02*
X163525200Y-109651800D01*
X161552500Y-110510000D02*
X162667000Y-110510000D01*
X163525200Y-104749600D02*
X163830000Y-104444800D01*
X163830000Y-104444800D02*
X163830000Y-102870000D01*
X163525200Y-109651800D02*
X163525200Y-104749600D01*
%TO.N,/IOB_6a*%
X160365000Y-108322500D02*
X160365000Y-107833600D01*
X160781539Y-107417061D02*
X160781539Y-105053640D01*
X160365000Y-107833600D02*
X160781539Y-107417061D01*
%TO.N,/IOB_8a*%
X156633670Y-104825800D02*
X158851600Y-104825800D01*
X158851600Y-104825800D02*
X159740600Y-105714800D01*
X159740600Y-107442000D02*
X159365000Y-107817600D01*
X159365000Y-107817600D02*
X159365000Y-108322500D01*
X159740600Y-105714800D02*
X159740600Y-107442000D01*
X156405570Y-105053900D02*
X156633670Y-104825800D01*
%TO.N,/IOB_9b*%
X159971524Y-105114570D02*
X160375600Y-105518646D01*
X159865000Y-107825600D02*
X159865000Y-108322500D01*
X159974306Y-107721400D02*
X159969200Y-107721400D01*
X160375600Y-105518646D02*
X160375600Y-107320106D01*
X159969200Y-107721400D02*
X159865000Y-107825600D01*
X160375600Y-107320106D02*
X159974306Y-107721400D01*
%TO.N,/IOB_13b*%
X158378191Y-106612991D02*
X157176867Y-105411667D01*
X158365000Y-108322500D02*
X158365000Y-107920600D01*
X158365000Y-107920600D02*
X158289256Y-107844856D01*
X158289256Y-107844856D02*
X158289256Y-107240535D01*
X158289256Y-107240535D02*
X158378191Y-107151600D01*
X157176867Y-105411667D02*
X157176867Y-105409500D01*
X158378191Y-107151600D02*
X158378191Y-106612991D01*
%TO.N,/IOB_18a*%
X155778200Y-107137200D02*
X155778200Y-105091256D01*
X139649200Y-104089200D02*
X138430000Y-102870000D01*
X156365000Y-107724000D02*
X155778200Y-107137200D01*
X156365000Y-108322500D02*
X156365000Y-107724000D01*
X155778200Y-105091256D02*
X154776144Y-104089200D01*
X154776144Y-104089200D02*
X139649200Y-104089200D01*
%TO.N,/IOB_20a*%
X155422600Y-105238550D02*
X154654250Y-104470200D01*
X155865000Y-107726894D02*
X155422600Y-107284494D01*
X155865000Y-108322500D02*
X155865000Y-107726894D01*
X155422600Y-107284494D02*
X155422600Y-105238550D01*
X154654250Y-104470200D02*
X137490200Y-104470200D01*
X137490200Y-104470200D02*
X135890000Y-102870000D01*
%TO.N,/IOB_29b*%
X144780000Y-114858800D02*
X147015200Y-112623600D01*
X138430000Y-120650000D02*
X139877800Y-119202200D01*
X152725094Y-112623600D02*
X153338694Y-112010000D01*
X144780000Y-116027200D02*
X144780000Y-114858800D01*
X147015200Y-112623600D02*
X152725094Y-112623600D01*
X141605000Y-119202200D02*
X144780000Y-116027200D01*
X139877800Y-119202200D02*
X141605000Y-119202200D01*
X153338694Y-112010000D02*
X154677500Y-112010000D01*
%TO.N,/IOB_31b*%
X137922000Y-118618000D02*
X141401800Y-118618000D01*
X152577800Y-112268000D02*
X153335800Y-111510000D01*
X144195800Y-115824000D02*
X144195800Y-114554000D01*
X135890000Y-120650000D02*
X137922000Y-118618000D01*
X153335800Y-111510000D02*
X154677500Y-111510000D01*
X146481800Y-112268000D02*
X152577800Y-112268000D01*
X141401800Y-118618000D02*
X144195800Y-115824000D01*
X144195800Y-114554000D02*
X146481800Y-112268000D01*
%TO.N,/IOT_36b*%
X154779100Y-115197500D02*
X152298400Y-117678200D01*
X146481800Y-117678200D02*
X143510000Y-120650000D01*
X155365000Y-115197500D02*
X154779100Y-115197500D01*
X152298400Y-117678200D02*
X146481800Y-117678200D01*
%TO.N,Net-(U4-~{CRESET})*%
X166321000Y-110589800D02*
X167309800Y-109601000D01*
X165100000Y-111000000D02*
X166319000Y-111000000D01*
X156949014Y-107119320D02*
X157365000Y-107535306D01*
X167309800Y-109601000D02*
X167309800Y-107111800D01*
X166321000Y-110998000D02*
X166321000Y-110589800D01*
X166319000Y-111000000D02*
X166321000Y-110998000D01*
X156949014Y-106783001D02*
X156949014Y-107119320D01*
X157365000Y-107535306D02*
X157365000Y-108322500D01*
%TO.N,Net-(U4-IOB_16a)*%
X165094500Y-107562000D02*
X166187000Y-107562000D01*
X166321000Y-106402400D02*
X166319200Y-106400600D01*
X156362400Y-106222800D02*
X156362400Y-107218506D01*
X166321000Y-107696000D02*
X166321000Y-106402400D01*
X156362400Y-107218506D02*
X156865000Y-107721106D01*
X166187000Y-107562000D02*
X166321000Y-107696000D01*
X156361900Y-106222300D02*
X156362400Y-106222800D01*
X156865000Y-107721106D02*
X156865000Y-108322500D01*
%TO.N,Net-(U4-IOB_24a)*%
X154677500Y-108195500D02*
X153670000Y-107188000D01*
X153670000Y-107188000D02*
X153670000Y-106555000D01*
X154677500Y-109010000D02*
X154677500Y-108195500D01*
%TO.N,Net-(U4-IOB_23b)*%
X153517600Y-107905550D02*
X152167050Y-106555000D01*
X153517600Y-108889800D02*
X153517600Y-107905550D01*
X152170225Y-106555000D02*
X152146000Y-106555000D01*
X153702678Y-113010000D02*
X154677500Y-113010000D01*
X153528594Y-113184084D02*
X153702678Y-113010000D01*
X152167050Y-106555000D02*
X152146000Y-106555000D01*
%TO.N,Net-(U4-IOB_22a)*%
X155365000Y-107729788D02*
X154813000Y-107177788D01*
X155365000Y-108322500D02*
X155365000Y-107729788D01*
X154813000Y-107177788D02*
X154813000Y-106555000D01*
%TO.N,Net-(U1-~{CS})*%
X152243250Y-111556800D02*
X146380200Y-111556800D01*
X145540000Y-107157000D02*
X145509000Y-107188000D01*
X153290050Y-110510000D02*
X152243250Y-111556800D01*
X146380200Y-111556800D02*
X146177000Y-111353600D01*
X154677500Y-110510000D02*
X153290050Y-110510000D01*
X145643600Y-107188000D02*
X145509000Y-107188000D01*
X146177000Y-107721400D02*
X145643600Y-107188000D01*
X146177000Y-111353600D02*
X146177000Y-107721400D01*
X145540000Y-105791000D02*
X145540000Y-107157000D01*
%TO.N,Net-(U1-SCK)*%
X152146000Y-109728000D02*
X152654000Y-109728000D01*
X152936000Y-110010000D02*
X154677500Y-110010000D01*
X152146000Y-109728000D02*
X150909000Y-109728000D01*
X152654000Y-109728000D02*
X152936000Y-110010000D01*
%TO.N,Net-(U1-~{WP}{slash}IO2)*%
X145509000Y-109728000D02*
X144274000Y-109728000D01*
X144274000Y-109728000D02*
X144272000Y-109726000D01*
%TO.N,Net-(U1-~{HOLD}{slash}IO3)*%
X150909000Y-108458000D02*
X152144000Y-108458000D01*
X152144000Y-108458000D02*
X152146000Y-108460000D01*
%TO.N,Net-(U1-DO{slash}IO1)*%
X146100800Y-111912400D02*
X145821400Y-112191800D01*
X145821400Y-112191800D02*
X144284016Y-112191800D01*
X144284016Y-112191800D02*
X143672600Y-111580384D01*
X143672600Y-111580384D02*
X143672600Y-109413000D01*
X154677500Y-111010000D02*
X153302400Y-111010000D01*
X143672600Y-109413000D02*
X144627600Y-108458000D01*
X144627600Y-108458000D02*
X145509000Y-108458000D01*
X153302400Y-111010000D02*
X152400000Y-111912400D01*
X152400000Y-111912400D02*
X146100800Y-111912400D01*
%TO.N,Net-(U1-DI{slash}IO0)*%
X153121800Y-109510000D02*
X152704800Y-109093000D01*
X150215600Y-109474492D02*
X150215600Y-110439200D01*
X150774400Y-110998000D02*
X150909000Y-110998000D01*
X152704800Y-109093000D02*
X150597092Y-109093000D01*
X150597092Y-109093000D02*
X150215600Y-109474492D01*
X154677500Y-109510000D02*
X153121800Y-109510000D01*
X150215600Y-110439200D02*
X150774400Y-110998000D01*
%TO.N,Net-(U4-IOB_25b_G3)*%
X152516200Y-113371000D02*
X150329000Y-113371000D01*
X153377200Y-112510000D02*
X152516200Y-113371000D01*
X154677500Y-112510000D02*
X153377200Y-112510000D01*
%TD*%
M02*
