%TF.GenerationSoftware,KiCad,Pcbnew,8.0.4-8.0.4-0~ubuntu24.04.1*%
%TF.CreationDate,2024-07-31T18:59:25-04:00*%
%TF.ProjectId,iceblink,69636562-6c69-46e6-9b2e-6b696361645f,rev?*%
%TF.SameCoordinates,Original*%
%TF.FileFunction,Legend,Top*%
%TF.FilePolarity,Positive*%
%FSLAX46Y46*%
G04 Gerber Fmt 4.6, Leading zero omitted, Abs format (unit mm)*
G04 Created by KiCad (PCBNEW 8.0.4-8.0.4-0~ubuntu24.04.1) date 2024-07-31 18:59:25*
%MOMM*%
%LPD*%
G01*
G04 APERTURE LIST*
G04 Aperture macros list*
%AMRoundRect*
0 Rectangle with rounded corners*
0 $1 Rounding radius*
0 $2 $3 $4 $5 $6 $7 $8 $9 X,Y pos of 4 corners*
0 Add a 4 corners polygon primitive as box body*
4,1,4,$2,$3,$4,$5,$6,$7,$8,$9,$2,$3,0*
0 Add four circle primitives for the rounded corners*
1,1,$1+$1,$2,$3*
1,1,$1+$1,$4,$5*
1,1,$1+$1,$6,$7*
1,1,$1+$1,$8,$9*
0 Add four rect primitives between the rounded corners*
20,1,$1+$1,$2,$3,$4,$5,0*
20,1,$1+$1,$4,$5,$6,$7,0*
20,1,$1+$1,$6,$7,$8,$9,0*
20,1,$1+$1,$8,$9,$2,$3,0*%
G04 Aperture macros list end*
%ADD10C,0.152400*%
%ADD11C,0.203200*%
%ADD12C,0.120000*%
%ADD13C,0.000000*%
%ADD14C,0.210000*%
%ADD15C,0.150000*%
%ADD16C,0.200000*%
%ADD17RoundRect,0.140000X0.140000X0.170000X-0.140000X0.170000X-0.140000X-0.170000X0.140000X-0.170000X0*%
%ADD18RoundRect,0.140000X0.170000X-0.140000X0.170000X0.140000X-0.170000X0.140000X-0.170000X-0.140000X0*%
%ADD19RoundRect,0.225000X-0.250000X0.225000X-0.250000X-0.225000X0.250000X-0.225000X0.250000X0.225000X0*%
%ADD20RoundRect,0.135000X0.185000X-0.135000X0.185000X0.135000X-0.185000X0.135000X-0.185000X-0.135000X0*%
%ADD21RoundRect,0.140000X-0.170000X0.140000X-0.170000X-0.140000X0.170000X-0.140000X0.170000X0.140000X0*%
%ADD22RoundRect,0.100000X0.100000X0.250000X-0.100000X0.250000X-0.100000X-0.250000X0.100000X-0.250000X0*%
%ADD23R,0.900000X1.700000*%
%ADD24RoundRect,0.135000X-0.185000X0.135000X-0.185000X-0.135000X0.185000X-0.135000X0.185000X0.135000X0*%
%ADD25RoundRect,0.212500X-0.287500X-0.212500X0.287500X-0.212500X0.287500X0.212500X-0.287500X0.212500X0*%
%ADD26RoundRect,0.225000X-0.225000X-0.250000X0.225000X-0.250000X0.225000X0.250000X-0.225000X0.250000X0*%
%ADD27RoundRect,0.243750X-0.243750X-0.456250X0.243750X-0.456250X0.243750X0.456250X-0.243750X0.456250X0*%
%ADD28R,1.000000X0.500000*%
%ADD29RoundRect,0.135000X-0.135000X-0.185000X0.135000X-0.185000X0.135000X0.185000X-0.135000X0.185000X0*%
%ADD30RoundRect,0.150000X-0.512500X-0.150000X0.512500X-0.150000X0.512500X0.150000X-0.512500X0.150000X0*%
%ADD31RoundRect,0.125000X-0.250000X-0.125000X0.250000X-0.125000X0.250000X0.125000X-0.250000X0.125000X0*%
%ADD32R,3.400000X4.300000*%
%ADD33RoundRect,0.062500X-0.062500X0.375000X-0.062500X-0.375000X0.062500X-0.375000X0.062500X0.375000X0*%
%ADD34RoundRect,0.062500X-0.375000X0.062500X-0.375000X-0.062500X0.375000X-0.062500X0.375000X0.062500X0*%
%ADD35R,5.600000X5.600000*%
%ADD36RoundRect,0.135000X0.135000X0.185000X-0.135000X0.185000X-0.135000X-0.185000X0.135000X-0.185000X0*%
%ADD37C,2.000000*%
%ADD38RoundRect,0.140000X-0.140000X-0.170000X0.140000X-0.170000X0.140000X0.170000X-0.140000X0.170000X0*%
%ADD39C,0.650000*%
%ADD40R,1.150000X0.580000*%
%ADD41R,1.150000X0.280000*%
%ADD42O,2.100000X1.050000*%
%ADD43O,2.000000X1.000000*%
%ADD44R,1.700000X1.700000*%
%ADD45O,1.700000X1.700000*%
G04 APERTURE END LIST*
D10*
X147628429Y-118643820D02*
X148100143Y-118643820D01*
X148100143Y-118643820D02*
X147846143Y-118934106D01*
X147846143Y-118934106D02*
X147955000Y-118934106D01*
X147955000Y-118934106D02*
X148027572Y-118970392D01*
X148027572Y-118970392D02*
X148063857Y-119006677D01*
X148063857Y-119006677D02*
X148100143Y-119079249D01*
X148100143Y-119079249D02*
X148100143Y-119260677D01*
X148100143Y-119260677D02*
X148063857Y-119333249D01*
X148063857Y-119333249D02*
X148027572Y-119369535D01*
X148027572Y-119369535D02*
X147955000Y-119405820D01*
X147955000Y-119405820D02*
X147737286Y-119405820D01*
X147737286Y-119405820D02*
X147664714Y-119369535D01*
X147664714Y-119369535D02*
X147628429Y-119333249D01*
X148463000Y-119405820D02*
X148608143Y-119405820D01*
X148608143Y-119405820D02*
X148680714Y-119369535D01*
X148680714Y-119369535D02*
X148717000Y-119333249D01*
X148717000Y-119333249D02*
X148789571Y-119224392D01*
X148789571Y-119224392D02*
X148825857Y-119079249D01*
X148825857Y-119079249D02*
X148825857Y-118788963D01*
X148825857Y-118788963D02*
X148789571Y-118716392D01*
X148789571Y-118716392D02*
X148753286Y-118680106D01*
X148753286Y-118680106D02*
X148680714Y-118643820D01*
X148680714Y-118643820D02*
X148535571Y-118643820D01*
X148535571Y-118643820D02*
X148463000Y-118680106D01*
X148463000Y-118680106D02*
X148426714Y-118716392D01*
X148426714Y-118716392D02*
X148390428Y-118788963D01*
X148390428Y-118788963D02*
X148390428Y-118970392D01*
X148390428Y-118970392D02*
X148426714Y-119042963D01*
X148426714Y-119042963D02*
X148463000Y-119079249D01*
X148463000Y-119079249D02*
X148535571Y-119115535D01*
X148535571Y-119115535D02*
X148680714Y-119115535D01*
X148680714Y-119115535D02*
X148753286Y-119079249D01*
X148753286Y-119079249D02*
X148789571Y-119042963D01*
X148789571Y-119042963D02*
X148825857Y-118970392D01*
X149479000Y-119405820D02*
X149479000Y-119006677D01*
X149479000Y-119006677D02*
X149442714Y-118934106D01*
X149442714Y-118934106D02*
X149370142Y-118897820D01*
X149370142Y-118897820D02*
X149225000Y-118897820D01*
X149225000Y-118897820D02*
X149152428Y-118934106D01*
X149479000Y-119369535D02*
X149406428Y-119405820D01*
X149406428Y-119405820D02*
X149225000Y-119405820D01*
X149225000Y-119405820D02*
X149152428Y-119369535D01*
X149152428Y-119369535D02*
X149116142Y-119296963D01*
X149116142Y-119296963D02*
X149116142Y-119224392D01*
X149116142Y-119224392D02*
X149152428Y-119151820D01*
X149152428Y-119151820D02*
X149225000Y-119115535D01*
X149225000Y-119115535D02*
X149406428Y-119115535D01*
X149406428Y-119115535D02*
X149479000Y-119079249D01*
X160727572Y-118897820D02*
X160727572Y-119405820D01*
X160546143Y-118607535D02*
X160364714Y-119151820D01*
X160364714Y-119151820D02*
X160836429Y-119151820D01*
X161054143Y-118643820D02*
X161525857Y-118643820D01*
X161525857Y-118643820D02*
X161271857Y-118934106D01*
X161271857Y-118934106D02*
X161380714Y-118934106D01*
X161380714Y-118934106D02*
X161453286Y-118970392D01*
X161453286Y-118970392D02*
X161489571Y-119006677D01*
X161489571Y-119006677D02*
X161525857Y-119079249D01*
X161525857Y-119079249D02*
X161525857Y-119260677D01*
X161525857Y-119260677D02*
X161489571Y-119333249D01*
X161489571Y-119333249D02*
X161453286Y-119369535D01*
X161453286Y-119369535D02*
X161380714Y-119405820D01*
X161380714Y-119405820D02*
X161163000Y-119405820D01*
X161163000Y-119405820D02*
X161090428Y-119369535D01*
X161090428Y-119369535D02*
X161054143Y-119333249D01*
X162179000Y-119405820D02*
X162179000Y-119006677D01*
X162179000Y-119006677D02*
X162142714Y-118934106D01*
X162142714Y-118934106D02*
X162070142Y-118897820D01*
X162070142Y-118897820D02*
X161925000Y-118897820D01*
X161925000Y-118897820D02*
X161852428Y-118934106D01*
X162179000Y-119369535D02*
X162106428Y-119405820D01*
X162106428Y-119405820D02*
X161925000Y-119405820D01*
X161925000Y-119405820D02*
X161852428Y-119369535D01*
X161852428Y-119369535D02*
X161816142Y-119296963D01*
X161816142Y-119296963D02*
X161816142Y-119224392D01*
X161816142Y-119224392D02*
X161852428Y-119151820D01*
X161852428Y-119151820D02*
X161925000Y-119115535D01*
X161925000Y-119115535D02*
X162106428Y-119115535D01*
X162106428Y-119115535D02*
X162179000Y-119079249D01*
X132769428Y-104202106D02*
X132696857Y-104165820D01*
X132696857Y-104165820D02*
X132587999Y-104165820D01*
X132587999Y-104165820D02*
X132479142Y-104202106D01*
X132479142Y-104202106D02*
X132406571Y-104274677D01*
X132406571Y-104274677D02*
X132370285Y-104347249D01*
X132370285Y-104347249D02*
X132333999Y-104492392D01*
X132333999Y-104492392D02*
X132333999Y-104601249D01*
X132333999Y-104601249D02*
X132370285Y-104746392D01*
X132370285Y-104746392D02*
X132406571Y-104818963D01*
X132406571Y-104818963D02*
X132479142Y-104891535D01*
X132479142Y-104891535D02*
X132587999Y-104927820D01*
X132587999Y-104927820D02*
X132660571Y-104927820D01*
X132660571Y-104927820D02*
X132769428Y-104891535D01*
X132769428Y-104891535D02*
X132805714Y-104855249D01*
X132805714Y-104855249D02*
X132805714Y-104601249D01*
X132805714Y-104601249D02*
X132660571Y-104601249D01*
X133132285Y-104927820D02*
X133132285Y-104165820D01*
X133132285Y-104165820D02*
X133567714Y-104927820D01*
X133567714Y-104927820D02*
X133567714Y-104165820D01*
X133930571Y-104927820D02*
X133930571Y-104165820D01*
X133930571Y-104165820D02*
X134112000Y-104165820D01*
X134112000Y-104165820D02*
X134220857Y-104202106D01*
X134220857Y-104202106D02*
X134293428Y-104274677D01*
X134293428Y-104274677D02*
X134329714Y-104347249D01*
X134329714Y-104347249D02*
X134366000Y-104492392D01*
X134366000Y-104492392D02*
X134366000Y-104601249D01*
X134366000Y-104601249D02*
X134329714Y-104746392D01*
X134329714Y-104746392D02*
X134293428Y-104818963D01*
X134293428Y-104818963D02*
X134220857Y-104891535D01*
X134220857Y-104891535D02*
X134112000Y-104927820D01*
X134112000Y-104927820D02*
X133930571Y-104927820D01*
X128124857Y-118643820D02*
X127762000Y-118643820D01*
X127762000Y-118643820D02*
X127725714Y-119006677D01*
X127725714Y-119006677D02*
X127762000Y-118970392D01*
X127762000Y-118970392D02*
X127834572Y-118934106D01*
X127834572Y-118934106D02*
X128016000Y-118934106D01*
X128016000Y-118934106D02*
X128088572Y-118970392D01*
X128088572Y-118970392D02*
X128124857Y-119006677D01*
X128124857Y-119006677D02*
X128161143Y-119079249D01*
X128161143Y-119079249D02*
X128161143Y-119260677D01*
X128161143Y-119260677D02*
X128124857Y-119333249D01*
X128124857Y-119333249D02*
X128088572Y-119369535D01*
X128088572Y-119369535D02*
X128016000Y-119405820D01*
X128016000Y-119405820D02*
X127834572Y-119405820D01*
X127834572Y-119405820D02*
X127762000Y-119369535D01*
X127762000Y-119369535D02*
X127725714Y-119333249D01*
X128378857Y-118643820D02*
X128632857Y-119405820D01*
X128632857Y-119405820D02*
X128886857Y-118643820D01*
X150930429Y-104165820D02*
X150785286Y-104165820D01*
X150785286Y-104165820D02*
X150712714Y-104202106D01*
X150712714Y-104202106D02*
X150676429Y-104238392D01*
X150676429Y-104238392D02*
X150603857Y-104347249D01*
X150603857Y-104347249D02*
X150567571Y-104492392D01*
X150567571Y-104492392D02*
X150567571Y-104782677D01*
X150567571Y-104782677D02*
X150603857Y-104855249D01*
X150603857Y-104855249D02*
X150640143Y-104891535D01*
X150640143Y-104891535D02*
X150712714Y-104927820D01*
X150712714Y-104927820D02*
X150857857Y-104927820D01*
X150857857Y-104927820D02*
X150930429Y-104891535D01*
X150930429Y-104891535D02*
X150966714Y-104855249D01*
X150966714Y-104855249D02*
X151003000Y-104782677D01*
X151003000Y-104782677D02*
X151003000Y-104601249D01*
X151003000Y-104601249D02*
X150966714Y-104528677D01*
X150966714Y-104528677D02*
X150930429Y-104492392D01*
X150930429Y-104492392D02*
X150857857Y-104456106D01*
X150857857Y-104456106D02*
X150712714Y-104456106D01*
X150712714Y-104456106D02*
X150640143Y-104492392D01*
X150640143Y-104492392D02*
X150603857Y-104528677D01*
X150603857Y-104528677D02*
X150567571Y-104601249D01*
X151656143Y-104927820D02*
X151656143Y-104528677D01*
X151656143Y-104528677D02*
X151619857Y-104456106D01*
X151619857Y-104456106D02*
X151547285Y-104419820D01*
X151547285Y-104419820D02*
X151402143Y-104419820D01*
X151402143Y-104419820D02*
X151329571Y-104456106D01*
X151656143Y-104891535D02*
X151583571Y-104927820D01*
X151583571Y-104927820D02*
X151402143Y-104927820D01*
X151402143Y-104927820D02*
X151329571Y-104891535D01*
X151329571Y-104891535D02*
X151293285Y-104818963D01*
X151293285Y-104818963D02*
X151293285Y-104746392D01*
X151293285Y-104746392D02*
X151329571Y-104673820D01*
X151329571Y-104673820D02*
X151402143Y-104637535D01*
X151402143Y-104637535D02*
X151583571Y-104637535D01*
X151583571Y-104637535D02*
X151656143Y-104601249D01*
X158169428Y-104202106D02*
X158096857Y-104165820D01*
X158096857Y-104165820D02*
X157987999Y-104165820D01*
X157987999Y-104165820D02*
X157879142Y-104202106D01*
X157879142Y-104202106D02*
X157806571Y-104274677D01*
X157806571Y-104274677D02*
X157770285Y-104347249D01*
X157770285Y-104347249D02*
X157733999Y-104492392D01*
X157733999Y-104492392D02*
X157733999Y-104601249D01*
X157733999Y-104601249D02*
X157770285Y-104746392D01*
X157770285Y-104746392D02*
X157806571Y-104818963D01*
X157806571Y-104818963D02*
X157879142Y-104891535D01*
X157879142Y-104891535D02*
X157987999Y-104927820D01*
X157987999Y-104927820D02*
X158060571Y-104927820D01*
X158060571Y-104927820D02*
X158169428Y-104891535D01*
X158169428Y-104891535D02*
X158205714Y-104855249D01*
X158205714Y-104855249D02*
X158205714Y-104601249D01*
X158205714Y-104601249D02*
X158060571Y-104601249D01*
X158532285Y-104927820D02*
X158532285Y-104165820D01*
X158532285Y-104165820D02*
X158967714Y-104927820D01*
X158967714Y-104927820D02*
X158967714Y-104165820D01*
X159330571Y-104927820D02*
X159330571Y-104165820D01*
X159330571Y-104165820D02*
X159512000Y-104165820D01*
X159512000Y-104165820D02*
X159620857Y-104202106D01*
X159620857Y-104202106D02*
X159693428Y-104274677D01*
X159693428Y-104274677D02*
X159729714Y-104347249D01*
X159729714Y-104347249D02*
X159766000Y-104492392D01*
X159766000Y-104492392D02*
X159766000Y-104601249D01*
X159766000Y-104601249D02*
X159729714Y-104746392D01*
X159729714Y-104746392D02*
X159693428Y-104818963D01*
X159693428Y-104818963D02*
X159620857Y-104891535D01*
X159620857Y-104891535D02*
X159512000Y-104927820D01*
X159512000Y-104927820D02*
X159330571Y-104927820D01*
X145469428Y-104202106D02*
X145396857Y-104165820D01*
X145396857Y-104165820D02*
X145287999Y-104165820D01*
X145287999Y-104165820D02*
X145179142Y-104202106D01*
X145179142Y-104202106D02*
X145106571Y-104274677D01*
X145106571Y-104274677D02*
X145070285Y-104347249D01*
X145070285Y-104347249D02*
X145033999Y-104492392D01*
X145033999Y-104492392D02*
X145033999Y-104601249D01*
X145033999Y-104601249D02*
X145070285Y-104746392D01*
X145070285Y-104746392D02*
X145106571Y-104818963D01*
X145106571Y-104818963D02*
X145179142Y-104891535D01*
X145179142Y-104891535D02*
X145287999Y-104927820D01*
X145287999Y-104927820D02*
X145360571Y-104927820D01*
X145360571Y-104927820D02*
X145469428Y-104891535D01*
X145469428Y-104891535D02*
X145505714Y-104855249D01*
X145505714Y-104855249D02*
X145505714Y-104601249D01*
X145505714Y-104601249D02*
X145360571Y-104601249D01*
X145832285Y-104927820D02*
X145832285Y-104165820D01*
X145832285Y-104165820D02*
X146267714Y-104927820D01*
X146267714Y-104927820D02*
X146267714Y-104165820D01*
X146630571Y-104927820D02*
X146630571Y-104165820D01*
X146630571Y-104165820D02*
X146812000Y-104165820D01*
X146812000Y-104165820D02*
X146920857Y-104202106D01*
X146920857Y-104202106D02*
X146993428Y-104274677D01*
X146993428Y-104274677D02*
X147029714Y-104347249D01*
X147029714Y-104347249D02*
X147066000Y-104492392D01*
X147066000Y-104492392D02*
X147066000Y-104601249D01*
X147066000Y-104601249D02*
X147029714Y-104746392D01*
X147029714Y-104746392D02*
X146993428Y-104818963D01*
X146993428Y-104818963D02*
X146920857Y-104891535D01*
X146920857Y-104891535D02*
X146812000Y-104927820D01*
X146812000Y-104927820D02*
X146630571Y-104927820D01*
X140008429Y-118643820D02*
X140480143Y-118643820D01*
X140480143Y-118643820D02*
X140226143Y-118934106D01*
X140226143Y-118934106D02*
X140335000Y-118934106D01*
X140335000Y-118934106D02*
X140407572Y-118970392D01*
X140407572Y-118970392D02*
X140443857Y-119006677D01*
X140443857Y-119006677D02*
X140480143Y-119079249D01*
X140480143Y-119079249D02*
X140480143Y-119260677D01*
X140480143Y-119260677D02*
X140443857Y-119333249D01*
X140443857Y-119333249D02*
X140407572Y-119369535D01*
X140407572Y-119369535D02*
X140335000Y-119405820D01*
X140335000Y-119405820D02*
X140117286Y-119405820D01*
X140117286Y-119405820D02*
X140044714Y-119369535D01*
X140044714Y-119369535D02*
X140008429Y-119333249D01*
X140734143Y-118643820D02*
X141242143Y-118643820D01*
X141242143Y-118643820D02*
X140915571Y-119405820D01*
X141859000Y-119405820D02*
X141859000Y-119006677D01*
X141859000Y-119006677D02*
X141822714Y-118934106D01*
X141822714Y-118934106D02*
X141750142Y-118897820D01*
X141750142Y-118897820D02*
X141605000Y-118897820D01*
X141605000Y-118897820D02*
X141532428Y-118934106D01*
X141859000Y-119369535D02*
X141786428Y-119405820D01*
X141786428Y-119405820D02*
X141605000Y-119405820D01*
X141605000Y-119405820D02*
X141532428Y-119369535D01*
X141532428Y-119369535D02*
X141496142Y-119296963D01*
X141496142Y-119296963D02*
X141496142Y-119224392D01*
X141496142Y-119224392D02*
X141532428Y-119151820D01*
X141532428Y-119151820D02*
X141605000Y-119115535D01*
X141605000Y-119115535D02*
X141786428Y-119115535D01*
X141786428Y-119115535D02*
X141859000Y-119079249D01*
X140480143Y-104927820D02*
X140044714Y-104927820D01*
X140262429Y-104927820D02*
X140262429Y-104165820D01*
X140262429Y-104165820D02*
X140189857Y-104274677D01*
X140189857Y-104274677D02*
X140117286Y-104347249D01*
X140117286Y-104347249D02*
X140044714Y-104383535D01*
X140734143Y-104165820D02*
X141205857Y-104165820D01*
X141205857Y-104165820D02*
X140951857Y-104456106D01*
X140951857Y-104456106D02*
X141060714Y-104456106D01*
X141060714Y-104456106D02*
X141133286Y-104492392D01*
X141133286Y-104492392D02*
X141169571Y-104528677D01*
X141169571Y-104528677D02*
X141205857Y-104601249D01*
X141205857Y-104601249D02*
X141205857Y-104782677D01*
X141205857Y-104782677D02*
X141169571Y-104855249D01*
X141169571Y-104855249D02*
X141133286Y-104891535D01*
X141133286Y-104891535D02*
X141060714Y-104927820D01*
X141060714Y-104927820D02*
X140843000Y-104927820D01*
X140843000Y-104927820D02*
X140770428Y-104891535D01*
X140770428Y-104891535D02*
X140734143Y-104855249D01*
X141532428Y-104927820D02*
X141532428Y-104165820D01*
X141532428Y-104456106D02*
X141605000Y-104419820D01*
X141605000Y-104419820D02*
X141750142Y-104419820D01*
X141750142Y-104419820D02*
X141822714Y-104456106D01*
X141822714Y-104456106D02*
X141859000Y-104492392D01*
X141859000Y-104492392D02*
X141895285Y-104564963D01*
X141895285Y-104564963D02*
X141895285Y-104782677D01*
X141895285Y-104782677D02*
X141859000Y-104855249D01*
X141859000Y-104855249D02*
X141822714Y-104891535D01*
X141822714Y-104891535D02*
X141750142Y-104927820D01*
X141750142Y-104927820D02*
X141605000Y-104927820D01*
X141605000Y-104927820D02*
X141532428Y-104891535D01*
X175967572Y-104419820D02*
X175967572Y-104927820D01*
X175786143Y-104129535D02*
X175604714Y-104673820D01*
X175604714Y-104673820D02*
X176076429Y-104673820D01*
X176475571Y-104492392D02*
X176403000Y-104456106D01*
X176403000Y-104456106D02*
X176366714Y-104419820D01*
X176366714Y-104419820D02*
X176330428Y-104347249D01*
X176330428Y-104347249D02*
X176330428Y-104310963D01*
X176330428Y-104310963D02*
X176366714Y-104238392D01*
X176366714Y-104238392D02*
X176403000Y-104202106D01*
X176403000Y-104202106D02*
X176475571Y-104165820D01*
X176475571Y-104165820D02*
X176620714Y-104165820D01*
X176620714Y-104165820D02*
X176693286Y-104202106D01*
X176693286Y-104202106D02*
X176729571Y-104238392D01*
X176729571Y-104238392D02*
X176765857Y-104310963D01*
X176765857Y-104310963D02*
X176765857Y-104347249D01*
X176765857Y-104347249D02*
X176729571Y-104419820D01*
X176729571Y-104419820D02*
X176693286Y-104456106D01*
X176693286Y-104456106D02*
X176620714Y-104492392D01*
X176620714Y-104492392D02*
X176475571Y-104492392D01*
X176475571Y-104492392D02*
X176403000Y-104528677D01*
X176403000Y-104528677D02*
X176366714Y-104564963D01*
X176366714Y-104564963D02*
X176330428Y-104637535D01*
X176330428Y-104637535D02*
X176330428Y-104782677D01*
X176330428Y-104782677D02*
X176366714Y-104855249D01*
X176366714Y-104855249D02*
X176403000Y-104891535D01*
X176403000Y-104891535D02*
X176475571Y-104927820D01*
X176475571Y-104927820D02*
X176620714Y-104927820D01*
X176620714Y-104927820D02*
X176693286Y-104891535D01*
X176693286Y-104891535D02*
X176729571Y-104855249D01*
X176729571Y-104855249D02*
X176765857Y-104782677D01*
X176765857Y-104782677D02*
X176765857Y-104637535D01*
X176765857Y-104637535D02*
X176729571Y-104564963D01*
X176729571Y-104564963D02*
X176693286Y-104528677D01*
X176693286Y-104528677D02*
X176620714Y-104492392D01*
X177092428Y-104927820D02*
X177092428Y-104165820D01*
X177092428Y-104456106D02*
X177165000Y-104419820D01*
X177165000Y-104419820D02*
X177310142Y-104419820D01*
X177310142Y-104419820D02*
X177382714Y-104456106D01*
X177382714Y-104456106D02*
X177419000Y-104492392D01*
X177419000Y-104492392D02*
X177455285Y-104564963D01*
X177455285Y-104564963D02*
X177455285Y-104782677D01*
X177455285Y-104782677D02*
X177419000Y-104855249D01*
X177419000Y-104855249D02*
X177382714Y-104891535D01*
X177382714Y-104891535D02*
X177310142Y-104927820D01*
X177310142Y-104927820D02*
X177165000Y-104927820D01*
X177165000Y-104927820D02*
X177092428Y-104891535D01*
X176403000Y-119405820D02*
X176149000Y-119042963D01*
X175967571Y-119405820D02*
X175967571Y-118643820D01*
X175967571Y-118643820D02*
X176257857Y-118643820D01*
X176257857Y-118643820D02*
X176330428Y-118680106D01*
X176330428Y-118680106D02*
X176366714Y-118716392D01*
X176366714Y-118716392D02*
X176403000Y-118788963D01*
X176403000Y-118788963D02*
X176403000Y-118897820D01*
X176403000Y-118897820D02*
X176366714Y-118970392D01*
X176366714Y-118970392D02*
X176330428Y-119006677D01*
X176330428Y-119006677D02*
X176257857Y-119042963D01*
X176257857Y-119042963D02*
X175967571Y-119042963D01*
X176693285Y-118716392D02*
X176729571Y-118680106D01*
X176729571Y-118680106D02*
X176802143Y-118643820D01*
X176802143Y-118643820D02*
X176983571Y-118643820D01*
X176983571Y-118643820D02*
X177056143Y-118680106D01*
X177056143Y-118680106D02*
X177092428Y-118716392D01*
X177092428Y-118716392D02*
X177128714Y-118788963D01*
X177128714Y-118788963D02*
X177128714Y-118861535D01*
X177128714Y-118861535D02*
X177092428Y-118970392D01*
X177092428Y-118970392D02*
X176657000Y-119405820D01*
X176657000Y-119405820D02*
X177128714Y-119405820D01*
X173427572Y-104419820D02*
X173427572Y-104927820D01*
X173246143Y-104129535D02*
X173064714Y-104673820D01*
X173064714Y-104673820D02*
X173536429Y-104673820D01*
X174189571Y-104165820D02*
X173826714Y-104165820D01*
X173826714Y-104165820D02*
X173790428Y-104528677D01*
X173790428Y-104528677D02*
X173826714Y-104492392D01*
X173826714Y-104492392D02*
X173899286Y-104456106D01*
X173899286Y-104456106D02*
X174080714Y-104456106D01*
X174080714Y-104456106D02*
X174153286Y-104492392D01*
X174153286Y-104492392D02*
X174189571Y-104528677D01*
X174189571Y-104528677D02*
X174225857Y-104601249D01*
X174225857Y-104601249D02*
X174225857Y-104782677D01*
X174225857Y-104782677D02*
X174189571Y-104855249D01*
X174189571Y-104855249D02*
X174153286Y-104891535D01*
X174153286Y-104891535D02*
X174080714Y-104927820D01*
X174080714Y-104927820D02*
X173899286Y-104927820D01*
X173899286Y-104927820D02*
X173826714Y-104891535D01*
X173826714Y-104891535D02*
X173790428Y-104855249D01*
X174879000Y-104927820D02*
X174879000Y-104528677D01*
X174879000Y-104528677D02*
X174842714Y-104456106D01*
X174842714Y-104456106D02*
X174770142Y-104419820D01*
X174770142Y-104419820D02*
X174625000Y-104419820D01*
X174625000Y-104419820D02*
X174552428Y-104456106D01*
X174879000Y-104891535D02*
X174806428Y-104927820D01*
X174806428Y-104927820D02*
X174625000Y-104927820D01*
X174625000Y-104927820D02*
X174552428Y-104891535D01*
X174552428Y-104891535D02*
X174516142Y-104818963D01*
X174516142Y-104818963D02*
X174516142Y-104746392D01*
X174516142Y-104746392D02*
X174552428Y-104673820D01*
X174552428Y-104673820D02*
X174625000Y-104637535D01*
X174625000Y-104637535D02*
X174806428Y-104637535D01*
X174806428Y-104637535D02*
X174879000Y-104601249D01*
X167603715Y-113436820D02*
X167349715Y-113073963D01*
X167168286Y-113436820D02*
X167168286Y-112674820D01*
X167168286Y-112674820D02*
X167458572Y-112674820D01*
X167458572Y-112674820D02*
X167531143Y-112711106D01*
X167531143Y-112711106D02*
X167567429Y-112747392D01*
X167567429Y-112747392D02*
X167603715Y-112819963D01*
X167603715Y-112819963D02*
X167603715Y-112928820D01*
X167603715Y-112928820D02*
X167567429Y-113001392D01*
X167567429Y-113001392D02*
X167531143Y-113037677D01*
X167531143Y-113037677D02*
X167458572Y-113073963D01*
X167458572Y-113073963D02*
X167168286Y-113073963D01*
X167894000Y-113400535D02*
X168002858Y-113436820D01*
X168002858Y-113436820D02*
X168184286Y-113436820D01*
X168184286Y-113436820D02*
X168256858Y-113400535D01*
X168256858Y-113400535D02*
X168293143Y-113364249D01*
X168293143Y-113364249D02*
X168329429Y-113291677D01*
X168329429Y-113291677D02*
X168329429Y-113219106D01*
X168329429Y-113219106D02*
X168293143Y-113146535D01*
X168293143Y-113146535D02*
X168256858Y-113110249D01*
X168256858Y-113110249D02*
X168184286Y-113073963D01*
X168184286Y-113073963D02*
X168039143Y-113037677D01*
X168039143Y-113037677D02*
X167966572Y-113001392D01*
X167966572Y-113001392D02*
X167930286Y-112965106D01*
X167930286Y-112965106D02*
X167894000Y-112892535D01*
X167894000Y-112892535D02*
X167894000Y-112819963D01*
X167894000Y-112819963D02*
X167930286Y-112747392D01*
X167930286Y-112747392D02*
X167966572Y-112711106D01*
X167966572Y-112711106D02*
X168039143Y-112674820D01*
X168039143Y-112674820D02*
X168220572Y-112674820D01*
X168220572Y-112674820D02*
X168329429Y-112711106D01*
X168547143Y-112674820D02*
X168982572Y-112674820D01*
X168764857Y-113436820D02*
X168764857Y-112674820D01*
X163666714Y-104165820D02*
X163303857Y-104165820D01*
X163303857Y-104165820D02*
X163267571Y-104528677D01*
X163267571Y-104528677D02*
X163303857Y-104492392D01*
X163303857Y-104492392D02*
X163376429Y-104456106D01*
X163376429Y-104456106D02*
X163557857Y-104456106D01*
X163557857Y-104456106D02*
X163630429Y-104492392D01*
X163630429Y-104492392D02*
X163666714Y-104528677D01*
X163666714Y-104528677D02*
X163703000Y-104601249D01*
X163703000Y-104601249D02*
X163703000Y-104782677D01*
X163703000Y-104782677D02*
X163666714Y-104855249D01*
X163666714Y-104855249D02*
X163630429Y-104891535D01*
X163630429Y-104891535D02*
X163557857Y-104927820D01*
X163557857Y-104927820D02*
X163376429Y-104927820D01*
X163376429Y-104927820D02*
X163303857Y-104891535D01*
X163303857Y-104891535D02*
X163267571Y-104855249D01*
X164356143Y-104927820D02*
X164356143Y-104528677D01*
X164356143Y-104528677D02*
X164319857Y-104456106D01*
X164319857Y-104456106D02*
X164247285Y-104419820D01*
X164247285Y-104419820D02*
X164102143Y-104419820D01*
X164102143Y-104419820D02*
X164029571Y-104456106D01*
X164356143Y-104891535D02*
X164283571Y-104927820D01*
X164283571Y-104927820D02*
X164102143Y-104927820D01*
X164102143Y-104927820D02*
X164029571Y-104891535D01*
X164029571Y-104891535D02*
X163993285Y-104818963D01*
X163993285Y-104818963D02*
X163993285Y-104746392D01*
X163993285Y-104746392D02*
X164029571Y-104673820D01*
X164029571Y-104673820D02*
X164102143Y-104637535D01*
X164102143Y-104637535D02*
X164283571Y-104637535D01*
X164283571Y-104637535D02*
X164356143Y-104601249D01*
X170869428Y-104202106D02*
X170796857Y-104165820D01*
X170796857Y-104165820D02*
X170687999Y-104165820D01*
X170687999Y-104165820D02*
X170579142Y-104202106D01*
X170579142Y-104202106D02*
X170506571Y-104274677D01*
X170506571Y-104274677D02*
X170470285Y-104347249D01*
X170470285Y-104347249D02*
X170433999Y-104492392D01*
X170433999Y-104492392D02*
X170433999Y-104601249D01*
X170433999Y-104601249D02*
X170470285Y-104746392D01*
X170470285Y-104746392D02*
X170506571Y-104818963D01*
X170506571Y-104818963D02*
X170579142Y-104891535D01*
X170579142Y-104891535D02*
X170687999Y-104927820D01*
X170687999Y-104927820D02*
X170760571Y-104927820D01*
X170760571Y-104927820D02*
X170869428Y-104891535D01*
X170869428Y-104891535D02*
X170905714Y-104855249D01*
X170905714Y-104855249D02*
X170905714Y-104601249D01*
X170905714Y-104601249D02*
X170760571Y-104601249D01*
X171232285Y-104927820D02*
X171232285Y-104165820D01*
X171232285Y-104165820D02*
X171667714Y-104927820D01*
X171667714Y-104927820D02*
X171667714Y-104165820D01*
X172030571Y-104927820D02*
X172030571Y-104165820D01*
X172030571Y-104165820D02*
X172212000Y-104165820D01*
X172212000Y-104165820D02*
X172320857Y-104202106D01*
X172320857Y-104202106D02*
X172393428Y-104274677D01*
X172393428Y-104274677D02*
X172429714Y-104347249D01*
X172429714Y-104347249D02*
X172466000Y-104492392D01*
X172466000Y-104492392D02*
X172466000Y-104601249D01*
X172466000Y-104601249D02*
X172429714Y-104746392D01*
X172429714Y-104746392D02*
X172393428Y-104818963D01*
X172393428Y-104818963D02*
X172320857Y-104891535D01*
X172320857Y-104891535D02*
X172212000Y-104927820D01*
X172212000Y-104927820D02*
X172030571Y-104927820D01*
X175394677Y-114272308D02*
X175430963Y-114163451D01*
X175430963Y-114163451D02*
X175467249Y-114127165D01*
X175467249Y-114127165D02*
X175539820Y-114090879D01*
X175539820Y-114090879D02*
X175648677Y-114090879D01*
X175648677Y-114090879D02*
X175721249Y-114127165D01*
X175721249Y-114127165D02*
X175757535Y-114163451D01*
X175757535Y-114163451D02*
X175793820Y-114236022D01*
X175793820Y-114236022D02*
X175793820Y-114526308D01*
X175793820Y-114526308D02*
X175031820Y-114526308D01*
X175031820Y-114526308D02*
X175031820Y-114272308D01*
X175031820Y-114272308D02*
X175068106Y-114199737D01*
X175068106Y-114199737D02*
X175104392Y-114163451D01*
X175104392Y-114163451D02*
X175176963Y-114127165D01*
X175176963Y-114127165D02*
X175249535Y-114127165D01*
X175249535Y-114127165D02*
X175322106Y-114163451D01*
X175322106Y-114163451D02*
X175358392Y-114199737D01*
X175358392Y-114199737D02*
X175394677Y-114272308D01*
X175394677Y-114272308D02*
X175394677Y-114526308D01*
X175576106Y-113800594D02*
X175576106Y-113437737D01*
X175793820Y-113873165D02*
X175031820Y-113619165D01*
X175031820Y-113619165D02*
X175793820Y-113365165D01*
X175793820Y-113111165D02*
X175031820Y-113111165D01*
X175031820Y-113111165D02*
X175576106Y-112857165D01*
X175576106Y-112857165D02*
X175031820Y-112603165D01*
X175031820Y-112603165D02*
X175793820Y-112603165D01*
X170923857Y-106506249D02*
X170887571Y-106542535D01*
X170887571Y-106542535D02*
X170778714Y-106578820D01*
X170778714Y-106578820D02*
X170706142Y-106578820D01*
X170706142Y-106578820D02*
X170597285Y-106542535D01*
X170597285Y-106542535D02*
X170524714Y-106469963D01*
X170524714Y-106469963D02*
X170488428Y-106397392D01*
X170488428Y-106397392D02*
X170452142Y-106252249D01*
X170452142Y-106252249D02*
X170452142Y-106143392D01*
X170452142Y-106143392D02*
X170488428Y-105998249D01*
X170488428Y-105998249D02*
X170524714Y-105925677D01*
X170524714Y-105925677D02*
X170597285Y-105853106D01*
X170597285Y-105853106D02*
X170706142Y-105816820D01*
X170706142Y-105816820D02*
X170778714Y-105816820D01*
X170778714Y-105816820D02*
X170887571Y-105853106D01*
X170887571Y-105853106D02*
X170923857Y-105889392D01*
X171250428Y-106578820D02*
X171250428Y-105816820D01*
X171250428Y-105816820D02*
X171431857Y-105816820D01*
X171431857Y-105816820D02*
X171540714Y-105853106D01*
X171540714Y-105853106D02*
X171613285Y-105925677D01*
X171613285Y-105925677D02*
X171649571Y-105998249D01*
X171649571Y-105998249D02*
X171685857Y-106143392D01*
X171685857Y-106143392D02*
X171685857Y-106252249D01*
X171685857Y-106252249D02*
X171649571Y-106397392D01*
X171649571Y-106397392D02*
X171613285Y-106469963D01*
X171613285Y-106469963D02*
X171540714Y-106542535D01*
X171540714Y-106542535D02*
X171431857Y-106578820D01*
X171431857Y-106578820D02*
X171250428Y-106578820D01*
X172157571Y-105816820D02*
X172302714Y-105816820D01*
X172302714Y-105816820D02*
X172375285Y-105853106D01*
X172375285Y-105853106D02*
X172447857Y-105925677D01*
X172447857Y-105925677D02*
X172484142Y-106070820D01*
X172484142Y-106070820D02*
X172484142Y-106324820D01*
X172484142Y-106324820D02*
X172447857Y-106469963D01*
X172447857Y-106469963D02*
X172375285Y-106542535D01*
X172375285Y-106542535D02*
X172302714Y-106578820D01*
X172302714Y-106578820D02*
X172157571Y-106578820D01*
X172157571Y-106578820D02*
X172085000Y-106542535D01*
X172085000Y-106542535D02*
X172012428Y-106469963D01*
X172012428Y-106469963D02*
X171976142Y-106324820D01*
X171976142Y-106324820D02*
X171976142Y-106070820D01*
X171976142Y-106070820D02*
X172012428Y-105925677D01*
X172012428Y-105925677D02*
X172085000Y-105853106D01*
X172085000Y-105853106D02*
X172157571Y-105816820D01*
X172810714Y-106578820D02*
X172810714Y-105816820D01*
X172810714Y-105816820D02*
X173246143Y-106578820D01*
X173246143Y-106578820D02*
X173246143Y-105816820D01*
X173609000Y-106179677D02*
X173863000Y-106179677D01*
X173971857Y-106578820D02*
X173609000Y-106578820D01*
X173609000Y-106578820D02*
X173609000Y-105816820D01*
X173609000Y-105816820D02*
X173971857Y-105816820D01*
X129866572Y-118643820D02*
X130338286Y-118643820D01*
X130338286Y-118643820D02*
X130084286Y-118934106D01*
X130084286Y-118934106D02*
X130193143Y-118934106D01*
X130193143Y-118934106D02*
X130265715Y-118970392D01*
X130265715Y-118970392D02*
X130302000Y-119006677D01*
X130302000Y-119006677D02*
X130338286Y-119079249D01*
X130338286Y-119079249D02*
X130338286Y-119260677D01*
X130338286Y-119260677D02*
X130302000Y-119333249D01*
X130302000Y-119333249D02*
X130265715Y-119369535D01*
X130265715Y-119369535D02*
X130193143Y-119405820D01*
X130193143Y-119405820D02*
X129975429Y-119405820D01*
X129975429Y-119405820D02*
X129902857Y-119369535D01*
X129902857Y-119369535D02*
X129866572Y-119333249D01*
X130556000Y-118643820D02*
X130810000Y-119405820D01*
X130810000Y-119405820D02*
X131064000Y-118643820D01*
X131245429Y-118643820D02*
X131717143Y-118643820D01*
X131717143Y-118643820D02*
X131463143Y-118934106D01*
X131463143Y-118934106D02*
X131572000Y-118934106D01*
X131572000Y-118934106D02*
X131644572Y-118970392D01*
X131644572Y-118970392D02*
X131680857Y-119006677D01*
X131680857Y-119006677D02*
X131717143Y-119079249D01*
X131717143Y-119079249D02*
X131717143Y-119260677D01*
X131717143Y-119260677D02*
X131680857Y-119333249D01*
X131680857Y-119333249D02*
X131644572Y-119369535D01*
X131644572Y-119369535D02*
X131572000Y-119405820D01*
X131572000Y-119405820D02*
X131354286Y-119405820D01*
X131354286Y-119405820D02*
X131281714Y-119369535D01*
X131281714Y-119369535D02*
X131245429Y-119333249D01*
X129866572Y-104165820D02*
X130338286Y-104165820D01*
X130338286Y-104165820D02*
X130084286Y-104456106D01*
X130084286Y-104456106D02*
X130193143Y-104456106D01*
X130193143Y-104456106D02*
X130265715Y-104492392D01*
X130265715Y-104492392D02*
X130302000Y-104528677D01*
X130302000Y-104528677D02*
X130338286Y-104601249D01*
X130338286Y-104601249D02*
X130338286Y-104782677D01*
X130338286Y-104782677D02*
X130302000Y-104855249D01*
X130302000Y-104855249D02*
X130265715Y-104891535D01*
X130265715Y-104891535D02*
X130193143Y-104927820D01*
X130193143Y-104927820D02*
X129975429Y-104927820D01*
X129975429Y-104927820D02*
X129902857Y-104891535D01*
X129902857Y-104891535D02*
X129866572Y-104855249D01*
X130556000Y-104165820D02*
X130810000Y-104927820D01*
X130810000Y-104927820D02*
X131064000Y-104165820D01*
X131245429Y-104165820D02*
X131717143Y-104165820D01*
X131717143Y-104165820D02*
X131463143Y-104456106D01*
X131463143Y-104456106D02*
X131572000Y-104456106D01*
X131572000Y-104456106D02*
X131644572Y-104492392D01*
X131644572Y-104492392D02*
X131680857Y-104528677D01*
X131680857Y-104528677D02*
X131717143Y-104601249D01*
X131717143Y-104601249D02*
X131717143Y-104782677D01*
X131717143Y-104782677D02*
X131680857Y-104855249D01*
X131680857Y-104855249D02*
X131644572Y-104891535D01*
X131644572Y-104891535D02*
X131572000Y-104927820D01*
X131572000Y-104927820D02*
X131354286Y-104927820D01*
X131354286Y-104927820D02*
X131281714Y-104891535D01*
X131281714Y-104891535D02*
X131245429Y-104855249D01*
X170869428Y-118680106D02*
X170796857Y-118643820D01*
X170796857Y-118643820D02*
X170687999Y-118643820D01*
X170687999Y-118643820D02*
X170579142Y-118680106D01*
X170579142Y-118680106D02*
X170506571Y-118752677D01*
X170506571Y-118752677D02*
X170470285Y-118825249D01*
X170470285Y-118825249D02*
X170433999Y-118970392D01*
X170433999Y-118970392D02*
X170433999Y-119079249D01*
X170433999Y-119079249D02*
X170470285Y-119224392D01*
X170470285Y-119224392D02*
X170506571Y-119296963D01*
X170506571Y-119296963D02*
X170579142Y-119369535D01*
X170579142Y-119369535D02*
X170687999Y-119405820D01*
X170687999Y-119405820D02*
X170760571Y-119405820D01*
X170760571Y-119405820D02*
X170869428Y-119369535D01*
X170869428Y-119369535D02*
X170905714Y-119333249D01*
X170905714Y-119333249D02*
X170905714Y-119079249D01*
X170905714Y-119079249D02*
X170760571Y-119079249D01*
X171232285Y-119405820D02*
X171232285Y-118643820D01*
X171232285Y-118643820D02*
X171667714Y-119405820D01*
X171667714Y-119405820D02*
X171667714Y-118643820D01*
X172030571Y-119405820D02*
X172030571Y-118643820D01*
X172030571Y-118643820D02*
X172212000Y-118643820D01*
X172212000Y-118643820D02*
X172320857Y-118680106D01*
X172320857Y-118680106D02*
X172393428Y-118752677D01*
X172393428Y-118752677D02*
X172429714Y-118825249D01*
X172429714Y-118825249D02*
X172466000Y-118970392D01*
X172466000Y-118970392D02*
X172466000Y-119079249D01*
X172466000Y-119079249D02*
X172429714Y-119224392D01*
X172429714Y-119224392D02*
X172393428Y-119296963D01*
X172393428Y-119296963D02*
X172320857Y-119369535D01*
X172320857Y-119369535D02*
X172212000Y-119405820D01*
X172212000Y-119405820D02*
X172030571Y-119405820D01*
X153107572Y-118897820D02*
X153107572Y-119405820D01*
X152926143Y-118607535D02*
X152744714Y-119151820D01*
X152744714Y-119151820D02*
X153216429Y-119151820D01*
X153905857Y-119405820D02*
X153470428Y-119405820D01*
X153688143Y-119405820D02*
X153688143Y-118643820D01*
X153688143Y-118643820D02*
X153615571Y-118752677D01*
X153615571Y-118752677D02*
X153543000Y-118825249D01*
X153543000Y-118825249D02*
X153470428Y-118861535D01*
X154559000Y-119405820D02*
X154559000Y-119006677D01*
X154559000Y-119006677D02*
X154522714Y-118934106D01*
X154522714Y-118934106D02*
X154450142Y-118897820D01*
X154450142Y-118897820D02*
X154305000Y-118897820D01*
X154305000Y-118897820D02*
X154232428Y-118934106D01*
X154559000Y-119369535D02*
X154486428Y-119405820D01*
X154486428Y-119405820D02*
X154305000Y-119405820D01*
X154305000Y-119405820D02*
X154232428Y-119369535D01*
X154232428Y-119369535D02*
X154196142Y-119296963D01*
X154196142Y-119296963D02*
X154196142Y-119224392D01*
X154196142Y-119224392D02*
X154232428Y-119151820D01*
X154232428Y-119151820D02*
X154305000Y-119115535D01*
X154305000Y-119115535D02*
X154486428Y-119115535D01*
X154486428Y-119115535D02*
X154559000Y-119079249D01*
X171595142Y-112801820D02*
X171232285Y-112801820D01*
X171232285Y-112801820D02*
X171232285Y-112039820D01*
X171849142Y-112402677D02*
X172103142Y-112402677D01*
X172211999Y-112801820D02*
X171849142Y-112801820D01*
X171849142Y-112801820D02*
X171849142Y-112039820D01*
X171849142Y-112039820D02*
X172211999Y-112039820D01*
X172538571Y-112801820D02*
X172538571Y-112039820D01*
X172538571Y-112039820D02*
X172720000Y-112039820D01*
X172720000Y-112039820D02*
X172828857Y-112076106D01*
X172828857Y-112076106D02*
X172901428Y-112148677D01*
X172901428Y-112148677D02*
X172937714Y-112221249D01*
X172937714Y-112221249D02*
X172974000Y-112366392D01*
X172974000Y-112366392D02*
X172974000Y-112475249D01*
X172974000Y-112475249D02*
X172937714Y-112620392D01*
X172937714Y-112620392D02*
X172901428Y-112692963D01*
X172901428Y-112692963D02*
X172828857Y-112765535D01*
X172828857Y-112765535D02*
X172720000Y-112801820D01*
X172720000Y-112801820D02*
X172538571Y-112801820D01*
X171558857Y-118135820D02*
X171304857Y-117772963D01*
X171123428Y-118135820D02*
X171123428Y-117373820D01*
X171123428Y-117373820D02*
X171413714Y-117373820D01*
X171413714Y-117373820D02*
X171486285Y-117410106D01*
X171486285Y-117410106D02*
X171522571Y-117446392D01*
X171522571Y-117446392D02*
X171558857Y-117518963D01*
X171558857Y-117518963D02*
X171558857Y-117627820D01*
X171558857Y-117627820D02*
X171522571Y-117700392D01*
X171522571Y-117700392D02*
X171486285Y-117736677D01*
X171486285Y-117736677D02*
X171413714Y-117772963D01*
X171413714Y-117772963D02*
X171123428Y-117772963D01*
X172284571Y-117410106D02*
X172212000Y-117373820D01*
X172212000Y-117373820D02*
X172103142Y-117373820D01*
X172103142Y-117373820D02*
X171994285Y-117410106D01*
X171994285Y-117410106D02*
X171921714Y-117482677D01*
X171921714Y-117482677D02*
X171885428Y-117555249D01*
X171885428Y-117555249D02*
X171849142Y-117700392D01*
X171849142Y-117700392D02*
X171849142Y-117809249D01*
X171849142Y-117809249D02*
X171885428Y-117954392D01*
X171885428Y-117954392D02*
X171921714Y-118026963D01*
X171921714Y-118026963D02*
X171994285Y-118099535D01*
X171994285Y-118099535D02*
X172103142Y-118135820D01*
X172103142Y-118135820D02*
X172175714Y-118135820D01*
X172175714Y-118135820D02*
X172284571Y-118099535D01*
X172284571Y-118099535D02*
X172320857Y-118063249D01*
X172320857Y-118063249D02*
X172320857Y-117809249D01*
X172320857Y-117809249D02*
X172175714Y-117809249D01*
X172901428Y-117736677D02*
X173010285Y-117772963D01*
X173010285Y-117772963D02*
X173046571Y-117809249D01*
X173046571Y-117809249D02*
X173082857Y-117881820D01*
X173082857Y-117881820D02*
X173082857Y-117990677D01*
X173082857Y-117990677D02*
X173046571Y-118063249D01*
X173046571Y-118063249D02*
X173010285Y-118099535D01*
X173010285Y-118099535D02*
X172937714Y-118135820D01*
X172937714Y-118135820D02*
X172647428Y-118135820D01*
X172647428Y-118135820D02*
X172647428Y-117373820D01*
X172647428Y-117373820D02*
X172901428Y-117373820D01*
X172901428Y-117373820D02*
X172974000Y-117410106D01*
X172974000Y-117410106D02*
X173010285Y-117446392D01*
X173010285Y-117446392D02*
X173046571Y-117518963D01*
X173046571Y-117518963D02*
X173046571Y-117591535D01*
X173046571Y-117591535D02*
X173010285Y-117664106D01*
X173010285Y-117664106D02*
X172974000Y-117700392D01*
X172974000Y-117700392D02*
X172901428Y-117736677D01*
X172901428Y-117736677D02*
X172647428Y-117736677D01*
X167240857Y-118291305D02*
X167349715Y-118327590D01*
X167349715Y-118327590D02*
X167531143Y-118327590D01*
X167531143Y-118327590D02*
X167603715Y-118291305D01*
X167603715Y-118291305D02*
X167640000Y-118255019D01*
X167640000Y-118255019D02*
X167676286Y-118182447D01*
X167676286Y-118182447D02*
X167676286Y-118109876D01*
X167676286Y-118109876D02*
X167640000Y-118037305D01*
X167640000Y-118037305D02*
X167603715Y-118001019D01*
X167603715Y-118001019D02*
X167531143Y-117964733D01*
X167531143Y-117964733D02*
X167386000Y-117928447D01*
X167386000Y-117928447D02*
X167313429Y-117892162D01*
X167313429Y-117892162D02*
X167277143Y-117855876D01*
X167277143Y-117855876D02*
X167240857Y-117783305D01*
X167240857Y-117783305D02*
X167240857Y-117710733D01*
X167240857Y-117710733D02*
X167277143Y-117638162D01*
X167277143Y-117638162D02*
X167313429Y-117601876D01*
X167313429Y-117601876D02*
X167386000Y-117565590D01*
X167386000Y-117565590D02*
X167567429Y-117565590D01*
X167567429Y-117565590D02*
X167676286Y-117601876D01*
X167930286Y-117565590D02*
X168111714Y-118327590D01*
X168111714Y-118327590D02*
X168256857Y-117783305D01*
X168256857Y-117783305D02*
X168402000Y-118327590D01*
X168402000Y-118327590D02*
X168583429Y-117565590D01*
X134964714Y-104238392D02*
X135001000Y-104202106D01*
X135001000Y-104202106D02*
X135073572Y-104165820D01*
X135073572Y-104165820D02*
X135255000Y-104165820D01*
X135255000Y-104165820D02*
X135327572Y-104202106D01*
X135327572Y-104202106D02*
X135363857Y-104238392D01*
X135363857Y-104238392D02*
X135400143Y-104310963D01*
X135400143Y-104310963D02*
X135400143Y-104383535D01*
X135400143Y-104383535D02*
X135363857Y-104492392D01*
X135363857Y-104492392D02*
X134928429Y-104927820D01*
X134928429Y-104927820D02*
X135400143Y-104927820D01*
X135871857Y-104165820D02*
X135944428Y-104165820D01*
X135944428Y-104165820D02*
X136017000Y-104202106D01*
X136017000Y-104202106D02*
X136053286Y-104238392D01*
X136053286Y-104238392D02*
X136089571Y-104310963D01*
X136089571Y-104310963D02*
X136125857Y-104456106D01*
X136125857Y-104456106D02*
X136125857Y-104637535D01*
X136125857Y-104637535D02*
X136089571Y-104782677D01*
X136089571Y-104782677D02*
X136053286Y-104855249D01*
X136053286Y-104855249D02*
X136017000Y-104891535D01*
X136017000Y-104891535D02*
X135944428Y-104927820D01*
X135944428Y-104927820D02*
X135871857Y-104927820D01*
X135871857Y-104927820D02*
X135799286Y-104891535D01*
X135799286Y-104891535D02*
X135763000Y-104855249D01*
X135763000Y-104855249D02*
X135726714Y-104782677D01*
X135726714Y-104782677D02*
X135690428Y-104637535D01*
X135690428Y-104637535D02*
X135690428Y-104456106D01*
X135690428Y-104456106D02*
X135726714Y-104310963D01*
X135726714Y-104310963D02*
X135763000Y-104238392D01*
X135763000Y-104238392D02*
X135799286Y-104202106D01*
X135799286Y-104202106D02*
X135871857Y-104165820D01*
X136779000Y-104927820D02*
X136779000Y-104528677D01*
X136779000Y-104528677D02*
X136742714Y-104456106D01*
X136742714Y-104456106D02*
X136670142Y-104419820D01*
X136670142Y-104419820D02*
X136525000Y-104419820D01*
X136525000Y-104419820D02*
X136452428Y-104456106D01*
X136779000Y-104891535D02*
X136706428Y-104927820D01*
X136706428Y-104927820D02*
X136525000Y-104927820D01*
X136525000Y-104927820D02*
X136452428Y-104891535D01*
X136452428Y-104891535D02*
X136416142Y-104818963D01*
X136416142Y-104818963D02*
X136416142Y-104746392D01*
X136416142Y-104746392D02*
X136452428Y-104673820D01*
X136452428Y-104673820D02*
X136525000Y-104637535D01*
X136525000Y-104637535D02*
X136706428Y-104637535D01*
X136706428Y-104637535D02*
X136779000Y-104601249D01*
X163267572Y-118897820D02*
X163267572Y-119405820D01*
X163086143Y-118607535D02*
X162904714Y-119151820D01*
X162904714Y-119151820D02*
X163376429Y-119151820D01*
X163993286Y-118897820D02*
X163993286Y-119405820D01*
X163811857Y-118607535D02*
X163630428Y-119151820D01*
X163630428Y-119151820D02*
X164102143Y-119151820D01*
X164392428Y-119405820D02*
X164392428Y-118643820D01*
X164392428Y-118934106D02*
X164465000Y-118897820D01*
X164465000Y-118897820D02*
X164610142Y-118897820D01*
X164610142Y-118897820D02*
X164682714Y-118934106D01*
X164682714Y-118934106D02*
X164719000Y-118970392D01*
X164719000Y-118970392D02*
X164755285Y-119042963D01*
X164755285Y-119042963D02*
X164755285Y-119260677D01*
X164755285Y-119260677D02*
X164719000Y-119333249D01*
X164719000Y-119333249D02*
X164682714Y-119369535D01*
X164682714Y-119369535D02*
X164610142Y-119405820D01*
X164610142Y-119405820D02*
X164465000Y-119405820D01*
X164465000Y-119405820D02*
X164392428Y-119369535D01*
X140462000Y-111658820D02*
X140462000Y-110896820D01*
X140462000Y-110896820D02*
X140752286Y-110896820D01*
X140752286Y-110896820D02*
X140824857Y-110933106D01*
X140824857Y-110933106D02*
X140861143Y-110969392D01*
X140861143Y-110969392D02*
X140897429Y-111041963D01*
X140897429Y-111041963D02*
X140897429Y-111150820D01*
X140897429Y-111150820D02*
X140861143Y-111223392D01*
X140861143Y-111223392D02*
X140824857Y-111259677D01*
X140824857Y-111259677D02*
X140752286Y-111295963D01*
X140752286Y-111295963D02*
X140462000Y-111295963D01*
X141151429Y-110896820D02*
X141332857Y-111658820D01*
X141332857Y-111658820D02*
X141478000Y-111114535D01*
X141478000Y-111114535D02*
X141623143Y-111658820D01*
X141623143Y-111658820D02*
X141804572Y-110896820D01*
X142530286Y-111658820D02*
X142276286Y-111295963D01*
X142094857Y-111658820D02*
X142094857Y-110896820D01*
X142094857Y-110896820D02*
X142385143Y-110896820D01*
X142385143Y-110896820D02*
X142457714Y-110933106D01*
X142457714Y-110933106D02*
X142494000Y-110969392D01*
X142494000Y-110969392D02*
X142530286Y-111041963D01*
X142530286Y-111041963D02*
X142530286Y-111150820D01*
X142530286Y-111150820D02*
X142494000Y-111223392D01*
X142494000Y-111223392D02*
X142457714Y-111259677D01*
X142457714Y-111259677D02*
X142385143Y-111295963D01*
X142385143Y-111295963D02*
X142094857Y-111295963D01*
X165807572Y-118897820D02*
X165807572Y-119405820D01*
X165626143Y-118607535D02*
X165444714Y-119151820D01*
X165444714Y-119151820D02*
X165916429Y-119151820D01*
X166533286Y-118643820D02*
X166388143Y-118643820D01*
X166388143Y-118643820D02*
X166315571Y-118680106D01*
X166315571Y-118680106D02*
X166279286Y-118716392D01*
X166279286Y-118716392D02*
X166206714Y-118825249D01*
X166206714Y-118825249D02*
X166170428Y-118970392D01*
X166170428Y-118970392D02*
X166170428Y-119260677D01*
X166170428Y-119260677D02*
X166206714Y-119333249D01*
X166206714Y-119333249D02*
X166243000Y-119369535D01*
X166243000Y-119369535D02*
X166315571Y-119405820D01*
X166315571Y-119405820D02*
X166460714Y-119405820D01*
X166460714Y-119405820D02*
X166533286Y-119369535D01*
X166533286Y-119369535D02*
X166569571Y-119333249D01*
X166569571Y-119333249D02*
X166605857Y-119260677D01*
X166605857Y-119260677D02*
X166605857Y-119079249D01*
X166605857Y-119079249D02*
X166569571Y-119006677D01*
X166569571Y-119006677D02*
X166533286Y-118970392D01*
X166533286Y-118970392D02*
X166460714Y-118934106D01*
X166460714Y-118934106D02*
X166315571Y-118934106D01*
X166315571Y-118934106D02*
X166243000Y-118970392D01*
X166243000Y-118970392D02*
X166206714Y-119006677D01*
X166206714Y-119006677D02*
X166170428Y-119079249D01*
X166932428Y-119405820D02*
X166932428Y-118643820D01*
X166932428Y-118934106D02*
X167005000Y-118897820D01*
X167005000Y-118897820D02*
X167150142Y-118897820D01*
X167150142Y-118897820D02*
X167222714Y-118934106D01*
X167222714Y-118934106D02*
X167259000Y-118970392D01*
X167259000Y-118970392D02*
X167295285Y-119042963D01*
X167295285Y-119042963D02*
X167295285Y-119260677D01*
X167295285Y-119260677D02*
X167259000Y-119333249D01*
X167259000Y-119333249D02*
X167222714Y-119369535D01*
X167222714Y-119369535D02*
X167150142Y-119405820D01*
X167150142Y-119405820D02*
X167005000Y-119405820D01*
X167005000Y-119405820D02*
X166932428Y-119369535D01*
X176301820Y-114598879D02*
X176301820Y-114090879D01*
X176301820Y-114090879D02*
X177063820Y-114417451D01*
X176265535Y-113256308D02*
X177245249Y-113909451D01*
X177063820Y-112603165D02*
X177063820Y-113038594D01*
X177063820Y-112820879D02*
X176301820Y-112820879D01*
X176301820Y-112820879D02*
X176410677Y-112893451D01*
X176410677Y-112893451D02*
X176483249Y-112966022D01*
X176483249Y-112966022D02*
X176519535Y-113038594D01*
X176265535Y-111732308D02*
X177245249Y-112385451D01*
X176374392Y-111514594D02*
X176338106Y-111478308D01*
X176338106Y-111478308D02*
X176301820Y-111405737D01*
X176301820Y-111405737D02*
X176301820Y-111224308D01*
X176301820Y-111224308D02*
X176338106Y-111151737D01*
X176338106Y-111151737D02*
X176374392Y-111115451D01*
X176374392Y-111115451D02*
X176446963Y-111079165D01*
X176446963Y-111079165D02*
X176519535Y-111079165D01*
X176519535Y-111079165D02*
X176628392Y-111115451D01*
X176628392Y-111115451D02*
X177063820Y-111550879D01*
X177063820Y-111550879D02*
X177063820Y-111079165D01*
X176301820Y-110607451D02*
X176301820Y-110534880D01*
X176301820Y-110534880D02*
X176338106Y-110462308D01*
X176338106Y-110462308D02*
X176374392Y-110426023D01*
X176374392Y-110426023D02*
X176446963Y-110389737D01*
X176446963Y-110389737D02*
X176592106Y-110353451D01*
X176592106Y-110353451D02*
X176773535Y-110353451D01*
X176773535Y-110353451D02*
X176918677Y-110389737D01*
X176918677Y-110389737D02*
X176991249Y-110426023D01*
X176991249Y-110426023D02*
X177027535Y-110462308D01*
X177027535Y-110462308D02*
X177063820Y-110534880D01*
X177063820Y-110534880D02*
X177063820Y-110607451D01*
X177063820Y-110607451D02*
X177027535Y-110680023D01*
X177027535Y-110680023D02*
X176991249Y-110716308D01*
X176991249Y-110716308D02*
X176918677Y-110752594D01*
X176918677Y-110752594D02*
X176773535Y-110788880D01*
X176773535Y-110788880D02*
X176592106Y-110788880D01*
X176592106Y-110788880D02*
X176446963Y-110752594D01*
X176446963Y-110752594D02*
X176374392Y-110716308D01*
X176374392Y-110716308D02*
X176338106Y-110680023D01*
X176338106Y-110680023D02*
X176301820Y-110607451D01*
X176374392Y-110063166D02*
X176338106Y-110026880D01*
X176338106Y-110026880D02*
X176301820Y-109954309D01*
X176301820Y-109954309D02*
X176301820Y-109772880D01*
X176301820Y-109772880D02*
X176338106Y-109700309D01*
X176338106Y-109700309D02*
X176374392Y-109664023D01*
X176374392Y-109664023D02*
X176446963Y-109627737D01*
X176446963Y-109627737D02*
X176519535Y-109627737D01*
X176519535Y-109627737D02*
X176628392Y-109664023D01*
X176628392Y-109664023D02*
X177063820Y-110099451D01*
X177063820Y-110099451D02*
X177063820Y-109627737D01*
X176555820Y-108974595D02*
X177063820Y-108974595D01*
X176265535Y-109156023D02*
X176809820Y-109337452D01*
X176809820Y-109337452D02*
X176809820Y-108865737D01*
X158169428Y-118680106D02*
X158096857Y-118643820D01*
X158096857Y-118643820D02*
X157987999Y-118643820D01*
X157987999Y-118643820D02*
X157879142Y-118680106D01*
X157879142Y-118680106D02*
X157806571Y-118752677D01*
X157806571Y-118752677D02*
X157770285Y-118825249D01*
X157770285Y-118825249D02*
X157733999Y-118970392D01*
X157733999Y-118970392D02*
X157733999Y-119079249D01*
X157733999Y-119079249D02*
X157770285Y-119224392D01*
X157770285Y-119224392D02*
X157806571Y-119296963D01*
X157806571Y-119296963D02*
X157879142Y-119369535D01*
X157879142Y-119369535D02*
X157987999Y-119405820D01*
X157987999Y-119405820D02*
X158060571Y-119405820D01*
X158060571Y-119405820D02*
X158169428Y-119369535D01*
X158169428Y-119369535D02*
X158205714Y-119333249D01*
X158205714Y-119333249D02*
X158205714Y-119079249D01*
X158205714Y-119079249D02*
X158060571Y-119079249D01*
X158532285Y-119405820D02*
X158532285Y-118643820D01*
X158532285Y-118643820D02*
X158967714Y-119405820D01*
X158967714Y-119405820D02*
X158967714Y-118643820D01*
X159330571Y-119405820D02*
X159330571Y-118643820D01*
X159330571Y-118643820D02*
X159512000Y-118643820D01*
X159512000Y-118643820D02*
X159620857Y-118680106D01*
X159620857Y-118680106D02*
X159693428Y-118752677D01*
X159693428Y-118752677D02*
X159729714Y-118825249D01*
X159729714Y-118825249D02*
X159766000Y-118970392D01*
X159766000Y-118970392D02*
X159766000Y-119079249D01*
X159766000Y-119079249D02*
X159729714Y-119224392D01*
X159729714Y-119224392D02*
X159693428Y-119296963D01*
X159693428Y-119296963D02*
X159620857Y-119369535D01*
X159620857Y-119369535D02*
X159512000Y-119405820D01*
X159512000Y-119405820D02*
X159330571Y-119405820D01*
X173826714Y-118680106D02*
X173754143Y-118643820D01*
X173754143Y-118643820D02*
X173645285Y-118643820D01*
X173645285Y-118643820D02*
X173536428Y-118680106D01*
X173536428Y-118680106D02*
X173463857Y-118752677D01*
X173463857Y-118752677D02*
X173427571Y-118825249D01*
X173427571Y-118825249D02*
X173391285Y-118970392D01*
X173391285Y-118970392D02*
X173391285Y-119079249D01*
X173391285Y-119079249D02*
X173427571Y-119224392D01*
X173427571Y-119224392D02*
X173463857Y-119296963D01*
X173463857Y-119296963D02*
X173536428Y-119369535D01*
X173536428Y-119369535D02*
X173645285Y-119405820D01*
X173645285Y-119405820D02*
X173717857Y-119405820D01*
X173717857Y-119405820D02*
X173826714Y-119369535D01*
X173826714Y-119369535D02*
X173863000Y-119333249D01*
X173863000Y-119333249D02*
X173863000Y-119079249D01*
X173863000Y-119079249D02*
X173717857Y-119079249D01*
X174588714Y-119405820D02*
X174153285Y-119405820D01*
X174371000Y-119405820D02*
X174371000Y-118643820D01*
X174371000Y-118643820D02*
X174298428Y-118752677D01*
X174298428Y-118752677D02*
X174225857Y-118825249D01*
X174225857Y-118825249D02*
X174153285Y-118861535D01*
X143092714Y-104492392D02*
X143020143Y-104456106D01*
X143020143Y-104456106D02*
X142983857Y-104419820D01*
X142983857Y-104419820D02*
X142947571Y-104347249D01*
X142947571Y-104347249D02*
X142947571Y-104310963D01*
X142947571Y-104310963D02*
X142983857Y-104238392D01*
X142983857Y-104238392D02*
X143020143Y-104202106D01*
X143020143Y-104202106D02*
X143092714Y-104165820D01*
X143092714Y-104165820D02*
X143237857Y-104165820D01*
X143237857Y-104165820D02*
X143310429Y-104202106D01*
X143310429Y-104202106D02*
X143346714Y-104238392D01*
X143346714Y-104238392D02*
X143383000Y-104310963D01*
X143383000Y-104310963D02*
X143383000Y-104347249D01*
X143383000Y-104347249D02*
X143346714Y-104419820D01*
X143346714Y-104419820D02*
X143310429Y-104456106D01*
X143310429Y-104456106D02*
X143237857Y-104492392D01*
X143237857Y-104492392D02*
X143092714Y-104492392D01*
X143092714Y-104492392D02*
X143020143Y-104528677D01*
X143020143Y-104528677D02*
X142983857Y-104564963D01*
X142983857Y-104564963D02*
X142947571Y-104637535D01*
X142947571Y-104637535D02*
X142947571Y-104782677D01*
X142947571Y-104782677D02*
X142983857Y-104855249D01*
X142983857Y-104855249D02*
X143020143Y-104891535D01*
X143020143Y-104891535D02*
X143092714Y-104927820D01*
X143092714Y-104927820D02*
X143237857Y-104927820D01*
X143237857Y-104927820D02*
X143310429Y-104891535D01*
X143310429Y-104891535D02*
X143346714Y-104855249D01*
X143346714Y-104855249D02*
X143383000Y-104782677D01*
X143383000Y-104782677D02*
X143383000Y-104637535D01*
X143383000Y-104637535D02*
X143346714Y-104564963D01*
X143346714Y-104564963D02*
X143310429Y-104528677D01*
X143310429Y-104528677D02*
X143237857Y-104492392D01*
X144036143Y-104927820D02*
X144036143Y-104528677D01*
X144036143Y-104528677D02*
X143999857Y-104456106D01*
X143999857Y-104456106D02*
X143927285Y-104419820D01*
X143927285Y-104419820D02*
X143782143Y-104419820D01*
X143782143Y-104419820D02*
X143709571Y-104456106D01*
X144036143Y-104891535D02*
X143963571Y-104927820D01*
X143963571Y-104927820D02*
X143782143Y-104927820D01*
X143782143Y-104927820D02*
X143709571Y-104891535D01*
X143709571Y-104891535D02*
X143673285Y-104818963D01*
X143673285Y-104818963D02*
X143673285Y-104746392D01*
X143673285Y-104746392D02*
X143709571Y-104673820D01*
X143709571Y-104673820D02*
X143782143Y-104637535D01*
X143782143Y-104637535D02*
X143963571Y-104637535D01*
X143963571Y-104637535D02*
X144036143Y-104601249D01*
X134928429Y-118643820D02*
X135400143Y-118643820D01*
X135400143Y-118643820D02*
X135146143Y-118934106D01*
X135146143Y-118934106D02*
X135255000Y-118934106D01*
X135255000Y-118934106D02*
X135327572Y-118970392D01*
X135327572Y-118970392D02*
X135363857Y-119006677D01*
X135363857Y-119006677D02*
X135400143Y-119079249D01*
X135400143Y-119079249D02*
X135400143Y-119260677D01*
X135400143Y-119260677D02*
X135363857Y-119333249D01*
X135363857Y-119333249D02*
X135327572Y-119369535D01*
X135327572Y-119369535D02*
X135255000Y-119405820D01*
X135255000Y-119405820D02*
X135037286Y-119405820D01*
X135037286Y-119405820D02*
X134964714Y-119369535D01*
X134964714Y-119369535D02*
X134928429Y-119333249D01*
X136125857Y-119405820D02*
X135690428Y-119405820D01*
X135908143Y-119405820D02*
X135908143Y-118643820D01*
X135908143Y-118643820D02*
X135835571Y-118752677D01*
X135835571Y-118752677D02*
X135763000Y-118825249D01*
X135763000Y-118825249D02*
X135690428Y-118861535D01*
X136452428Y-119405820D02*
X136452428Y-118643820D01*
X136452428Y-118934106D02*
X136525000Y-118897820D01*
X136525000Y-118897820D02*
X136670142Y-118897820D01*
X136670142Y-118897820D02*
X136742714Y-118934106D01*
X136742714Y-118934106D02*
X136779000Y-118970392D01*
X136779000Y-118970392D02*
X136815285Y-119042963D01*
X136815285Y-119042963D02*
X136815285Y-119260677D01*
X136815285Y-119260677D02*
X136779000Y-119333249D01*
X136779000Y-119333249D02*
X136742714Y-119369535D01*
X136742714Y-119369535D02*
X136670142Y-119405820D01*
X136670142Y-119405820D02*
X136525000Y-119405820D01*
X136525000Y-119405820D02*
X136452428Y-119369535D01*
X166986857Y-105671677D02*
X167095714Y-105707963D01*
X167095714Y-105707963D02*
X167132000Y-105744249D01*
X167132000Y-105744249D02*
X167168286Y-105816820D01*
X167168286Y-105816820D02*
X167168286Y-105925677D01*
X167168286Y-105925677D02*
X167132000Y-105998249D01*
X167132000Y-105998249D02*
X167095714Y-106034535D01*
X167095714Y-106034535D02*
X167023143Y-106070820D01*
X167023143Y-106070820D02*
X166732857Y-106070820D01*
X166732857Y-106070820D02*
X166732857Y-105308820D01*
X166732857Y-105308820D02*
X166986857Y-105308820D01*
X166986857Y-105308820D02*
X167059429Y-105345106D01*
X167059429Y-105345106D02*
X167095714Y-105381392D01*
X167095714Y-105381392D02*
X167132000Y-105453963D01*
X167132000Y-105453963D02*
X167132000Y-105526535D01*
X167132000Y-105526535D02*
X167095714Y-105599106D01*
X167095714Y-105599106D02*
X167059429Y-105635392D01*
X167059429Y-105635392D02*
X166986857Y-105671677D01*
X166986857Y-105671677D02*
X166732857Y-105671677D01*
X167640000Y-105308820D02*
X167785143Y-105308820D01*
X167785143Y-105308820D02*
X167857714Y-105345106D01*
X167857714Y-105345106D02*
X167930286Y-105417677D01*
X167930286Y-105417677D02*
X167966571Y-105562820D01*
X167966571Y-105562820D02*
X167966571Y-105816820D01*
X167966571Y-105816820D02*
X167930286Y-105961963D01*
X167930286Y-105961963D02*
X167857714Y-106034535D01*
X167857714Y-106034535D02*
X167785143Y-106070820D01*
X167785143Y-106070820D02*
X167640000Y-106070820D01*
X167640000Y-106070820D02*
X167567429Y-106034535D01*
X167567429Y-106034535D02*
X167494857Y-105961963D01*
X167494857Y-105961963D02*
X167458571Y-105816820D01*
X167458571Y-105816820D02*
X167458571Y-105562820D01*
X167458571Y-105562820D02*
X167494857Y-105417677D01*
X167494857Y-105417677D02*
X167567429Y-105345106D01*
X167567429Y-105345106D02*
X167640000Y-105308820D01*
X168438286Y-105308820D02*
X168583429Y-105308820D01*
X168583429Y-105308820D02*
X168656000Y-105345106D01*
X168656000Y-105345106D02*
X168728572Y-105417677D01*
X168728572Y-105417677D02*
X168764857Y-105562820D01*
X168764857Y-105562820D02*
X168764857Y-105816820D01*
X168764857Y-105816820D02*
X168728572Y-105961963D01*
X168728572Y-105961963D02*
X168656000Y-106034535D01*
X168656000Y-106034535D02*
X168583429Y-106070820D01*
X168583429Y-106070820D02*
X168438286Y-106070820D01*
X168438286Y-106070820D02*
X168365715Y-106034535D01*
X168365715Y-106034535D02*
X168293143Y-105961963D01*
X168293143Y-105961963D02*
X168256857Y-105816820D01*
X168256857Y-105816820D02*
X168256857Y-105562820D01*
X168256857Y-105562820D02*
X168293143Y-105417677D01*
X168293143Y-105417677D02*
X168365715Y-105345106D01*
X168365715Y-105345106D02*
X168438286Y-105308820D01*
X168982572Y-105308820D02*
X169418001Y-105308820D01*
X169200286Y-106070820D02*
X169200286Y-105308820D01*
X168601571Y-119006677D02*
X168710428Y-119042963D01*
X168710428Y-119042963D02*
X168746714Y-119079249D01*
X168746714Y-119079249D02*
X168783000Y-119151820D01*
X168783000Y-119151820D02*
X168783000Y-119260677D01*
X168783000Y-119260677D02*
X168746714Y-119333249D01*
X168746714Y-119333249D02*
X168710428Y-119369535D01*
X168710428Y-119369535D02*
X168637857Y-119405820D01*
X168637857Y-119405820D02*
X168347571Y-119405820D01*
X168347571Y-119405820D02*
X168347571Y-118643820D01*
X168347571Y-118643820D02*
X168601571Y-118643820D01*
X168601571Y-118643820D02*
X168674143Y-118680106D01*
X168674143Y-118680106D02*
X168710428Y-118716392D01*
X168710428Y-118716392D02*
X168746714Y-118788963D01*
X168746714Y-118788963D02*
X168746714Y-118861535D01*
X168746714Y-118861535D02*
X168710428Y-118934106D01*
X168710428Y-118934106D02*
X168674143Y-118970392D01*
X168674143Y-118970392D02*
X168601571Y-119006677D01*
X168601571Y-119006677D02*
X168347571Y-119006677D01*
X169254714Y-118643820D02*
X169327285Y-118643820D01*
X169327285Y-118643820D02*
X169399857Y-118680106D01*
X169399857Y-118680106D02*
X169436143Y-118716392D01*
X169436143Y-118716392D02*
X169472428Y-118788963D01*
X169472428Y-118788963D02*
X169508714Y-118934106D01*
X169508714Y-118934106D02*
X169508714Y-119115535D01*
X169508714Y-119115535D02*
X169472428Y-119260677D01*
X169472428Y-119260677D02*
X169436143Y-119333249D01*
X169436143Y-119333249D02*
X169399857Y-119369535D01*
X169399857Y-119369535D02*
X169327285Y-119405820D01*
X169327285Y-119405820D02*
X169254714Y-119405820D01*
X169254714Y-119405820D02*
X169182143Y-119369535D01*
X169182143Y-119369535D02*
X169145857Y-119333249D01*
X169145857Y-119333249D02*
X169109571Y-119260677D01*
X169109571Y-119260677D02*
X169073285Y-119115535D01*
X169073285Y-119115535D02*
X169073285Y-118934106D01*
X169073285Y-118934106D02*
X169109571Y-118788963D01*
X169109571Y-118788963D02*
X169145857Y-118716392D01*
X169145857Y-118716392D02*
X169182143Y-118680106D01*
X169182143Y-118680106D02*
X169254714Y-118643820D01*
X137940143Y-104927820D02*
X137504714Y-104927820D01*
X137722429Y-104927820D02*
X137722429Y-104165820D01*
X137722429Y-104165820D02*
X137649857Y-104274677D01*
X137649857Y-104274677D02*
X137577286Y-104347249D01*
X137577286Y-104347249D02*
X137504714Y-104383535D01*
X138375571Y-104492392D02*
X138303000Y-104456106D01*
X138303000Y-104456106D02*
X138266714Y-104419820D01*
X138266714Y-104419820D02*
X138230428Y-104347249D01*
X138230428Y-104347249D02*
X138230428Y-104310963D01*
X138230428Y-104310963D02*
X138266714Y-104238392D01*
X138266714Y-104238392D02*
X138303000Y-104202106D01*
X138303000Y-104202106D02*
X138375571Y-104165820D01*
X138375571Y-104165820D02*
X138520714Y-104165820D01*
X138520714Y-104165820D02*
X138593286Y-104202106D01*
X138593286Y-104202106D02*
X138629571Y-104238392D01*
X138629571Y-104238392D02*
X138665857Y-104310963D01*
X138665857Y-104310963D02*
X138665857Y-104347249D01*
X138665857Y-104347249D02*
X138629571Y-104419820D01*
X138629571Y-104419820D02*
X138593286Y-104456106D01*
X138593286Y-104456106D02*
X138520714Y-104492392D01*
X138520714Y-104492392D02*
X138375571Y-104492392D01*
X138375571Y-104492392D02*
X138303000Y-104528677D01*
X138303000Y-104528677D02*
X138266714Y-104564963D01*
X138266714Y-104564963D02*
X138230428Y-104637535D01*
X138230428Y-104637535D02*
X138230428Y-104782677D01*
X138230428Y-104782677D02*
X138266714Y-104855249D01*
X138266714Y-104855249D02*
X138303000Y-104891535D01*
X138303000Y-104891535D02*
X138375571Y-104927820D01*
X138375571Y-104927820D02*
X138520714Y-104927820D01*
X138520714Y-104927820D02*
X138593286Y-104891535D01*
X138593286Y-104891535D02*
X138629571Y-104855249D01*
X138629571Y-104855249D02*
X138665857Y-104782677D01*
X138665857Y-104782677D02*
X138665857Y-104637535D01*
X138665857Y-104637535D02*
X138629571Y-104564963D01*
X138629571Y-104564963D02*
X138593286Y-104528677D01*
X138593286Y-104528677D02*
X138520714Y-104492392D01*
X139319000Y-104927820D02*
X139319000Y-104528677D01*
X139319000Y-104528677D02*
X139282714Y-104456106D01*
X139282714Y-104456106D02*
X139210142Y-104419820D01*
X139210142Y-104419820D02*
X139065000Y-104419820D01*
X139065000Y-104419820D02*
X138992428Y-104456106D01*
X139319000Y-104891535D02*
X139246428Y-104927820D01*
X139246428Y-104927820D02*
X139065000Y-104927820D01*
X139065000Y-104927820D02*
X138992428Y-104891535D01*
X138992428Y-104891535D02*
X138956142Y-104818963D01*
X138956142Y-104818963D02*
X138956142Y-104746392D01*
X138956142Y-104746392D02*
X138992428Y-104673820D01*
X138992428Y-104673820D02*
X139065000Y-104637535D01*
X139065000Y-104637535D02*
X139246428Y-104637535D01*
X139246428Y-104637535D02*
X139319000Y-104601249D01*
X150168429Y-118643820D02*
X150640143Y-118643820D01*
X150640143Y-118643820D02*
X150386143Y-118934106D01*
X150386143Y-118934106D02*
X150495000Y-118934106D01*
X150495000Y-118934106D02*
X150567572Y-118970392D01*
X150567572Y-118970392D02*
X150603857Y-119006677D01*
X150603857Y-119006677D02*
X150640143Y-119079249D01*
X150640143Y-119079249D02*
X150640143Y-119260677D01*
X150640143Y-119260677D02*
X150603857Y-119333249D01*
X150603857Y-119333249D02*
X150567572Y-119369535D01*
X150567572Y-119369535D02*
X150495000Y-119405820D01*
X150495000Y-119405820D02*
X150277286Y-119405820D01*
X150277286Y-119405820D02*
X150204714Y-119369535D01*
X150204714Y-119369535D02*
X150168429Y-119333249D01*
X151075571Y-118970392D02*
X151003000Y-118934106D01*
X151003000Y-118934106D02*
X150966714Y-118897820D01*
X150966714Y-118897820D02*
X150930428Y-118825249D01*
X150930428Y-118825249D02*
X150930428Y-118788963D01*
X150930428Y-118788963D02*
X150966714Y-118716392D01*
X150966714Y-118716392D02*
X151003000Y-118680106D01*
X151003000Y-118680106D02*
X151075571Y-118643820D01*
X151075571Y-118643820D02*
X151220714Y-118643820D01*
X151220714Y-118643820D02*
X151293286Y-118680106D01*
X151293286Y-118680106D02*
X151329571Y-118716392D01*
X151329571Y-118716392D02*
X151365857Y-118788963D01*
X151365857Y-118788963D02*
X151365857Y-118825249D01*
X151365857Y-118825249D02*
X151329571Y-118897820D01*
X151329571Y-118897820D02*
X151293286Y-118934106D01*
X151293286Y-118934106D02*
X151220714Y-118970392D01*
X151220714Y-118970392D02*
X151075571Y-118970392D01*
X151075571Y-118970392D02*
X151003000Y-119006677D01*
X151003000Y-119006677D02*
X150966714Y-119042963D01*
X150966714Y-119042963D02*
X150930428Y-119115535D01*
X150930428Y-119115535D02*
X150930428Y-119260677D01*
X150930428Y-119260677D02*
X150966714Y-119333249D01*
X150966714Y-119333249D02*
X151003000Y-119369535D01*
X151003000Y-119369535D02*
X151075571Y-119405820D01*
X151075571Y-119405820D02*
X151220714Y-119405820D01*
X151220714Y-119405820D02*
X151293286Y-119369535D01*
X151293286Y-119369535D02*
X151329571Y-119333249D01*
X151329571Y-119333249D02*
X151365857Y-119260677D01*
X151365857Y-119260677D02*
X151365857Y-119115535D01*
X151365857Y-119115535D02*
X151329571Y-119042963D01*
X151329571Y-119042963D02*
X151293286Y-119006677D01*
X151293286Y-119006677D02*
X151220714Y-118970392D01*
X152019000Y-119405820D02*
X152019000Y-119006677D01*
X152019000Y-119006677D02*
X151982714Y-118934106D01*
X151982714Y-118934106D02*
X151910142Y-118897820D01*
X151910142Y-118897820D02*
X151765000Y-118897820D01*
X151765000Y-118897820D02*
X151692428Y-118934106D01*
X152019000Y-119369535D02*
X151946428Y-119405820D01*
X151946428Y-119405820D02*
X151765000Y-119405820D01*
X151765000Y-119405820D02*
X151692428Y-119369535D01*
X151692428Y-119369535D02*
X151656142Y-119296963D01*
X151656142Y-119296963D02*
X151656142Y-119224392D01*
X151656142Y-119224392D02*
X151692428Y-119151820D01*
X151692428Y-119151820D02*
X151765000Y-119115535D01*
X151765000Y-119115535D02*
X151946428Y-119115535D01*
X151946428Y-119115535D02*
X152019000Y-119079249D01*
D11*
X163822093Y-116162666D02*
X163144760Y-116162666D01*
X162806093Y-116162666D02*
X162854474Y-116211047D01*
X162854474Y-116211047D02*
X162902855Y-116162666D01*
X162902855Y-116162666D02*
X162854474Y-116114285D01*
X162854474Y-116114285D02*
X162806093Y-116162666D01*
X162806093Y-116162666D02*
X162902855Y-116162666D01*
X163773713Y-115243427D02*
X163822093Y-115340189D01*
X163822093Y-115340189D02*
X163822093Y-115533713D01*
X163822093Y-115533713D02*
X163773713Y-115630475D01*
X163773713Y-115630475D02*
X163725332Y-115678856D01*
X163725332Y-115678856D02*
X163628570Y-115727237D01*
X163628570Y-115727237D02*
X163338284Y-115727237D01*
X163338284Y-115727237D02*
X163241522Y-115678856D01*
X163241522Y-115678856D02*
X163193141Y-115630475D01*
X163193141Y-115630475D02*
X163144760Y-115533713D01*
X163144760Y-115533713D02*
X163144760Y-115340189D01*
X163144760Y-115340189D02*
X163193141Y-115243427D01*
X163773713Y-114420951D02*
X163822093Y-114517713D01*
X163822093Y-114517713D02*
X163822093Y-114711237D01*
X163822093Y-114711237D02*
X163773713Y-114807999D01*
X163773713Y-114807999D02*
X163676951Y-114856380D01*
X163676951Y-114856380D02*
X163289903Y-114856380D01*
X163289903Y-114856380D02*
X163193141Y-114807999D01*
X163193141Y-114807999D02*
X163144760Y-114711237D01*
X163144760Y-114711237D02*
X163144760Y-114517713D01*
X163144760Y-114517713D02*
X163193141Y-114420951D01*
X163193141Y-114420951D02*
X163289903Y-114372570D01*
X163289903Y-114372570D02*
X163386665Y-114372570D01*
X163386665Y-114372570D02*
X163483427Y-114856380D01*
X163289903Y-113598475D02*
X163338284Y-113453332D01*
X163338284Y-113453332D02*
X163386665Y-113404951D01*
X163386665Y-113404951D02*
X163483427Y-113356570D01*
X163483427Y-113356570D02*
X163628570Y-113356570D01*
X163628570Y-113356570D02*
X163725332Y-113404951D01*
X163725332Y-113404951D02*
X163773713Y-113453332D01*
X163773713Y-113453332D02*
X163822093Y-113550094D01*
X163822093Y-113550094D02*
X163822093Y-113937142D01*
X163822093Y-113937142D02*
X162806093Y-113937142D01*
X162806093Y-113937142D02*
X162806093Y-113598475D01*
X162806093Y-113598475D02*
X162854474Y-113501713D01*
X162854474Y-113501713D02*
X162902855Y-113453332D01*
X162902855Y-113453332D02*
X162999617Y-113404951D01*
X162999617Y-113404951D02*
X163096379Y-113404951D01*
X163096379Y-113404951D02*
X163193141Y-113453332D01*
X163193141Y-113453332D02*
X163241522Y-113501713D01*
X163241522Y-113501713D02*
X163289903Y-113598475D01*
X163289903Y-113598475D02*
X163289903Y-113937142D01*
X163822093Y-112775999D02*
X163773713Y-112872761D01*
X163773713Y-112872761D02*
X163676951Y-112921142D01*
X163676951Y-112921142D02*
X162806093Y-112921142D01*
X163822093Y-112388952D02*
X163144760Y-112388952D01*
X162806093Y-112388952D02*
X162854474Y-112437333D01*
X162854474Y-112437333D02*
X162902855Y-112388952D01*
X162902855Y-112388952D02*
X162854474Y-112340571D01*
X162854474Y-112340571D02*
X162806093Y-112388952D01*
X162806093Y-112388952D02*
X162902855Y-112388952D01*
X163144760Y-111905142D02*
X163822093Y-111905142D01*
X163241522Y-111905142D02*
X163193141Y-111856761D01*
X163193141Y-111856761D02*
X163144760Y-111759999D01*
X163144760Y-111759999D02*
X163144760Y-111614856D01*
X163144760Y-111614856D02*
X163193141Y-111518094D01*
X163193141Y-111518094D02*
X163289903Y-111469713D01*
X163289903Y-111469713D02*
X163822093Y-111469713D01*
X163822093Y-110985904D02*
X162806093Y-110985904D01*
X163435046Y-110889142D02*
X163822093Y-110598856D01*
X163144760Y-110598856D02*
X163531808Y-110985904D01*
X163822093Y-110163428D02*
X162806093Y-110163428D01*
X162806093Y-110163428D02*
X162806093Y-109776380D01*
X162806093Y-109776380D02*
X162854474Y-109679618D01*
X162854474Y-109679618D02*
X162902855Y-109631237D01*
X162902855Y-109631237D02*
X162999617Y-109582856D01*
X162999617Y-109582856D02*
X163144760Y-109582856D01*
X163144760Y-109582856D02*
X163241522Y-109631237D01*
X163241522Y-109631237D02*
X163289903Y-109679618D01*
X163289903Y-109679618D02*
X163338284Y-109776380D01*
X163338284Y-109776380D02*
X163338284Y-110163428D01*
X163822093Y-109147428D02*
X163144760Y-109147428D01*
X162806093Y-109147428D02*
X162854474Y-109195809D01*
X162854474Y-109195809D02*
X162902855Y-109147428D01*
X162902855Y-109147428D02*
X162854474Y-109099047D01*
X162854474Y-109099047D02*
X162806093Y-109147428D01*
X162806093Y-109147428D02*
X162902855Y-109147428D01*
X163773713Y-108228189D02*
X163822093Y-108324951D01*
X163822093Y-108324951D02*
X163822093Y-108518475D01*
X163822093Y-108518475D02*
X163773713Y-108615237D01*
X163773713Y-108615237D02*
X163725332Y-108663618D01*
X163725332Y-108663618D02*
X163628570Y-108711999D01*
X163628570Y-108711999D02*
X163338284Y-108711999D01*
X163338284Y-108711999D02*
X163241522Y-108663618D01*
X163241522Y-108663618D02*
X163193141Y-108615237D01*
X163193141Y-108615237D02*
X163144760Y-108518475D01*
X163144760Y-108518475D02*
X163144760Y-108324951D01*
X163144760Y-108324951D02*
X163193141Y-108228189D01*
X163822093Y-107647618D02*
X163773713Y-107744380D01*
X163773713Y-107744380D02*
X163725332Y-107792761D01*
X163725332Y-107792761D02*
X163628570Y-107841142D01*
X163628570Y-107841142D02*
X163338284Y-107841142D01*
X163338284Y-107841142D02*
X163241522Y-107792761D01*
X163241522Y-107792761D02*
X163193141Y-107744380D01*
X163193141Y-107744380D02*
X163144760Y-107647618D01*
X163144760Y-107647618D02*
X163144760Y-107502475D01*
X163144760Y-107502475D02*
X163193141Y-107405713D01*
X163193141Y-107405713D02*
X163241522Y-107357332D01*
X163241522Y-107357332D02*
X163338284Y-107308951D01*
X163338284Y-107308951D02*
X163628570Y-107308951D01*
X163628570Y-107308951D02*
X163725332Y-107357332D01*
X163725332Y-107357332D02*
X163773713Y-107405713D01*
X163773713Y-107405713D02*
X163822093Y-107502475D01*
X163822093Y-107502475D02*
X163822093Y-107647618D01*
D10*
X153470429Y-104419820D02*
X153470429Y-104927820D01*
X153289000Y-104129535D02*
X153107571Y-104673820D01*
X153107571Y-104673820D02*
X153579286Y-104673820D01*
X154196143Y-104927820D02*
X154196143Y-104528677D01*
X154196143Y-104528677D02*
X154159857Y-104456106D01*
X154159857Y-104456106D02*
X154087285Y-104419820D01*
X154087285Y-104419820D02*
X153942143Y-104419820D01*
X153942143Y-104419820D02*
X153869571Y-104456106D01*
X154196143Y-104891535D02*
X154123571Y-104927820D01*
X154123571Y-104927820D02*
X153942143Y-104927820D01*
X153942143Y-104927820D02*
X153869571Y-104891535D01*
X153869571Y-104891535D02*
X153833285Y-104818963D01*
X153833285Y-104818963D02*
X153833285Y-104746392D01*
X153833285Y-104746392D02*
X153869571Y-104673820D01*
X153869571Y-104673820D02*
X153942143Y-104637535D01*
X153942143Y-104637535D02*
X154123571Y-104637535D01*
X154123571Y-104637535D02*
X154196143Y-104601249D01*
X132769428Y-118680106D02*
X132696857Y-118643820D01*
X132696857Y-118643820D02*
X132587999Y-118643820D01*
X132587999Y-118643820D02*
X132479142Y-118680106D01*
X132479142Y-118680106D02*
X132406571Y-118752677D01*
X132406571Y-118752677D02*
X132370285Y-118825249D01*
X132370285Y-118825249D02*
X132333999Y-118970392D01*
X132333999Y-118970392D02*
X132333999Y-119079249D01*
X132333999Y-119079249D02*
X132370285Y-119224392D01*
X132370285Y-119224392D02*
X132406571Y-119296963D01*
X132406571Y-119296963D02*
X132479142Y-119369535D01*
X132479142Y-119369535D02*
X132587999Y-119405820D01*
X132587999Y-119405820D02*
X132660571Y-119405820D01*
X132660571Y-119405820D02*
X132769428Y-119369535D01*
X132769428Y-119369535D02*
X132805714Y-119333249D01*
X132805714Y-119333249D02*
X132805714Y-119079249D01*
X132805714Y-119079249D02*
X132660571Y-119079249D01*
X133132285Y-119405820D02*
X133132285Y-118643820D01*
X133132285Y-118643820D02*
X133567714Y-119405820D01*
X133567714Y-119405820D02*
X133567714Y-118643820D01*
X133930571Y-119405820D02*
X133930571Y-118643820D01*
X133930571Y-118643820D02*
X134112000Y-118643820D01*
X134112000Y-118643820D02*
X134220857Y-118680106D01*
X134220857Y-118680106D02*
X134293428Y-118752677D01*
X134293428Y-118752677D02*
X134329714Y-118825249D01*
X134329714Y-118825249D02*
X134366000Y-118970392D01*
X134366000Y-118970392D02*
X134366000Y-119079249D01*
X134366000Y-119079249D02*
X134329714Y-119224392D01*
X134329714Y-119224392D02*
X134293428Y-119296963D01*
X134293428Y-119296963D02*
X134220857Y-119369535D01*
X134220857Y-119369535D02*
X134112000Y-119405820D01*
X134112000Y-119405820D02*
X133930571Y-119405820D01*
X165771286Y-104165820D02*
X166243000Y-104165820D01*
X166243000Y-104165820D02*
X165989000Y-104456106D01*
X165989000Y-104456106D02*
X166097857Y-104456106D01*
X166097857Y-104456106D02*
X166170429Y-104492392D01*
X166170429Y-104492392D02*
X166206714Y-104528677D01*
X166206714Y-104528677D02*
X166243000Y-104601249D01*
X166243000Y-104601249D02*
X166243000Y-104782677D01*
X166243000Y-104782677D02*
X166206714Y-104855249D01*
X166206714Y-104855249D02*
X166170429Y-104891535D01*
X166170429Y-104891535D02*
X166097857Y-104927820D01*
X166097857Y-104927820D02*
X165880143Y-104927820D01*
X165880143Y-104927820D02*
X165807571Y-104891535D01*
X165807571Y-104891535D02*
X165771286Y-104855249D01*
X166569571Y-104927820D02*
X166569571Y-104165820D01*
X166569571Y-104456106D02*
X166642143Y-104419820D01*
X166642143Y-104419820D02*
X166787285Y-104419820D01*
X166787285Y-104419820D02*
X166859857Y-104456106D01*
X166859857Y-104456106D02*
X166896143Y-104492392D01*
X166896143Y-104492392D02*
X166932428Y-104564963D01*
X166932428Y-104564963D02*
X166932428Y-104782677D01*
X166932428Y-104782677D02*
X166896143Y-104855249D01*
X166896143Y-104855249D02*
X166859857Y-104891535D01*
X166859857Y-104891535D02*
X166787285Y-104927820D01*
X166787285Y-104927820D02*
X166642143Y-104927820D01*
X166642143Y-104927820D02*
X166569571Y-104891535D01*
X142548429Y-118643820D02*
X143020143Y-118643820D01*
X143020143Y-118643820D02*
X142766143Y-118934106D01*
X142766143Y-118934106D02*
X142875000Y-118934106D01*
X142875000Y-118934106D02*
X142947572Y-118970392D01*
X142947572Y-118970392D02*
X142983857Y-119006677D01*
X142983857Y-119006677D02*
X143020143Y-119079249D01*
X143020143Y-119079249D02*
X143020143Y-119260677D01*
X143020143Y-119260677D02*
X142983857Y-119333249D01*
X142983857Y-119333249D02*
X142947572Y-119369535D01*
X142947572Y-119369535D02*
X142875000Y-119405820D01*
X142875000Y-119405820D02*
X142657286Y-119405820D01*
X142657286Y-119405820D02*
X142584714Y-119369535D01*
X142584714Y-119369535D02*
X142548429Y-119333249D01*
X143673286Y-118643820D02*
X143528143Y-118643820D01*
X143528143Y-118643820D02*
X143455571Y-118680106D01*
X143455571Y-118680106D02*
X143419286Y-118716392D01*
X143419286Y-118716392D02*
X143346714Y-118825249D01*
X143346714Y-118825249D02*
X143310428Y-118970392D01*
X143310428Y-118970392D02*
X143310428Y-119260677D01*
X143310428Y-119260677D02*
X143346714Y-119333249D01*
X143346714Y-119333249D02*
X143383000Y-119369535D01*
X143383000Y-119369535D02*
X143455571Y-119405820D01*
X143455571Y-119405820D02*
X143600714Y-119405820D01*
X143600714Y-119405820D02*
X143673286Y-119369535D01*
X143673286Y-119369535D02*
X143709571Y-119333249D01*
X143709571Y-119333249D02*
X143745857Y-119260677D01*
X143745857Y-119260677D02*
X143745857Y-119079249D01*
X143745857Y-119079249D02*
X143709571Y-119006677D01*
X143709571Y-119006677D02*
X143673286Y-118970392D01*
X143673286Y-118970392D02*
X143600714Y-118934106D01*
X143600714Y-118934106D02*
X143455571Y-118934106D01*
X143455571Y-118934106D02*
X143383000Y-118970392D01*
X143383000Y-118970392D02*
X143346714Y-119006677D01*
X143346714Y-119006677D02*
X143310428Y-119079249D01*
X144072428Y-119405820D02*
X144072428Y-118643820D01*
X144072428Y-118934106D02*
X144145000Y-118897820D01*
X144145000Y-118897820D02*
X144290142Y-118897820D01*
X144290142Y-118897820D02*
X144362714Y-118934106D01*
X144362714Y-118934106D02*
X144399000Y-118970392D01*
X144399000Y-118970392D02*
X144435285Y-119042963D01*
X144435285Y-119042963D02*
X144435285Y-119260677D01*
X144435285Y-119260677D02*
X144399000Y-119333249D01*
X144399000Y-119333249D02*
X144362714Y-119369535D01*
X144362714Y-119369535D02*
X144290142Y-119405820D01*
X144290142Y-119405820D02*
X144145000Y-119405820D01*
X144145000Y-119405820D02*
X144072428Y-119369535D01*
X148100143Y-104927820D02*
X148245286Y-104927820D01*
X148245286Y-104927820D02*
X148317857Y-104891535D01*
X148317857Y-104891535D02*
X148354143Y-104855249D01*
X148354143Y-104855249D02*
X148426714Y-104746392D01*
X148426714Y-104746392D02*
X148463000Y-104601249D01*
X148463000Y-104601249D02*
X148463000Y-104310963D01*
X148463000Y-104310963D02*
X148426714Y-104238392D01*
X148426714Y-104238392D02*
X148390429Y-104202106D01*
X148390429Y-104202106D02*
X148317857Y-104165820D01*
X148317857Y-104165820D02*
X148172714Y-104165820D01*
X148172714Y-104165820D02*
X148100143Y-104202106D01*
X148100143Y-104202106D02*
X148063857Y-104238392D01*
X148063857Y-104238392D02*
X148027571Y-104310963D01*
X148027571Y-104310963D02*
X148027571Y-104492392D01*
X148027571Y-104492392D02*
X148063857Y-104564963D01*
X148063857Y-104564963D02*
X148100143Y-104601249D01*
X148100143Y-104601249D02*
X148172714Y-104637535D01*
X148172714Y-104637535D02*
X148317857Y-104637535D01*
X148317857Y-104637535D02*
X148390429Y-104601249D01*
X148390429Y-104601249D02*
X148426714Y-104564963D01*
X148426714Y-104564963D02*
X148463000Y-104492392D01*
X148789571Y-104927820D02*
X148789571Y-104165820D01*
X148789571Y-104456106D02*
X148862143Y-104419820D01*
X148862143Y-104419820D02*
X149007285Y-104419820D01*
X149007285Y-104419820D02*
X149079857Y-104456106D01*
X149079857Y-104456106D02*
X149116143Y-104492392D01*
X149116143Y-104492392D02*
X149152428Y-104564963D01*
X149152428Y-104564963D02*
X149152428Y-104782677D01*
X149152428Y-104782677D02*
X149116143Y-104855249D01*
X149116143Y-104855249D02*
X149079857Y-104891535D01*
X149079857Y-104891535D02*
X149007285Y-104927820D01*
X149007285Y-104927820D02*
X148862143Y-104927820D01*
X148862143Y-104927820D02*
X148789571Y-104891535D01*
X145469428Y-118680106D02*
X145396857Y-118643820D01*
X145396857Y-118643820D02*
X145287999Y-118643820D01*
X145287999Y-118643820D02*
X145179142Y-118680106D01*
X145179142Y-118680106D02*
X145106571Y-118752677D01*
X145106571Y-118752677D02*
X145070285Y-118825249D01*
X145070285Y-118825249D02*
X145033999Y-118970392D01*
X145033999Y-118970392D02*
X145033999Y-119079249D01*
X145033999Y-119079249D02*
X145070285Y-119224392D01*
X145070285Y-119224392D02*
X145106571Y-119296963D01*
X145106571Y-119296963D02*
X145179142Y-119369535D01*
X145179142Y-119369535D02*
X145287999Y-119405820D01*
X145287999Y-119405820D02*
X145360571Y-119405820D01*
X145360571Y-119405820D02*
X145469428Y-119369535D01*
X145469428Y-119369535D02*
X145505714Y-119333249D01*
X145505714Y-119333249D02*
X145505714Y-119079249D01*
X145505714Y-119079249D02*
X145360571Y-119079249D01*
X145832285Y-119405820D02*
X145832285Y-118643820D01*
X145832285Y-118643820D02*
X146267714Y-119405820D01*
X146267714Y-119405820D02*
X146267714Y-118643820D01*
X146630571Y-119405820D02*
X146630571Y-118643820D01*
X146630571Y-118643820D02*
X146812000Y-118643820D01*
X146812000Y-118643820D02*
X146920857Y-118680106D01*
X146920857Y-118680106D02*
X146993428Y-118752677D01*
X146993428Y-118752677D02*
X147029714Y-118825249D01*
X147029714Y-118825249D02*
X147066000Y-118970392D01*
X147066000Y-118970392D02*
X147066000Y-119079249D01*
X147066000Y-119079249D02*
X147029714Y-119224392D01*
X147029714Y-119224392D02*
X146993428Y-119296963D01*
X146993428Y-119296963D02*
X146920857Y-119369535D01*
X146920857Y-119369535D02*
X146812000Y-119405820D01*
X146812000Y-119405820D02*
X146630571Y-119405820D01*
X168347572Y-104419820D02*
X168347572Y-104927820D01*
X168166143Y-104129535D02*
X167984714Y-104673820D01*
X167984714Y-104673820D02*
X168456429Y-104673820D01*
X168783000Y-104927820D02*
X168928143Y-104927820D01*
X168928143Y-104927820D02*
X169000714Y-104891535D01*
X169000714Y-104891535D02*
X169037000Y-104855249D01*
X169037000Y-104855249D02*
X169109571Y-104746392D01*
X169109571Y-104746392D02*
X169145857Y-104601249D01*
X169145857Y-104601249D02*
X169145857Y-104310963D01*
X169145857Y-104310963D02*
X169109571Y-104238392D01*
X169109571Y-104238392D02*
X169073286Y-104202106D01*
X169073286Y-104202106D02*
X169000714Y-104165820D01*
X169000714Y-104165820D02*
X168855571Y-104165820D01*
X168855571Y-104165820D02*
X168783000Y-104202106D01*
X168783000Y-104202106D02*
X168746714Y-104238392D01*
X168746714Y-104238392D02*
X168710428Y-104310963D01*
X168710428Y-104310963D02*
X168710428Y-104492392D01*
X168710428Y-104492392D02*
X168746714Y-104564963D01*
X168746714Y-104564963D02*
X168783000Y-104601249D01*
X168783000Y-104601249D02*
X168855571Y-104637535D01*
X168855571Y-104637535D02*
X169000714Y-104637535D01*
X169000714Y-104637535D02*
X169073286Y-104601249D01*
X169073286Y-104601249D02*
X169109571Y-104564963D01*
X169109571Y-104564963D02*
X169145857Y-104492392D01*
X169799000Y-104927820D02*
X169799000Y-104528677D01*
X169799000Y-104528677D02*
X169762714Y-104456106D01*
X169762714Y-104456106D02*
X169690142Y-104419820D01*
X169690142Y-104419820D02*
X169545000Y-104419820D01*
X169545000Y-104419820D02*
X169472428Y-104456106D01*
X169799000Y-104891535D02*
X169726428Y-104927820D01*
X169726428Y-104927820D02*
X169545000Y-104927820D01*
X169545000Y-104927820D02*
X169472428Y-104891535D01*
X169472428Y-104891535D02*
X169436142Y-104818963D01*
X169436142Y-104818963D02*
X169436142Y-104746392D01*
X169436142Y-104746392D02*
X169472428Y-104673820D01*
X169472428Y-104673820D02*
X169545000Y-104637535D01*
X169545000Y-104637535D02*
X169726428Y-104637535D01*
X169726428Y-104637535D02*
X169799000Y-104601249D01*
X155647571Y-104238392D02*
X155683857Y-104202106D01*
X155683857Y-104202106D02*
X155756429Y-104165820D01*
X155756429Y-104165820D02*
X155937857Y-104165820D01*
X155937857Y-104165820D02*
X156010429Y-104202106D01*
X156010429Y-104202106D02*
X156046714Y-104238392D01*
X156046714Y-104238392D02*
X156083000Y-104310963D01*
X156083000Y-104310963D02*
X156083000Y-104383535D01*
X156083000Y-104383535D02*
X156046714Y-104492392D01*
X156046714Y-104492392D02*
X155611286Y-104927820D01*
X155611286Y-104927820D02*
X156083000Y-104927820D01*
X156736143Y-104927820D02*
X156736143Y-104528677D01*
X156736143Y-104528677D02*
X156699857Y-104456106D01*
X156699857Y-104456106D02*
X156627285Y-104419820D01*
X156627285Y-104419820D02*
X156482143Y-104419820D01*
X156482143Y-104419820D02*
X156409571Y-104456106D01*
X156736143Y-104891535D02*
X156663571Y-104927820D01*
X156663571Y-104927820D02*
X156482143Y-104927820D01*
X156482143Y-104927820D02*
X156409571Y-104891535D01*
X156409571Y-104891535D02*
X156373285Y-104818963D01*
X156373285Y-104818963D02*
X156373285Y-104746392D01*
X156373285Y-104746392D02*
X156409571Y-104673820D01*
X156409571Y-104673820D02*
X156482143Y-104637535D01*
X156482143Y-104637535D02*
X156663571Y-104637535D01*
X156663571Y-104637535D02*
X156736143Y-104601249D01*
X137504714Y-118716392D02*
X137541000Y-118680106D01*
X137541000Y-118680106D02*
X137613572Y-118643820D01*
X137613572Y-118643820D02*
X137795000Y-118643820D01*
X137795000Y-118643820D02*
X137867572Y-118680106D01*
X137867572Y-118680106D02*
X137903857Y-118716392D01*
X137903857Y-118716392D02*
X137940143Y-118788963D01*
X137940143Y-118788963D02*
X137940143Y-118861535D01*
X137940143Y-118861535D02*
X137903857Y-118970392D01*
X137903857Y-118970392D02*
X137468429Y-119405820D01*
X137468429Y-119405820D02*
X137940143Y-119405820D01*
X138303000Y-119405820D02*
X138448143Y-119405820D01*
X138448143Y-119405820D02*
X138520714Y-119369535D01*
X138520714Y-119369535D02*
X138557000Y-119333249D01*
X138557000Y-119333249D02*
X138629571Y-119224392D01*
X138629571Y-119224392D02*
X138665857Y-119079249D01*
X138665857Y-119079249D02*
X138665857Y-118788963D01*
X138665857Y-118788963D02*
X138629571Y-118716392D01*
X138629571Y-118716392D02*
X138593286Y-118680106D01*
X138593286Y-118680106D02*
X138520714Y-118643820D01*
X138520714Y-118643820D02*
X138375571Y-118643820D01*
X138375571Y-118643820D02*
X138303000Y-118680106D01*
X138303000Y-118680106D02*
X138266714Y-118716392D01*
X138266714Y-118716392D02*
X138230428Y-118788963D01*
X138230428Y-118788963D02*
X138230428Y-118970392D01*
X138230428Y-118970392D02*
X138266714Y-119042963D01*
X138266714Y-119042963D02*
X138303000Y-119079249D01*
X138303000Y-119079249D02*
X138375571Y-119115535D01*
X138375571Y-119115535D02*
X138520714Y-119115535D01*
X138520714Y-119115535D02*
X138593286Y-119079249D01*
X138593286Y-119079249D02*
X138629571Y-119042963D01*
X138629571Y-119042963D02*
X138665857Y-118970392D01*
X138992428Y-119405820D02*
X138992428Y-118643820D01*
X138992428Y-118934106D02*
X139065000Y-118897820D01*
X139065000Y-118897820D02*
X139210142Y-118897820D01*
X139210142Y-118897820D02*
X139282714Y-118934106D01*
X139282714Y-118934106D02*
X139319000Y-118970392D01*
X139319000Y-118970392D02*
X139355285Y-119042963D01*
X139355285Y-119042963D02*
X139355285Y-119260677D01*
X139355285Y-119260677D02*
X139319000Y-119333249D01*
X139319000Y-119333249D02*
X139282714Y-119369535D01*
X139282714Y-119369535D02*
X139210142Y-119405820D01*
X139210142Y-119405820D02*
X139065000Y-119405820D01*
X139065000Y-119405820D02*
X138992428Y-119369535D01*
X155647572Y-118897820D02*
X155647572Y-119405820D01*
X155466143Y-118607535D02*
X155284714Y-119151820D01*
X155284714Y-119151820D02*
X155756429Y-119151820D01*
X156010428Y-118716392D02*
X156046714Y-118680106D01*
X156046714Y-118680106D02*
X156119286Y-118643820D01*
X156119286Y-118643820D02*
X156300714Y-118643820D01*
X156300714Y-118643820D02*
X156373286Y-118680106D01*
X156373286Y-118680106D02*
X156409571Y-118716392D01*
X156409571Y-118716392D02*
X156445857Y-118788963D01*
X156445857Y-118788963D02*
X156445857Y-118861535D01*
X156445857Y-118861535D02*
X156409571Y-118970392D01*
X156409571Y-118970392D02*
X155974143Y-119405820D01*
X155974143Y-119405820D02*
X156445857Y-119405820D01*
X156772428Y-119405820D02*
X156772428Y-118643820D01*
X156772428Y-118934106D02*
X156845000Y-118897820D01*
X156845000Y-118897820D02*
X156990142Y-118897820D01*
X156990142Y-118897820D02*
X157062714Y-118934106D01*
X157062714Y-118934106D02*
X157099000Y-118970392D01*
X157099000Y-118970392D02*
X157135285Y-119042963D01*
X157135285Y-119042963D02*
X157135285Y-119260677D01*
X157135285Y-119260677D02*
X157099000Y-119333249D01*
X157099000Y-119333249D02*
X157062714Y-119369535D01*
X157062714Y-119369535D02*
X156990142Y-119405820D01*
X156990142Y-119405820D02*
X156845000Y-119405820D01*
X156845000Y-119405820D02*
X156772428Y-119369535D01*
X160909000Y-104165820D02*
X160981571Y-104165820D01*
X160981571Y-104165820D02*
X161054143Y-104202106D01*
X161054143Y-104202106D02*
X161090429Y-104238392D01*
X161090429Y-104238392D02*
X161126714Y-104310963D01*
X161126714Y-104310963D02*
X161163000Y-104456106D01*
X161163000Y-104456106D02*
X161163000Y-104637535D01*
X161163000Y-104637535D02*
X161126714Y-104782677D01*
X161126714Y-104782677D02*
X161090429Y-104855249D01*
X161090429Y-104855249D02*
X161054143Y-104891535D01*
X161054143Y-104891535D02*
X160981571Y-104927820D01*
X160981571Y-104927820D02*
X160909000Y-104927820D01*
X160909000Y-104927820D02*
X160836429Y-104891535D01*
X160836429Y-104891535D02*
X160800143Y-104855249D01*
X160800143Y-104855249D02*
X160763857Y-104782677D01*
X160763857Y-104782677D02*
X160727571Y-104637535D01*
X160727571Y-104637535D02*
X160727571Y-104456106D01*
X160727571Y-104456106D02*
X160763857Y-104310963D01*
X160763857Y-104310963D02*
X160800143Y-104238392D01*
X160800143Y-104238392D02*
X160836429Y-104202106D01*
X160836429Y-104202106D02*
X160909000Y-104165820D01*
X161816143Y-104927820D02*
X161816143Y-104528677D01*
X161816143Y-104528677D02*
X161779857Y-104456106D01*
X161779857Y-104456106D02*
X161707285Y-104419820D01*
X161707285Y-104419820D02*
X161562143Y-104419820D01*
X161562143Y-104419820D02*
X161489571Y-104456106D01*
X161816143Y-104891535D02*
X161743571Y-104927820D01*
X161743571Y-104927820D02*
X161562143Y-104927820D01*
X161562143Y-104927820D02*
X161489571Y-104891535D01*
X161489571Y-104891535D02*
X161453285Y-104818963D01*
X161453285Y-104818963D02*
X161453285Y-104746392D01*
X161453285Y-104746392D02*
X161489571Y-104673820D01*
X161489571Y-104673820D02*
X161562143Y-104637535D01*
X161562143Y-104637535D02*
X161743571Y-104637535D01*
X161743571Y-104637535D02*
X161816143Y-104601249D01*
D12*
%TO.C,C5*%
X140696836Y-117623000D02*
X140481164Y-117623000D01*
X140696836Y-118343000D02*
X140481164Y-118343000D01*
%TO.C,C14*%
X157882000Y-117582836D02*
X157882000Y-117367164D01*
X158602000Y-117582836D02*
X158602000Y-117367164D01*
%TO.C,C1*%
X136009500Y-106351420D02*
X136009500Y-106632580D01*
X137029500Y-106351420D02*
X137029500Y-106632580D01*
%TO.C,R19*%
X174118000Y-108230641D02*
X174118000Y-107923359D01*
X174878000Y-108230641D02*
X174878000Y-107923359D01*
%TO.C,C4*%
X136015000Y-115429420D02*
X136015000Y-115710580D01*
X137035000Y-115429420D02*
X137035000Y-115710580D01*
%TO.C,C9*%
X161184000Y-106318164D02*
X161184000Y-106533836D01*
X161904000Y-106318164D02*
X161904000Y-106533836D01*
D13*
%TO.C,OlinLogoSm*%
G36*
X147283633Y-115633735D02*
G01*
X147114330Y-115693434D01*
X146935805Y-115782724D01*
X146751911Y-115898828D01*
X146566500Y-116038968D01*
X146383428Y-116200366D01*
X146206546Y-116380245D01*
X146039709Y-116575827D01*
X145886771Y-116784334D01*
X145726021Y-117050790D01*
X145613138Y-117299684D01*
X145548255Y-117524725D01*
X145531504Y-117719624D01*
X145563019Y-117878090D01*
X145642932Y-117993835D01*
X145349494Y-117932926D01*
X145083996Y-117855143D01*
X144848009Y-117762112D01*
X144643108Y-117655462D01*
X144470864Y-117536819D01*
X144332853Y-117407811D01*
X144230646Y-117270065D01*
X144165817Y-117125208D01*
X144139939Y-116974869D01*
X144154586Y-116820674D01*
X144211330Y-116664251D01*
X144311744Y-116507226D01*
X144423861Y-116383209D01*
X144559062Y-116266720D01*
X144715430Y-116158246D01*
X144891044Y-116058277D01*
X145083986Y-115967301D01*
X145292338Y-115885805D01*
X145514181Y-115814278D01*
X145747595Y-115753209D01*
X145990662Y-115703085D01*
X146241463Y-115664394D01*
X146498080Y-115637626D01*
X146758593Y-115623268D01*
X147021083Y-115621808D01*
X147283633Y-115633735D01*
G37*
G36*
X148020494Y-115747082D02*
G01*
X148286008Y-115824871D01*
X148522005Y-115917907D01*
X148726913Y-116024561D01*
X148899160Y-116143208D01*
X149037172Y-116272218D01*
X149139378Y-116409966D01*
X149204206Y-116554824D01*
X149230084Y-116705164D01*
X149215438Y-116859359D01*
X149158697Y-117015783D01*
X149058289Y-117172807D01*
X148946178Y-117296818D01*
X148810981Y-117413301D01*
X148654616Y-117521770D01*
X148479003Y-117621736D01*
X148286060Y-117712710D01*
X148077706Y-117794204D01*
X147855861Y-117865730D01*
X147622443Y-117926800D01*
X147379371Y-117976926D01*
X147128564Y-118015619D01*
X146871941Y-118042390D01*
X146611421Y-118056753D01*
X146348924Y-118058218D01*
X146086367Y-118046298D01*
X146255678Y-117986589D01*
X146434203Y-117897291D01*
X146618093Y-117781182D01*
X146803496Y-117641041D01*
X146986559Y-117479644D01*
X147163431Y-117299769D01*
X147330260Y-117104195D01*
X147483196Y-116895699D01*
X147643951Y-116629243D01*
X147756844Y-116380348D01*
X147821737Y-116155304D01*
X147838492Y-115960400D01*
X147806971Y-115801924D01*
X147727035Y-115686165D01*
X148020494Y-115747082D01*
G37*
D12*
%TO.C,D4*%
X152846000Y-116086000D02*
X151646000Y-116086000D01*
X152846000Y-117086000D02*
X151646000Y-117086000D01*
X152846000Y-117086000D02*
X152846000Y-116086000D01*
%TO.C,R9*%
X171832000Y-114326641D02*
X171832000Y-114019359D01*
X172592000Y-114326641D02*
X172592000Y-114019359D01*
%TO.C,C2*%
X141851500Y-106351420D02*
X141851500Y-106632580D01*
X142871500Y-106351420D02*
X142871500Y-106632580D01*
%TO.C,S2*%
X166371000Y-106296000D02*
X169671000Y-106296000D01*
X166371000Y-106596000D02*
X166371000Y-106296000D01*
X166371000Y-108796000D02*
X166371000Y-109096000D01*
X166371000Y-109096000D02*
X169671000Y-109096000D01*
X169671000Y-106296000D02*
X169671000Y-106596000D01*
X169671000Y-109096000D02*
X169671000Y-108796000D01*
%TO.C,R10*%
X153290000Y-105891359D02*
X153290000Y-106198641D01*
X154050000Y-105891359D02*
X154050000Y-106198641D01*
%TO.C,C12*%
X159431400Y-117582836D02*
X159431400Y-117367164D01*
X160151400Y-117582836D02*
X160151400Y-117367164D01*
%TO.C,C13*%
X158669400Y-106318164D02*
X158669400Y-106533836D01*
X159389400Y-106318164D02*
X159389400Y-106533836D01*
%TO.C,C7*%
X150602836Y-105431000D02*
X150387164Y-105431000D01*
X150602836Y-106151000D02*
X150387164Y-106151000D01*
%TO.C,X1*%
X148229000Y-113846000D02*
X148229000Y-114246000D01*
X149179000Y-113046000D02*
X149779000Y-113046000D01*
X149179000Y-115046000D02*
X149779000Y-115046000D01*
X150729000Y-113846000D02*
X150729000Y-114246000D01*
D14*
X147834000Y-114721000D02*
G75*
G02*
X147624000Y-114721000I-105000J0D01*
G01*
X147624000Y-114721000D02*
G75*
G02*
X147834000Y-114721000I105000J0D01*
G01*
D12*
%TO.C,C6*%
X141857000Y-115429420D02*
X141857000Y-115710580D01*
X142877000Y-115429420D02*
X142877000Y-115710580D01*
%TO.C,C15*%
X155053420Y-117346000D02*
X155334580Y-117346000D01*
X155053420Y-118366000D02*
X155334580Y-118366000D01*
%TO.C,R16*%
X151766000Y-108103641D02*
X151766000Y-107796359D01*
X152526000Y-108103641D02*
X152526000Y-107796359D01*
%TO.C,D3*%
X170527000Y-109657000D02*
X170527000Y-111577000D01*
X170527000Y-111577000D02*
X173212000Y-111577000D01*
X173212000Y-109657000D02*
X170527000Y-109657000D01*
%TO.C,R12*%
X154433000Y-105891359D02*
X154433000Y-106198641D01*
X155193000Y-105891359D02*
X155193000Y-106198641D01*
%TO.C,R5*%
X164720000Y-110643641D02*
X164720000Y-110336359D01*
X165480000Y-110643641D02*
X165480000Y-110336359D01*
%TO.C,D5*%
X170527000Y-107117000D02*
X170527000Y-109037000D01*
X170527000Y-109037000D02*
X173212000Y-109037000D01*
X173212000Y-107117000D02*
X170527000Y-107117000D01*
D15*
%TO.C,D1*%
X171212000Y-115455000D02*
X173212000Y-115455000D01*
X171212000Y-116955000D02*
X173212000Y-116955000D01*
X170287000Y-116205000D02*
G75*
G02*
X170137000Y-116205000I-75000J0D01*
G01*
X170137000Y-116205000D02*
G75*
G02*
X170287000Y-116205000I75000J0D01*
G01*
D12*
%TO.C,R7*%
X172848000Y-114326641D02*
X172848000Y-114019359D01*
X173608000Y-114326641D02*
X173608000Y-114019359D01*
%TO.C,R1*%
X136625359Y-117603000D02*
X136932641Y-117603000D01*
X136625359Y-118363000D02*
X136932641Y-118363000D01*
%TO.C,U2*%
X139446000Y-105120000D02*
X137646000Y-105120000D01*
X139446000Y-105120000D02*
X140246000Y-105120000D01*
X139446000Y-108240000D02*
X138646000Y-108240000D01*
X139446000Y-108240000D02*
X140246000Y-108240000D01*
%TO.C,R6*%
X164714500Y-107918359D02*
X164714500Y-108225641D01*
X165474500Y-107918359D02*
X165474500Y-108225641D01*
%TO.C,U1*%
X145209000Y-111703000D02*
X151209000Y-111703000D01*
X148209000Y-106483000D02*
X151209000Y-106483000D01*
%TO.C,R3*%
X135891000Y-109246641D02*
X135891000Y-108939359D01*
X136651000Y-109246641D02*
X136651000Y-108939359D01*
%TO.C,C8*%
X146833000Y-113811164D02*
X146833000Y-114026836D01*
X147553000Y-113811164D02*
X147553000Y-114026836D01*
%TO.C,S3*%
X166371000Y-114551000D02*
X169671000Y-114551000D01*
X166371000Y-114851000D02*
X166371000Y-114551000D01*
X166371000Y-117051000D02*
X166371000Y-117351000D01*
X166371000Y-117351000D02*
X169671000Y-117351000D01*
X169671000Y-114551000D02*
X169671000Y-114851000D01*
X169671000Y-117351000D02*
X169671000Y-117051000D01*
%TO.C,U4*%
X154505000Y-108150000D02*
X154980000Y-108150000D01*
X154505000Y-108625000D02*
X154505000Y-108150000D01*
X154505000Y-114895000D02*
X154505000Y-115370000D01*
X154505000Y-115370000D02*
X154980000Y-115370000D01*
X161725000Y-108625000D02*
X161725000Y-108150000D01*
X161725000Y-114895000D02*
X161725000Y-115370000D01*
X161725000Y-115370000D02*
X161250000Y-115370000D01*
%TO.C,R15*%
X143892000Y-110082359D02*
X143892000Y-110389641D01*
X144652000Y-110082359D02*
X144652000Y-110389641D01*
%TO.C,R18*%
X156846000Y-117628641D02*
X156846000Y-117321359D01*
X157606000Y-117628641D02*
X157606000Y-117321359D01*
%TO.C,R17*%
X174118000Y-110770641D02*
X174118000Y-110463359D01*
X174878000Y-110770641D02*
X174878000Y-110463359D01*
%TO.C,R13*%
X146203641Y-105411000D02*
X145896359Y-105411000D01*
X146203641Y-106171000D02*
X145896359Y-106171000D01*
%TO.C,R20*%
X164720000Y-115797359D02*
X164720000Y-116104641D01*
X165480000Y-115797359D02*
X165480000Y-116104641D01*
%TO.C,R11*%
X151766000Y-105891359D02*
X151766000Y-106198641D01*
X152526000Y-105891359D02*
X152526000Y-106198641D01*
%TO.C,S1*%
X166371000Y-109598000D02*
X169671000Y-109598000D01*
X166371000Y-109898000D02*
X166371000Y-109598000D01*
X166371000Y-112098000D02*
X166371000Y-112398000D01*
X166371000Y-112398000D02*
X169671000Y-112398000D01*
X169671000Y-109598000D02*
X169671000Y-109898000D01*
X169671000Y-112398000D02*
X169671000Y-112098000D01*
%TO.C,R2*%
X135891000Y-113183641D02*
X135891000Y-112876359D01*
X136651000Y-113183641D02*
X136651000Y-112876359D01*
%TO.C,R14*%
X151766000Y-110391641D02*
X151766000Y-110084359D01*
X152526000Y-110391641D02*
X152526000Y-110084359D01*
%TO.C,C10*%
X152165164Y-113686000D02*
X152380836Y-113686000D01*
X152165164Y-114406000D02*
X152380836Y-114406000D01*
%TO.C,C3*%
X138576164Y-117623000D02*
X138791836Y-117623000D01*
X138576164Y-118343000D02*
X138791836Y-118343000D01*
%TO.C,R4*%
X138812000Y-113056641D02*
X138812000Y-112749359D01*
X139572000Y-113056641D02*
X139572000Y-112749359D01*
D16*
%TO.C,J1*%
X127067000Y-107290000D02*
X127067000Y-116230000D01*
X127067000Y-116230000D02*
X128347000Y-116230000D01*
X128347000Y-107290000D02*
X127067000Y-107290000D01*
X132467000Y-107290000D02*
X130967000Y-107290000D01*
X132467000Y-116230000D02*
X130967000Y-116230000D01*
D12*
%TO.C,C11*%
X152165164Y-115083000D02*
X152380836Y-115083000D01*
X152165164Y-115803000D02*
X152380836Y-115803000D01*
%TO.C,U3*%
X139451500Y-114203000D02*
X137651500Y-114203000D01*
X139451500Y-114203000D02*
X140251500Y-114203000D01*
X139451500Y-117323000D02*
X138651500Y-117323000D01*
X139451500Y-117323000D02*
X140251500Y-117323000D01*
%TO.C,R8*%
X170816000Y-114326641D02*
X170816000Y-114019359D01*
X171576000Y-114326641D02*
X171576000Y-114019359D01*
%TO.C,D2*%
X139793000Y-111943000D02*
X139793000Y-113863000D01*
X139793000Y-113863000D02*
X142478000Y-113863000D01*
X142478000Y-111943000D02*
X139793000Y-111943000D01*
%TD*%
%LPC*%
D17*
%TO.C,C5*%
X141069000Y-117983000D03*
X140109000Y-117983000D03*
%TD*%
D18*
%TO.C,C14*%
X158242000Y-117955000D03*
X158242000Y-116995000D03*
%TD*%
D19*
%TO.C,C1*%
X136519500Y-105717000D03*
X136519500Y-107267000D03*
%TD*%
D20*
%TO.C,R19*%
X174498000Y-108587000D03*
X174498000Y-107567000D03*
%TD*%
D19*
%TO.C,C4*%
X136525000Y-114795000D03*
X136525000Y-116345000D03*
%TD*%
D21*
%TO.C,C9*%
X161544000Y-105946000D03*
X161544000Y-106906000D03*
%TD*%
D22*
%TO.C,D4*%
X152496000Y-116586000D03*
X151796000Y-116586000D03*
%TD*%
D20*
%TO.C,R9*%
X172212000Y-114683000D03*
X172212000Y-113663000D03*
%TD*%
D19*
%TO.C,C2*%
X142361500Y-105717000D03*
X142361500Y-107267000D03*
%TD*%
D23*
%TO.C,S2*%
X166321000Y-107696000D03*
X169721000Y-107696000D03*
%TD*%
D24*
%TO.C,R10*%
X153670000Y-105535000D03*
X153670000Y-106555000D03*
%TD*%
D18*
%TO.C,C12*%
X159791400Y-117955000D03*
X159791400Y-116995000D03*
%TD*%
D21*
%TO.C,C13*%
X159029400Y-105946000D03*
X159029400Y-106906000D03*
%TD*%
D17*
%TO.C,C7*%
X150975000Y-105791000D03*
X150015000Y-105791000D03*
%TD*%
D25*
%TO.C,X1*%
X148629000Y-114721000D03*
X150329000Y-114721000D03*
X150329000Y-113371000D03*
X148629000Y-113371000D03*
%TD*%
D19*
%TO.C,C6*%
X142367000Y-114795000D03*
X142367000Y-116345000D03*
%TD*%
D26*
%TO.C,C15*%
X154419000Y-117856000D03*
X155969000Y-117856000D03*
%TD*%
D20*
%TO.C,R16*%
X152146000Y-108460000D03*
X152146000Y-107440000D03*
%TD*%
D27*
%TO.C,D3*%
X171274500Y-110617000D03*
X173149500Y-110617000D03*
%TD*%
D24*
%TO.C,R12*%
X154813000Y-105535000D03*
X154813000Y-106555000D03*
%TD*%
D20*
%TO.C,R5*%
X165100000Y-111000000D03*
X165100000Y-109980000D03*
%TD*%
D27*
%TO.C,D5*%
X171274500Y-108077000D03*
X173149500Y-108077000D03*
%TD*%
D28*
%TO.C,D1*%
X171162000Y-115805000D03*
X173262000Y-115805000D03*
X171162000Y-116605000D03*
X173262000Y-116605000D03*
%TD*%
D20*
%TO.C,R7*%
X173228000Y-114683000D03*
X173228000Y-113663000D03*
%TD*%
D29*
%TO.C,R1*%
X136269000Y-117983000D03*
X137289000Y-117983000D03*
%TD*%
D30*
%TO.C,U2*%
X138308500Y-105730000D03*
X138308500Y-106680000D03*
X138308500Y-107630000D03*
X140583500Y-107630000D03*
X140583500Y-105730000D03*
%TD*%
D24*
%TO.C,R6*%
X165094500Y-107562000D03*
X165094500Y-108582000D03*
%TD*%
D31*
%TO.C,U1*%
X145509000Y-107188000D03*
X145509000Y-108458000D03*
X145509000Y-109728000D03*
X145509000Y-110998000D03*
X150909000Y-110998000D03*
X150909000Y-109728000D03*
X150909000Y-108458000D03*
X150909000Y-107188000D03*
D32*
X148209000Y-109093000D03*
%TD*%
D20*
%TO.C,R3*%
X136271000Y-109603000D03*
X136271000Y-108583000D03*
%TD*%
D21*
%TO.C,C8*%
X147193000Y-113439000D03*
X147193000Y-114399000D03*
%TD*%
D23*
%TO.C,S3*%
X166321000Y-115951000D03*
X169721000Y-115951000D03*
%TD*%
D33*
%TO.C,U4*%
X160865000Y-108322500D03*
X160365000Y-108322500D03*
X159865000Y-108322500D03*
X159365000Y-108322500D03*
X158865000Y-108322500D03*
X158365000Y-108322500D03*
X157865000Y-108322500D03*
X157365000Y-108322500D03*
X156865000Y-108322500D03*
X156365000Y-108322500D03*
X155865000Y-108322500D03*
X155365000Y-108322500D03*
D34*
X154677500Y-109010000D03*
X154677500Y-109510000D03*
X154677500Y-110010000D03*
X154677500Y-110510000D03*
X154677500Y-111010000D03*
X154677500Y-111510000D03*
X154677500Y-112010000D03*
X154677500Y-112510000D03*
X154677500Y-113010000D03*
X154677500Y-113510000D03*
X154677500Y-114010000D03*
X154677500Y-114510000D03*
D33*
X155365000Y-115197500D03*
X155865000Y-115197500D03*
X156365000Y-115197500D03*
X156865000Y-115197500D03*
X157365000Y-115197500D03*
X157865000Y-115197500D03*
X158365000Y-115197500D03*
X158865000Y-115197500D03*
X159365000Y-115197500D03*
X159865000Y-115197500D03*
X160365000Y-115197500D03*
X160865000Y-115197500D03*
D34*
X161552500Y-114510000D03*
X161552500Y-114010000D03*
X161552500Y-113510000D03*
X161552500Y-113010000D03*
X161552500Y-112510000D03*
X161552500Y-112010000D03*
X161552500Y-111510000D03*
X161552500Y-111010000D03*
X161552500Y-110510000D03*
X161552500Y-110010000D03*
X161552500Y-109510000D03*
X161552500Y-109010000D03*
D35*
X158115000Y-111760000D03*
%TD*%
D24*
%TO.C,R15*%
X144272000Y-109726000D03*
X144272000Y-110746000D03*
%TD*%
D20*
%TO.C,R18*%
X157226000Y-117985000D03*
X157226000Y-116965000D03*
%TD*%
%TO.C,R17*%
X174498000Y-111127000D03*
X174498000Y-110107000D03*
%TD*%
D36*
%TO.C,R13*%
X146560000Y-105791000D03*
X145540000Y-105791000D03*
%TD*%
D37*
%TO.C,FID1*%
X128270000Y-105410000D03*
%TD*%
D24*
%TO.C,R20*%
X165100000Y-115441000D03*
X165100000Y-116461000D03*
%TD*%
%TO.C,R11*%
X152146000Y-105535000D03*
X152146000Y-106555000D03*
%TD*%
D23*
%TO.C,S1*%
X166321000Y-110998000D03*
X169721000Y-110998000D03*
%TD*%
D20*
%TO.C,R2*%
X136271000Y-113540000D03*
X136271000Y-112520000D03*
%TD*%
D37*
%TO.C,FID3*%
X176530000Y-116840000D03*
%TD*%
D20*
%TO.C,R14*%
X152146000Y-110748000D03*
X152146000Y-109728000D03*
%TD*%
D38*
%TO.C,C10*%
X151793000Y-114046000D03*
X152753000Y-114046000D03*
%TD*%
%TO.C,C3*%
X138204000Y-117983000D03*
X139164000Y-117983000D03*
%TD*%
D37*
%TO.C,FID2*%
X176530000Y-106680000D03*
%TD*%
D20*
%TO.C,R4*%
X139192000Y-113413000D03*
X139192000Y-112393000D03*
%TD*%
D39*
%TO.C,J1*%
X133347000Y-108870000D03*
X133347000Y-114650000D03*
D40*
X134422000Y-108560000D03*
X134422000Y-109360000D03*
D41*
X134422000Y-110510000D03*
X134422000Y-111510000D03*
X134422000Y-112010000D03*
X134422000Y-113010000D03*
D40*
X134422000Y-114960000D03*
X134422000Y-114160000D03*
D41*
X134422000Y-113510000D03*
X134422000Y-112510000D03*
X134422000Y-111010000D03*
X134422000Y-110010000D03*
D42*
X133847000Y-107440000D03*
D43*
X129667000Y-107440000D03*
X129667000Y-116080000D03*
D42*
X133847000Y-116080000D03*
%TD*%
D38*
%TO.C,C11*%
X151793000Y-115443000D03*
X152753000Y-115443000D03*
%TD*%
D30*
%TO.C,U3*%
X138314000Y-114813000D03*
X138314000Y-115763000D03*
X138314000Y-116713000D03*
X140589000Y-116713000D03*
X140589000Y-114813000D03*
%TD*%
D20*
%TO.C,R8*%
X171196000Y-114683000D03*
X171196000Y-113663000D03*
%TD*%
D27*
%TO.C,D2*%
X140540500Y-112903000D03*
X142415500Y-112903000D03*
%TD*%
D44*
%TO.C,J2*%
X128270000Y-120650000D03*
D45*
X130810000Y-120650000D03*
X133350000Y-120650000D03*
X135890000Y-120650000D03*
X138430000Y-120650000D03*
X140970000Y-120650000D03*
X143510000Y-120650000D03*
X146050000Y-120650000D03*
X148590000Y-120650000D03*
X151130000Y-120650000D03*
X153670000Y-120650000D03*
X156210000Y-120650000D03*
X158750000Y-120650000D03*
X161290000Y-120650000D03*
X163830000Y-120650000D03*
X166370000Y-120650000D03*
X168910000Y-120650000D03*
X171450000Y-120650000D03*
X173990000Y-120650000D03*
X176530000Y-120650000D03*
%TD*%
D44*
%TO.C,J3*%
X128270000Y-102870000D03*
D45*
X130810000Y-102870000D03*
X133350000Y-102870000D03*
X135890000Y-102870000D03*
X138430000Y-102870000D03*
X140970000Y-102870000D03*
X143510000Y-102870000D03*
X146050000Y-102870000D03*
X148590000Y-102870000D03*
X151130000Y-102870000D03*
X153670000Y-102870000D03*
X156210000Y-102870000D03*
X158750000Y-102870000D03*
X161290000Y-102870000D03*
X163830000Y-102870000D03*
X166370000Y-102870000D03*
X168910000Y-102870000D03*
X171450000Y-102870000D03*
X173990000Y-102870000D03*
X176530000Y-102870000D03*
%TD*%
%LPD*%
M02*
