<?xml version="1.0" standalone="no"?>
 <!DOCTYPE svg PUBLIC "-//W3C//DTD SVG 1.1//EN" 
 "http://www.w3.org/Graphics/SVG/1.1/DTD/svg11.dtd"> 
<svg
  xmlns:svg="http://www.w3.org/2000/svg"
  xmlns="http://www.w3.org/2000/svg"
  xmlns:xlink="http://www.w3.org/1999/xlink"
  version="1.1"
  width="279.4000mm" height="215.9000mm" viewBox="0.0000 0.0000 279.4000 215.9000">
<title>SVG Image created as iceblink-F_Paste.svg date 2024/06/25 20:35:58 </title>
  <desc>Image generated by PCBNEW </desc>
<g style="fill:#000000; fill-opacity:1.0000;stroke:#000000; stroke-opacity:1.0000;
stroke-linecap:round; stroke-linejoin:round;"
 transform="translate(0 0) scale(1 1)">
<path style="fill:#000000; fill-opacity:1.0000; stroke:none;fill-rule:evenodd;"
d="M 141.3490,118.1530
141.3383,118.2066
141.3080,118.2520
141.2626,118.2823
141.2090,118.2930
140.9290,118.2930
140.8754,118.2823
140.8300,118.2520
140.7997,118.2066
140.7890,118.1530
140.7890,117.8130
140.7997,117.7594
140.8300,117.7140
140.8754,117.6837
140.9290,117.6730
141.2090,117.6730
141.2626,117.6837
141.3080,117.7140
141.3383,117.7594
141.3490,117.8130
Z" /> 
<path style="fill:#000000; fill-opacity:1.0000; stroke:none;fill-rule:evenodd;"
d="M 140.3890,118.1530
140.3783,118.2066
140.3480,118.2520
140.3026,118.2823
140.2490,118.2930
139.9690,118.2930
139.9154,118.2823
139.8700,118.2520
139.8397,118.2066
139.8290,118.1530
139.8290,117.8130
139.8397,117.7594
139.8700,117.7140
139.9154,117.6837
139.9690,117.6730
140.2490,117.6730
140.3026,117.6837
140.3480,117.7140
140.3783,117.7594
140.3890,117.8130
Z" /> 
<path style="fill:#000000; fill-opacity:1.0000; stroke:none;fill-rule:evenodd;"
d="M 158.0720,118.2350
158.0184,118.2243
157.9730,118.1940
157.9427,118.1486
157.9320,118.0950
157.9320,117.8150
157.9427,117.7614
157.9730,117.7160
158.0184,117.6857
158.0720,117.6750
158.4120,117.6750
158.4656,117.6857
158.5110,117.7160
158.5413,117.7614
158.5520,117.8150
158.5520,118.0950
158.5413,118.1486
158.5110,118.1940
158.4656,118.2243
158.4120,118.2350
Z" /> 
<path style="fill:#000000; fill-opacity:1.0000; stroke:none;fill-rule:evenodd;"
d="M 158.0720,117.2750
158.0184,117.2643
157.9730,117.2340
157.9427,117.1886
157.9320,117.1350
157.9320,116.8550
157.9427,116.8014
157.9730,116.7560
158.0184,116.7257
158.0720,116.7150
158.4120,116.7150
158.4656,116.7257
158.5110,116.7560
158.5413,116.8014
158.5520,116.8550
158.5520,117.1350
158.5413,117.1886
158.5110,117.2340
158.4656,117.2643
158.4120,117.2750
Z" /> 
<path style="fill:#000000; fill-opacity:1.0000; stroke:none;fill-rule:evenodd;"
d="M 136.7695,105.2670
136.8556,105.2841
136.9286,105.3329
136.9774,105.4059
136.9945,105.4920
136.9945,105.9420
136.9774,106.0281
136.9286,106.1011
136.8556,106.1499
136.7695,106.1670
136.2695,106.1670
136.1834,106.1499
136.1104,106.1011
136.0616,106.0281
136.0445,105.9420
136.0445,105.4920
136.0616,105.4059
136.1104,105.3329
136.1834,105.2841
136.2695,105.2670
Z" /> 
<path style="fill:#000000; fill-opacity:1.0000; stroke:none;fill-rule:evenodd;"
d="M 136.7695,106.8170
136.8556,106.8341
136.9286,106.8829
136.9774,106.9559
136.9945,107.0420
136.9945,107.4920
136.9774,107.5781
136.9286,107.6511
136.8556,107.6999
136.7695,107.7170
136.2695,107.7170
136.1834,107.6999
136.1104,107.6511
136.0616,107.5781
136.0445,107.4920
136.0445,107.0420
136.0616,106.9559
136.1104,106.8829
136.1834,106.8341
136.2695,106.8170
Z" /> 
<path style="fill:#000000; fill-opacity:1.0000; stroke:none;fill-rule:evenodd;"
d="M 174.3130,108.8570
174.2613,108.8467
174.2175,108.8175
174.1883,108.7737
174.1780,108.7220
174.1780,108.4520
174.1883,108.4003
174.2175,108.3565
174.2613,108.3273
174.3130,108.3170
174.6830,108.3170
174.7347,108.3273
174.7785,108.3565
174.8077,108.4003
174.8180,108.4520
174.8180,108.7220
174.8077,108.7737
174.7785,108.8175
174.7347,108.8467
174.6830,108.8570
Z" /> 
<path style="fill:#000000; fill-opacity:1.0000; stroke:none;fill-rule:evenodd;"
d="M 174.3130,107.8370
174.2613,107.8267
174.2175,107.7975
174.1883,107.7537
174.1780,107.7020
174.1780,107.4320
174.1883,107.3803
174.2175,107.3365
174.2613,107.3073
174.3130,107.2970
174.6830,107.2970
174.7347,107.3073
174.7785,107.3365
174.8077,107.3803
174.8180,107.4320
174.8180,107.7020
174.8077,107.7537
174.7785,107.7975
174.7347,107.8267
174.6830,107.8370
Z" /> 
<path style="fill:#000000; fill-opacity:1.0000; stroke:none;fill-rule:evenodd;"
d="M 136.7750,114.3450
136.8611,114.3621
136.9341,114.4109
136.9829,114.4839
137.0000,114.5700
137.0000,115.0200
136.9829,115.1061
136.9341,115.1791
136.8611,115.2279
136.7750,115.2450
136.2750,115.2450
136.1889,115.2279
136.1159,115.1791
136.0671,115.1061
136.0500,115.0200
136.0500,114.5700
136.0671,114.4839
136.1159,114.4109
136.1889,114.3621
136.2750,114.3450
Z" /> 
<path style="fill:#000000; fill-opacity:1.0000; stroke:none;fill-rule:evenodd;"
d="M 136.7750,115.8950
136.8611,115.9121
136.9341,115.9609
136.9829,116.0339
137.0000,116.1200
137.0000,116.5700
136.9829,116.6561
136.9341,116.7291
136.8611,116.7779
136.7750,116.7950
136.2750,116.7950
136.1889,116.7779
136.1159,116.7291
136.0671,116.6561
136.0500,116.5700
136.0500,116.1200
136.0671,116.0339
136.1159,115.9609
136.1889,115.9121
136.2750,115.8950
Z" /> 
<path style="fill:#000000; fill-opacity:1.0000; stroke:none;fill-rule:evenodd;"
d="M 161.7140,105.6660
161.7676,105.6767
161.8130,105.7070
161.8433,105.7524
161.8540,105.8060
161.8540,106.0860
161.8433,106.1396
161.8130,106.1850
161.7676,106.2153
161.7140,106.2260
161.3740,106.2260
161.3204,106.2153
161.2750,106.1850
161.2447,106.1396
161.2340,106.0860
161.2340,105.8060
161.2447,105.7524
161.2750,105.7070
161.3204,105.6767
161.3740,105.6660
Z" /> 
<path style="fill:#000000; fill-opacity:1.0000; stroke:none;fill-rule:evenodd;"
d="M 161.7140,106.6260
161.7676,106.6367
161.8130,106.6670
161.8433,106.7124
161.8540,106.7660
161.8540,107.0460
161.8433,107.0996
161.8130,107.1450
161.7676,107.1753
161.7140,107.1860
161.3740,107.1860
161.3204,107.1753
161.2750,107.1450
161.2447,107.0996
161.2340,107.0460
161.2340,106.7660
161.2447,106.7124
161.2750,106.6670
161.3204,106.6367
161.3740,106.6260
Z" /> 
<path style="fill:#000000; fill-opacity:1.0000; stroke:none;fill-rule:evenodd;"
d="M 152.6960,116.8360
152.6884,116.8743
152.6667,116.9067
152.6343,116.9284
152.5960,116.9360
152.3960,116.9360
152.3577,116.9284
152.3253,116.9067
152.3036,116.8743
152.2960,116.8360
152.2960,116.3360
152.3036,116.2977
152.3253,116.2653
152.3577,116.2436
152.3960,116.2360
152.5960,116.2360
152.6343,116.2436
152.6667,116.2653
152.6884,116.2977
152.6960,116.3360
Z" /> 
<path style="fill:#000000; fill-opacity:1.0000; stroke:none;fill-rule:evenodd;"
d="M 151.9960,116.8360
151.9884,116.8743
151.9667,116.9067
151.9343,116.9284
151.8960,116.9360
151.6960,116.9360
151.6577,116.9284
151.6253,116.9067
151.6036,116.8743
151.5960,116.8360
151.5960,116.3360
151.6036,116.2977
151.6253,116.2653
151.6577,116.2436
151.6960,116.2360
151.8960,116.2360
151.9343,116.2436
151.9667,116.2653
151.9884,116.2977
151.9960,116.3360
Z" /> 
<path style="fill:#000000; fill-opacity:1.0000; stroke:none;fill-rule:evenodd;"
d="M 172.0270,114.9530
171.9753,114.9427
171.9315,114.9135
171.9023,114.8697
171.8920,114.8180
171.8920,114.5480
171.9023,114.4963
171.9315,114.4525
171.9753,114.4233
172.0270,114.4130
172.3970,114.4130
172.4487,114.4233
172.4925,114.4525
172.5217,114.4963
172.5320,114.5480
172.5320,114.8180
172.5217,114.8697
172.4925,114.9135
172.4487,114.9427
172.3970,114.9530
Z" /> 
<path style="fill:#000000; fill-opacity:1.0000; stroke:none;fill-rule:evenodd;"
d="M 172.0270,113.9330
171.9753,113.9227
171.9315,113.8935
171.9023,113.8497
171.8920,113.7980
171.8920,113.5280
171.9023,113.4763
171.9315,113.4325
171.9753,113.4033
172.0270,113.3930
172.3970,113.3930
172.4487,113.4033
172.4925,113.4325
172.5217,113.4763
172.5320,113.5280
172.5320,113.7980
172.5217,113.8497
172.4925,113.8935
172.4487,113.9227
172.3970,113.9330
Z" /> 
<path style="fill:#000000; fill-opacity:1.0000; stroke:none;fill-rule:evenodd;"
d="M 142.6115,105.2670
142.6976,105.2841
142.7706,105.3329
142.8194,105.4059
142.8365,105.4920
142.8365,105.9420
142.8194,106.0281
142.7706,106.1011
142.6976,106.1499
142.6115,106.1670
142.1115,106.1670
142.0254,106.1499
141.9524,106.1011
141.9036,106.0281
141.8865,105.9420
141.8865,105.4920
141.9036,105.4059
141.9524,105.3329
142.0254,105.2841
142.1115,105.2670
Z" /> 
<path style="fill:#000000; fill-opacity:1.0000; stroke:none;fill-rule:evenodd;"
d="M 142.6115,106.8170
142.6976,106.8341
142.7706,106.8829
142.8194,106.9559
142.8365,107.0420
142.8365,107.4920
142.8194,107.5781
142.7706,107.6511
142.6976,107.6999
142.6115,107.7170
142.1115,107.7170
142.0254,107.6999
141.9524,107.6511
141.9036,107.5781
141.8865,107.4920
141.8865,107.0420
141.9036,106.9559
141.9524,106.8829
142.0254,106.8341
142.1115,106.8170
Z" /> 
<path style="fill:#000000; fill-opacity:1.0000; stroke:none;fill-rule:evenodd;"
d="M 165.8710,108.5460
165.8710,106.8460
166.7710,106.8460
166.7710,108.5460
Z" /> 
<path style="fill:#000000; fill-opacity:1.0000; stroke:none;fill-rule:evenodd;"
d="M 169.2710,108.5460
169.2710,106.8460
170.1710,106.8460
170.1710,108.5460
Z" /> 
<path style="fill:#000000; fill-opacity:1.0000; stroke:none;fill-rule:evenodd;"
d="M 153.8550,105.2650
153.9067,105.2753
153.9505,105.3045
153.9797,105.3483
153.9900,105.4000
153.9900,105.6700
153.9797,105.7217
153.9505,105.7655
153.9067,105.7947
153.8550,105.8050
153.4850,105.8050
153.4333,105.7947
153.3895,105.7655
153.3603,105.7217
153.3500,105.6700
153.3500,105.4000
153.3603,105.3483
153.3895,105.3045
153.4333,105.2753
153.4850,105.2650
Z" /> 
<path style="fill:#000000; fill-opacity:1.0000; stroke:none;fill-rule:evenodd;"
d="M 153.8550,106.2850
153.9067,106.2953
153.9505,106.3245
153.9797,106.3683
153.9900,106.4200
153.9900,106.6900
153.9797,106.7417
153.9505,106.7855
153.9067,106.8147
153.8550,106.8250
153.4850,106.8250
153.4333,106.8147
153.3895,106.7855
153.3603,106.7417
153.3500,106.6900
153.3500,106.4200
153.3603,106.3683
153.3895,106.3245
153.4333,106.2953
153.4850,106.2850
Z" /> 
<path style="fill:#000000; fill-opacity:1.0000; stroke:none;fill-rule:evenodd;"
d="M 159.6214,118.2350
159.5678,118.2243
159.5224,118.1940
159.4921,118.1486
159.4814,118.0950
159.4814,117.8150
159.4921,117.7614
159.5224,117.7160
159.5678,117.6857
159.6214,117.6750
159.9614,117.6750
160.0150,117.6857
160.0604,117.7160
160.0907,117.7614
160.1014,117.8150
160.1014,118.0950
160.0907,118.1486
160.0604,118.1940
160.0150,118.2243
159.9614,118.2350
Z" /> 
<path style="fill:#000000; fill-opacity:1.0000; stroke:none;fill-rule:evenodd;"
d="M 159.6214,117.2750
159.5678,117.2643
159.5224,117.2340
159.4921,117.1886
159.4814,117.1350
159.4814,116.8550
159.4921,116.8014
159.5224,116.7560
159.5678,116.7257
159.6214,116.7150
159.9614,116.7150
160.0150,116.7257
160.0604,116.7560
160.0907,116.8014
160.1014,116.8550
160.1014,117.1350
160.0907,117.1886
160.0604,117.2340
160.0150,117.2643
159.9614,117.2750
Z" /> 
<path style="fill:#000000; fill-opacity:1.0000; stroke:none;fill-rule:evenodd;"
d="M 159.1994,105.6660
159.2530,105.6767
159.2984,105.7070
159.3287,105.7524
159.3394,105.8060
159.3394,106.0860
159.3287,106.1396
159.2984,106.1850
159.2530,106.2153
159.1994,106.2260
158.8594,106.2260
158.8058,106.2153
158.7604,106.1850
158.7301,106.1396
158.7194,106.0860
158.7194,105.8060
158.7301,105.7524
158.7604,105.7070
158.8058,105.6767
158.8594,105.6660
Z" /> 
<path style="fill:#000000; fill-opacity:1.0000; stroke:none;fill-rule:evenodd;"
d="M 159.1994,106.6260
159.2530,106.6367
159.2984,106.6670
159.3287,106.7124
159.3394,106.7660
159.3394,107.0460
159.3287,107.0996
159.2984,107.1450
159.2530,107.1753
159.1994,107.1860
158.8594,107.1860
158.8058,107.1753
158.7604,107.1450
158.7301,107.0996
158.7194,107.0460
158.7194,106.7660
158.7301,106.7124
158.7604,106.6670
158.8058,106.6367
158.8594,106.6260
Z" /> 
<path style="fill:#000000; fill-opacity:1.0000; stroke:none;fill-rule:evenodd;"
d="M 151.2550,105.9610
151.2443,106.0146
151.2140,106.0600
151.1686,106.0903
151.1150,106.1010
150.8350,106.1010
150.7814,106.0903
150.7360,106.0600
150.7057,106.0146
150.6950,105.9610
150.6950,105.6210
150.7057,105.5674
150.7360,105.5220
150.7814,105.4917
150.8350,105.4810
151.1150,105.4810
151.1686,105.4917
151.2140,105.5220
151.2443,105.5674
151.2550,105.6210
Z" /> 
<path style="fill:#000000; fill-opacity:1.0000; stroke:none;fill-rule:evenodd;"
d="M 150.2950,105.9610
150.2843,106.0146
150.2540,106.0600
150.2086,106.0903
150.1550,106.1010
149.8750,106.1010
149.8214,106.0903
149.7760,106.0600
149.7457,106.0146
149.7350,105.9610
149.7350,105.6210
149.7457,105.5674
149.7760,105.5220
149.8214,105.4917
149.8750,105.4810
150.1550,105.4810
150.2086,105.4917
150.2540,105.5220
150.2843,105.5674
150.2950,105.6210
Z" /> 
<path style="fill:#000000; fill-opacity:1.0000; stroke:none;fill-rule:evenodd;"
d="M 148.1290,114.5085
148.1452,114.4272
148.1912,114.3582
148.2602,114.3122
148.3415,114.2960
148.9165,114.2960
148.9978,114.3122
149.0668,114.3582
149.1128,114.4272
149.1290,114.5085
149.1290,114.9335
149.1128,115.0148
149.0668,115.0838
148.9978,115.1298
148.9165,115.1460
148.3415,115.1460
148.2602,115.1298
148.1912,115.0838
148.1452,115.0148
148.1290,114.9335
Z" /> 
<path style="fill:#000000; fill-opacity:1.0000; stroke:none;fill-rule:evenodd;"
d="M 149.8290,114.5085
149.8452,114.4272
149.8912,114.3582
149.9602,114.3122
150.0415,114.2960
150.6165,114.2960
150.6978,114.3122
150.7668,114.3582
150.8128,114.4272
150.8290,114.5085
150.8290,114.9335
150.8128,115.0148
150.7668,115.0838
150.6978,115.1298
150.6165,115.1460
150.0415,115.1460
149.9602,115.1298
149.8912,115.0838
149.8452,115.0148
149.8290,114.9335
Z" /> 
<path style="fill:#000000; fill-opacity:1.0000; stroke:none;fill-rule:evenodd;"
d="M 149.8290,113.1585
149.8452,113.0772
149.8912,113.0082
149.9602,112.9622
150.0415,112.9460
150.6165,112.9460
150.6978,112.9622
150.7668,113.0082
150.8128,113.0772
150.8290,113.1585
150.8290,113.5835
150.8128,113.6648
150.7668,113.7338
150.6978,113.7798
150.6165,113.7960
150.0415,113.7960
149.9602,113.7798
149.8912,113.7338
149.8452,113.6648
149.8290,113.5835
Z" /> 
<path style="fill:#000000; fill-opacity:1.0000; stroke:none;fill-rule:evenodd;"
d="M 148.1290,113.1585
148.1452,113.0772
148.1912,113.0082
148.2602,112.9622
148.3415,112.9460
148.9165,112.9460
148.9978,112.9622
149.0668,113.0082
149.1128,113.0772
149.1290,113.1585
149.1290,113.5835
149.1128,113.6648
149.0668,113.7338
148.9978,113.7798
148.9165,113.7960
148.3415,113.7960
148.2602,113.7798
148.1912,113.7338
148.1452,113.6648
148.1290,113.5835
Z" /> 
<path style="fill:#000000; fill-opacity:1.0000; stroke:none;fill-rule:evenodd;"
d="M 142.6170,114.3450
142.7031,114.3621
142.7761,114.4109
142.8249,114.4839
142.8420,114.5700
142.8420,115.0200
142.8249,115.1061
142.7761,115.1791
142.7031,115.2279
142.6170,115.2450
142.1170,115.2450
142.0309,115.2279
141.9579,115.1791
141.9091,115.1061
141.8920,115.0200
141.8920,114.5700
141.9091,114.4839
141.9579,114.4109
142.0309,114.3621
142.1170,114.3450
Z" /> 
<path style="fill:#000000; fill-opacity:1.0000; stroke:none;fill-rule:evenodd;"
d="M 142.6170,115.8950
142.7031,115.9121
142.7761,115.9609
142.8249,116.0339
142.8420,116.1200
142.8420,116.5700
142.8249,116.6561
142.7761,116.7291
142.7031,116.7779
142.6170,116.7950
142.1170,116.7950
142.0309,116.7779
141.9579,116.7291
141.9091,116.6561
141.8920,116.5700
141.8920,116.1200
141.9091,116.0339
141.9579,115.9609
142.0309,115.9121
142.1170,115.8950
Z" /> 
<path style="fill:#000000; fill-opacity:1.0000; stroke:none;fill-rule:evenodd;"
d="M 153.9690,117.6060
153.9861,117.5199
154.0349,117.4469
154.1079,117.3981
154.1940,117.3810
154.6440,117.3810
154.7301,117.3981
154.8031,117.4469
154.8519,117.5199
154.8690,117.6060
154.8690,118.1060
154.8519,118.1921
154.8031,118.2651
154.7301,118.3139
154.6440,118.3310
154.1940,118.3310
154.1079,118.3139
154.0349,118.2651
153.9861,118.1921
153.9690,118.1060
Z" /> 
<path style="fill:#000000; fill-opacity:1.0000; stroke:none;fill-rule:evenodd;"
d="M 155.5190,117.6060
155.5361,117.5199
155.5849,117.4469
155.6579,117.3981
155.7440,117.3810
156.1940,117.3810
156.2801,117.3981
156.3531,117.4469
156.4019,117.5199
156.4190,117.6060
156.4190,118.1060
156.4019,118.1921
156.3531,118.2651
156.2801,118.3139
156.1940,118.3310
155.7440,118.3310
155.6579,118.3139
155.5849,118.2651
155.5361,118.1921
155.5190,118.1060
Z" /> 
<path style="fill:#000000; fill-opacity:1.0000; stroke:none;fill-rule:evenodd;"
d="M 151.9610,108.7300
151.9093,108.7197
151.8655,108.6905
151.8363,108.6467
151.8260,108.5950
151.8260,108.3250
151.8363,108.2733
151.8655,108.2295
151.9093,108.2003
151.9610,108.1900
152.3310,108.1900
152.3827,108.2003
152.4265,108.2295
152.4557,108.2733
152.4660,108.3250
152.4660,108.5950
152.4557,108.6467
152.4265,108.6905
152.3827,108.7197
152.3310,108.7300
Z" /> 
<path style="fill:#000000; fill-opacity:1.0000; stroke:none;fill-rule:evenodd;"
d="M 151.9610,107.7100
151.9093,107.6997
151.8655,107.6705
151.8363,107.6267
151.8260,107.5750
151.8260,107.3050
151.8363,107.2533
151.8655,107.2095
151.9093,107.1803
151.9610,107.1700
152.3310,107.1700
152.3827,107.1803
152.4265,107.2095
152.4557,107.2533
152.4660,107.3050
152.4660,107.5750
152.4557,107.6267
152.4265,107.6705
152.3827,107.6997
152.3310,107.7100
Z" /> 
<path style="fill:#000000; fill-opacity:1.0000; stroke:none;fill-rule:evenodd;"
d="M 170.7870,110.1607
170.8056,110.0675
170.8584,109.9884
170.9375,109.9356
171.0307,109.9170
171.5182,109.9170
171.6115,109.9356
171.6906,109.9884
171.7434,110.0675
171.7620,110.1607
171.7620,111.0733
171.7434,111.1665
171.6906,111.2456
171.6115,111.2984
171.5182,111.3170
171.0307,111.3170
170.9375,111.2984
170.8584,111.2456
170.8056,111.1665
170.7870,111.0733
Z" /> 
<path style="fill:#000000; fill-opacity:1.0000; stroke:none;fill-rule:evenodd;"
d="M 172.6620,110.1607
172.6806,110.0675
172.7334,109.9884
172.8125,109.9356
172.9057,109.9170
173.3932,109.9170
173.4865,109.9356
173.5656,109.9884
173.6184,110.0675
173.6370,110.1607
173.6370,111.0733
173.6184,111.1665
173.5656,111.2456
173.4865,111.2984
173.3932,111.3170
172.9057,111.3170
172.8125,111.2984
172.7334,111.2456
172.6806,111.1665
172.6620,111.0733
Z" /> 
<path style="fill:#000000; fill-opacity:1.0000; stroke:none;fill-rule:evenodd;"
d="M 154.9980,105.2650
155.0497,105.2753
155.0935,105.3045
155.1227,105.3483
155.1330,105.4000
155.1330,105.6700
155.1227,105.7217
155.0935,105.7655
155.0497,105.7947
154.9980,105.8050
154.6280,105.8050
154.5763,105.7947
154.5325,105.7655
154.5033,105.7217
154.4930,105.6700
154.4930,105.4000
154.5033,105.3483
154.5325,105.3045
154.5763,105.2753
154.6280,105.2650
Z" /> 
<path style="fill:#000000; fill-opacity:1.0000; stroke:none;fill-rule:evenodd;"
d="M 154.9980,106.2850
155.0497,106.2953
155.0935,106.3245
155.1227,106.3683
155.1330,106.4200
155.1330,106.6900
155.1227,106.7417
155.0935,106.7855
155.0497,106.8147
154.9980,106.8250
154.6280,106.8250
154.5763,106.8147
154.5325,106.7855
154.5033,106.7417
154.4930,106.6900
154.4930,106.4200
154.5033,106.3683
154.5325,106.3245
154.5763,106.2953
154.6280,106.2850
Z" /> 
<path style="fill:#000000; fill-opacity:1.0000; stroke:none;fill-rule:evenodd;"
d="M 164.9150,111.2700
164.8633,111.2597
164.8195,111.2305
164.7903,111.1867
164.7800,111.1350
164.7800,110.8650
164.7903,110.8133
164.8195,110.7695
164.8633,110.7403
164.9150,110.7300
165.2850,110.7300
165.3367,110.7403
165.3805,110.7695
165.4097,110.8133
165.4200,110.8650
165.4200,111.1350
165.4097,111.1867
165.3805,111.2305
165.3367,111.2597
165.2850,111.2700
Z" /> 
<path style="fill:#000000; fill-opacity:1.0000; stroke:none;fill-rule:evenodd;"
d="M 164.9150,110.2500
164.8633,110.2397
164.8195,110.2105
164.7903,110.1667
164.7800,110.1150
164.7800,109.8450
164.7903,109.7933
164.8195,109.7495
164.8633,109.7203
164.9150,109.7100
165.2850,109.7100
165.3367,109.7203
165.3805,109.7495
165.4097,109.7933
165.4200,109.8450
165.4200,110.1150
165.4097,110.1667
165.3805,110.2105
165.3367,110.2397
165.2850,110.2500
Z" /> 
<path style="fill:#000000; fill-opacity:1.0000; stroke:none;fill-rule:evenodd;"
d="M 170.7870,107.6208
170.8056,107.5275
170.8584,107.4484
170.9375,107.3956
171.0307,107.3770
171.5182,107.3770
171.6115,107.3956
171.6906,107.4484
171.7434,107.5275
171.7620,107.6208
171.7620,108.5332
171.7434,108.6265
171.6906,108.7056
171.6115,108.7584
171.5182,108.7770
171.0307,108.7770
170.9375,108.7584
170.8584,108.7056
170.8056,108.6265
170.7870,108.5332
Z" /> 
<path style="fill:#000000; fill-opacity:1.0000; stroke:none;fill-rule:evenodd;"
d="M 172.6620,107.6208
172.6806,107.5275
172.7334,107.4484
172.8125,107.3956
172.9057,107.3770
173.3932,107.3770
173.4865,107.3956
173.5656,107.4484
173.6184,107.5275
173.6370,107.6208
173.6370,108.5332
173.6184,108.6265
173.5656,108.7056
173.4865,108.7584
173.3932,108.7770
172.9057,108.7770
172.8125,108.7584
172.7334,108.7056
172.6806,108.6265
172.6620,108.5332
Z" /> 
<path style="fill:#000000; fill-opacity:1.0000; stroke:none;fill-rule:evenodd;"
d="M 170.6620,116.0550
170.6620,115.5550
171.6620,115.5550
171.6620,116.0550
Z" /> 
<path style="fill:#000000; fill-opacity:1.0000; stroke:none;fill-rule:evenodd;"
d="M 172.7620,116.0550
172.7620,115.5550
173.7620,115.5550
173.7620,116.0550
Z" /> 
<path style="fill:#000000; fill-opacity:1.0000; stroke:none;fill-rule:evenodd;"
d="M 170.6620,116.8550
170.6620,116.3550
171.6620,116.3550
171.6620,116.8550
Z" /> 
<path style="fill:#000000; fill-opacity:1.0000; stroke:none;fill-rule:evenodd;"
d="M 172.7620,116.8550
172.7620,116.3550
173.7620,116.3550
173.7620,116.8550
Z" /> 
<path style="fill:#000000; fill-opacity:1.0000; stroke:none;fill-rule:evenodd;"
d="M 173.0430,114.9530
172.9913,114.9427
172.9475,114.9135
172.9183,114.8697
172.9080,114.8180
172.9080,114.5480
172.9183,114.4963
172.9475,114.4525
172.9913,114.4233
173.0430,114.4130
173.4130,114.4130
173.4647,114.4233
173.5085,114.4525
173.5377,114.4963
173.5480,114.5480
173.5480,114.8180
173.5377,114.8697
173.5085,114.9135
173.4647,114.9427
173.4130,114.9530
Z" /> 
<path style="fill:#000000; fill-opacity:1.0000; stroke:none;fill-rule:evenodd;"
d="M 173.0430,113.9330
172.9913,113.9227
172.9475,113.8935
172.9183,113.8497
172.9080,113.7980
172.9080,113.5280
172.9183,113.4763
172.9475,113.4325
172.9913,113.4033
173.0430,113.3930
173.4130,113.3930
173.4647,113.4033
173.5085,113.4325
173.5377,113.4763
173.5480,113.5280
173.5480,113.7980
173.5377,113.8497
173.5085,113.8935
173.4647,113.9227
173.4130,113.9330
Z" /> 
<path style="fill:#000000; fill-opacity:1.0000; stroke:none;fill-rule:evenodd;"
d="M 135.9990,117.7980
136.0093,117.7463
136.0385,117.7025
136.0823,117.6733
136.1340,117.6630
136.4040,117.6630
136.4557,117.6733
136.4995,117.7025
136.5287,117.7463
136.5390,117.7980
136.5390,118.1680
136.5287,118.2197
136.4995,118.2635
136.4557,118.2927
136.4040,118.3030
136.1340,118.3030
136.0823,118.2927
136.0385,118.2635
136.0093,118.2197
135.9990,118.1680
Z" /> 
<path style="fill:#000000; fill-opacity:1.0000; stroke:none;fill-rule:evenodd;"
d="M 137.0190,117.7980
137.0293,117.7463
137.0585,117.7025
137.1023,117.6733
137.1540,117.6630
137.4240,117.6630
137.4757,117.6733
137.5195,117.7025
137.5487,117.7463
137.5590,117.7980
137.5590,118.1680
137.5487,118.2197
137.5195,118.2635
137.4757,118.2927
137.4240,118.3030
137.1540,118.3030
137.1023,118.2927
137.0585,118.2635
137.0293,118.2197
137.0190,118.1680
Z" /> 
<path style="fill:#000000; fill-opacity:1.0000; stroke:none;fill-rule:evenodd;"
d="M 137.6460,105.5800
137.6574,105.5226
137.6899,105.4739
137.7386,105.4414
137.7960,105.4300
138.8210,105.4300
138.8784,105.4414
138.9271,105.4739
138.9596,105.5226
138.9710,105.5800
138.9710,105.8800
138.9596,105.9374
138.9271,105.9861
138.8784,106.0186
138.8210,106.0300
137.7960,106.0300
137.7386,106.0186
137.6899,105.9861
137.6574,105.9374
137.6460,105.8800
Z" /> 
<path style="fill:#000000; fill-opacity:1.0000; stroke:none;fill-rule:evenodd;"
d="M 137.6460,106.5300
137.6574,106.4726
137.6899,106.4239
137.7386,106.3914
137.7960,106.3800
138.8210,106.3800
138.8784,106.3914
138.9271,106.4239
138.9596,106.4726
138.9710,106.5300
138.9710,106.8300
138.9596,106.8874
138.9271,106.9361
138.8784,106.9686
138.8210,106.9800
137.7960,106.9800
137.7386,106.9686
137.6899,106.9361
137.6574,106.8874
137.6460,106.8300
Z" /> 
<path style="fill:#000000; fill-opacity:1.0000; stroke:none;fill-rule:evenodd;"
d="M 137.6460,107.4800
137.6574,107.4226
137.6899,107.3739
137.7386,107.3414
137.7960,107.3300
138.8210,107.3300
138.8784,107.3414
138.9271,107.3739
138.9596,107.4226
138.9710,107.4800
138.9710,107.7800
138.9596,107.8374
138.9271,107.8861
138.8784,107.9186
138.8210,107.9300
137.7960,107.9300
137.7386,107.9186
137.6899,107.8861
137.6574,107.8374
137.6460,107.7800
Z" /> 
<path style="fill:#000000; fill-opacity:1.0000; stroke:none;fill-rule:evenodd;"
d="M 139.9210,107.4800
139.9324,107.4226
139.9649,107.3739
140.0136,107.3414
140.0710,107.3300
141.0960,107.3300
141.1534,107.3414
141.2021,107.3739
141.2346,107.4226
141.2460,107.4800
141.2460,107.7800
141.2346,107.8374
141.2021,107.8861
141.1534,107.9186
141.0960,107.9300
140.0710,107.9300
140.0136,107.9186
139.9649,107.8861
139.9324,107.8374
139.9210,107.7800
Z" /> 
<path style="fill:#000000; fill-opacity:1.0000; stroke:none;fill-rule:evenodd;"
d="M 139.9210,105.5800
139.9324,105.5226
139.9649,105.4739
140.0136,105.4414
140.0710,105.4300
141.0960,105.4300
141.1534,105.4414
141.2021,105.4739
141.2346,105.5226
141.2460,105.5800
141.2460,105.8800
141.2346,105.9374
141.2021,105.9861
141.1534,106.0186
141.0960,106.0300
140.0710,106.0300
140.0136,106.0186
139.9649,105.9861
139.9324,105.9374
139.9210,105.8800
Z" /> 
<path style="fill:#000000; fill-opacity:1.0000; stroke:none;fill-rule:evenodd;"
d="M 165.2795,107.2920
165.3312,107.3023
165.3750,107.3315
165.4042,107.3753
165.4145,107.4270
165.4145,107.6970
165.4042,107.7487
165.3750,107.7925
165.3312,107.8217
165.2795,107.8320
164.9095,107.8320
164.8578,107.8217
164.8140,107.7925
164.7848,107.7487
164.7745,107.6970
164.7745,107.4270
164.7848,107.3753
164.8140,107.3315
164.8578,107.3023
164.9095,107.2920
Z" /> 
<path style="fill:#000000; fill-opacity:1.0000; stroke:none;fill-rule:evenodd;"
d="M 165.2795,108.3120
165.3312,108.3223
165.3750,108.3515
165.4042,108.3953
165.4145,108.4470
165.4145,108.7170
165.4042,108.7687
165.3750,108.8125
165.3312,108.8417
165.2795,108.8520
164.9095,108.8520
164.8578,108.8417
164.8140,108.8125
164.7848,108.7687
164.7745,108.7170
164.7745,108.4470
164.7848,108.3953
164.8140,108.3515
164.8578,108.3223
164.9095,108.3120
Z" /> 
<path style="fill:#000000; fill-opacity:1.0000; stroke:none;fill-rule:evenodd;"
d="M 146.6740,107.4030
146.6930,107.3073
146.7472,107.2262
146.8283,107.1720
146.9240,107.1530
147.7940,107.1530
147.8897,107.1720
147.9708,107.2262
148.0250,107.3073
148.0440,107.4030
148.0440,108.6330
148.0250,108.7287
147.9708,108.8098
147.8897,108.8640
147.7940,108.8830
146.9240,108.8830
146.8283,108.8640
146.7472,108.8098
146.6930,108.7287
146.6740,108.6330
Z" /> 
<path style="fill:#000000; fill-opacity:1.0000; stroke:none;fill-rule:evenodd;"
d="M 146.6740,109.5530
146.6930,109.4573
146.7472,109.3762
146.8283,109.3220
146.9240,109.3030
147.7940,109.3030
147.8897,109.3220
147.9708,109.3762
148.0250,109.4573
148.0440,109.5530
148.0440,110.7830
148.0250,110.8787
147.9708,110.9598
147.8897,111.0140
147.7940,111.0330
146.9240,111.0330
146.8283,111.0140
146.7472,110.9598
146.6930,110.8787
146.6740,110.7830
Z" /> 
<path style="fill:#000000; fill-opacity:1.0000; stroke:none;fill-rule:evenodd;"
d="M 148.3740,107.4030
148.3930,107.3073
148.4472,107.2262
148.5283,107.1720
148.6240,107.1530
149.4940,107.1530
149.5897,107.1720
149.6708,107.2262
149.7250,107.3073
149.7440,107.4030
149.7440,108.6330
149.7250,108.7287
149.6708,108.8098
149.5897,108.8640
149.4940,108.8830
148.6240,108.8830
148.5283,108.8640
148.4472,108.8098
148.3930,108.7287
148.3740,108.6330
Z" /> 
<path style="fill:#000000; fill-opacity:1.0000; stroke:none;fill-rule:evenodd;"
d="M 148.3740,109.5530
148.3930,109.4573
148.4472,109.3762
148.5283,109.3220
148.6240,109.3030
149.4940,109.3030
149.5897,109.3220
149.6708,109.3762
149.7250,109.4573
149.7440,109.5530
149.7440,110.7830
149.7250,110.8787
149.6708,110.9598
149.5897,111.0140
149.4940,111.0330
148.6240,111.0330
148.5283,111.0140
148.4472,110.9598
148.3930,110.8787
148.3740,110.7830
Z" /> 
<path style="fill:#000000; fill-opacity:1.0000; stroke:none;fill-rule:evenodd;"
d="M 145.1340,107.0630
145.1435,107.0152
145.1706,106.9746
145.2112,106.9475
145.2590,106.9380
145.7590,106.9380
145.8068,106.9475
145.8474,106.9746
145.8745,107.0152
145.8840,107.0630
145.8840,107.3130
145.8745,107.3608
145.8474,107.4014
145.8068,107.4285
145.7590,107.4380
145.2590,107.4380
145.2112,107.4285
145.1706,107.4014
145.1435,107.3608
145.1340,107.3130
Z" /> 
<path style="fill:#000000; fill-opacity:1.0000; stroke:none;fill-rule:evenodd;"
d="M 145.1340,108.3330
145.1435,108.2852
145.1706,108.2446
145.2112,108.2175
145.2590,108.2080
145.7590,108.2080
145.8068,108.2175
145.8474,108.2446
145.8745,108.2852
145.8840,108.3330
145.8840,108.5830
145.8745,108.6308
145.8474,108.6714
145.8068,108.6985
145.7590,108.7080
145.2590,108.7080
145.2112,108.6985
145.1706,108.6714
145.1435,108.6308
145.1340,108.5830
Z" /> 
<path style="fill:#000000; fill-opacity:1.0000; stroke:none;fill-rule:evenodd;"
d="M 145.1340,109.6030
145.1435,109.5552
145.1706,109.5146
145.2112,109.4875
145.2590,109.4780
145.7590,109.4780
145.8068,109.4875
145.8474,109.5146
145.8745,109.5552
145.8840,109.6030
145.8840,109.8530
145.8745,109.9008
145.8474,109.9414
145.8068,109.9685
145.7590,109.9780
145.2590,109.9780
145.2112,109.9685
145.1706,109.9414
145.1435,109.9008
145.1340,109.8530
Z" /> 
<path style="fill:#000000; fill-opacity:1.0000; stroke:none;fill-rule:evenodd;"
d="M 145.1340,110.8730
145.1435,110.8252
145.1706,110.7846
145.2112,110.7575
145.2590,110.7480
145.7590,110.7480
145.8068,110.7575
145.8474,110.7846
145.8745,110.8252
145.8840,110.8730
145.8840,111.1230
145.8745,111.1708
145.8474,111.2114
145.8068,111.2385
145.7590,111.2480
145.2590,111.2480
145.2112,111.2385
145.1706,111.2114
145.1435,111.1708
145.1340,111.1230
Z" /> 
<path style="fill:#000000; fill-opacity:1.0000; stroke:none;fill-rule:evenodd;"
d="M 150.5340,110.8730
150.5435,110.8252
150.5706,110.7846
150.6112,110.7575
150.6590,110.7480
151.1590,110.7480
151.2068,110.7575
151.2474,110.7846
151.2745,110.8252
151.2840,110.8730
151.2840,111.1230
151.2745,111.1708
151.2474,111.2114
151.2068,111.2385
151.1590,111.2480
150.6590,111.2480
150.6112,111.2385
150.5706,111.2114
150.5435,111.1708
150.5340,111.1230
Z" /> 
<path style="fill:#000000; fill-opacity:1.0000; stroke:none;fill-rule:evenodd;"
d="M 150.5340,109.6030
150.5435,109.5552
150.5706,109.5146
150.6112,109.4875
150.6590,109.4780
151.1590,109.4780
151.2068,109.4875
151.2474,109.5146
151.2745,109.5552
151.2840,109.6030
151.2840,109.8530
151.2745,109.9008
151.2474,109.9414
151.2068,109.9685
151.1590,109.9780
150.6590,109.9780
150.6112,109.9685
150.5706,109.9414
150.5435,109.9008
150.5340,109.8530
Z" /> 
<path style="fill:#000000; fill-opacity:1.0000; stroke:none;fill-rule:evenodd;"
d="M 150.5340,108.3330
150.5435,108.2852
150.5706,108.2446
150.6112,108.2175
150.6590,108.2080
151.1590,108.2080
151.2068,108.2175
151.2474,108.2446
151.2745,108.2852
151.2840,108.3330
151.2840,108.5830
151.2745,108.6308
151.2474,108.6714
151.2068,108.6985
151.1590,108.7080
150.6590,108.7080
150.6112,108.6985
150.5706,108.6714
150.5435,108.6308
150.5340,108.5830
Z" /> 
<path style="fill:#000000; fill-opacity:1.0000; stroke:none;fill-rule:evenodd;"
d="M 150.5340,107.0630
150.5435,107.0152
150.5706,106.9746
150.6112,106.9475
150.6590,106.9380
151.1590,106.9380
151.2068,106.9475
151.2474,106.9746
151.2745,107.0152
151.2840,107.0630
151.2840,107.3130
151.2745,107.3608
151.2474,107.4014
151.2068,107.4285
151.1590,107.4380
150.6590,107.4380
150.6112,107.4285
150.5706,107.4014
150.5435,107.3608
150.5340,107.3130
Z" /> 
<path style="fill:#000000; fill-opacity:1.0000; stroke:none;fill-rule:evenodd;"
d="M 136.0860,109.8730
136.0343,109.8627
135.9905,109.8335
135.9613,109.7897
135.9510,109.7380
135.9510,109.4680
135.9613,109.4163
135.9905,109.3725
136.0343,109.3433
136.0860,109.3330
136.4560,109.3330
136.5077,109.3433
136.5515,109.3725
136.5807,109.4163
136.5910,109.4680
136.5910,109.7380
136.5807,109.7897
136.5515,109.8335
136.5077,109.8627
136.4560,109.8730
Z" /> 
<path style="fill:#000000; fill-opacity:1.0000; stroke:none;fill-rule:evenodd;"
d="M 136.0860,108.8530
136.0343,108.8427
135.9905,108.8135
135.9613,108.7697
135.9510,108.7180
135.9510,108.4480
135.9613,108.3963
135.9905,108.3525
136.0343,108.3233
136.0860,108.3130
136.4560,108.3130
136.5077,108.3233
136.5515,108.3525
136.5807,108.3963
136.5910,108.4480
136.5910,108.7180
136.5807,108.7697
136.5515,108.8135
136.5077,108.8427
136.4560,108.8530
Z" /> 
<path style="fill:#000000; fill-opacity:1.0000; stroke:none;fill-rule:evenodd;"
d="M 147.3630,113.1590
147.4166,113.1697
147.4620,113.2000
147.4923,113.2454
147.5030,113.2990
147.5030,113.5790
147.4923,113.6326
147.4620,113.6780
147.4166,113.7083
147.3630,113.7190
147.0230,113.7190
146.9694,113.7083
146.9240,113.6780
146.8937,113.6326
146.8830,113.5790
146.8830,113.2990
146.8937,113.2454
146.9240,113.2000
146.9694,113.1697
147.0230,113.1590
Z" /> 
<path style="fill:#000000; fill-opacity:1.0000; stroke:none;fill-rule:evenodd;"
d="M 147.3630,114.1190
147.4166,114.1297
147.4620,114.1600
147.4923,114.2054
147.5030,114.2590
147.5030,114.5390
147.4923,114.5926
147.4620,114.6380
147.4166,114.6683
147.3630,114.6790
147.0230,114.6790
146.9694,114.6683
146.9240,114.6380
146.8937,114.5926
146.8830,114.5390
146.8830,114.2590
146.8937,114.2054
146.9240,114.1600
146.9694,114.1297
147.0230,114.1190
Z" /> 
<path style="fill:#000000; fill-opacity:1.0000; stroke:none;fill-rule:evenodd;"
d="M 165.8710,116.8010
165.8710,115.1010
166.7710,115.1010
166.7710,116.8010
Z" /> 
<path style="fill:#000000; fill-opacity:1.0000; stroke:none;fill-rule:evenodd;"
d="M 169.2710,116.8010
169.2710,115.1010
170.1710,115.1010
170.1710,116.8010
Z" /> 
<path style="fill:#000000; fill-opacity:1.0000; stroke:none;fill-rule:evenodd;"
d="M 160.5300,109.0950
160.6257,109.1140
160.7068,109.1682
160.7610,109.2493
160.7800,109.3450
160.7800,109.9750
160.7610,110.0707
160.7068,110.1518
160.6257,110.2060
160.5300,110.2250
159.9000,110.2250
159.8043,110.2060
159.7232,110.1518
159.6690,110.0707
159.6500,109.9750
159.6500,109.3450
159.6690,109.2493
159.7232,109.1682
159.8043,109.1140
159.9000,109.0950
Z" /> 
<path style="fill:#000000; fill-opacity:1.0000; stroke:none;fill-rule:evenodd;"
d="M 159.1300,109.0950
159.2257,109.1140
159.3068,109.1682
159.3610,109.2493
159.3800,109.3450
159.3800,109.9750
159.3610,110.0707
159.3068,110.1518
159.2257,110.2060
159.1300,110.2250
158.5000,110.2250
158.4043,110.2060
158.3232,110.1518
158.2690,110.0707
158.2500,109.9750
158.2500,109.3450
158.2690,109.2493
158.3232,109.1682
158.4043,109.1140
158.5000,109.0950
Z" /> 
<path style="fill:#000000; fill-opacity:1.0000; stroke:none;fill-rule:evenodd;"
d="M 157.7300,109.0950
157.8257,109.1140
157.9068,109.1682
157.9610,109.2493
157.9800,109.3450
157.9800,109.9750
157.9610,110.0707
157.9068,110.1518
157.8257,110.2060
157.7300,110.2250
157.1000,110.2250
157.0043,110.2060
156.9232,110.1518
156.8690,110.0707
156.8500,109.9750
156.8500,109.3450
156.8690,109.2493
156.9232,109.1682
157.0043,109.1140
157.1000,109.0950
Z" /> 
<path style="fill:#000000; fill-opacity:1.0000; stroke:none;fill-rule:evenodd;"
d="M 156.3300,109.0950
156.4257,109.1140
156.5068,109.1682
156.5610,109.2493
156.5800,109.3450
156.5800,109.9750
156.5610,110.0707
156.5068,110.1518
156.4257,110.2060
156.3300,110.2250
155.7000,110.2250
155.6043,110.2060
155.5232,110.1518
155.4690,110.0707
155.4500,109.9750
155.4500,109.3450
155.4690,109.2493
155.5232,109.1682
155.6043,109.1140
155.7000,109.0950
Z" /> 
<path style="fill:#000000; fill-opacity:1.0000; stroke:none;fill-rule:evenodd;"
d="M 160.5300,110.4950
160.6257,110.5140
160.7068,110.5682
160.7610,110.6493
160.7800,110.7450
160.7800,111.3750
160.7610,111.4707
160.7068,111.5518
160.6257,111.6060
160.5300,111.6250
159.9000,111.6250
159.8043,111.6060
159.7232,111.5518
159.6690,111.4707
159.6500,111.3750
159.6500,110.7450
159.6690,110.6493
159.7232,110.5682
159.8043,110.5140
159.9000,110.4950
Z" /> 
<path style="fill:#000000; fill-opacity:1.0000; stroke:none;fill-rule:evenodd;"
d="M 159.1300,110.4950
159.2257,110.5140
159.3068,110.5682
159.3610,110.6493
159.3800,110.7450
159.3800,111.3750
159.3610,111.4707
159.3068,111.5518
159.2257,111.6060
159.1300,111.6250
158.5000,111.6250
158.4043,111.6060
158.3232,111.5518
158.2690,111.4707
158.2500,111.3750
158.2500,110.7450
158.2690,110.6493
158.3232,110.5682
158.4043,110.5140
158.5000,110.4950
Z" /> 
<path style="fill:#000000; fill-opacity:1.0000; stroke:none;fill-rule:evenodd;"
d="M 157.7300,110.4950
157.8257,110.5140
157.9068,110.5682
157.9610,110.6493
157.9800,110.7450
157.9800,111.3750
157.9610,111.4707
157.9068,111.5518
157.8257,111.6060
157.7300,111.6250
157.1000,111.6250
157.0043,111.6060
156.9232,111.5518
156.8690,111.4707
156.8500,111.3750
156.8500,110.7450
156.8690,110.6493
156.9232,110.5682
157.0043,110.5140
157.1000,110.4950
Z" /> 
<path style="fill:#000000; fill-opacity:1.0000; stroke:none;fill-rule:evenodd;"
d="M 156.3300,110.4950
156.4257,110.5140
156.5068,110.5682
156.5610,110.6493
156.5800,110.7450
156.5800,111.3750
156.5610,111.4707
156.5068,111.5518
156.4257,111.6060
156.3300,111.6250
155.7000,111.6250
155.6043,111.6060
155.5232,111.5518
155.4690,111.4707
155.4500,111.3750
155.4500,110.7450
155.4690,110.6493
155.5232,110.5682
155.6043,110.5140
155.7000,110.4950
Z" /> 
<path style="fill:#000000; fill-opacity:1.0000; stroke:none;fill-rule:evenodd;"
d="M 160.5300,111.8950
160.6257,111.9140
160.7068,111.9682
160.7610,112.0493
160.7800,112.1450
160.7800,112.7750
160.7610,112.8707
160.7068,112.9518
160.6257,113.0060
160.5300,113.0250
159.9000,113.0250
159.8043,113.0060
159.7232,112.9518
159.6690,112.8707
159.6500,112.7750
159.6500,112.1450
159.6690,112.0493
159.7232,111.9682
159.8043,111.9140
159.9000,111.8950
Z" /> 
<path style="fill:#000000; fill-opacity:1.0000; stroke:none;fill-rule:evenodd;"
d="M 159.1300,111.8950
159.2257,111.9140
159.3068,111.9682
159.3610,112.0493
159.3800,112.1450
159.3800,112.7750
159.3610,112.8707
159.3068,112.9518
159.2257,113.0060
159.1300,113.0250
158.5000,113.0250
158.4043,113.0060
158.3232,112.9518
158.2690,112.8707
158.2500,112.7750
158.2500,112.1450
158.2690,112.0493
158.3232,111.9682
158.4043,111.9140
158.5000,111.8950
Z" /> 
<path style="fill:#000000; fill-opacity:1.0000; stroke:none;fill-rule:evenodd;"
d="M 157.7300,111.8950
157.8257,111.9140
157.9068,111.9682
157.9610,112.0493
157.9800,112.1450
157.9800,112.7750
157.9610,112.8707
157.9068,112.9518
157.8257,113.0060
157.7300,113.0250
157.1000,113.0250
157.0043,113.0060
156.9232,112.9518
156.8690,112.8707
156.8500,112.7750
156.8500,112.1450
156.8690,112.0493
156.9232,111.9682
157.0043,111.9140
157.1000,111.8950
Z" /> 
<path style="fill:#000000; fill-opacity:1.0000; stroke:none;fill-rule:evenodd;"
d="M 156.3300,111.8950
156.4257,111.9140
156.5068,111.9682
156.5610,112.0493
156.5800,112.1450
156.5800,112.7750
156.5610,112.8707
156.5068,112.9518
156.4257,113.0060
156.3300,113.0250
155.7000,113.0250
155.6043,113.0060
155.5232,112.9518
155.4690,112.8707
155.4500,112.7750
155.4500,112.1450
155.4690,112.0493
155.5232,111.9682
155.6043,111.9140
155.7000,111.8950
Z" /> 
<path style="fill:#000000; fill-opacity:1.0000; stroke:none;fill-rule:evenodd;"
d="M 160.5300,113.2950
160.6257,113.3140
160.7068,113.3682
160.7610,113.4493
160.7800,113.5450
160.7800,114.1750
160.7610,114.2707
160.7068,114.3518
160.6257,114.4060
160.5300,114.4250
159.9000,114.4250
159.8043,114.4060
159.7232,114.3518
159.6690,114.2707
159.6500,114.1750
159.6500,113.5450
159.6690,113.4493
159.7232,113.3682
159.8043,113.3140
159.9000,113.2950
Z" /> 
<path style="fill:#000000; fill-opacity:1.0000; stroke:none;fill-rule:evenodd;"
d="M 159.1300,113.2950
159.2257,113.3140
159.3068,113.3682
159.3610,113.4493
159.3800,113.5450
159.3800,114.1750
159.3610,114.2707
159.3068,114.3518
159.2257,114.4060
159.1300,114.4250
158.5000,114.4250
158.4043,114.4060
158.3232,114.3518
158.2690,114.2707
158.2500,114.1750
158.2500,113.5450
158.2690,113.4493
158.3232,113.3682
158.4043,113.3140
158.5000,113.2950
Z" /> 
<path style="fill:#000000; fill-opacity:1.0000; stroke:none;fill-rule:evenodd;"
d="M 157.7300,113.2950
157.8257,113.3140
157.9068,113.3682
157.9610,113.4493
157.9800,113.5450
157.9800,114.1750
157.9610,114.2707
157.9068,114.3518
157.8257,114.4060
157.7300,114.4250
157.1000,114.4250
157.0043,114.4060
156.9232,114.3518
156.8690,114.2707
156.8500,114.1750
156.8500,113.5450
156.8690,113.4493
156.9232,113.3682
157.0043,113.3140
157.1000,113.2950
Z" /> 
<path style="fill:#000000; fill-opacity:1.0000; stroke:none;fill-rule:evenodd;"
d="M 156.3300,113.2950
156.4257,113.3140
156.5068,113.3682
156.5610,113.4493
156.5800,113.5450
156.5800,114.1750
156.5610,114.2707
156.5068,114.3518
156.4257,114.4060
156.3300,114.4250
155.7000,114.4250
155.6043,114.4060
155.5232,114.3518
155.4690,114.2707
155.4500,114.1750
155.4500,113.5450
155.4690,113.4493
155.5232,113.3682
155.6043,113.3140
155.7000,113.2950
Z" /> 
<path style="fill:#000000; fill-opacity:1.0000; stroke:none;fill-rule:evenodd;"
d="M 160.9275,107.8850
160.9514,107.8898
160.9717,107.9033
160.9852,107.9236
160.9900,107.9475
160.9900,108.6975
160.9852,108.7214
160.9717,108.7417
160.9514,108.7552
160.9275,108.7600
160.8025,108.7600
160.7786,108.7552
160.7583,108.7417
160.7448,108.7214
160.7400,108.6975
160.7400,107.9475
160.7448,107.9236
160.7583,107.9033
160.7786,107.8898
160.8025,107.8850
Z" /> 
<path style="fill:#000000; fill-opacity:1.0000; stroke:none;fill-rule:evenodd;"
d="M 160.4275,107.8850
160.4514,107.8898
160.4717,107.9033
160.4852,107.9236
160.4900,107.9475
160.4900,108.6975
160.4852,108.7214
160.4717,108.7417
160.4514,108.7552
160.4275,108.7600
160.3025,108.7600
160.2786,108.7552
160.2583,108.7417
160.2448,108.7214
160.2400,108.6975
160.2400,107.9475
160.2448,107.9236
160.2583,107.9033
160.2786,107.8898
160.3025,107.8850
Z" /> 
<path style="fill:#000000; fill-opacity:1.0000; stroke:none;fill-rule:evenodd;"
d="M 159.9275,107.8850
159.9514,107.8898
159.9717,107.9033
159.9852,107.9236
159.9900,107.9475
159.9900,108.6975
159.9852,108.7214
159.9717,108.7417
159.9514,108.7552
159.9275,108.7600
159.8025,108.7600
159.7786,108.7552
159.7583,108.7417
159.7448,108.7214
159.7400,108.6975
159.7400,107.9475
159.7448,107.9236
159.7583,107.9033
159.7786,107.8898
159.8025,107.8850
Z" /> 
<path style="fill:#000000; fill-opacity:1.0000; stroke:none;fill-rule:evenodd;"
d="M 159.4275,107.8850
159.4514,107.8898
159.4717,107.9033
159.4852,107.9236
159.4900,107.9475
159.4900,108.6975
159.4852,108.7214
159.4717,108.7417
159.4514,108.7552
159.4275,108.7600
159.3025,108.7600
159.2786,108.7552
159.2583,108.7417
159.2448,108.7214
159.2400,108.6975
159.2400,107.9475
159.2448,107.9236
159.2583,107.9033
159.2786,107.8898
159.3025,107.8850
Z" /> 
<path style="fill:#000000; fill-opacity:1.0000; stroke:none;fill-rule:evenodd;"
d="M 158.9275,107.8850
158.9514,107.8898
158.9717,107.9033
158.9852,107.9236
158.9900,107.9475
158.9900,108.6975
158.9852,108.7214
158.9717,108.7417
158.9514,108.7552
158.9275,108.7600
158.8025,108.7600
158.7786,108.7552
158.7583,108.7417
158.7448,108.7214
158.7400,108.6975
158.7400,107.9475
158.7448,107.9236
158.7583,107.9033
158.7786,107.8898
158.8025,107.8850
Z" /> 
<path style="fill:#000000; fill-opacity:1.0000; stroke:none;fill-rule:evenodd;"
d="M 158.4275,107.8850
158.4514,107.8898
158.4717,107.9033
158.4852,107.9236
158.4900,107.9475
158.4900,108.6975
158.4852,108.7214
158.4717,108.7417
158.4514,108.7552
158.4275,108.7600
158.3025,108.7600
158.2786,108.7552
158.2583,108.7417
158.2448,108.7214
158.2400,108.6975
158.2400,107.9475
158.2448,107.9236
158.2583,107.9033
158.2786,107.8898
158.3025,107.8850
Z" /> 
<path style="fill:#000000; fill-opacity:1.0000; stroke:none;fill-rule:evenodd;"
d="M 157.9275,107.8850
157.9514,107.8898
157.9717,107.9033
157.9852,107.9236
157.9900,107.9475
157.9900,108.6975
157.9852,108.7214
157.9717,108.7417
157.9514,108.7552
157.9275,108.7600
157.8025,108.7600
157.7786,108.7552
157.7583,108.7417
157.7448,108.7214
157.7400,108.6975
157.7400,107.9475
157.7448,107.9236
157.7583,107.9033
157.7786,107.8898
157.8025,107.8850
Z" /> 
<path style="fill:#000000; fill-opacity:1.0000; stroke:none;fill-rule:evenodd;"
d="M 157.4275,107.8850
157.4514,107.8898
157.4717,107.9033
157.4852,107.9236
157.4900,107.9475
157.4900,108.6975
157.4852,108.7214
157.4717,108.7417
157.4514,108.7552
157.4275,108.7600
157.3025,108.7600
157.2786,108.7552
157.2583,108.7417
157.2448,108.7214
157.2400,108.6975
157.2400,107.9475
157.2448,107.9236
157.2583,107.9033
157.2786,107.8898
157.3025,107.8850
Z" /> 
<path style="fill:#000000; fill-opacity:1.0000; stroke:none;fill-rule:evenodd;"
d="M 156.9275,107.8850
156.9514,107.8898
156.9717,107.9033
156.9852,107.9236
156.9900,107.9475
156.9900,108.6975
156.9852,108.7214
156.9717,108.7417
156.9514,108.7552
156.9275,108.7600
156.8025,108.7600
156.7786,108.7552
156.7583,108.7417
156.7448,108.7214
156.7400,108.6975
156.7400,107.9475
156.7448,107.9236
156.7583,107.9033
156.7786,107.8898
156.8025,107.8850
Z" /> 
<path style="fill:#000000; fill-opacity:1.0000; stroke:none;fill-rule:evenodd;"
d="M 156.4275,107.8850
156.4514,107.8898
156.4717,107.9033
156.4852,107.9236
156.4900,107.9475
156.4900,108.6975
156.4852,108.7214
156.4717,108.7417
156.4514,108.7552
156.4275,108.7600
156.3025,108.7600
156.2786,108.7552
156.2583,108.7417
156.2448,108.7214
156.2400,108.6975
156.2400,107.9475
156.2448,107.9236
156.2583,107.9033
156.2786,107.8898
156.3025,107.8850
Z" /> 
<path style="fill:#000000; fill-opacity:1.0000; stroke:none;fill-rule:evenodd;"
d="M 155.9275,107.8850
155.9514,107.8898
155.9717,107.9033
155.9852,107.9236
155.9900,107.9475
155.9900,108.6975
155.9852,108.7214
155.9717,108.7417
155.9514,108.7552
155.9275,108.7600
155.8025,108.7600
155.7786,108.7552
155.7583,108.7417
155.7448,108.7214
155.7400,108.6975
155.7400,107.9475
155.7448,107.9236
155.7583,107.9033
155.7786,107.8898
155.8025,107.8850
Z" /> 
<path style="fill:#000000; fill-opacity:1.0000; stroke:none;fill-rule:evenodd;"
d="M 155.4275,107.8850
155.4514,107.8898
155.4717,107.9033
155.4852,107.9236
155.4900,107.9475
155.4900,108.6975
155.4852,108.7214
155.4717,108.7417
155.4514,108.7552
155.4275,108.7600
155.3025,108.7600
155.2786,108.7552
155.2583,108.7417
155.2448,108.7214
155.2400,108.6975
155.2400,107.9475
155.2448,107.9236
155.2583,107.9033
155.2786,107.8898
155.3025,107.8850
Z" /> 
<path style="fill:#000000; fill-opacity:1.0000; stroke:none;fill-rule:evenodd;"
d="M 155.0525,108.8850
155.0764,108.8898
155.0967,108.9033
155.1102,108.9236
155.1150,108.9475
155.1150,109.0725
155.1102,109.0964
155.0967,109.1167
155.0764,109.1302
155.0525,109.1350
154.3025,109.1350
154.2786,109.1302
154.2583,109.1167
154.2448,109.0964
154.2400,109.0725
154.2400,108.9475
154.2448,108.9236
154.2583,108.9033
154.2786,108.8898
154.3025,108.8850
Z" /> 
<path style="fill:#000000; fill-opacity:1.0000; stroke:none;fill-rule:evenodd;"
d="M 155.0525,109.3850
155.0764,109.3898
155.0967,109.4033
155.1102,109.4236
155.1150,109.4475
155.1150,109.5725
155.1102,109.5964
155.0967,109.6167
155.0764,109.6302
155.0525,109.6350
154.3025,109.6350
154.2786,109.6302
154.2583,109.6167
154.2448,109.5964
154.2400,109.5725
154.2400,109.4475
154.2448,109.4236
154.2583,109.4033
154.2786,109.3898
154.3025,109.3850
Z" /> 
<path style="fill:#000000; fill-opacity:1.0000; stroke:none;fill-rule:evenodd;"
d="M 155.0525,109.8850
155.0764,109.8898
155.0967,109.9033
155.1102,109.9236
155.1150,109.9475
155.1150,110.0725
155.1102,110.0964
155.0967,110.1167
155.0764,110.1302
155.0525,110.1350
154.3025,110.1350
154.2786,110.1302
154.2583,110.1167
154.2448,110.0964
154.2400,110.0725
154.2400,109.9475
154.2448,109.9236
154.2583,109.9033
154.2786,109.8898
154.3025,109.8850
Z" /> 
<path style="fill:#000000; fill-opacity:1.0000; stroke:none;fill-rule:evenodd;"
d="M 155.0525,110.3850
155.0764,110.3898
155.0967,110.4033
155.1102,110.4236
155.1150,110.4475
155.1150,110.5725
155.1102,110.5964
155.0967,110.6167
155.0764,110.6302
155.0525,110.6350
154.3025,110.6350
154.2786,110.6302
154.2583,110.6167
154.2448,110.5964
154.2400,110.5725
154.2400,110.4475
154.2448,110.4236
154.2583,110.4033
154.2786,110.3898
154.3025,110.3850
Z" /> 
<path style="fill:#000000; fill-opacity:1.0000; stroke:none;fill-rule:evenodd;"
d="M 155.0525,110.8850
155.0764,110.8898
155.0967,110.9033
155.1102,110.9236
155.1150,110.9475
155.1150,111.0725
155.1102,111.0964
155.0967,111.1167
155.0764,111.1302
155.0525,111.1350
154.3025,111.1350
154.2786,111.1302
154.2583,111.1167
154.2448,111.0964
154.2400,111.0725
154.2400,110.9475
154.2448,110.9236
154.2583,110.9033
154.2786,110.8898
154.3025,110.8850
Z" /> 
<path style="fill:#000000; fill-opacity:1.0000; stroke:none;fill-rule:evenodd;"
d="M 155.0525,111.3850
155.0764,111.3898
155.0967,111.4033
155.1102,111.4236
155.1150,111.4475
155.1150,111.5725
155.1102,111.5964
155.0967,111.6167
155.0764,111.6302
155.0525,111.6350
154.3025,111.6350
154.2786,111.6302
154.2583,111.6167
154.2448,111.5964
154.2400,111.5725
154.2400,111.4475
154.2448,111.4236
154.2583,111.4033
154.2786,111.3898
154.3025,111.3850
Z" /> 
<path style="fill:#000000; fill-opacity:1.0000; stroke:none;fill-rule:evenodd;"
d="M 155.0525,111.8850
155.0764,111.8898
155.0967,111.9033
155.1102,111.9236
155.1150,111.9475
155.1150,112.0725
155.1102,112.0964
155.0967,112.1167
155.0764,112.1302
155.0525,112.1350
154.3025,112.1350
154.2786,112.1302
154.2583,112.1167
154.2448,112.0964
154.2400,112.0725
154.2400,111.9475
154.2448,111.9236
154.2583,111.9033
154.2786,111.8898
154.3025,111.8850
Z" /> 
<path style="fill:#000000; fill-opacity:1.0000; stroke:none;fill-rule:evenodd;"
d="M 155.0525,112.3850
155.0764,112.3898
155.0967,112.4033
155.1102,112.4236
155.1150,112.4475
155.1150,112.5725
155.1102,112.5964
155.0967,112.6167
155.0764,112.6302
155.0525,112.6350
154.3025,112.6350
154.2786,112.6302
154.2583,112.6167
154.2448,112.5964
154.2400,112.5725
154.2400,112.4475
154.2448,112.4236
154.2583,112.4033
154.2786,112.3898
154.3025,112.3850
Z" /> 
<path style="fill:#000000; fill-opacity:1.0000; stroke:none;fill-rule:evenodd;"
d="M 155.0525,112.8850
155.0764,112.8898
155.0967,112.9033
155.1102,112.9236
155.1150,112.9475
155.1150,113.0725
155.1102,113.0964
155.0967,113.1167
155.0764,113.1302
155.0525,113.1350
154.3025,113.1350
154.2786,113.1302
154.2583,113.1167
154.2448,113.0964
154.2400,113.0725
154.2400,112.9475
154.2448,112.9236
154.2583,112.9033
154.2786,112.8898
154.3025,112.8850
Z" /> 
<path style="fill:#000000; fill-opacity:1.0000; stroke:none;fill-rule:evenodd;"
d="M 155.0525,113.3850
155.0764,113.3898
155.0967,113.4033
155.1102,113.4236
155.1150,113.4475
155.1150,113.5725
155.1102,113.5964
155.0967,113.6167
155.0764,113.6302
155.0525,113.6350
154.3025,113.6350
154.2786,113.6302
154.2583,113.6167
154.2448,113.5964
154.2400,113.5725
154.2400,113.4475
154.2448,113.4236
154.2583,113.4033
154.2786,113.3898
154.3025,113.3850
Z" /> 
<path style="fill:#000000; fill-opacity:1.0000; stroke:none;fill-rule:evenodd;"
d="M 155.0525,113.8850
155.0764,113.8898
155.0967,113.9033
155.1102,113.9236
155.1150,113.9475
155.1150,114.0725
155.1102,114.0964
155.0967,114.1167
155.0764,114.1302
155.0525,114.1350
154.3025,114.1350
154.2786,114.1302
154.2583,114.1167
154.2448,114.0964
154.2400,114.0725
154.2400,113.9475
154.2448,113.9236
154.2583,113.9033
154.2786,113.8898
154.3025,113.8850
Z" /> 
<path style="fill:#000000; fill-opacity:1.0000; stroke:none;fill-rule:evenodd;"
d="M 155.0525,114.3850
155.0764,114.3898
155.0967,114.4033
155.1102,114.4236
155.1150,114.4475
155.1150,114.5725
155.1102,114.5964
155.0967,114.6167
155.0764,114.6302
155.0525,114.6350
154.3025,114.6350
154.2786,114.6302
154.2583,114.6167
154.2448,114.5964
154.2400,114.5725
154.2400,114.4475
154.2448,114.4236
154.2583,114.4033
154.2786,114.3898
154.3025,114.3850
Z" /> 
<path style="fill:#000000; fill-opacity:1.0000; stroke:none;fill-rule:evenodd;"
d="M 155.4275,114.7600
155.4514,114.7648
155.4717,114.7783
155.4852,114.7986
155.4900,114.8225
155.4900,115.5725
155.4852,115.5964
155.4717,115.6167
155.4514,115.6302
155.4275,115.6350
155.3025,115.6350
155.2786,115.6302
155.2583,115.6167
155.2448,115.5964
155.2400,115.5725
155.2400,114.8225
155.2448,114.7986
155.2583,114.7783
155.2786,114.7648
155.3025,114.7600
Z" /> 
<path style="fill:#000000; fill-opacity:1.0000; stroke:none;fill-rule:evenodd;"
d="M 155.9275,114.7600
155.9514,114.7648
155.9717,114.7783
155.9852,114.7986
155.9900,114.8225
155.9900,115.5725
155.9852,115.5964
155.9717,115.6167
155.9514,115.6302
155.9275,115.6350
155.8025,115.6350
155.7786,115.6302
155.7583,115.6167
155.7448,115.5964
155.7400,115.5725
155.7400,114.8225
155.7448,114.7986
155.7583,114.7783
155.7786,114.7648
155.8025,114.7600
Z" /> 
<path style="fill:#000000; fill-opacity:1.0000; stroke:none;fill-rule:evenodd;"
d="M 156.4275,114.7600
156.4514,114.7648
156.4717,114.7783
156.4852,114.7986
156.4900,114.8225
156.4900,115.5725
156.4852,115.5964
156.4717,115.6167
156.4514,115.6302
156.4275,115.6350
156.3025,115.6350
156.2786,115.6302
156.2583,115.6167
156.2448,115.5964
156.2400,115.5725
156.2400,114.8225
156.2448,114.7986
156.2583,114.7783
156.2786,114.7648
156.3025,114.7600
Z" /> 
<path style="fill:#000000; fill-opacity:1.0000; stroke:none;fill-rule:evenodd;"
d="M 156.9275,114.7600
156.9514,114.7648
156.9717,114.7783
156.9852,114.7986
156.9900,114.8225
156.9900,115.5725
156.9852,115.5964
156.9717,115.6167
156.9514,115.6302
156.9275,115.6350
156.8025,115.6350
156.7786,115.6302
156.7583,115.6167
156.7448,115.5964
156.7400,115.5725
156.7400,114.8225
156.7448,114.7986
156.7583,114.7783
156.7786,114.7648
156.8025,114.7600
Z" /> 
<path style="fill:#000000; fill-opacity:1.0000; stroke:none;fill-rule:evenodd;"
d="M 157.4275,114.7600
157.4514,114.7648
157.4717,114.7783
157.4852,114.7986
157.4900,114.8225
157.4900,115.5725
157.4852,115.5964
157.4717,115.6167
157.4514,115.6302
157.4275,115.6350
157.3025,115.6350
157.2786,115.6302
157.2583,115.6167
157.2448,115.5964
157.2400,115.5725
157.2400,114.8225
157.2448,114.7986
157.2583,114.7783
157.2786,114.7648
157.3025,114.7600
Z" /> 
<path style="fill:#000000; fill-opacity:1.0000; stroke:none;fill-rule:evenodd;"
d="M 157.9275,114.7600
157.9514,114.7648
157.9717,114.7783
157.9852,114.7986
157.9900,114.8225
157.9900,115.5725
157.9852,115.5964
157.9717,115.6167
157.9514,115.6302
157.9275,115.6350
157.8025,115.6350
157.7786,115.6302
157.7583,115.6167
157.7448,115.5964
157.7400,115.5725
157.7400,114.8225
157.7448,114.7986
157.7583,114.7783
157.7786,114.7648
157.8025,114.7600
Z" /> 
<path style="fill:#000000; fill-opacity:1.0000; stroke:none;fill-rule:evenodd;"
d="M 158.4275,114.7600
158.4514,114.7648
158.4717,114.7783
158.4852,114.7986
158.4900,114.8225
158.4900,115.5725
158.4852,115.5964
158.4717,115.6167
158.4514,115.6302
158.4275,115.6350
158.3025,115.6350
158.2786,115.6302
158.2583,115.6167
158.2448,115.5964
158.2400,115.5725
158.2400,114.8225
158.2448,114.7986
158.2583,114.7783
158.2786,114.7648
158.3025,114.7600
Z" /> 
<path style="fill:#000000; fill-opacity:1.0000; stroke:none;fill-rule:evenodd;"
d="M 158.9275,114.7600
158.9514,114.7648
158.9717,114.7783
158.9852,114.7986
158.9900,114.8225
158.9900,115.5725
158.9852,115.5964
158.9717,115.6167
158.9514,115.6302
158.9275,115.6350
158.8025,115.6350
158.7786,115.6302
158.7583,115.6167
158.7448,115.5964
158.7400,115.5725
158.7400,114.8225
158.7448,114.7986
158.7583,114.7783
158.7786,114.7648
158.8025,114.7600
Z" /> 
<path style="fill:#000000; fill-opacity:1.0000; stroke:none;fill-rule:evenodd;"
d="M 159.4275,114.7600
159.4514,114.7648
159.4717,114.7783
159.4852,114.7986
159.4900,114.8225
159.4900,115.5725
159.4852,115.5964
159.4717,115.6167
159.4514,115.6302
159.4275,115.6350
159.3025,115.6350
159.2786,115.6302
159.2583,115.6167
159.2448,115.5964
159.2400,115.5725
159.2400,114.8225
159.2448,114.7986
159.2583,114.7783
159.2786,114.7648
159.3025,114.7600
Z" /> 
<path style="fill:#000000; fill-opacity:1.0000; stroke:none;fill-rule:evenodd;"
d="M 159.9275,114.7600
159.9514,114.7648
159.9717,114.7783
159.9852,114.7986
159.9900,114.8225
159.9900,115.5725
159.9852,115.5964
159.9717,115.6167
159.9514,115.6302
159.9275,115.6350
159.8025,115.6350
159.7786,115.6302
159.7583,115.6167
159.7448,115.5964
159.7400,115.5725
159.7400,114.8225
159.7448,114.7986
159.7583,114.7783
159.7786,114.7648
159.8025,114.7600
Z" /> 
<path style="fill:#000000; fill-opacity:1.0000; stroke:none;fill-rule:evenodd;"
d="M 160.4275,114.7600
160.4514,114.7648
160.4717,114.7783
160.4852,114.7986
160.4900,114.8225
160.4900,115.5725
160.4852,115.5964
160.4717,115.6167
160.4514,115.6302
160.4275,115.6350
160.3025,115.6350
160.2786,115.6302
160.2583,115.6167
160.2448,115.5964
160.2400,115.5725
160.2400,114.8225
160.2448,114.7986
160.2583,114.7783
160.2786,114.7648
160.3025,114.7600
Z" /> 
<path style="fill:#000000; fill-opacity:1.0000; stroke:none;fill-rule:evenodd;"
d="M 160.9275,114.7600
160.9514,114.7648
160.9717,114.7783
160.9852,114.7986
160.9900,114.8225
160.9900,115.5725
160.9852,115.5964
160.9717,115.6167
160.9514,115.6302
160.9275,115.6350
160.8025,115.6350
160.7786,115.6302
160.7583,115.6167
160.7448,115.5964
160.7400,115.5725
160.7400,114.8225
160.7448,114.7986
160.7583,114.7783
160.7786,114.7648
160.8025,114.7600
Z" /> 
<path style="fill:#000000; fill-opacity:1.0000; stroke:none;fill-rule:evenodd;"
d="M 161.9275,114.3850
161.9514,114.3898
161.9717,114.4033
161.9852,114.4236
161.9900,114.4475
161.9900,114.5725
161.9852,114.5964
161.9717,114.6167
161.9514,114.6302
161.9275,114.6350
161.1775,114.6350
161.1536,114.6302
161.1333,114.6167
161.1198,114.5964
161.1150,114.5725
161.1150,114.4475
161.1198,114.4236
161.1333,114.4033
161.1536,114.3898
161.1775,114.3850
Z" /> 
<path style="fill:#000000; fill-opacity:1.0000; stroke:none;fill-rule:evenodd;"
d="M 161.9275,113.8850
161.9514,113.8898
161.9717,113.9033
161.9852,113.9236
161.9900,113.9475
161.9900,114.0725
161.9852,114.0964
161.9717,114.1167
161.9514,114.1302
161.9275,114.1350
161.1775,114.1350
161.1536,114.1302
161.1333,114.1167
161.1198,114.0964
161.1150,114.0725
161.1150,113.9475
161.1198,113.9236
161.1333,113.9033
161.1536,113.8898
161.1775,113.8850
Z" /> 
<path style="fill:#000000; fill-opacity:1.0000; stroke:none;fill-rule:evenodd;"
d="M 161.9275,113.3850
161.9514,113.3898
161.9717,113.4033
161.9852,113.4236
161.9900,113.4475
161.9900,113.5725
161.9852,113.5964
161.9717,113.6167
161.9514,113.6302
161.9275,113.6350
161.1775,113.6350
161.1536,113.6302
161.1333,113.6167
161.1198,113.5964
161.1150,113.5725
161.1150,113.4475
161.1198,113.4236
161.1333,113.4033
161.1536,113.3898
161.1775,113.3850
Z" /> 
<path style="fill:#000000; fill-opacity:1.0000; stroke:none;fill-rule:evenodd;"
d="M 161.9275,112.8850
161.9514,112.8898
161.9717,112.9033
161.9852,112.9236
161.9900,112.9475
161.9900,113.0725
161.9852,113.0964
161.9717,113.1167
161.9514,113.1302
161.9275,113.1350
161.1775,113.1350
161.1536,113.1302
161.1333,113.1167
161.1198,113.0964
161.1150,113.0725
161.1150,112.9475
161.1198,112.9236
161.1333,112.9033
161.1536,112.8898
161.1775,112.8850
Z" /> 
<path style="fill:#000000; fill-opacity:1.0000; stroke:none;fill-rule:evenodd;"
d="M 161.9275,112.3850
161.9514,112.3898
161.9717,112.4033
161.9852,112.4236
161.9900,112.4475
161.9900,112.5725
161.9852,112.5964
161.9717,112.6167
161.9514,112.6302
161.9275,112.6350
161.1775,112.6350
161.1536,112.6302
161.1333,112.6167
161.1198,112.5964
161.1150,112.5725
161.1150,112.4475
161.1198,112.4236
161.1333,112.4033
161.1536,112.3898
161.1775,112.3850
Z" /> 
<path style="fill:#000000; fill-opacity:1.0000; stroke:none;fill-rule:evenodd;"
d="M 161.9275,111.8850
161.9514,111.8898
161.9717,111.9033
161.9852,111.9236
161.9900,111.9475
161.9900,112.0725
161.9852,112.0964
161.9717,112.1167
161.9514,112.1302
161.9275,112.1350
161.1775,112.1350
161.1536,112.1302
161.1333,112.1167
161.1198,112.0964
161.1150,112.0725
161.1150,111.9475
161.1198,111.9236
161.1333,111.9033
161.1536,111.8898
161.1775,111.8850
Z" /> 
<path style="fill:#000000; fill-opacity:1.0000; stroke:none;fill-rule:evenodd;"
d="M 161.9275,111.3850
161.9514,111.3898
161.9717,111.4033
161.9852,111.4236
161.9900,111.4475
161.9900,111.5725
161.9852,111.5964
161.9717,111.6167
161.9514,111.6302
161.9275,111.6350
161.1775,111.6350
161.1536,111.6302
161.1333,111.6167
161.1198,111.5964
161.1150,111.5725
161.1150,111.4475
161.1198,111.4236
161.1333,111.4033
161.1536,111.3898
161.1775,111.3850
Z" /> 
<path style="fill:#000000; fill-opacity:1.0000; stroke:none;fill-rule:evenodd;"
d="M 161.9275,110.8850
161.9514,110.8898
161.9717,110.9033
161.9852,110.9236
161.9900,110.9475
161.9900,111.0725
161.9852,111.0964
161.9717,111.1167
161.9514,111.1302
161.9275,111.1350
161.1775,111.1350
161.1536,111.1302
161.1333,111.1167
161.1198,111.0964
161.1150,111.0725
161.1150,110.9475
161.1198,110.9236
161.1333,110.9033
161.1536,110.8898
161.1775,110.8850
Z" /> 
<path style="fill:#000000; fill-opacity:1.0000; stroke:none;fill-rule:evenodd;"
d="M 161.9275,110.3850
161.9514,110.3898
161.9717,110.4033
161.9852,110.4236
161.9900,110.4475
161.9900,110.5725
161.9852,110.5964
161.9717,110.6167
161.9514,110.6302
161.9275,110.6350
161.1775,110.6350
161.1536,110.6302
161.1333,110.6167
161.1198,110.5964
161.1150,110.5725
161.1150,110.4475
161.1198,110.4236
161.1333,110.4033
161.1536,110.3898
161.1775,110.3850
Z" /> 
<path style="fill:#000000; fill-opacity:1.0000; stroke:none;fill-rule:evenodd;"
d="M 161.9275,109.8850
161.9514,109.8898
161.9717,109.9033
161.9852,109.9236
161.9900,109.9475
161.9900,110.0725
161.9852,110.0964
161.9717,110.1167
161.9514,110.1302
161.9275,110.1350
161.1775,110.1350
161.1536,110.1302
161.1333,110.1167
161.1198,110.0964
161.1150,110.0725
161.1150,109.9475
161.1198,109.9236
161.1333,109.9033
161.1536,109.8898
161.1775,109.8850
Z" /> 
<path style="fill:#000000; fill-opacity:1.0000; stroke:none;fill-rule:evenodd;"
d="M 161.9275,109.3850
161.9514,109.3898
161.9717,109.4033
161.9852,109.4236
161.9900,109.4475
161.9900,109.5725
161.9852,109.5964
161.9717,109.6167
161.9514,109.6302
161.9275,109.6350
161.1775,109.6350
161.1536,109.6302
161.1333,109.6167
161.1198,109.5964
161.1150,109.5725
161.1150,109.4475
161.1198,109.4236
161.1333,109.4033
161.1536,109.3898
161.1775,109.3850
Z" /> 
<path style="fill:#000000; fill-opacity:1.0000; stroke:none;fill-rule:evenodd;"
d="M 161.9275,108.8850
161.9514,108.8898
161.9717,108.9033
161.9852,108.9236
161.9900,108.9475
161.9900,109.0725
161.9852,109.0964
161.9717,109.1167
161.9514,109.1302
161.9275,109.1350
161.1775,109.1350
161.1536,109.1302
161.1333,109.1167
161.1198,109.0964
161.1150,109.0725
161.1150,108.9475
161.1198,108.9236
161.1333,108.9033
161.1536,108.8898
161.1775,108.8850
Z" /> 
<path style="fill:#000000; fill-opacity:1.0000; stroke:none;fill-rule:evenodd;"
d="M 144.4570,109.4560
144.5087,109.4663
144.5525,109.4955
144.5817,109.5393
144.5920,109.5910
144.5920,109.8610
144.5817,109.9127
144.5525,109.9565
144.5087,109.9857
144.4570,109.9960
144.0870,109.9960
144.0353,109.9857
143.9915,109.9565
143.9623,109.9127
143.9520,109.8610
143.9520,109.5910
143.9623,109.5393
143.9915,109.4955
144.0353,109.4663
144.0870,109.4560
Z" /> 
<path style="fill:#000000; fill-opacity:1.0000; stroke:none;fill-rule:evenodd;"
d="M 144.4570,110.4760
144.5087,110.4863
144.5525,110.5155
144.5817,110.5593
144.5920,110.6110
144.5920,110.8810
144.5817,110.9327
144.5525,110.9765
144.5087,111.0057
144.4570,111.0160
144.0870,111.0160
144.0353,111.0057
143.9915,110.9765
143.9623,110.9327
143.9520,110.8810
143.9520,110.6110
143.9623,110.5593
143.9915,110.5155
144.0353,110.4863
144.0870,110.4760
Z" /> 
<path style="fill:#000000; fill-opacity:1.0000; stroke:none;fill-rule:evenodd;"
d="M 157.0410,118.2550
156.9893,118.2447
156.9455,118.2155
156.9163,118.1717
156.9060,118.1200
156.9060,117.8500
156.9163,117.7983
156.9455,117.7545
156.9893,117.7253
157.0410,117.7150
157.4110,117.7150
157.4627,117.7253
157.5065,117.7545
157.5357,117.7983
157.5460,117.8500
157.5460,118.1200
157.5357,118.1717
157.5065,118.2155
157.4627,118.2447
157.4110,118.2550
Z" /> 
<path style="fill:#000000; fill-opacity:1.0000; stroke:none;fill-rule:evenodd;"
d="M 157.0410,117.2350
156.9893,117.2247
156.9455,117.1955
156.9163,117.1517
156.9060,117.1000
156.9060,116.8300
156.9163,116.7783
156.9455,116.7345
156.9893,116.7053
157.0410,116.6950
157.4110,116.6950
157.4627,116.7053
157.5065,116.7345
157.5357,116.7783
157.5460,116.8300
157.5460,117.1000
157.5357,117.1517
157.5065,117.1955
157.4627,117.2247
157.4110,117.2350
Z" /> 
<path style="fill:#000000; fill-opacity:1.0000; stroke:none;fill-rule:evenodd;"
d="M 174.3130,111.3970
174.2613,111.3867
174.2175,111.3575
174.1883,111.3137
174.1780,111.2620
174.1780,110.9920
174.1883,110.9403
174.2175,110.8965
174.2613,110.8673
174.3130,110.8570
174.6830,110.8570
174.7347,110.8673
174.7785,110.8965
174.8077,110.9403
174.8180,110.9920
174.8180,111.2620
174.8077,111.3137
174.7785,111.3575
174.7347,111.3867
174.6830,111.3970
Z" /> 
<path style="fill:#000000; fill-opacity:1.0000; stroke:none;fill-rule:evenodd;"
d="M 174.3130,110.3770
174.2613,110.3667
174.2175,110.3375
174.1883,110.2937
174.1780,110.2420
174.1780,109.9720
174.1883,109.9203
174.2175,109.8765
174.2613,109.8473
174.3130,109.8370
174.6830,109.8370
174.7347,109.8473
174.7785,109.8765
174.8077,109.9203
174.8180,109.9720
174.8180,110.2420
174.8077,110.2937
174.7785,110.3375
174.7347,110.3667
174.6830,110.3770
Z" /> 
<path style="fill:#000000; fill-opacity:1.0000; stroke:none;fill-rule:evenodd;"
d="M 146.8300,105.9760
146.8197,106.0277
146.7905,106.0715
146.7467,106.1007
146.6950,106.1110
146.4250,106.1110
146.3733,106.1007
146.3295,106.0715
146.3003,106.0277
146.2900,105.9760
146.2900,105.6060
146.3003,105.5543
146.3295,105.5105
146.3733,105.4813
146.4250,105.4710
146.6950,105.4710
146.7467,105.4813
146.7905,105.5105
146.8197,105.5543
146.8300,105.6060
Z" /> 
<path style="fill:#000000; fill-opacity:1.0000; stroke:none;fill-rule:evenodd;"
d="M 145.8100,105.9760
145.7997,106.0277
145.7705,106.0715
145.7267,106.1007
145.6750,106.1110
145.4050,106.1110
145.3533,106.1007
145.3095,106.0715
145.2803,106.0277
145.2700,105.9760
145.2700,105.6060
145.2803,105.5543
145.3095,105.5105
145.3533,105.4813
145.4050,105.4710
145.6750,105.4710
145.7267,105.4813
145.7705,105.5105
145.7997,105.5543
145.8100,105.6060
Z" /> 
<path style="fill:#000000; fill-opacity:1.0000; stroke:none;fill-rule:evenodd;"
d="M 165.2850,115.1710
165.3367,115.1813
165.3805,115.2105
165.4097,115.2543
165.4200,115.3060
165.4200,115.5760
165.4097,115.6277
165.3805,115.6715
165.3367,115.7007
165.2850,115.7110
164.9150,115.7110
164.8633,115.7007
164.8195,115.6715
164.7903,115.6277
164.7800,115.5760
164.7800,115.3060
164.7903,115.2543
164.8195,115.2105
164.8633,115.1813
164.9150,115.1710
Z" /> 
<path style="fill:#000000; fill-opacity:1.0000; stroke:none;fill-rule:evenodd;"
d="M 165.2850,116.1910
165.3367,116.2013
165.3805,116.2305
165.4097,116.2743
165.4200,116.3260
165.4200,116.5960
165.4097,116.6477
165.3805,116.6915
165.3367,116.7207
165.2850,116.7310
164.9150,116.7310
164.8633,116.7207
164.8195,116.6915
164.7903,116.6477
164.7800,116.5960
164.7800,116.3260
164.7903,116.2743
164.8195,116.2305
164.8633,116.2013
164.9150,116.1910
Z" /> 
<path style="fill:#000000; fill-opacity:1.0000; stroke:none;fill-rule:evenodd;"
d="M 152.3310,105.2650
152.3827,105.2753
152.4265,105.3045
152.4557,105.3483
152.4660,105.4000
152.4660,105.6700
152.4557,105.7217
152.4265,105.7655
152.3827,105.7947
152.3310,105.8050
151.9610,105.8050
151.9093,105.7947
151.8655,105.7655
151.8363,105.7217
151.8260,105.6700
151.8260,105.4000
151.8363,105.3483
151.8655,105.3045
151.9093,105.2753
151.9610,105.2650
Z" /> 
<path style="fill:#000000; fill-opacity:1.0000; stroke:none;fill-rule:evenodd;"
d="M 152.3310,106.2850
152.3827,106.2953
152.4265,106.3245
152.4557,106.3683
152.4660,106.4200
152.4660,106.6900
152.4557,106.7417
152.4265,106.7855
152.3827,106.8147
152.3310,106.8250
151.9610,106.8250
151.9093,106.8147
151.8655,106.7855
151.8363,106.7417
151.8260,106.6900
151.8260,106.4200
151.8363,106.3683
151.8655,106.3245
151.9093,106.2953
151.9610,106.2850
Z" /> 
<path style="fill:#000000; fill-opacity:1.0000; stroke:none;fill-rule:evenodd;"
d="M 165.8710,111.8480
165.8710,110.1480
166.7710,110.1480
166.7710,111.8480
Z" /> 
<path style="fill:#000000; fill-opacity:1.0000; stroke:none;fill-rule:evenodd;"
d="M 169.2710,111.8480
169.2710,110.1480
170.1710,110.1480
170.1710,111.8480
Z" /> 
<path style="fill:#000000; fill-opacity:1.0000; stroke:none;fill-rule:evenodd;"
d="M 136.0860,113.8100
136.0343,113.7997
135.9905,113.7705
135.9613,113.7267
135.9510,113.6750
135.9510,113.4050
135.9613,113.3533
135.9905,113.3095
136.0343,113.2803
136.0860,113.2700
136.4560,113.2700
136.5077,113.2803
136.5515,113.3095
136.5807,113.3533
136.5910,113.4050
136.5910,113.6750
136.5807,113.7267
136.5515,113.7705
136.5077,113.7997
136.4560,113.8100
Z" /> 
<path style="fill:#000000; fill-opacity:1.0000; stroke:none;fill-rule:evenodd;"
d="M 136.0860,112.7900
136.0343,112.7797
135.9905,112.7505
135.9613,112.7067
135.9510,112.6550
135.9510,112.3850
135.9613,112.3333
135.9905,112.2895
136.0343,112.2603
136.0860,112.2500
136.4560,112.2500
136.5077,112.2603
136.5515,112.2895
136.5807,112.3333
136.5910,112.3850
136.5910,112.6550
136.5807,112.7067
136.5515,112.7505
136.5077,112.7797
136.4560,112.7900
Z" /> 
<path style="fill:#000000; fill-opacity:1.0000; stroke:none;fill-rule:evenodd;"
d="M 151.9610,111.0180
151.9093,111.0077
151.8655,110.9785
151.8363,110.9347
151.8260,110.8830
151.8260,110.6130
151.8363,110.5613
151.8655,110.5175
151.9093,110.4883
151.9610,110.4780
152.3310,110.4780
152.3827,110.4883
152.4265,110.5175
152.4557,110.5613
152.4660,110.6130
152.4660,110.8830
152.4557,110.9347
152.4265,110.9785
152.3827,111.0077
152.3310,111.0180
Z" /> 
<path style="fill:#000000; fill-opacity:1.0000; stroke:none;fill-rule:evenodd;"
d="M 151.9610,109.9980
151.9093,109.9877
151.8655,109.9585
151.8363,109.9147
151.8260,109.8630
151.8260,109.5930
151.8363,109.5413
151.8655,109.4975
151.9093,109.4683
151.9610,109.4580
152.3310,109.4580
152.3827,109.4683
152.4265,109.4975
152.4557,109.5413
152.4660,109.5930
152.4660,109.8630
152.4557,109.9147
152.4265,109.9585
152.3827,109.9877
152.3310,109.9980
Z" /> 
<path style="fill:#000000; fill-opacity:1.0000; stroke:none;fill-rule:evenodd;"
d="M 151.5130,113.8760
151.5237,113.8224
151.5540,113.7770
151.5994,113.7467
151.6530,113.7360
151.9330,113.7360
151.9866,113.7467
152.0320,113.7770
152.0623,113.8224
152.0730,113.8760
152.0730,114.2160
152.0623,114.2696
152.0320,114.3150
151.9866,114.3453
151.9330,114.3560
151.6530,114.3560
151.5994,114.3453
151.5540,114.3150
151.5237,114.2696
151.5130,114.2160
Z" /> 
<path style="fill:#000000; fill-opacity:1.0000; stroke:none;fill-rule:evenodd;"
d="M 152.4730,113.8760
152.4837,113.8224
152.5140,113.7770
152.5594,113.7467
152.6130,113.7360
152.8930,113.7360
152.9466,113.7467
152.9920,113.7770
153.0223,113.8224
153.0330,113.8760
153.0330,114.2160
153.0223,114.2696
152.9920,114.3150
152.9466,114.3453
152.8930,114.3560
152.6130,114.3560
152.5594,114.3453
152.5140,114.3150
152.4837,114.2696
152.4730,114.2160
Z" /> 
<path style="fill:#000000; fill-opacity:1.0000; stroke:none;fill-rule:evenodd;"
d="M 137.9240,117.8130
137.9347,117.7594
137.9650,117.7140
138.0104,117.6837
138.0640,117.6730
138.3440,117.6730
138.3976,117.6837
138.4430,117.7140
138.4733,117.7594
138.4840,117.8130
138.4840,118.1530
138.4733,118.2066
138.4430,118.2520
138.3976,118.2823
138.3440,118.2930
138.0640,118.2930
138.0104,118.2823
137.9650,118.2520
137.9347,118.2066
137.9240,118.1530
Z" /> 
<path style="fill:#000000; fill-opacity:1.0000; stroke:none;fill-rule:evenodd;"
d="M 138.8840,117.8130
138.8947,117.7594
138.9250,117.7140
138.9704,117.6837
139.0240,117.6730
139.3040,117.6730
139.3576,117.6837
139.4030,117.7140
139.4333,117.7594
139.4440,117.8130
139.4440,118.1530
139.4333,118.2066
139.4030,118.2520
139.3576,118.2823
139.3040,118.2930
139.0240,118.2930
138.9704,118.2823
138.9250,118.2520
138.8947,118.2066
138.8840,118.1530
Z" /> 
<path style="fill:#000000; fill-opacity:1.0000; stroke:none;fill-rule:evenodd;"
d="M 139.0070,113.6830
138.9553,113.6727
138.9115,113.6435
138.8823,113.5997
138.8720,113.5480
138.8720,113.2780
138.8823,113.2263
138.9115,113.1825
138.9553,113.1533
139.0070,113.1430
139.3770,113.1430
139.4287,113.1533
139.4725,113.1825
139.5017,113.2263
139.5120,113.2780
139.5120,113.5480
139.5017,113.5997
139.4725,113.6435
139.4287,113.6727
139.3770,113.6830
Z" /> 
<path style="fill:#000000; fill-opacity:1.0000; stroke:none;fill-rule:evenodd;"
d="M 139.0070,112.6630
138.9553,112.6527
138.9115,112.6235
138.8823,112.5797
138.8720,112.5280
138.8720,112.2580
138.8823,112.2063
138.9115,112.1625
138.9553,112.1333
139.0070,112.1230
139.3770,112.1230
139.4287,112.1333
139.4725,112.1625
139.5017,112.2063
139.5120,112.2580
139.5120,112.5280
139.5017,112.5797
139.4725,112.6235
139.4287,112.6527
139.3770,112.6630
Z" /> 
<path style="fill:#000000; fill-opacity:1.0000; stroke:none;fill-rule:evenodd;"
d="M 133.8470,108.2700
134.9970,108.2700
134.9970,108.8500
133.8470,108.8500
Z" /> 
<path style="fill:#000000; fill-opacity:1.0000; stroke:none;fill-rule:evenodd;"
d="M 133.8470,109.0700
134.9970,109.0700
134.9970,109.6500
133.8470,109.6500
Z" /> 
<path style="fill:#000000; fill-opacity:1.0000; stroke:none;fill-rule:evenodd;"
d="M 133.8470,110.3700
134.9970,110.3700
134.9970,110.6500
133.8470,110.6500
Z" /> 
<path style="fill:#000000; fill-opacity:1.0000; stroke:none;fill-rule:evenodd;"
d="M 133.8470,111.3700
134.9970,111.3700
134.9970,111.6500
133.8470,111.6500
Z" /> 
<path style="fill:#000000; fill-opacity:1.0000; stroke:none;fill-rule:evenodd;"
d="M 133.8470,111.8700
134.9970,111.8700
134.9970,112.1500
133.8470,112.1500
Z" /> 
<path style="fill:#000000; fill-opacity:1.0000; stroke:none;fill-rule:evenodd;"
d="M 133.8470,112.8700
134.9970,112.8700
134.9970,113.1500
133.8470,113.1500
Z" /> 
<path style="fill:#000000; fill-opacity:1.0000; stroke:none;fill-rule:evenodd;"
d="M 133.8470,114.6700
134.9970,114.6700
134.9970,115.2500
133.8470,115.2500
Z" /> 
<path style="fill:#000000; fill-opacity:1.0000; stroke:none;fill-rule:evenodd;"
d="M 133.8470,113.8700
134.9970,113.8700
134.9970,114.4500
133.8470,114.4500
Z" /> 
<path style="fill:#000000; fill-opacity:1.0000; stroke:none;fill-rule:evenodd;"
d="M 133.8470,113.3700
134.9970,113.3700
134.9970,113.6500
133.8470,113.6500
Z" /> 
<path style="fill:#000000; fill-opacity:1.0000; stroke:none;fill-rule:evenodd;"
d="M 133.8470,112.3700
134.9970,112.3700
134.9970,112.6500
133.8470,112.6500
Z" /> 
<path style="fill:#000000; fill-opacity:1.0000; stroke:none;fill-rule:evenodd;"
d="M 133.8470,110.8700
134.9970,110.8700
134.9970,111.1500
133.8470,111.1500
Z" /> 
<path style="fill:#000000; fill-opacity:1.0000; stroke:none;fill-rule:evenodd;"
d="M 133.8470,109.8700
134.9970,109.8700
134.9970,110.1500
133.8470,110.1500
Z" /> 
<path style="fill:#000000; fill-opacity:1.0000; stroke:none;fill-rule:evenodd;"
d="M 151.5130,115.2730
151.5237,115.2194
151.5540,115.1740
151.5994,115.1437
151.6530,115.1330
151.9330,115.1330
151.9866,115.1437
152.0320,115.1740
152.0623,115.2194
152.0730,115.2730
152.0730,115.6130
152.0623,115.6666
152.0320,115.7120
151.9866,115.7423
151.9330,115.7530
151.6530,115.7530
151.5994,115.7423
151.5540,115.7120
151.5237,115.6666
151.5130,115.6130
Z" /> 
<path style="fill:#000000; fill-opacity:1.0000; stroke:none;fill-rule:evenodd;"
d="M 152.4730,115.2730
152.4837,115.2194
152.5140,115.1740
152.5594,115.1437
152.6130,115.1330
152.8930,115.1330
152.9466,115.1437
152.9920,115.1740
153.0223,115.2194
153.0330,115.2730
153.0330,115.6130
153.0223,115.6666
152.9920,115.7120
152.9466,115.7423
152.8930,115.7530
152.6130,115.7530
152.5594,115.7423
152.5140,115.7120
152.4837,115.6666
152.4730,115.6130
Z" /> 
<path style="fill:#000000; fill-opacity:1.0000; stroke:none;fill-rule:evenodd;"
d="M 137.6515,114.6630
137.6629,114.6056
137.6954,114.5569
137.7441,114.5244
137.8015,114.5130
138.8265,114.5130
138.8839,114.5244
138.9326,114.5569
138.9651,114.6056
138.9765,114.6630
138.9765,114.9630
138.9651,115.0204
138.9326,115.0691
138.8839,115.1016
138.8265,115.1130
137.8015,115.1130
137.7441,115.1016
137.6954,115.0691
137.6629,115.0204
137.6515,114.9630
Z" /> 
<path style="fill:#000000; fill-opacity:1.0000; stroke:none;fill-rule:evenodd;"
d="M 137.6515,115.6130
137.6629,115.5556
137.6954,115.5069
137.7441,115.4744
137.8015,115.4630
138.8265,115.4630
138.8839,115.4744
138.9326,115.5069
138.9651,115.5556
138.9765,115.6130
138.9765,115.9130
138.9651,115.9704
138.9326,116.0191
138.8839,116.0516
138.8265,116.0630
137.8015,116.0630
137.7441,116.0516
137.6954,116.0191
137.6629,115.9704
137.6515,115.9130
Z" /> 
<path style="fill:#000000; fill-opacity:1.0000; stroke:none;fill-rule:evenodd;"
d="M 137.6515,116.5630
137.6629,116.5056
137.6954,116.4569
137.7441,116.4244
137.8015,116.4130
138.8265,116.4130
138.8839,116.4244
138.9326,116.4569
138.9651,116.5056
138.9765,116.5630
138.9765,116.8630
138.9651,116.9204
138.9326,116.9691
138.8839,117.0016
138.8265,117.0130
137.8015,117.0130
137.7441,117.0016
137.6954,116.9691
137.6629,116.9204
137.6515,116.8630
Z" /> 
<path style="fill:#000000; fill-opacity:1.0000; stroke:none;fill-rule:evenodd;"
d="M 139.9265,116.5630
139.9379,116.5056
139.9704,116.4569
140.0191,116.4244
140.0765,116.4130
141.1015,116.4130
141.1589,116.4244
141.2076,116.4569
141.2401,116.5056
141.2515,116.5630
141.2515,116.8630
141.2401,116.9204
141.2076,116.9691
141.1589,117.0016
141.1015,117.0130
140.0765,117.0130
140.0191,117.0016
139.9704,116.9691
139.9379,116.9204
139.9265,116.8630
Z" /> 
<path style="fill:#000000; fill-opacity:1.0000; stroke:none;fill-rule:evenodd;"
d="M 139.9265,114.6630
139.9379,114.6056
139.9704,114.5569
140.0191,114.5244
140.0765,114.5130
141.1015,114.5130
141.1589,114.5244
141.2076,114.5569
141.2401,114.6056
141.2515,114.6630
141.2515,114.9630
141.2401,115.0204
141.2076,115.0691
141.1589,115.1016
141.1015,115.1130
140.0765,115.1130
140.0191,115.1016
139.9704,115.0691
139.9379,115.0204
139.9265,114.9630
Z" /> 
<path style="fill:#000000; fill-opacity:1.0000; stroke:none;fill-rule:evenodd;"
d="M 171.0110,114.9530
170.9593,114.9427
170.9155,114.9135
170.8863,114.8697
170.8760,114.8180
170.8760,114.5480
170.8863,114.4963
170.9155,114.4525
170.9593,114.4233
171.0110,114.4130
171.3810,114.4130
171.4327,114.4233
171.4765,114.4525
171.5057,114.4963
171.5160,114.5480
171.5160,114.8180
171.5057,114.8697
171.4765,114.9135
171.4327,114.9427
171.3810,114.9530
Z" /> 
<path style="fill:#000000; fill-opacity:1.0000; stroke:none;fill-rule:evenodd;"
d="M 171.0110,113.9330
170.9593,113.9227
170.9155,113.8935
170.8863,113.8497
170.8760,113.7980
170.8760,113.5280
170.8863,113.4763
170.9155,113.4325
170.9593,113.4033
171.0110,113.3930
171.3810,113.3930
171.4327,113.4033
171.4765,113.4325
171.5057,113.4763
171.5160,113.5280
171.5160,113.7980
171.5057,113.8497
171.4765,113.8935
171.4327,113.9227
171.3810,113.9330
Z" /> 
<path style="fill:#000000; fill-opacity:1.0000; stroke:none;fill-rule:evenodd;"
d="M 140.0530,112.4467
140.0716,112.3535
140.1244,112.2744
140.2035,112.2216
140.2968,112.2030
140.7842,112.2030
140.8775,112.2216
140.9566,112.2744
141.0094,112.3535
141.0280,112.4467
141.0280,113.3592
141.0094,113.4525
140.9566,113.5316
140.8775,113.5844
140.7842,113.6030
140.2968,113.6030
140.2035,113.5844
140.1244,113.5316
140.0716,113.4525
140.0530,113.3592
Z" /> 
<path style="fill:#000000; fill-opacity:1.0000; stroke:none;fill-rule:evenodd;"
d="M 141.9280,112.4467
141.9466,112.3535
141.9994,112.2744
142.0785,112.2216
142.1718,112.2030
142.6592,112.2030
142.7525,112.2216
142.8316,112.2744
142.8844,112.3535
142.9030,112.4467
142.9030,113.3592
142.8844,113.4525
142.8316,113.5316
142.7525,113.5844
142.6592,113.6030
142.1718,113.6030
142.0785,113.5844
141.9994,113.5316
141.9466,113.4525
141.9280,113.3592
Z" /> 
</g> 
</svg>
