%TF.GenerationSoftware,KiCad,Pcbnew,8.0.4-8.0.4-0~ubuntu24.04.1*%
%TF.CreationDate,2024-07-31T18:59:25-04:00*%
%TF.ProjectId,iceblink,69636562-6c69-46e6-9b2e-6b696361645f,rev?*%
%TF.SameCoordinates,Original*%
%TF.FileFunction,Soldermask,Bot*%
%TF.FilePolarity,Negative*%
%FSLAX46Y46*%
G04 Gerber Fmt 4.6, Leading zero omitted, Abs format (unit mm)*
G04 Created by KiCad (PCBNEW 8.0.4-8.0.4-0~ubuntu24.04.1) date 2024-07-31 18:59:25*
%MOMM*%
%LPD*%
G01*
G04 APERTURE LIST*
%ADD10C,0.650000*%
%ADD11O,2.100000X1.050000*%
%ADD12O,2.000000X1.000000*%
%ADD13R,1.700000X1.700000*%
%ADD14O,1.700000X1.700000*%
G04 APERTURE END LIST*
D10*
%TO.C,J1*%
X133347000Y-108870000D03*
X133347000Y-114650000D03*
D11*
X133847000Y-107440000D03*
D12*
X129667000Y-107440000D03*
X129667000Y-116080000D03*
D11*
X133847000Y-116080000D03*
%TD*%
D13*
%TO.C,J2*%
X128270000Y-120650000D03*
D14*
X130810000Y-120650000D03*
X133350000Y-120650000D03*
X135890000Y-120650000D03*
X138430000Y-120650000D03*
X140970000Y-120650000D03*
X143510000Y-120650000D03*
X146050000Y-120650000D03*
X148590000Y-120650000D03*
X151130000Y-120650000D03*
X153670000Y-120650000D03*
X156210000Y-120650000D03*
X158750000Y-120650000D03*
X161290000Y-120650000D03*
X163830000Y-120650000D03*
X166370000Y-120650000D03*
X168910000Y-120650000D03*
X171450000Y-120650000D03*
X173990000Y-120650000D03*
X176530000Y-120650000D03*
%TD*%
D13*
%TO.C,J3*%
X128270000Y-102870000D03*
D14*
X130810000Y-102870000D03*
X133350000Y-102870000D03*
X135890000Y-102870000D03*
X138430000Y-102870000D03*
X140970000Y-102870000D03*
X143510000Y-102870000D03*
X146050000Y-102870000D03*
X148590000Y-102870000D03*
X151130000Y-102870000D03*
X153670000Y-102870000D03*
X156210000Y-102870000D03*
X158750000Y-102870000D03*
X161290000Y-102870000D03*
X163830000Y-102870000D03*
X166370000Y-102870000D03*
X168910000Y-102870000D03*
X171450000Y-102870000D03*
X173990000Y-102870000D03*
X176530000Y-102870000D03*
%TD*%
M02*
