%TF.GenerationSoftware,KiCad,Pcbnew,8.0.4-8.0.4-0~ubuntu24.04.1*%
%TF.CreationDate,2024-07-31T18:59:30-04:00*%
%TF.ProjectId,iceblink,69636562-6c69-46e6-9b2e-6b696361645f,rev?*%
%TF.SameCoordinates,Original*%
%TF.FileFunction,Drillmap*%
%TF.FilePolarity,Positive*%
%FSLAX45Y45*%
G04 Gerber Fmt 4.5, Leading zero omitted, Abs format (unit mm)*
G04 Created by KiCad (PCBNEW 8.0.4-8.0.4-0~ubuntu24.04.1) date 2024-07-31 18:59:30*
%MOMM*%
%LPD*%
G01*
G04 APERTURE LIST*
%ADD10C,0.100000*%
%ADD11C,0.200000*%
G04 APERTURE END LIST*
D10*
X12700000Y-12192000D02*
X17780000Y-12192000D01*
X17780000Y-10160000D02*
X12700000Y-10160000D01*
X17780000Y-12192000D02*
X17780000Y-10160000D01*
X12700000Y-10160000D02*
X12700000Y-12192000D01*
D11*
D10*
X13522310Y-11504310D02*
X13552790Y-11534790D01*
X13552790Y-11504310D02*
X13522310Y-11534790D01*
X13522960Y-10627360D02*
X13553440Y-10657840D01*
X13553440Y-10627360D02*
X13522960Y-10657840D01*
X13522960Y-10919460D02*
X13553440Y-10949940D01*
X13553440Y-10919460D02*
X13522960Y-10949940D01*
X13522960Y-11400760D02*
X13553440Y-11431240D01*
X13553440Y-11400760D02*
X13522960Y-11431240D01*
X13636710Y-10784840D02*
X13667190Y-10815320D01*
X13667190Y-10784840D02*
X13636710Y-10815320D01*
X13677900Y-11236960D02*
X13708380Y-11267440D01*
X13708380Y-11236960D02*
X13677900Y-11267440D01*
X13835380Y-11224260D02*
X13865860Y-11254740D01*
X13865860Y-11224260D02*
X13835380Y-11254740D01*
X13919200Y-11562080D02*
X13949680Y-11592560D01*
X13949680Y-11562080D02*
X13919200Y-11592560D01*
X13947140Y-11737340D02*
X13977620Y-11767820D01*
X13977620Y-11737340D02*
X13947140Y-11767820D01*
X14043110Y-10659830D02*
X14073590Y-10690310D01*
X14073590Y-10659830D02*
X14043110Y-10690310D01*
X14137640Y-11466060D02*
X14168120Y-11496540D01*
X14168120Y-11466060D02*
X14137640Y-11496540D01*
X14140180Y-10673080D02*
X14170660Y-10703560D01*
X14170660Y-10673080D02*
X14140180Y-10703560D01*
X14140180Y-11567160D02*
X14170660Y-11597640D01*
X14170660Y-11567160D02*
X14140180Y-11597640D01*
X14411960Y-11120120D02*
X14442440Y-11150600D01*
X14442440Y-11120120D02*
X14411960Y-11150600D01*
X14536420Y-11145520D02*
X14566900Y-11176000D01*
X14566900Y-11145520D02*
X14536420Y-11176000D01*
X14704060Y-10563860D02*
X14734540Y-10594340D01*
X14734540Y-10563860D02*
X14704060Y-10594340D01*
X14704060Y-11485880D02*
X14734540Y-11516360D01*
X14734540Y-11485880D02*
X14704060Y-11516360D01*
X14770100Y-11321860D02*
X14800580Y-11352340D01*
X14800580Y-11321860D02*
X14770100Y-11352340D01*
X14805660Y-10894060D02*
X14836140Y-10924540D01*
X14836140Y-10894060D02*
X14805660Y-10924540D01*
X14925040Y-10563860D02*
X14955520Y-10594340D01*
X14955520Y-10563860D02*
X14925040Y-10594340D01*
X15082260Y-10632440D02*
X15112740Y-10662920D01*
X15112740Y-10632440D02*
X15082260Y-10662920D01*
X15102840Y-11389360D02*
X15133320Y-11419840D01*
X15133320Y-11389360D02*
X15102840Y-11419840D01*
X15110460Y-11676380D02*
X15140940Y-11706860D01*
X15140940Y-11676380D02*
X15110460Y-11706860D01*
X15115540Y-11577320D02*
X15146020Y-11607800D01*
X15146020Y-11577320D02*
X15115540Y-11607800D01*
X15141106Y-11021535D02*
X15171586Y-11052015D01*
X15171586Y-11021535D02*
X15141106Y-11052015D01*
X15313660Y-11389360D02*
X15344140Y-11419840D01*
X15344140Y-11389360D02*
X15313660Y-11419840D01*
X15336520Y-10873740D02*
X15367000Y-10904220D01*
X15367000Y-10873740D02*
X15336520Y-10904220D01*
X15337619Y-11303168D02*
X15368099Y-11333648D01*
X15368099Y-11303168D02*
X15337619Y-11333648D01*
X15427960Y-11851640D02*
X15458440Y-11882120D01*
X15458440Y-11851640D02*
X15427960Y-11882120D01*
X15620950Y-10606990D02*
X15651430Y-10637470D01*
X15651430Y-10606990D02*
X15620950Y-10637470D01*
X15625317Y-10490150D02*
X15655797Y-10520630D01*
X15655797Y-10490150D02*
X15625317Y-10520630D01*
X15656560Y-11021060D02*
X15687040Y-11051540D01*
X15687040Y-11021060D02*
X15656560Y-11051540D01*
X15656560Y-11300460D02*
X15687040Y-11330940D01*
X15687040Y-11300460D02*
X15656560Y-11330940D01*
X15679661Y-10663060D02*
X15710141Y-10693540D01*
X15710141Y-10663060D02*
X15679661Y-10693540D01*
X15702447Y-10525710D02*
X15732927Y-10556190D01*
X15732927Y-10525710D02*
X15702447Y-10556190D01*
X15756418Y-10689647D02*
X15786898Y-10720127D01*
X15786898Y-10689647D02*
X15756418Y-10720127D01*
X15774764Y-11598098D02*
X15805244Y-11628578D01*
X15805244Y-11598098D02*
X15774764Y-11628578D01*
X15791180Y-11844020D02*
X15821660Y-11874500D01*
X15821660Y-11844020D02*
X15791180Y-11874500D01*
X15796260Y-11160760D02*
X15826740Y-11191240D01*
X15826740Y-11160760D02*
X15796260Y-11191240D01*
X15841708Y-10528250D02*
X15872188Y-10558730D01*
X15872188Y-10528250D02*
X15841708Y-10558730D01*
X15872106Y-10733012D02*
X15902586Y-10763492D01*
X15902586Y-10733012D02*
X15872106Y-10763492D01*
X15935960Y-11021060D02*
X15966440Y-11051540D01*
X15966440Y-11021060D02*
X15935960Y-11051540D01*
X15935960Y-11300460D02*
X15966440Y-11330940D01*
X15966440Y-11300460D02*
X15935960Y-11330940D01*
X15963900Y-11633200D02*
X15994380Y-11663680D01*
X15994380Y-11633200D02*
X15963900Y-11663680D01*
X15981912Y-10496217D02*
X16012392Y-10526697D01*
X16012392Y-10496217D02*
X15981912Y-10526697D01*
X16029940Y-11780520D02*
X16060420Y-11811000D01*
X16060420Y-11780520D02*
X16029940Y-11811000D01*
X16062914Y-10490124D02*
X16093394Y-10520604D01*
X16093394Y-10490124D02*
X16062914Y-10520604D01*
X16139160Y-10518140D02*
X16169640Y-10548620D01*
X16169640Y-10518140D02*
X16139160Y-10548620D01*
X16139160Y-10739120D02*
X16169640Y-10769600D01*
X16169640Y-10739120D02*
X16139160Y-10769600D01*
X16426180Y-11630660D02*
X16456660Y-11661140D01*
X16456660Y-11630660D02*
X16426180Y-11661140D01*
X16494760Y-10906760D02*
X16525240Y-10937240D01*
X16525240Y-10906760D02*
X16494760Y-10937240D01*
X16616680Y-10624820D02*
X16647160Y-10655300D01*
X16647160Y-10624820D02*
X16616680Y-10655300D01*
X16715740Y-10695940D02*
X16746220Y-10726420D01*
X16746220Y-10695940D02*
X16715740Y-10726420D01*
X16736060Y-11427460D02*
X16766540Y-11457940D01*
X16766540Y-11427460D02*
X16736060Y-11457940D01*
X16810990Y-10727690D02*
X16841470Y-10758170D01*
X16841470Y-10727690D02*
X16810990Y-10758170D01*
X16817340Y-11427460D02*
X16847820Y-11457940D01*
X16847820Y-11427460D02*
X16817340Y-11457940D01*
X16956860Y-10919460D02*
X16987340Y-10949940D01*
X16987340Y-10919460D02*
X16956860Y-10949940D01*
X16956860Y-11707040D02*
X16987340Y-11737520D01*
X16987340Y-11707040D02*
X16956860Y-11737520D01*
X17101820Y-11709400D02*
X17132300Y-11739880D01*
X17132300Y-11709400D02*
X17101820Y-11739880D01*
X17198340Y-10792460D02*
X17228820Y-10822940D01*
X17228820Y-10792460D02*
X17198340Y-10822940D01*
X17205960Y-11285220D02*
X17236440Y-11315700D01*
X17236440Y-11285220D02*
X17205960Y-11315700D01*
X17434560Y-10904220D02*
X17465040Y-10934700D01*
X17465040Y-10904220D02*
X17434560Y-10934700D01*
X12996700Y-10744000D02*
G75*
G02*
X12936700Y-10744000I-30000J0D01*
G01*
X12936700Y-10744000D02*
G75*
G02*
X12996700Y-10744000I30000J0D01*
G01*
X13006700Y-10714000D02*
X12926700Y-10714000D01*
X12926700Y-10774000D02*
G75*
G02*
X12926700Y-10714000I0J30000D01*
G01*
X12926700Y-10774000D02*
X13006700Y-10774000D01*
X13006700Y-10774000D02*
G75*
G03*
X13006700Y-10714000I0J30000D01*
G01*
X12996700Y-11608000D02*
G75*
G02*
X12936700Y-11608000I-30000J0D01*
G01*
X12936700Y-11608000D02*
G75*
G02*
X12996700Y-11608000I30000J0D01*
G01*
X13006700Y-11578000D02*
X12926700Y-11578000D01*
X12926700Y-11638000D02*
G75*
G02*
X12926700Y-11578000I0J30000D01*
G01*
X12926700Y-11638000D02*
X13006700Y-11638000D01*
X13006700Y-11638000D02*
G75*
G03*
X13006700Y-11578000I0J30000D01*
G01*
X13414700Y-10744000D02*
G75*
G02*
X13354700Y-10744000I-30000J0D01*
G01*
X13354700Y-10744000D02*
G75*
G02*
X13414700Y-10744000I30000J0D01*
G01*
X13439700Y-10714000D02*
X13329700Y-10714000D01*
X13329700Y-10774000D02*
G75*
G02*
X13329700Y-10714000I0J30000D01*
G01*
X13329700Y-10774000D02*
X13439700Y-10774000D01*
X13439700Y-10774000D02*
G75*
G03*
X13439700Y-10714000I0J30000D01*
G01*
X13414700Y-11608000D02*
G75*
G02*
X13354700Y-11608000I-30000J0D01*
G01*
X13354700Y-11608000D02*
G75*
G02*
X13414700Y-11608000I30000J0D01*
G01*
X13439700Y-11578000D02*
X13329700Y-11578000D01*
X13329700Y-11638000D02*
G75*
G02*
X13329700Y-11578000I0J30000D01*
G01*
X13329700Y-11638000D02*
X13439700Y-11638000D01*
X13439700Y-11638000D02*
G75*
G03*
X13439700Y-11578000I0J30000D01*
G01*
X12827000Y-10237000D02*
X12827000Y-10337000D01*
X12777000Y-10287000D02*
X12877000Y-10287000D01*
X12827000Y-12015000D02*
X12827000Y-12115000D01*
X12777000Y-12065000D02*
X12877000Y-12065000D01*
X13081000Y-10237000D02*
X13081000Y-10337000D01*
X13031000Y-10287000D02*
X13131000Y-10287000D01*
X13081000Y-12015000D02*
X13081000Y-12115000D01*
X13031000Y-12065000D02*
X13131000Y-12065000D01*
X13335000Y-10237000D02*
X13335000Y-10337000D01*
X13285000Y-10287000D02*
X13385000Y-10287000D01*
X13335000Y-12015000D02*
X13335000Y-12115000D01*
X13285000Y-12065000D02*
X13385000Y-12065000D01*
X13589000Y-10237000D02*
X13589000Y-10337000D01*
X13539000Y-10287000D02*
X13639000Y-10287000D01*
X13589000Y-12015000D02*
X13589000Y-12115000D01*
X13539000Y-12065000D02*
X13639000Y-12065000D01*
X13843000Y-10237000D02*
X13843000Y-10337000D01*
X13793000Y-10287000D02*
X13893000Y-10287000D01*
X13843000Y-12015000D02*
X13843000Y-12115000D01*
X13793000Y-12065000D02*
X13893000Y-12065000D01*
X14097000Y-10237000D02*
X14097000Y-10337000D01*
X14047000Y-10287000D02*
X14147000Y-10287000D01*
X14097000Y-12015000D02*
X14097000Y-12115000D01*
X14047000Y-12065000D02*
X14147000Y-12065000D01*
X14351000Y-10237000D02*
X14351000Y-10337000D01*
X14301000Y-10287000D02*
X14401000Y-10287000D01*
X14351000Y-12015000D02*
X14351000Y-12115000D01*
X14301000Y-12065000D02*
X14401000Y-12065000D01*
X14605000Y-10237000D02*
X14605000Y-10337000D01*
X14555000Y-10287000D02*
X14655000Y-10287000D01*
X14605000Y-12015000D02*
X14605000Y-12115000D01*
X14555000Y-12065000D02*
X14655000Y-12065000D01*
X14859000Y-10237000D02*
X14859000Y-10337000D01*
X14809000Y-10287000D02*
X14909000Y-10287000D01*
X14859000Y-12015000D02*
X14859000Y-12115000D01*
X14809000Y-12065000D02*
X14909000Y-12065000D01*
X15113000Y-10237000D02*
X15113000Y-10337000D01*
X15063000Y-10287000D02*
X15163000Y-10287000D01*
X15113000Y-12015000D02*
X15113000Y-12115000D01*
X15063000Y-12065000D02*
X15163000Y-12065000D01*
X15367000Y-10237000D02*
X15367000Y-10337000D01*
X15317000Y-10287000D02*
X15417000Y-10287000D01*
X15367000Y-12015000D02*
X15367000Y-12115000D01*
X15317000Y-12065000D02*
X15417000Y-12065000D01*
X15621000Y-10237000D02*
X15621000Y-10337000D01*
X15571000Y-10287000D02*
X15671000Y-10287000D01*
X15621000Y-12015000D02*
X15621000Y-12115000D01*
X15571000Y-12065000D02*
X15671000Y-12065000D01*
X15875000Y-10237000D02*
X15875000Y-10337000D01*
X15825000Y-10287000D02*
X15925000Y-10287000D01*
X15875000Y-12015000D02*
X15875000Y-12115000D01*
X15825000Y-12065000D02*
X15925000Y-12065000D01*
X16129000Y-10237000D02*
X16129000Y-10337000D01*
X16079000Y-10287000D02*
X16179000Y-10287000D01*
X16129000Y-12015000D02*
X16129000Y-12115000D01*
X16079000Y-12065000D02*
X16179000Y-12065000D01*
X16383000Y-10237000D02*
X16383000Y-10337000D01*
X16333000Y-10287000D02*
X16433000Y-10287000D01*
X16383000Y-12015000D02*
X16383000Y-12115000D01*
X16333000Y-12065000D02*
X16433000Y-12065000D01*
X16637000Y-10237000D02*
X16637000Y-10337000D01*
X16587000Y-10287000D02*
X16687000Y-10287000D01*
X16637000Y-12015000D02*
X16637000Y-12115000D01*
X16587000Y-12065000D02*
X16687000Y-12065000D01*
X16891000Y-10237000D02*
X16891000Y-10337000D01*
X16841000Y-10287000D02*
X16941000Y-10287000D01*
X16891000Y-12015000D02*
X16891000Y-12115000D01*
X16841000Y-12065000D02*
X16941000Y-12065000D01*
X17145000Y-10237000D02*
X17145000Y-10337000D01*
X17095000Y-10287000D02*
X17195000Y-10287000D01*
X17145000Y-12015000D02*
X17145000Y-12115000D01*
X17095000Y-12065000D02*
X17195000Y-12065000D01*
X17399000Y-10237000D02*
X17399000Y-10337000D01*
X17349000Y-10287000D02*
X17449000Y-10287000D01*
X17399000Y-12015000D02*
X17399000Y-12115000D01*
X17349000Y-12065000D02*
X17449000Y-12065000D01*
X17653000Y-10237000D02*
X17653000Y-10337000D01*
X17603000Y-10287000D02*
X17703000Y-10287000D01*
X17653000Y-12015000D02*
X17653000Y-12115000D01*
X17603000Y-12065000D02*
X17703000Y-12065000D01*
D11*
X12955777Y-12508484D02*
X12955777Y-12308484D01*
X12955777Y-12308484D02*
X13003396Y-12308484D01*
X13003396Y-12308484D02*
X13031967Y-12318008D01*
X13031967Y-12318008D02*
X13051015Y-12337055D01*
X13051015Y-12337055D02*
X13060539Y-12356103D01*
X13060539Y-12356103D02*
X13070062Y-12394198D01*
X13070062Y-12394198D02*
X13070062Y-12422769D01*
X13070062Y-12422769D02*
X13060539Y-12460865D01*
X13060539Y-12460865D02*
X13051015Y-12479912D01*
X13051015Y-12479912D02*
X13031967Y-12498960D01*
X13031967Y-12498960D02*
X13003396Y-12508484D01*
X13003396Y-12508484D02*
X12955777Y-12508484D01*
X13155777Y-12508484D02*
X13155777Y-12375150D01*
X13155777Y-12413246D02*
X13165301Y-12394198D01*
X13165301Y-12394198D02*
X13174824Y-12384674D01*
X13174824Y-12384674D02*
X13193872Y-12375150D01*
X13193872Y-12375150D02*
X13212920Y-12375150D01*
X13279586Y-12508484D02*
X13279586Y-12375150D01*
X13279586Y-12308484D02*
X13270062Y-12318008D01*
X13270062Y-12318008D02*
X13279586Y-12327531D01*
X13279586Y-12327531D02*
X13289110Y-12318008D01*
X13289110Y-12318008D02*
X13279586Y-12308484D01*
X13279586Y-12308484D02*
X13279586Y-12327531D01*
X13403396Y-12508484D02*
X13384348Y-12498960D01*
X13384348Y-12498960D02*
X13374824Y-12479912D01*
X13374824Y-12479912D02*
X13374824Y-12308484D01*
X13508158Y-12508484D02*
X13489110Y-12498960D01*
X13489110Y-12498960D02*
X13479586Y-12479912D01*
X13479586Y-12479912D02*
X13479586Y-12308484D01*
X13736729Y-12508484D02*
X13736729Y-12308484D01*
X13736729Y-12308484D02*
X13803396Y-12451341D01*
X13803396Y-12451341D02*
X13870062Y-12308484D01*
X13870062Y-12308484D02*
X13870062Y-12508484D01*
X14051015Y-12508484D02*
X14051015Y-12403722D01*
X14051015Y-12403722D02*
X14041491Y-12384674D01*
X14041491Y-12384674D02*
X14022443Y-12375150D01*
X14022443Y-12375150D02*
X13984348Y-12375150D01*
X13984348Y-12375150D02*
X13965301Y-12384674D01*
X14051015Y-12498960D02*
X14031967Y-12508484D01*
X14031967Y-12508484D02*
X13984348Y-12508484D01*
X13984348Y-12508484D02*
X13965301Y-12498960D01*
X13965301Y-12498960D02*
X13955777Y-12479912D01*
X13955777Y-12479912D02*
X13955777Y-12460865D01*
X13955777Y-12460865D02*
X13965301Y-12441817D01*
X13965301Y-12441817D02*
X13984348Y-12432293D01*
X13984348Y-12432293D02*
X14031967Y-12432293D01*
X14031967Y-12432293D02*
X14051015Y-12422769D01*
X14146253Y-12375150D02*
X14146253Y-12575150D01*
X14146253Y-12384674D02*
X14165301Y-12375150D01*
X14165301Y-12375150D02*
X14203396Y-12375150D01*
X14203396Y-12375150D02*
X14222443Y-12384674D01*
X14222443Y-12384674D02*
X14231967Y-12394198D01*
X14231967Y-12394198D02*
X14241491Y-12413246D01*
X14241491Y-12413246D02*
X14241491Y-12470388D01*
X14241491Y-12470388D02*
X14231967Y-12489436D01*
X14231967Y-12489436D02*
X14222443Y-12498960D01*
X14222443Y-12498960D02*
X14203396Y-12508484D01*
X14203396Y-12508484D02*
X14165301Y-12508484D01*
X14165301Y-12508484D02*
X14146253Y-12498960D01*
X14327205Y-12489436D02*
X14336729Y-12498960D01*
X14336729Y-12498960D02*
X14327205Y-12508484D01*
X14327205Y-12508484D02*
X14317682Y-12498960D01*
X14317682Y-12498960D02*
X14327205Y-12489436D01*
X14327205Y-12489436D02*
X14327205Y-12508484D01*
X14327205Y-12384674D02*
X14336729Y-12394198D01*
X14336729Y-12394198D02*
X14327205Y-12403722D01*
X14327205Y-12403722D02*
X14317682Y-12394198D01*
X14317682Y-12394198D02*
X14327205Y-12384674D01*
X14327205Y-12384674D02*
X14327205Y-12403722D01*
D10*
X12664520Y-12821760D02*
X12695000Y-12852240D01*
X12695000Y-12821760D02*
X12664520Y-12852240D01*
D11*
X12993872Y-12728484D02*
X13012920Y-12728484D01*
X13012920Y-12728484D02*
X13031967Y-12738008D01*
X13031967Y-12738008D02*
X13041491Y-12747531D01*
X13041491Y-12747531D02*
X13051015Y-12766579D01*
X13051015Y-12766579D02*
X13060539Y-12804674D01*
X13060539Y-12804674D02*
X13060539Y-12852293D01*
X13060539Y-12852293D02*
X13051015Y-12890388D01*
X13051015Y-12890388D02*
X13041491Y-12909436D01*
X13041491Y-12909436D02*
X13031967Y-12918960D01*
X13031967Y-12918960D02*
X13012920Y-12928484D01*
X13012920Y-12928484D02*
X12993872Y-12928484D01*
X12993872Y-12928484D02*
X12974824Y-12918960D01*
X12974824Y-12918960D02*
X12965301Y-12909436D01*
X12965301Y-12909436D02*
X12955777Y-12890388D01*
X12955777Y-12890388D02*
X12946253Y-12852293D01*
X12946253Y-12852293D02*
X12946253Y-12804674D01*
X12946253Y-12804674D02*
X12955777Y-12766579D01*
X12955777Y-12766579D02*
X12965301Y-12747531D01*
X12965301Y-12747531D02*
X12974824Y-12738008D01*
X12974824Y-12738008D02*
X12993872Y-12728484D01*
X13146253Y-12909436D02*
X13155777Y-12918960D01*
X13155777Y-12918960D02*
X13146253Y-12928484D01*
X13146253Y-12928484D02*
X13136729Y-12918960D01*
X13136729Y-12918960D02*
X13146253Y-12909436D01*
X13146253Y-12909436D02*
X13146253Y-12928484D01*
X13222443Y-12728484D02*
X13346253Y-12728484D01*
X13346253Y-12728484D02*
X13279586Y-12804674D01*
X13279586Y-12804674D02*
X13308158Y-12804674D01*
X13308158Y-12804674D02*
X13327205Y-12814198D01*
X13327205Y-12814198D02*
X13336729Y-12823722D01*
X13336729Y-12823722D02*
X13346253Y-12842769D01*
X13346253Y-12842769D02*
X13346253Y-12890388D01*
X13346253Y-12890388D02*
X13336729Y-12909436D01*
X13336729Y-12909436D02*
X13327205Y-12918960D01*
X13327205Y-12918960D02*
X13308158Y-12928484D01*
X13308158Y-12928484D02*
X13251015Y-12928484D01*
X13251015Y-12928484D02*
X13231967Y-12918960D01*
X13231967Y-12918960D02*
X13222443Y-12909436D01*
X13470062Y-12728484D02*
X13489110Y-12728484D01*
X13489110Y-12728484D02*
X13508158Y-12738008D01*
X13508158Y-12738008D02*
X13517682Y-12747531D01*
X13517682Y-12747531D02*
X13527205Y-12766579D01*
X13527205Y-12766579D02*
X13536729Y-12804674D01*
X13536729Y-12804674D02*
X13536729Y-12852293D01*
X13536729Y-12852293D02*
X13527205Y-12890388D01*
X13527205Y-12890388D02*
X13517682Y-12909436D01*
X13517682Y-12909436D02*
X13508158Y-12918960D01*
X13508158Y-12918960D02*
X13489110Y-12928484D01*
X13489110Y-12928484D02*
X13470062Y-12928484D01*
X13470062Y-12928484D02*
X13451015Y-12918960D01*
X13451015Y-12918960D02*
X13441491Y-12909436D01*
X13441491Y-12909436D02*
X13431967Y-12890388D01*
X13431967Y-12890388D02*
X13422443Y-12852293D01*
X13422443Y-12852293D02*
X13422443Y-12804674D01*
X13422443Y-12804674D02*
X13431967Y-12766579D01*
X13431967Y-12766579D02*
X13441491Y-12747531D01*
X13441491Y-12747531D02*
X13451015Y-12738008D01*
X13451015Y-12738008D02*
X13470062Y-12728484D01*
X13717682Y-12728484D02*
X13622443Y-12728484D01*
X13622443Y-12728484D02*
X13612920Y-12823722D01*
X13612920Y-12823722D02*
X13622443Y-12814198D01*
X13622443Y-12814198D02*
X13641491Y-12804674D01*
X13641491Y-12804674D02*
X13689110Y-12804674D01*
X13689110Y-12804674D02*
X13708158Y-12814198D01*
X13708158Y-12814198D02*
X13717682Y-12823722D01*
X13717682Y-12823722D02*
X13727205Y-12842769D01*
X13727205Y-12842769D02*
X13727205Y-12890388D01*
X13727205Y-12890388D02*
X13717682Y-12909436D01*
X13717682Y-12909436D02*
X13708158Y-12918960D01*
X13708158Y-12918960D02*
X13689110Y-12928484D01*
X13689110Y-12928484D02*
X13641491Y-12928484D01*
X13641491Y-12928484D02*
X13622443Y-12918960D01*
X13622443Y-12918960D02*
X13612920Y-12909436D01*
X13812920Y-12928484D02*
X13812920Y-12795150D01*
X13812920Y-12814198D02*
X13822443Y-12804674D01*
X13822443Y-12804674D02*
X13841491Y-12795150D01*
X13841491Y-12795150D02*
X13870063Y-12795150D01*
X13870063Y-12795150D02*
X13889110Y-12804674D01*
X13889110Y-12804674D02*
X13898634Y-12823722D01*
X13898634Y-12823722D02*
X13898634Y-12928484D01*
X13898634Y-12823722D02*
X13908158Y-12804674D01*
X13908158Y-12804674D02*
X13927205Y-12795150D01*
X13927205Y-12795150D02*
X13955777Y-12795150D01*
X13955777Y-12795150D02*
X13974824Y-12804674D01*
X13974824Y-12804674D02*
X13984348Y-12823722D01*
X13984348Y-12823722D02*
X13984348Y-12928484D01*
X14079586Y-12928484D02*
X14079586Y-12795150D01*
X14079586Y-12814198D02*
X14089110Y-12804674D01*
X14089110Y-12804674D02*
X14108158Y-12795150D01*
X14108158Y-12795150D02*
X14136729Y-12795150D01*
X14136729Y-12795150D02*
X14155777Y-12804674D01*
X14155777Y-12804674D02*
X14165301Y-12823722D01*
X14165301Y-12823722D02*
X14165301Y-12928484D01*
X14165301Y-12823722D02*
X14174824Y-12804674D01*
X14174824Y-12804674D02*
X14193872Y-12795150D01*
X14193872Y-12795150D02*
X14222443Y-12795150D01*
X14222443Y-12795150D02*
X14241491Y-12804674D01*
X14241491Y-12804674D02*
X14251015Y-12823722D01*
X14251015Y-12823722D02*
X14251015Y-12928484D01*
X14641491Y-12718960D02*
X14470063Y-12976103D01*
X14898634Y-12728484D02*
X14917682Y-12728484D01*
X14917682Y-12728484D02*
X14936729Y-12738008D01*
X14936729Y-12738008D02*
X14946253Y-12747531D01*
X14946253Y-12747531D02*
X14955777Y-12766579D01*
X14955777Y-12766579D02*
X14965301Y-12804674D01*
X14965301Y-12804674D02*
X14965301Y-12852293D01*
X14965301Y-12852293D02*
X14955777Y-12890388D01*
X14955777Y-12890388D02*
X14946253Y-12909436D01*
X14946253Y-12909436D02*
X14936729Y-12918960D01*
X14936729Y-12918960D02*
X14917682Y-12928484D01*
X14917682Y-12928484D02*
X14898634Y-12928484D01*
X14898634Y-12928484D02*
X14879586Y-12918960D01*
X14879586Y-12918960D02*
X14870063Y-12909436D01*
X14870063Y-12909436D02*
X14860539Y-12890388D01*
X14860539Y-12890388D02*
X14851015Y-12852293D01*
X14851015Y-12852293D02*
X14851015Y-12804674D01*
X14851015Y-12804674D02*
X14860539Y-12766579D01*
X14860539Y-12766579D02*
X14870063Y-12747531D01*
X14870063Y-12747531D02*
X14879586Y-12738008D01*
X14879586Y-12738008D02*
X14898634Y-12728484D01*
X15051015Y-12909436D02*
X15060539Y-12918960D01*
X15060539Y-12918960D02*
X15051015Y-12928484D01*
X15051015Y-12928484D02*
X15041491Y-12918960D01*
X15041491Y-12918960D02*
X15051015Y-12909436D01*
X15051015Y-12909436D02*
X15051015Y-12928484D01*
X15184348Y-12728484D02*
X15203396Y-12728484D01*
X15203396Y-12728484D02*
X15222444Y-12738008D01*
X15222444Y-12738008D02*
X15231967Y-12747531D01*
X15231967Y-12747531D02*
X15241491Y-12766579D01*
X15241491Y-12766579D02*
X15251015Y-12804674D01*
X15251015Y-12804674D02*
X15251015Y-12852293D01*
X15251015Y-12852293D02*
X15241491Y-12890388D01*
X15241491Y-12890388D02*
X15231967Y-12909436D01*
X15231967Y-12909436D02*
X15222444Y-12918960D01*
X15222444Y-12918960D02*
X15203396Y-12928484D01*
X15203396Y-12928484D02*
X15184348Y-12928484D01*
X15184348Y-12928484D02*
X15165301Y-12918960D01*
X15165301Y-12918960D02*
X15155777Y-12909436D01*
X15155777Y-12909436D02*
X15146253Y-12890388D01*
X15146253Y-12890388D02*
X15136729Y-12852293D01*
X15136729Y-12852293D02*
X15136729Y-12804674D01*
X15136729Y-12804674D02*
X15146253Y-12766579D01*
X15146253Y-12766579D02*
X15155777Y-12747531D01*
X15155777Y-12747531D02*
X15165301Y-12738008D01*
X15165301Y-12738008D02*
X15184348Y-12728484D01*
X15441491Y-12928484D02*
X15327206Y-12928484D01*
X15384348Y-12928484D02*
X15384348Y-12728484D01*
X15384348Y-12728484D02*
X15365301Y-12757055D01*
X15365301Y-12757055D02*
X15346253Y-12776103D01*
X15346253Y-12776103D02*
X15327206Y-12785627D01*
X15517682Y-12747531D02*
X15527206Y-12738008D01*
X15527206Y-12738008D02*
X15546253Y-12728484D01*
X15546253Y-12728484D02*
X15593872Y-12728484D01*
X15593872Y-12728484D02*
X15612920Y-12738008D01*
X15612920Y-12738008D02*
X15622444Y-12747531D01*
X15622444Y-12747531D02*
X15631967Y-12766579D01*
X15631967Y-12766579D02*
X15631967Y-12785627D01*
X15631967Y-12785627D02*
X15622444Y-12814198D01*
X15622444Y-12814198D02*
X15508158Y-12928484D01*
X15508158Y-12928484D02*
X15631967Y-12928484D01*
X15755777Y-12728484D02*
X15774825Y-12728484D01*
X15774825Y-12728484D02*
X15793872Y-12738008D01*
X15793872Y-12738008D02*
X15803396Y-12747531D01*
X15803396Y-12747531D02*
X15812920Y-12766579D01*
X15812920Y-12766579D02*
X15822444Y-12804674D01*
X15822444Y-12804674D02*
X15822444Y-12852293D01*
X15822444Y-12852293D02*
X15812920Y-12890388D01*
X15812920Y-12890388D02*
X15803396Y-12909436D01*
X15803396Y-12909436D02*
X15793872Y-12918960D01*
X15793872Y-12918960D02*
X15774825Y-12928484D01*
X15774825Y-12928484D02*
X15755777Y-12928484D01*
X15755777Y-12928484D02*
X15736729Y-12918960D01*
X15736729Y-12918960D02*
X15727206Y-12909436D01*
X15727206Y-12909436D02*
X15717682Y-12890388D01*
X15717682Y-12890388D02*
X15708158Y-12852293D01*
X15708158Y-12852293D02*
X15708158Y-12804674D01*
X15708158Y-12804674D02*
X15717682Y-12766579D01*
X15717682Y-12766579D02*
X15727206Y-12747531D01*
X15727206Y-12747531D02*
X15736729Y-12738008D01*
X15736729Y-12738008D02*
X15755777Y-12728484D01*
X15898634Y-12728484D02*
X15898634Y-12766579D01*
X15974825Y-12728484D02*
X15974825Y-12766579D01*
X16270063Y-13004674D02*
X16260539Y-12995150D01*
X16260539Y-12995150D02*
X16241491Y-12966579D01*
X16241491Y-12966579D02*
X16231968Y-12947531D01*
X16231968Y-12947531D02*
X16222444Y-12918960D01*
X16222444Y-12918960D02*
X16212920Y-12871341D01*
X16212920Y-12871341D02*
X16212920Y-12833246D01*
X16212920Y-12833246D02*
X16222444Y-12785627D01*
X16222444Y-12785627D02*
X16231968Y-12757055D01*
X16231968Y-12757055D02*
X16241491Y-12738008D01*
X16241491Y-12738008D02*
X16260539Y-12709436D01*
X16260539Y-12709436D02*
X16270063Y-12699912D01*
X16431968Y-12728484D02*
X16393872Y-12728484D01*
X16393872Y-12728484D02*
X16374825Y-12738008D01*
X16374825Y-12738008D02*
X16365301Y-12747531D01*
X16365301Y-12747531D02*
X16346253Y-12776103D01*
X16346253Y-12776103D02*
X16336729Y-12814198D01*
X16336729Y-12814198D02*
X16336729Y-12890388D01*
X16336729Y-12890388D02*
X16346253Y-12909436D01*
X16346253Y-12909436D02*
X16355777Y-12918960D01*
X16355777Y-12918960D02*
X16374825Y-12928484D01*
X16374825Y-12928484D02*
X16412920Y-12928484D01*
X16412920Y-12928484D02*
X16431968Y-12918960D01*
X16431968Y-12918960D02*
X16441491Y-12909436D01*
X16441491Y-12909436D02*
X16451015Y-12890388D01*
X16451015Y-12890388D02*
X16451015Y-12842769D01*
X16451015Y-12842769D02*
X16441491Y-12823722D01*
X16441491Y-12823722D02*
X16431968Y-12814198D01*
X16431968Y-12814198D02*
X16412920Y-12804674D01*
X16412920Y-12804674D02*
X16374825Y-12804674D01*
X16374825Y-12804674D02*
X16355777Y-12814198D01*
X16355777Y-12814198D02*
X16346253Y-12823722D01*
X16346253Y-12823722D02*
X16336729Y-12842769D01*
X16527206Y-12747531D02*
X16536729Y-12738008D01*
X16536729Y-12738008D02*
X16555777Y-12728484D01*
X16555777Y-12728484D02*
X16603396Y-12728484D01*
X16603396Y-12728484D02*
X16622444Y-12738008D01*
X16622444Y-12738008D02*
X16631968Y-12747531D01*
X16631968Y-12747531D02*
X16641491Y-12766579D01*
X16641491Y-12766579D02*
X16641491Y-12785627D01*
X16641491Y-12785627D02*
X16631968Y-12814198D01*
X16631968Y-12814198D02*
X16517682Y-12928484D01*
X16517682Y-12928484D02*
X16641491Y-12928484D01*
X16879587Y-12928484D02*
X16879587Y-12728484D01*
X16965301Y-12928484D02*
X16965301Y-12823722D01*
X16965301Y-12823722D02*
X16955777Y-12804674D01*
X16955777Y-12804674D02*
X16936730Y-12795150D01*
X16936730Y-12795150D02*
X16908158Y-12795150D01*
X16908158Y-12795150D02*
X16889111Y-12804674D01*
X16889111Y-12804674D02*
X16879587Y-12814198D01*
X17089111Y-12928484D02*
X17070063Y-12918960D01*
X17070063Y-12918960D02*
X17060539Y-12909436D01*
X17060539Y-12909436D02*
X17051015Y-12890388D01*
X17051015Y-12890388D02*
X17051015Y-12833246D01*
X17051015Y-12833246D02*
X17060539Y-12814198D01*
X17060539Y-12814198D02*
X17070063Y-12804674D01*
X17070063Y-12804674D02*
X17089111Y-12795150D01*
X17089111Y-12795150D02*
X17117682Y-12795150D01*
X17117682Y-12795150D02*
X17136730Y-12804674D01*
X17136730Y-12804674D02*
X17146253Y-12814198D01*
X17146253Y-12814198D02*
X17155777Y-12833246D01*
X17155777Y-12833246D02*
X17155777Y-12890388D01*
X17155777Y-12890388D02*
X17146253Y-12909436D01*
X17146253Y-12909436D02*
X17136730Y-12918960D01*
X17136730Y-12918960D02*
X17117682Y-12928484D01*
X17117682Y-12928484D02*
X17089111Y-12928484D01*
X17270063Y-12928484D02*
X17251015Y-12918960D01*
X17251015Y-12918960D02*
X17241492Y-12899912D01*
X17241492Y-12899912D02*
X17241492Y-12728484D01*
X17422444Y-12918960D02*
X17403396Y-12928484D01*
X17403396Y-12928484D02*
X17365301Y-12928484D01*
X17365301Y-12928484D02*
X17346253Y-12918960D01*
X17346253Y-12918960D02*
X17336730Y-12899912D01*
X17336730Y-12899912D02*
X17336730Y-12823722D01*
X17336730Y-12823722D02*
X17346253Y-12804674D01*
X17346253Y-12804674D02*
X17365301Y-12795150D01*
X17365301Y-12795150D02*
X17403396Y-12795150D01*
X17403396Y-12795150D02*
X17422444Y-12804674D01*
X17422444Y-12804674D02*
X17431968Y-12823722D01*
X17431968Y-12823722D02*
X17431968Y-12842769D01*
X17431968Y-12842769D02*
X17336730Y-12861817D01*
X17508158Y-12918960D02*
X17527206Y-12928484D01*
X17527206Y-12928484D02*
X17565301Y-12928484D01*
X17565301Y-12928484D02*
X17584349Y-12918960D01*
X17584349Y-12918960D02*
X17593873Y-12899912D01*
X17593873Y-12899912D02*
X17593873Y-12890388D01*
X17593873Y-12890388D02*
X17584349Y-12871341D01*
X17584349Y-12871341D02*
X17565301Y-12861817D01*
X17565301Y-12861817D02*
X17536730Y-12861817D01*
X17536730Y-12861817D02*
X17517682Y-12852293D01*
X17517682Y-12852293D02*
X17508158Y-12833246D01*
X17508158Y-12833246D02*
X17508158Y-12823722D01*
X17508158Y-12823722D02*
X17517682Y-12804674D01*
X17517682Y-12804674D02*
X17536730Y-12795150D01*
X17536730Y-12795150D02*
X17565301Y-12795150D01*
X17565301Y-12795150D02*
X17584349Y-12804674D01*
X17660539Y-13004674D02*
X17670063Y-12995150D01*
X17670063Y-12995150D02*
X17689111Y-12966579D01*
X17689111Y-12966579D02*
X17698634Y-12947531D01*
X17698634Y-12947531D02*
X17708158Y-12918960D01*
X17708158Y-12918960D02*
X17717682Y-12871341D01*
X17717682Y-12871341D02*
X17717682Y-12833246D01*
X17717682Y-12833246D02*
X17708158Y-12785627D01*
X17708158Y-12785627D02*
X17698634Y-12757055D01*
X17698634Y-12757055D02*
X17689111Y-12738008D01*
X17689111Y-12738008D02*
X17670063Y-12709436D01*
X17670063Y-12709436D02*
X17660539Y-12699912D01*
D10*
X12695000Y-13101000D02*
G75*
G02*
X12635000Y-13101000I-30000J0D01*
G01*
X12635000Y-13101000D02*
G75*
G02*
X12695000Y-13101000I30000J0D01*
G01*
D11*
X12993872Y-12992484D02*
X13012920Y-12992484D01*
X13012920Y-12992484D02*
X13031967Y-13002008D01*
X13031967Y-13002008D02*
X13041491Y-13011531D01*
X13041491Y-13011531D02*
X13051015Y-13030579D01*
X13051015Y-13030579D02*
X13060539Y-13068674D01*
X13060539Y-13068674D02*
X13060539Y-13116293D01*
X13060539Y-13116293D02*
X13051015Y-13154388D01*
X13051015Y-13154388D02*
X13041491Y-13173436D01*
X13041491Y-13173436D02*
X13031967Y-13182960D01*
X13031967Y-13182960D02*
X13012920Y-13192484D01*
X13012920Y-13192484D02*
X12993872Y-13192484D01*
X12993872Y-13192484D02*
X12974824Y-13182960D01*
X12974824Y-13182960D02*
X12965301Y-13173436D01*
X12965301Y-13173436D02*
X12955777Y-13154388D01*
X12955777Y-13154388D02*
X12946253Y-13116293D01*
X12946253Y-13116293D02*
X12946253Y-13068674D01*
X12946253Y-13068674D02*
X12955777Y-13030579D01*
X12955777Y-13030579D02*
X12965301Y-13011531D01*
X12965301Y-13011531D02*
X12974824Y-13002008D01*
X12974824Y-13002008D02*
X12993872Y-12992484D01*
X13146253Y-13173436D02*
X13155777Y-13182960D01*
X13155777Y-13182960D02*
X13146253Y-13192484D01*
X13146253Y-13192484D02*
X13136729Y-13182960D01*
X13136729Y-13182960D02*
X13146253Y-13173436D01*
X13146253Y-13173436D02*
X13146253Y-13192484D01*
X13327205Y-12992484D02*
X13289110Y-12992484D01*
X13289110Y-12992484D02*
X13270062Y-13002008D01*
X13270062Y-13002008D02*
X13260539Y-13011531D01*
X13260539Y-13011531D02*
X13241491Y-13040103D01*
X13241491Y-13040103D02*
X13231967Y-13078198D01*
X13231967Y-13078198D02*
X13231967Y-13154388D01*
X13231967Y-13154388D02*
X13241491Y-13173436D01*
X13241491Y-13173436D02*
X13251015Y-13182960D01*
X13251015Y-13182960D02*
X13270062Y-13192484D01*
X13270062Y-13192484D02*
X13308158Y-13192484D01*
X13308158Y-13192484D02*
X13327205Y-13182960D01*
X13327205Y-13182960D02*
X13336729Y-13173436D01*
X13336729Y-13173436D02*
X13346253Y-13154388D01*
X13346253Y-13154388D02*
X13346253Y-13106769D01*
X13346253Y-13106769D02*
X13336729Y-13087722D01*
X13336729Y-13087722D02*
X13327205Y-13078198D01*
X13327205Y-13078198D02*
X13308158Y-13068674D01*
X13308158Y-13068674D02*
X13270062Y-13068674D01*
X13270062Y-13068674D02*
X13251015Y-13078198D01*
X13251015Y-13078198D02*
X13241491Y-13087722D01*
X13241491Y-13087722D02*
X13231967Y-13106769D01*
X13470062Y-12992484D02*
X13489110Y-12992484D01*
X13489110Y-12992484D02*
X13508158Y-13002008D01*
X13508158Y-13002008D02*
X13517682Y-13011531D01*
X13517682Y-13011531D02*
X13527205Y-13030579D01*
X13527205Y-13030579D02*
X13536729Y-13068674D01*
X13536729Y-13068674D02*
X13536729Y-13116293D01*
X13536729Y-13116293D02*
X13527205Y-13154388D01*
X13527205Y-13154388D02*
X13517682Y-13173436D01*
X13517682Y-13173436D02*
X13508158Y-13182960D01*
X13508158Y-13182960D02*
X13489110Y-13192484D01*
X13489110Y-13192484D02*
X13470062Y-13192484D01*
X13470062Y-13192484D02*
X13451015Y-13182960D01*
X13451015Y-13182960D02*
X13441491Y-13173436D01*
X13441491Y-13173436D02*
X13431967Y-13154388D01*
X13431967Y-13154388D02*
X13422443Y-13116293D01*
X13422443Y-13116293D02*
X13422443Y-13068674D01*
X13422443Y-13068674D02*
X13431967Y-13030579D01*
X13431967Y-13030579D02*
X13441491Y-13011531D01*
X13441491Y-13011531D02*
X13451015Y-13002008D01*
X13451015Y-13002008D02*
X13470062Y-12992484D01*
X13660539Y-12992484D02*
X13679586Y-12992484D01*
X13679586Y-12992484D02*
X13698634Y-13002008D01*
X13698634Y-13002008D02*
X13708158Y-13011531D01*
X13708158Y-13011531D02*
X13717682Y-13030579D01*
X13717682Y-13030579D02*
X13727205Y-13068674D01*
X13727205Y-13068674D02*
X13727205Y-13116293D01*
X13727205Y-13116293D02*
X13717682Y-13154388D01*
X13717682Y-13154388D02*
X13708158Y-13173436D01*
X13708158Y-13173436D02*
X13698634Y-13182960D01*
X13698634Y-13182960D02*
X13679586Y-13192484D01*
X13679586Y-13192484D02*
X13660539Y-13192484D01*
X13660539Y-13192484D02*
X13641491Y-13182960D01*
X13641491Y-13182960D02*
X13631967Y-13173436D01*
X13631967Y-13173436D02*
X13622443Y-13154388D01*
X13622443Y-13154388D02*
X13612920Y-13116293D01*
X13612920Y-13116293D02*
X13612920Y-13068674D01*
X13612920Y-13068674D02*
X13622443Y-13030579D01*
X13622443Y-13030579D02*
X13631967Y-13011531D01*
X13631967Y-13011531D02*
X13641491Y-13002008D01*
X13641491Y-13002008D02*
X13660539Y-12992484D01*
X13812920Y-13192484D02*
X13812920Y-13059150D01*
X13812920Y-13078198D02*
X13822443Y-13068674D01*
X13822443Y-13068674D02*
X13841491Y-13059150D01*
X13841491Y-13059150D02*
X13870063Y-13059150D01*
X13870063Y-13059150D02*
X13889110Y-13068674D01*
X13889110Y-13068674D02*
X13898634Y-13087722D01*
X13898634Y-13087722D02*
X13898634Y-13192484D01*
X13898634Y-13087722D02*
X13908158Y-13068674D01*
X13908158Y-13068674D02*
X13927205Y-13059150D01*
X13927205Y-13059150D02*
X13955777Y-13059150D01*
X13955777Y-13059150D02*
X13974824Y-13068674D01*
X13974824Y-13068674D02*
X13984348Y-13087722D01*
X13984348Y-13087722D02*
X13984348Y-13192484D01*
X14079586Y-13192484D02*
X14079586Y-13059150D01*
X14079586Y-13078198D02*
X14089110Y-13068674D01*
X14089110Y-13068674D02*
X14108158Y-13059150D01*
X14108158Y-13059150D02*
X14136729Y-13059150D01*
X14136729Y-13059150D02*
X14155777Y-13068674D01*
X14155777Y-13068674D02*
X14165301Y-13087722D01*
X14165301Y-13087722D02*
X14165301Y-13192484D01*
X14165301Y-13087722D02*
X14174824Y-13068674D01*
X14174824Y-13068674D02*
X14193872Y-13059150D01*
X14193872Y-13059150D02*
X14222443Y-13059150D01*
X14222443Y-13059150D02*
X14241491Y-13068674D01*
X14241491Y-13068674D02*
X14251015Y-13087722D01*
X14251015Y-13087722D02*
X14251015Y-13192484D01*
X14641491Y-12982960D02*
X14470063Y-13240103D01*
X14898634Y-12992484D02*
X14917682Y-12992484D01*
X14917682Y-12992484D02*
X14936729Y-13002008D01*
X14936729Y-13002008D02*
X14946253Y-13011531D01*
X14946253Y-13011531D02*
X14955777Y-13030579D01*
X14955777Y-13030579D02*
X14965301Y-13068674D01*
X14965301Y-13068674D02*
X14965301Y-13116293D01*
X14965301Y-13116293D02*
X14955777Y-13154388D01*
X14955777Y-13154388D02*
X14946253Y-13173436D01*
X14946253Y-13173436D02*
X14936729Y-13182960D01*
X14936729Y-13182960D02*
X14917682Y-13192484D01*
X14917682Y-13192484D02*
X14898634Y-13192484D01*
X14898634Y-13192484D02*
X14879586Y-13182960D01*
X14879586Y-13182960D02*
X14870063Y-13173436D01*
X14870063Y-13173436D02*
X14860539Y-13154388D01*
X14860539Y-13154388D02*
X14851015Y-13116293D01*
X14851015Y-13116293D02*
X14851015Y-13068674D01*
X14851015Y-13068674D02*
X14860539Y-13030579D01*
X14860539Y-13030579D02*
X14870063Y-13011531D01*
X14870063Y-13011531D02*
X14879586Y-13002008D01*
X14879586Y-13002008D02*
X14898634Y-12992484D01*
X15051015Y-13173436D02*
X15060539Y-13182960D01*
X15060539Y-13182960D02*
X15051015Y-13192484D01*
X15051015Y-13192484D02*
X15041491Y-13182960D01*
X15041491Y-13182960D02*
X15051015Y-13173436D01*
X15051015Y-13173436D02*
X15051015Y-13192484D01*
X15184348Y-12992484D02*
X15203396Y-12992484D01*
X15203396Y-12992484D02*
X15222444Y-13002008D01*
X15222444Y-13002008D02*
X15231967Y-13011531D01*
X15231967Y-13011531D02*
X15241491Y-13030579D01*
X15241491Y-13030579D02*
X15251015Y-13068674D01*
X15251015Y-13068674D02*
X15251015Y-13116293D01*
X15251015Y-13116293D02*
X15241491Y-13154388D01*
X15241491Y-13154388D02*
X15231967Y-13173436D01*
X15231967Y-13173436D02*
X15222444Y-13182960D01*
X15222444Y-13182960D02*
X15203396Y-13192484D01*
X15203396Y-13192484D02*
X15184348Y-13192484D01*
X15184348Y-13192484D02*
X15165301Y-13182960D01*
X15165301Y-13182960D02*
X15155777Y-13173436D01*
X15155777Y-13173436D02*
X15146253Y-13154388D01*
X15146253Y-13154388D02*
X15136729Y-13116293D01*
X15136729Y-13116293D02*
X15136729Y-13068674D01*
X15136729Y-13068674D02*
X15146253Y-13030579D01*
X15146253Y-13030579D02*
X15155777Y-13011531D01*
X15155777Y-13011531D02*
X15165301Y-13002008D01*
X15165301Y-13002008D02*
X15184348Y-12992484D01*
X15327206Y-13011531D02*
X15336729Y-13002008D01*
X15336729Y-13002008D02*
X15355777Y-12992484D01*
X15355777Y-12992484D02*
X15403396Y-12992484D01*
X15403396Y-12992484D02*
X15422444Y-13002008D01*
X15422444Y-13002008D02*
X15431967Y-13011531D01*
X15431967Y-13011531D02*
X15441491Y-13030579D01*
X15441491Y-13030579D02*
X15441491Y-13049627D01*
X15441491Y-13049627D02*
X15431967Y-13078198D01*
X15431967Y-13078198D02*
X15317682Y-13192484D01*
X15317682Y-13192484D02*
X15441491Y-13192484D01*
X15508158Y-12992484D02*
X15631967Y-12992484D01*
X15631967Y-12992484D02*
X15565301Y-13068674D01*
X15565301Y-13068674D02*
X15593872Y-13068674D01*
X15593872Y-13068674D02*
X15612920Y-13078198D01*
X15612920Y-13078198D02*
X15622444Y-13087722D01*
X15622444Y-13087722D02*
X15631967Y-13106769D01*
X15631967Y-13106769D02*
X15631967Y-13154388D01*
X15631967Y-13154388D02*
X15622444Y-13173436D01*
X15622444Y-13173436D02*
X15612920Y-13182960D01*
X15612920Y-13182960D02*
X15593872Y-13192484D01*
X15593872Y-13192484D02*
X15536729Y-13192484D01*
X15536729Y-13192484D02*
X15517682Y-13182960D01*
X15517682Y-13182960D02*
X15508158Y-13173436D01*
X15803396Y-12992484D02*
X15765301Y-12992484D01*
X15765301Y-12992484D02*
X15746253Y-13002008D01*
X15746253Y-13002008D02*
X15736729Y-13011531D01*
X15736729Y-13011531D02*
X15717682Y-13040103D01*
X15717682Y-13040103D02*
X15708158Y-13078198D01*
X15708158Y-13078198D02*
X15708158Y-13154388D01*
X15708158Y-13154388D02*
X15717682Y-13173436D01*
X15717682Y-13173436D02*
X15727206Y-13182960D01*
X15727206Y-13182960D02*
X15746253Y-13192484D01*
X15746253Y-13192484D02*
X15784348Y-13192484D01*
X15784348Y-13192484D02*
X15803396Y-13182960D01*
X15803396Y-13182960D02*
X15812920Y-13173436D01*
X15812920Y-13173436D02*
X15822444Y-13154388D01*
X15822444Y-13154388D02*
X15822444Y-13106769D01*
X15822444Y-13106769D02*
X15812920Y-13087722D01*
X15812920Y-13087722D02*
X15803396Y-13078198D01*
X15803396Y-13078198D02*
X15784348Y-13068674D01*
X15784348Y-13068674D02*
X15746253Y-13068674D01*
X15746253Y-13068674D02*
X15727206Y-13078198D01*
X15727206Y-13078198D02*
X15717682Y-13087722D01*
X15717682Y-13087722D02*
X15708158Y-13106769D01*
X15898634Y-12992484D02*
X15898634Y-13030579D01*
X15974825Y-12992484D02*
X15974825Y-13030579D01*
X16270063Y-13268674D02*
X16260539Y-13259150D01*
X16260539Y-13259150D02*
X16241491Y-13230579D01*
X16241491Y-13230579D02*
X16231968Y-13211531D01*
X16231968Y-13211531D02*
X16222444Y-13182960D01*
X16222444Y-13182960D02*
X16212920Y-13135341D01*
X16212920Y-13135341D02*
X16212920Y-13097246D01*
X16212920Y-13097246D02*
X16222444Y-13049627D01*
X16222444Y-13049627D02*
X16231968Y-13021055D01*
X16231968Y-13021055D02*
X16241491Y-13002008D01*
X16241491Y-13002008D02*
X16260539Y-12973436D01*
X16260539Y-12973436D02*
X16270063Y-12963912D01*
X16384348Y-12992484D02*
X16403396Y-12992484D01*
X16403396Y-12992484D02*
X16422444Y-13002008D01*
X16422444Y-13002008D02*
X16431968Y-13011531D01*
X16431968Y-13011531D02*
X16441491Y-13030579D01*
X16441491Y-13030579D02*
X16451015Y-13068674D01*
X16451015Y-13068674D02*
X16451015Y-13116293D01*
X16451015Y-13116293D02*
X16441491Y-13154388D01*
X16441491Y-13154388D02*
X16431968Y-13173436D01*
X16431968Y-13173436D02*
X16422444Y-13182960D01*
X16422444Y-13182960D02*
X16403396Y-13192484D01*
X16403396Y-13192484D02*
X16384348Y-13192484D01*
X16384348Y-13192484D02*
X16365301Y-13182960D01*
X16365301Y-13182960D02*
X16355777Y-13173436D01*
X16355777Y-13173436D02*
X16346253Y-13154388D01*
X16346253Y-13154388D02*
X16336729Y-13116293D01*
X16336729Y-13116293D02*
X16336729Y-13068674D01*
X16336729Y-13068674D02*
X16346253Y-13030579D01*
X16346253Y-13030579D02*
X16355777Y-13011531D01*
X16355777Y-13011531D02*
X16365301Y-13002008D01*
X16365301Y-13002008D02*
X16384348Y-12992484D01*
X16689110Y-13192484D02*
X16689110Y-12992484D01*
X16774825Y-13192484D02*
X16774825Y-13087722D01*
X16774825Y-13087722D02*
X16765301Y-13068674D01*
X16765301Y-13068674D02*
X16746253Y-13059150D01*
X16746253Y-13059150D02*
X16717682Y-13059150D01*
X16717682Y-13059150D02*
X16698634Y-13068674D01*
X16698634Y-13068674D02*
X16689110Y-13078198D01*
X16898634Y-13192484D02*
X16879587Y-13182960D01*
X16879587Y-13182960D02*
X16870063Y-13173436D01*
X16870063Y-13173436D02*
X16860539Y-13154388D01*
X16860539Y-13154388D02*
X16860539Y-13097246D01*
X16860539Y-13097246D02*
X16870063Y-13078198D01*
X16870063Y-13078198D02*
X16879587Y-13068674D01*
X16879587Y-13068674D02*
X16898634Y-13059150D01*
X16898634Y-13059150D02*
X16927206Y-13059150D01*
X16927206Y-13059150D02*
X16946253Y-13068674D01*
X16946253Y-13068674D02*
X16955777Y-13078198D01*
X16955777Y-13078198D02*
X16965301Y-13097246D01*
X16965301Y-13097246D02*
X16965301Y-13154388D01*
X16965301Y-13154388D02*
X16955777Y-13173436D01*
X16955777Y-13173436D02*
X16946253Y-13182960D01*
X16946253Y-13182960D02*
X16927206Y-13192484D01*
X16927206Y-13192484D02*
X16898634Y-13192484D01*
X17079587Y-13192484D02*
X17060539Y-13182960D01*
X17060539Y-13182960D02*
X17051015Y-13163912D01*
X17051015Y-13163912D02*
X17051015Y-12992484D01*
X17231968Y-13182960D02*
X17212920Y-13192484D01*
X17212920Y-13192484D02*
X17174825Y-13192484D01*
X17174825Y-13192484D02*
X17155777Y-13182960D01*
X17155777Y-13182960D02*
X17146253Y-13163912D01*
X17146253Y-13163912D02*
X17146253Y-13087722D01*
X17146253Y-13087722D02*
X17155777Y-13068674D01*
X17155777Y-13068674D02*
X17174825Y-13059150D01*
X17174825Y-13059150D02*
X17212920Y-13059150D01*
X17212920Y-13059150D02*
X17231968Y-13068674D01*
X17231968Y-13068674D02*
X17241492Y-13087722D01*
X17241492Y-13087722D02*
X17241492Y-13106769D01*
X17241492Y-13106769D02*
X17146253Y-13125817D01*
X17317682Y-13182960D02*
X17336730Y-13192484D01*
X17336730Y-13192484D02*
X17374825Y-13192484D01*
X17374825Y-13192484D02*
X17393873Y-13182960D01*
X17393873Y-13182960D02*
X17403396Y-13163912D01*
X17403396Y-13163912D02*
X17403396Y-13154388D01*
X17403396Y-13154388D02*
X17393873Y-13135341D01*
X17393873Y-13135341D02*
X17374825Y-13125817D01*
X17374825Y-13125817D02*
X17346253Y-13125817D01*
X17346253Y-13125817D02*
X17327206Y-13116293D01*
X17327206Y-13116293D02*
X17317682Y-13097246D01*
X17317682Y-13097246D02*
X17317682Y-13087722D01*
X17317682Y-13087722D02*
X17327206Y-13068674D01*
X17327206Y-13068674D02*
X17346253Y-13059150D01*
X17346253Y-13059150D02*
X17374825Y-13059150D01*
X17374825Y-13059150D02*
X17393873Y-13068674D01*
X17641492Y-13116293D02*
X17793873Y-13116293D01*
X17717682Y-13192484D02*
X17717682Y-13040103D01*
X18127206Y-13059150D02*
X18127206Y-13192484D01*
X18079587Y-12982960D02*
X18031968Y-13125817D01*
X18031968Y-13125817D02*
X18155777Y-13125817D01*
X18374825Y-13182960D02*
X18393873Y-13192484D01*
X18393873Y-13192484D02*
X18431968Y-13192484D01*
X18431968Y-13192484D02*
X18451016Y-13182960D01*
X18451016Y-13182960D02*
X18460539Y-13163912D01*
X18460539Y-13163912D02*
X18460539Y-13154388D01*
X18460539Y-13154388D02*
X18451016Y-13135341D01*
X18451016Y-13135341D02*
X18431968Y-13125817D01*
X18431968Y-13125817D02*
X18403396Y-13125817D01*
X18403396Y-13125817D02*
X18384349Y-13116293D01*
X18384349Y-13116293D02*
X18374825Y-13097246D01*
X18374825Y-13097246D02*
X18374825Y-13087722D01*
X18374825Y-13087722D02*
X18384349Y-13068674D01*
X18384349Y-13068674D02*
X18403396Y-13059150D01*
X18403396Y-13059150D02*
X18431968Y-13059150D01*
X18431968Y-13059150D02*
X18451016Y-13068674D01*
X18574825Y-13192484D02*
X18555777Y-13182960D01*
X18555777Y-13182960D02*
X18546254Y-13163912D01*
X18546254Y-13163912D02*
X18546254Y-12992484D01*
X18679587Y-13192484D02*
X18660539Y-13182960D01*
X18660539Y-13182960D02*
X18651016Y-13173436D01*
X18651016Y-13173436D02*
X18641492Y-13154388D01*
X18641492Y-13154388D02*
X18641492Y-13097246D01*
X18641492Y-13097246D02*
X18651016Y-13078198D01*
X18651016Y-13078198D02*
X18660539Y-13068674D01*
X18660539Y-13068674D02*
X18679587Y-13059150D01*
X18679587Y-13059150D02*
X18708158Y-13059150D01*
X18708158Y-13059150D02*
X18727206Y-13068674D01*
X18727206Y-13068674D02*
X18736730Y-13078198D01*
X18736730Y-13078198D02*
X18746254Y-13097246D01*
X18746254Y-13097246D02*
X18746254Y-13154388D01*
X18746254Y-13154388D02*
X18736730Y-13173436D01*
X18736730Y-13173436D02*
X18727206Y-13182960D01*
X18727206Y-13182960D02*
X18708158Y-13192484D01*
X18708158Y-13192484D02*
X18679587Y-13192484D01*
X18803397Y-13059150D02*
X18879587Y-13059150D01*
X18831968Y-12992484D02*
X18831968Y-13163912D01*
X18831968Y-13163912D02*
X18841492Y-13182960D01*
X18841492Y-13182960D02*
X18860539Y-13192484D01*
X18860539Y-13192484D02*
X18879587Y-13192484D01*
X18936730Y-13182960D02*
X18955777Y-13192484D01*
X18955777Y-13192484D02*
X18993873Y-13192484D01*
X18993873Y-13192484D02*
X19012920Y-13182960D01*
X19012920Y-13182960D02*
X19022444Y-13163912D01*
X19022444Y-13163912D02*
X19022444Y-13154388D01*
X19022444Y-13154388D02*
X19012920Y-13135341D01*
X19012920Y-13135341D02*
X18993873Y-13125817D01*
X18993873Y-13125817D02*
X18965301Y-13125817D01*
X18965301Y-13125817D02*
X18946254Y-13116293D01*
X18946254Y-13116293D02*
X18936730Y-13097246D01*
X18936730Y-13097246D02*
X18936730Y-13087722D01*
X18936730Y-13087722D02*
X18946254Y-13068674D01*
X18946254Y-13068674D02*
X18965301Y-13059150D01*
X18965301Y-13059150D02*
X18993873Y-13059150D01*
X18993873Y-13059150D02*
X19012920Y-13068674D01*
X19089111Y-13268674D02*
X19098635Y-13259150D01*
X19098635Y-13259150D02*
X19117682Y-13230579D01*
X19117682Y-13230579D02*
X19127206Y-13211531D01*
X19127206Y-13211531D02*
X19136730Y-13182960D01*
X19136730Y-13182960D02*
X19146254Y-13135341D01*
X19146254Y-13135341D02*
X19146254Y-13097246D01*
X19146254Y-13097246D02*
X19136730Y-13049627D01*
X19136730Y-13049627D02*
X19127206Y-13021055D01*
X19127206Y-13021055D02*
X19117682Y-13002008D01*
X19117682Y-13002008D02*
X19098635Y-12973436D01*
X19098635Y-12973436D02*
X19089111Y-12963912D01*
D10*
X12645000Y-13315000D02*
X12645000Y-13415000D01*
X12595000Y-13365000D02*
X12695000Y-13365000D01*
D11*
X13060539Y-13456484D02*
X12946253Y-13456484D01*
X13003396Y-13456484D02*
X13003396Y-13256484D01*
X13003396Y-13256484D02*
X12984348Y-13285055D01*
X12984348Y-13285055D02*
X12965301Y-13304103D01*
X12965301Y-13304103D02*
X12946253Y-13313627D01*
X13146253Y-13437436D02*
X13155777Y-13446960D01*
X13155777Y-13446960D02*
X13146253Y-13456484D01*
X13146253Y-13456484D02*
X13136729Y-13446960D01*
X13136729Y-13446960D02*
X13146253Y-13437436D01*
X13146253Y-13437436D02*
X13146253Y-13456484D01*
X13279586Y-13256484D02*
X13298634Y-13256484D01*
X13298634Y-13256484D02*
X13317682Y-13266008D01*
X13317682Y-13266008D02*
X13327205Y-13275531D01*
X13327205Y-13275531D02*
X13336729Y-13294579D01*
X13336729Y-13294579D02*
X13346253Y-13332674D01*
X13346253Y-13332674D02*
X13346253Y-13380293D01*
X13346253Y-13380293D02*
X13336729Y-13418388D01*
X13336729Y-13418388D02*
X13327205Y-13437436D01*
X13327205Y-13437436D02*
X13317682Y-13446960D01*
X13317682Y-13446960D02*
X13298634Y-13456484D01*
X13298634Y-13456484D02*
X13279586Y-13456484D01*
X13279586Y-13456484D02*
X13260539Y-13446960D01*
X13260539Y-13446960D02*
X13251015Y-13437436D01*
X13251015Y-13437436D02*
X13241491Y-13418388D01*
X13241491Y-13418388D02*
X13231967Y-13380293D01*
X13231967Y-13380293D02*
X13231967Y-13332674D01*
X13231967Y-13332674D02*
X13241491Y-13294579D01*
X13241491Y-13294579D02*
X13251015Y-13275531D01*
X13251015Y-13275531D02*
X13260539Y-13266008D01*
X13260539Y-13266008D02*
X13279586Y-13256484D01*
X13470062Y-13256484D02*
X13489110Y-13256484D01*
X13489110Y-13256484D02*
X13508158Y-13266008D01*
X13508158Y-13266008D02*
X13517682Y-13275531D01*
X13517682Y-13275531D02*
X13527205Y-13294579D01*
X13527205Y-13294579D02*
X13536729Y-13332674D01*
X13536729Y-13332674D02*
X13536729Y-13380293D01*
X13536729Y-13380293D02*
X13527205Y-13418388D01*
X13527205Y-13418388D02*
X13517682Y-13437436D01*
X13517682Y-13437436D02*
X13508158Y-13446960D01*
X13508158Y-13446960D02*
X13489110Y-13456484D01*
X13489110Y-13456484D02*
X13470062Y-13456484D01*
X13470062Y-13456484D02*
X13451015Y-13446960D01*
X13451015Y-13446960D02*
X13441491Y-13437436D01*
X13441491Y-13437436D02*
X13431967Y-13418388D01*
X13431967Y-13418388D02*
X13422443Y-13380293D01*
X13422443Y-13380293D02*
X13422443Y-13332674D01*
X13422443Y-13332674D02*
X13431967Y-13294579D01*
X13431967Y-13294579D02*
X13441491Y-13275531D01*
X13441491Y-13275531D02*
X13451015Y-13266008D01*
X13451015Y-13266008D02*
X13470062Y-13256484D01*
X13660539Y-13256484D02*
X13679586Y-13256484D01*
X13679586Y-13256484D02*
X13698634Y-13266008D01*
X13698634Y-13266008D02*
X13708158Y-13275531D01*
X13708158Y-13275531D02*
X13717682Y-13294579D01*
X13717682Y-13294579D02*
X13727205Y-13332674D01*
X13727205Y-13332674D02*
X13727205Y-13380293D01*
X13727205Y-13380293D02*
X13717682Y-13418388D01*
X13717682Y-13418388D02*
X13708158Y-13437436D01*
X13708158Y-13437436D02*
X13698634Y-13446960D01*
X13698634Y-13446960D02*
X13679586Y-13456484D01*
X13679586Y-13456484D02*
X13660539Y-13456484D01*
X13660539Y-13456484D02*
X13641491Y-13446960D01*
X13641491Y-13446960D02*
X13631967Y-13437436D01*
X13631967Y-13437436D02*
X13622443Y-13418388D01*
X13622443Y-13418388D02*
X13612920Y-13380293D01*
X13612920Y-13380293D02*
X13612920Y-13332674D01*
X13612920Y-13332674D02*
X13622443Y-13294579D01*
X13622443Y-13294579D02*
X13631967Y-13275531D01*
X13631967Y-13275531D02*
X13641491Y-13266008D01*
X13641491Y-13266008D02*
X13660539Y-13256484D01*
X13812920Y-13456484D02*
X13812920Y-13323150D01*
X13812920Y-13342198D02*
X13822443Y-13332674D01*
X13822443Y-13332674D02*
X13841491Y-13323150D01*
X13841491Y-13323150D02*
X13870063Y-13323150D01*
X13870063Y-13323150D02*
X13889110Y-13332674D01*
X13889110Y-13332674D02*
X13898634Y-13351722D01*
X13898634Y-13351722D02*
X13898634Y-13456484D01*
X13898634Y-13351722D02*
X13908158Y-13332674D01*
X13908158Y-13332674D02*
X13927205Y-13323150D01*
X13927205Y-13323150D02*
X13955777Y-13323150D01*
X13955777Y-13323150D02*
X13974824Y-13332674D01*
X13974824Y-13332674D02*
X13984348Y-13351722D01*
X13984348Y-13351722D02*
X13984348Y-13456484D01*
X14079586Y-13456484D02*
X14079586Y-13323150D01*
X14079586Y-13342198D02*
X14089110Y-13332674D01*
X14089110Y-13332674D02*
X14108158Y-13323150D01*
X14108158Y-13323150D02*
X14136729Y-13323150D01*
X14136729Y-13323150D02*
X14155777Y-13332674D01*
X14155777Y-13332674D02*
X14165301Y-13351722D01*
X14165301Y-13351722D02*
X14165301Y-13456484D01*
X14165301Y-13351722D02*
X14174824Y-13332674D01*
X14174824Y-13332674D02*
X14193872Y-13323150D01*
X14193872Y-13323150D02*
X14222443Y-13323150D01*
X14222443Y-13323150D02*
X14241491Y-13332674D01*
X14241491Y-13332674D02*
X14251015Y-13351722D01*
X14251015Y-13351722D02*
X14251015Y-13456484D01*
X14641491Y-13246960D02*
X14470063Y-13504103D01*
X14898634Y-13256484D02*
X14917682Y-13256484D01*
X14917682Y-13256484D02*
X14936729Y-13266008D01*
X14936729Y-13266008D02*
X14946253Y-13275531D01*
X14946253Y-13275531D02*
X14955777Y-13294579D01*
X14955777Y-13294579D02*
X14965301Y-13332674D01*
X14965301Y-13332674D02*
X14965301Y-13380293D01*
X14965301Y-13380293D02*
X14955777Y-13418388D01*
X14955777Y-13418388D02*
X14946253Y-13437436D01*
X14946253Y-13437436D02*
X14936729Y-13446960D01*
X14936729Y-13446960D02*
X14917682Y-13456484D01*
X14917682Y-13456484D02*
X14898634Y-13456484D01*
X14898634Y-13456484D02*
X14879586Y-13446960D01*
X14879586Y-13446960D02*
X14870063Y-13437436D01*
X14870063Y-13437436D02*
X14860539Y-13418388D01*
X14860539Y-13418388D02*
X14851015Y-13380293D01*
X14851015Y-13380293D02*
X14851015Y-13332674D01*
X14851015Y-13332674D02*
X14860539Y-13294579D01*
X14860539Y-13294579D02*
X14870063Y-13275531D01*
X14870063Y-13275531D02*
X14879586Y-13266008D01*
X14879586Y-13266008D02*
X14898634Y-13256484D01*
X15051015Y-13437436D02*
X15060539Y-13446960D01*
X15060539Y-13446960D02*
X15051015Y-13456484D01*
X15051015Y-13456484D02*
X15041491Y-13446960D01*
X15041491Y-13446960D02*
X15051015Y-13437436D01*
X15051015Y-13437436D02*
X15051015Y-13456484D01*
X15184348Y-13256484D02*
X15203396Y-13256484D01*
X15203396Y-13256484D02*
X15222444Y-13266008D01*
X15222444Y-13266008D02*
X15231967Y-13275531D01*
X15231967Y-13275531D02*
X15241491Y-13294579D01*
X15241491Y-13294579D02*
X15251015Y-13332674D01*
X15251015Y-13332674D02*
X15251015Y-13380293D01*
X15251015Y-13380293D02*
X15241491Y-13418388D01*
X15241491Y-13418388D02*
X15231967Y-13437436D01*
X15231967Y-13437436D02*
X15222444Y-13446960D01*
X15222444Y-13446960D02*
X15203396Y-13456484D01*
X15203396Y-13456484D02*
X15184348Y-13456484D01*
X15184348Y-13456484D02*
X15165301Y-13446960D01*
X15165301Y-13446960D02*
X15155777Y-13437436D01*
X15155777Y-13437436D02*
X15146253Y-13418388D01*
X15146253Y-13418388D02*
X15136729Y-13380293D01*
X15136729Y-13380293D02*
X15136729Y-13332674D01*
X15136729Y-13332674D02*
X15146253Y-13294579D01*
X15146253Y-13294579D02*
X15155777Y-13275531D01*
X15155777Y-13275531D02*
X15165301Y-13266008D01*
X15165301Y-13266008D02*
X15184348Y-13256484D01*
X15317682Y-13256484D02*
X15441491Y-13256484D01*
X15441491Y-13256484D02*
X15374825Y-13332674D01*
X15374825Y-13332674D02*
X15403396Y-13332674D01*
X15403396Y-13332674D02*
X15422444Y-13342198D01*
X15422444Y-13342198D02*
X15431967Y-13351722D01*
X15431967Y-13351722D02*
X15441491Y-13370769D01*
X15441491Y-13370769D02*
X15441491Y-13418388D01*
X15441491Y-13418388D02*
X15431967Y-13437436D01*
X15431967Y-13437436D02*
X15422444Y-13446960D01*
X15422444Y-13446960D02*
X15403396Y-13456484D01*
X15403396Y-13456484D02*
X15346253Y-13456484D01*
X15346253Y-13456484D02*
X15327206Y-13446960D01*
X15327206Y-13446960D02*
X15317682Y-13437436D01*
X15536729Y-13456484D02*
X15574825Y-13456484D01*
X15574825Y-13456484D02*
X15593872Y-13446960D01*
X15593872Y-13446960D02*
X15603396Y-13437436D01*
X15603396Y-13437436D02*
X15622444Y-13408865D01*
X15622444Y-13408865D02*
X15631967Y-13370769D01*
X15631967Y-13370769D02*
X15631967Y-13294579D01*
X15631967Y-13294579D02*
X15622444Y-13275531D01*
X15622444Y-13275531D02*
X15612920Y-13266008D01*
X15612920Y-13266008D02*
X15593872Y-13256484D01*
X15593872Y-13256484D02*
X15555777Y-13256484D01*
X15555777Y-13256484D02*
X15536729Y-13266008D01*
X15536729Y-13266008D02*
X15527206Y-13275531D01*
X15527206Y-13275531D02*
X15517682Y-13294579D01*
X15517682Y-13294579D02*
X15517682Y-13342198D01*
X15517682Y-13342198D02*
X15527206Y-13361246D01*
X15527206Y-13361246D02*
X15536729Y-13370769D01*
X15536729Y-13370769D02*
X15555777Y-13380293D01*
X15555777Y-13380293D02*
X15593872Y-13380293D01*
X15593872Y-13380293D02*
X15612920Y-13370769D01*
X15612920Y-13370769D02*
X15622444Y-13361246D01*
X15622444Y-13361246D02*
X15631967Y-13342198D01*
X15803396Y-13323150D02*
X15803396Y-13456484D01*
X15755777Y-13246960D02*
X15708158Y-13389817D01*
X15708158Y-13389817D02*
X15831967Y-13389817D01*
X15898634Y-13256484D02*
X15898634Y-13294579D01*
X15974825Y-13256484D02*
X15974825Y-13294579D01*
X16270063Y-13532674D02*
X16260539Y-13523150D01*
X16260539Y-13523150D02*
X16241491Y-13494579D01*
X16241491Y-13494579D02*
X16231968Y-13475531D01*
X16231968Y-13475531D02*
X16222444Y-13446960D01*
X16222444Y-13446960D02*
X16212920Y-13399341D01*
X16212920Y-13399341D02*
X16212920Y-13361246D01*
X16212920Y-13361246D02*
X16222444Y-13313627D01*
X16222444Y-13313627D02*
X16231968Y-13285055D01*
X16231968Y-13285055D02*
X16241491Y-13266008D01*
X16241491Y-13266008D02*
X16260539Y-13237436D01*
X16260539Y-13237436D02*
X16270063Y-13227912D01*
X16431968Y-13323150D02*
X16431968Y-13456484D01*
X16384348Y-13246960D02*
X16336729Y-13389817D01*
X16336729Y-13389817D02*
X16460539Y-13389817D01*
X16574825Y-13256484D02*
X16593872Y-13256484D01*
X16593872Y-13256484D02*
X16612920Y-13266008D01*
X16612920Y-13266008D02*
X16622444Y-13275531D01*
X16622444Y-13275531D02*
X16631968Y-13294579D01*
X16631968Y-13294579D02*
X16641491Y-13332674D01*
X16641491Y-13332674D02*
X16641491Y-13380293D01*
X16641491Y-13380293D02*
X16631968Y-13418388D01*
X16631968Y-13418388D02*
X16622444Y-13437436D01*
X16622444Y-13437436D02*
X16612920Y-13446960D01*
X16612920Y-13446960D02*
X16593872Y-13456484D01*
X16593872Y-13456484D02*
X16574825Y-13456484D01*
X16574825Y-13456484D02*
X16555777Y-13446960D01*
X16555777Y-13446960D02*
X16546253Y-13437436D01*
X16546253Y-13437436D02*
X16536729Y-13418388D01*
X16536729Y-13418388D02*
X16527206Y-13380293D01*
X16527206Y-13380293D02*
X16527206Y-13332674D01*
X16527206Y-13332674D02*
X16536729Y-13294579D01*
X16536729Y-13294579D02*
X16546253Y-13275531D01*
X16546253Y-13275531D02*
X16555777Y-13266008D01*
X16555777Y-13266008D02*
X16574825Y-13256484D01*
X16879587Y-13456484D02*
X16879587Y-13256484D01*
X16965301Y-13456484D02*
X16965301Y-13351722D01*
X16965301Y-13351722D02*
X16955777Y-13332674D01*
X16955777Y-13332674D02*
X16936730Y-13323150D01*
X16936730Y-13323150D02*
X16908158Y-13323150D01*
X16908158Y-13323150D02*
X16889111Y-13332674D01*
X16889111Y-13332674D02*
X16879587Y-13342198D01*
X17089111Y-13456484D02*
X17070063Y-13446960D01*
X17070063Y-13446960D02*
X17060539Y-13437436D01*
X17060539Y-13437436D02*
X17051015Y-13418388D01*
X17051015Y-13418388D02*
X17051015Y-13361246D01*
X17051015Y-13361246D02*
X17060539Y-13342198D01*
X17060539Y-13342198D02*
X17070063Y-13332674D01*
X17070063Y-13332674D02*
X17089111Y-13323150D01*
X17089111Y-13323150D02*
X17117682Y-13323150D01*
X17117682Y-13323150D02*
X17136730Y-13332674D01*
X17136730Y-13332674D02*
X17146253Y-13342198D01*
X17146253Y-13342198D02*
X17155777Y-13361246D01*
X17155777Y-13361246D02*
X17155777Y-13418388D01*
X17155777Y-13418388D02*
X17146253Y-13437436D01*
X17146253Y-13437436D02*
X17136730Y-13446960D01*
X17136730Y-13446960D02*
X17117682Y-13456484D01*
X17117682Y-13456484D02*
X17089111Y-13456484D01*
X17270063Y-13456484D02*
X17251015Y-13446960D01*
X17251015Y-13446960D02*
X17241492Y-13427912D01*
X17241492Y-13427912D02*
X17241492Y-13256484D01*
X17422444Y-13446960D02*
X17403396Y-13456484D01*
X17403396Y-13456484D02*
X17365301Y-13456484D01*
X17365301Y-13456484D02*
X17346253Y-13446960D01*
X17346253Y-13446960D02*
X17336730Y-13427912D01*
X17336730Y-13427912D02*
X17336730Y-13351722D01*
X17336730Y-13351722D02*
X17346253Y-13332674D01*
X17346253Y-13332674D02*
X17365301Y-13323150D01*
X17365301Y-13323150D02*
X17403396Y-13323150D01*
X17403396Y-13323150D02*
X17422444Y-13332674D01*
X17422444Y-13332674D02*
X17431968Y-13351722D01*
X17431968Y-13351722D02*
X17431968Y-13370769D01*
X17431968Y-13370769D02*
X17336730Y-13389817D01*
X17508158Y-13446960D02*
X17527206Y-13456484D01*
X17527206Y-13456484D02*
X17565301Y-13456484D01*
X17565301Y-13456484D02*
X17584349Y-13446960D01*
X17584349Y-13446960D02*
X17593873Y-13427912D01*
X17593873Y-13427912D02*
X17593873Y-13418388D01*
X17593873Y-13418388D02*
X17584349Y-13399341D01*
X17584349Y-13399341D02*
X17565301Y-13389817D01*
X17565301Y-13389817D02*
X17536730Y-13389817D01*
X17536730Y-13389817D02*
X17517682Y-13380293D01*
X17517682Y-13380293D02*
X17508158Y-13361246D01*
X17508158Y-13361246D02*
X17508158Y-13351722D01*
X17508158Y-13351722D02*
X17517682Y-13332674D01*
X17517682Y-13332674D02*
X17536730Y-13323150D01*
X17536730Y-13323150D02*
X17565301Y-13323150D01*
X17565301Y-13323150D02*
X17584349Y-13332674D01*
X17660539Y-13532674D02*
X17670063Y-13523150D01*
X17670063Y-13523150D02*
X17689111Y-13494579D01*
X17689111Y-13494579D02*
X17698634Y-13475531D01*
X17698634Y-13475531D02*
X17708158Y-13446960D01*
X17708158Y-13446960D02*
X17717682Y-13399341D01*
X17717682Y-13399341D02*
X17717682Y-13361246D01*
X17717682Y-13361246D02*
X17708158Y-13313627D01*
X17708158Y-13313627D02*
X17698634Y-13285055D01*
X17698634Y-13285055D02*
X17689111Y-13266008D01*
X17689111Y-13266008D02*
X17670063Y-13237436D01*
X17670063Y-13237436D02*
X17660539Y-13227912D01*
M02*
