M48
; DRILL file {KiCad 8.0.4-8.0.4-0~ubuntu24.04.1} date 2024-07-31T18:59:32-0400
; FORMAT={-:-/ absolute / inch / decimal}
; #@! TF.CreationDate,2024-07-31T18:59:32-04:00
; #@! TF.GenerationSoftware,Kicad,Pcbnew,8.0.4-8.0.4-0~ubuntu24.04.1
; #@! TF.FileFunction,Plated,1,4,PTH
FMAT,2
INCH
; #@! TA.AperFunction,Plated,PTH,ViaDrill
T1C0.0120
; #@! TA.AperFunction,Plated,PTH,ComponentDrill
T2C0.0236
; #@! TA.AperFunction,Plated,PTH,ComponentDrill
T3C0.0394
%
G90
G05
T1
X5.3297Y-4.5353
X5.33Y-4.19
X5.33Y-4.305
X5.33Y-4.4945
X5.3748Y-4.252
X5.391Y-4.43
X5.453Y-4.425
X5.486Y-4.558
X5.497Y-4.627
X5.5348Y-4.2028
X5.572Y-4.5202
X5.573Y-4.208
X5.573Y-4.56
X5.68Y-4.384
X5.729Y-4.394
X5.795Y-4.165
X5.795Y-4.528
X5.821Y-4.4634
X5.835Y-4.295
X5.882Y-4.165
X5.9439Y-4.192
X5.952Y-4.49
X5.955Y-4.603
X5.957Y-4.564
X5.9671Y-4.3452
X6.035Y-4.49
X6.044Y-4.287
X6.0444Y-4.4561
X6.08Y-4.672
X6.156Y-4.182
X6.1577Y-4.136
X6.17Y-4.345
X6.17Y-4.455
X6.1791Y-4.2041
X6.1881Y-4.15
X6.2093Y-4.2145
X6.2165Y-4.5722
X6.223Y-4.669
X6.225Y-4.4
X6.2429Y-4.151
X6.2549Y-4.2316
X6.28Y-4.345
X6.28Y-4.455
X6.291Y-4.586
X6.2981Y-4.1384
X6.317Y-4.644
X6.33Y-4.136
X6.36Y-4.147
X6.36Y-4.234
X6.473Y-4.585
X6.5Y-4.3
X6.548Y-4.189
X6.587Y-4.217
X6.595Y-4.505
X6.6245Y-4.2295
X6.627Y-4.505
X6.6819Y-4.305
X6.6819Y-4.6151
X6.739Y-4.616
X6.777Y-4.255
X6.78Y-4.449
X6.87Y-4.299
T3
X5.05Y-4.05
X5.05Y-4.75
X5.15Y-4.05
X5.15Y-4.75
X5.25Y-4.05
X5.25Y-4.75
X5.35Y-4.05
X5.35Y-4.75
X5.45Y-4.05
X5.45Y-4.75
X5.55Y-4.05
X5.55Y-4.75
X5.65Y-4.05
X5.65Y-4.75
X5.75Y-4.05
X5.75Y-4.75
X5.85Y-4.05
X5.85Y-4.75
X5.95Y-4.05
X5.95Y-4.75
X6.05Y-4.05
X6.05Y-4.75
X6.15Y-4.05
X6.15Y-4.75
X6.25Y-4.05
X6.25Y-4.75
X6.35Y-4.05
X6.35Y-4.75
X6.45Y-4.05
X6.45Y-4.75
X6.55Y-4.05
X6.55Y-4.75
X6.65Y-4.05
X6.65Y-4.75
X6.75Y-4.05
X6.75Y-4.75
X6.85Y-4.05
X6.85Y-4.75
X6.95Y-4.05
X6.95Y-4.75
T2
G00X5.1207Y-4.2299
M15
G01X5.0893Y-4.2299
M16
G05
G00X5.1207Y-4.5701
M15
G01X5.0893Y-4.5701
M16
G05
G00X5.2912Y-4.2299
M15
G01X5.2479Y-4.2299
M16
G05
G00X5.2912Y-4.5701
M15
G01X5.2479Y-4.5701
M16
G05
M30
